<svg width="116" height="63" viewBox="0 0 116 63" fill="none" xmlns="http://www.w3.org/2000/svg">
<g clip-path="url(#clip0_75_7434)">
<path fill-rule="evenodd" clip-rule="evenodd" d="M61.0146 31.6364C61.0146 46.1199 51.0218 58.6208 36.8682 61.4973C20.1253 64.9361 4.69319 54.0227 1.35248 38.2502C-0.843234 27.8335 1.71248 18.5414 8.88819 10.7373C13.6053 5.57836 19.5025 2.53603 26.3503 1.51159C31.7568 0.684684 37.0318 1.34578 42.1103 3.36294C42.4703 3.52875 42.831 3.69385 42.9946 4.09108C43.1589 4.52075 43.0932 4.95043 42.7653 5.28061C42.4046 5.61224 42.0118 5.71101 41.5532 5.51275C40.046 4.8841 38.506 4.35494 36.9003 4.02475C26.6132 2.00759 17.7668 4.68585 10.4603 12.2578C6.16819 16.7571 3.67891 22.1792 3.02319 28.3302C2.10605 36.928 4.53034 44.5007 10.3296 50.8831C14.6868 55.6448 20.0932 58.5876 26.4489 59.5472C35.426 60.8694 43.3553 58.4225 50.0389 52.1721C54.8218 47.6756 57.6396 42.1201 58.5575 35.6051C59.311 30.3474 58.5903 25.2886 56.526 20.3935C56.4603 20.2615 56.3946 20.1628 56.3618 20.0301C56.1332 19.4022 56.3618 18.8067 56.9189 18.5753C57.476 18.3107 58.0989 18.5421 58.361 19.1376C58.9832 20.5261 59.5075 21.9485 59.9003 23.4365C60.6539 26.0823 61.0146 28.8594 61.0146 31.6371" fill="#212429"/>
<path fill-rule="evenodd" clip-rule="evenodd" d="M51.0215 17.946C47.0901 17.946 44.043 14.8381 44.043 10.8369C44.043 6.93455 47.188 3.79346 51.0215 3.79346C54.9201 3.79346 58.0658 6.96771 58.033 10.9026C58.0658 14.8049 54.953 17.946 51.0215 17.946Z" fill="#212429"/>
<path d="M24.4502 31.603V24.956C24.4502 24.5927 24.5488 24.4932 24.9088 24.4932C26.9402 24.5263 28.9716 24.4607 30.9702 24.5263C32.7066 24.5595 34.1488 25.155 34.9345 26.8412C35.3609 27.7013 35.4259 28.627 35.0988 29.5527C34.9673 29.9167 35.033 30.0162 35.393 30.115C37.0316 30.5447 38.1452 31.5374 38.5388 33.2568C39.128 36.0014 37.1623 38.6796 34.3773 38.746C31.1666 38.8454 27.9888 38.7791 24.7773 38.7791C24.4173 38.7791 24.4502 38.5809 24.4831 38.3494C24.4502 36.1001 24.4502 33.8516 24.4502 31.603ZM31.1666 35.3396H33.8209C34.443 35.3396 34.8366 34.943 34.8695 34.3807C34.9016 33.7528 34.5745 33.29 33.9845 33.1905C33.788 33.1573 33.6245 33.1573 33.4273 33.1573H29.9545C29.3973 33.1573 28.6116 32.8927 28.3166 33.2568C28.0216 33.6201 28.2509 34.3814 28.2181 34.943C28.1852 35.274 28.3166 35.3396 28.6109 35.3396H31.1666ZM29.4959 29.8504H30.6102C31.1673 29.8172 31.5931 29.3876 31.5602 28.8584C31.5273 28.2961 31.1673 27.9659 30.5773 27.9659C29.9545 27.9659 29.3652 27.999 28.7423 27.9659C28.3166 27.9327 28.1523 28.0315 28.2181 28.495C28.2509 28.9247 28.0873 29.5202 28.3166 29.7841C28.5452 30.0487 29.1352 29.7841 29.4959 29.8504Z" fill="#212429"/>
<path fill-rule="evenodd" clip-rule="evenodd" d="M49.2521 38.7796H43.945C41.5857 38.7796 39.8164 36.9938 39.8164 34.6126V25.0228C39.8164 24.6594 39.8814 24.5268 40.275 24.5268C41.1921 24.5598 42.11 24.5598 43.0271 24.5268C43.4528 24.5268 43.5843 24.5931 43.5843 25.0559C43.5514 28.1646 43.5843 31.2732 43.5843 34.3812C43.5843 35.1418 43.715 35.3076 44.4686 35.3076H49.0557C49.4814 35.3076 49.6128 35.2081 49.6128 34.7784C49.58 31.5378 49.6128 28.3297 49.58 25.0891C49.58 24.5931 49.7107 24.4936 50.1693 24.5268C51.0871 24.5599 51.9714 24.5599 52.8886 24.5268C53.2814 24.5268 53.4128 24.5931 53.4128 25.0228C53.38 28.2634 53.4128 31.5039 53.38 34.7784C53.38 35.2412 53.5114 35.3732 53.9371 35.3407C54.2978 35.3076 54.6586 35.3407 55.0185 35.3407C55.2807 35.3076 55.3464 35.4395 55.3464 35.7041C55.3464 36.6298 55.3136 37.523 55.3464 38.4487C55.3464 38.7796 55.2478 38.8452 54.9536 38.8452C53.02 38.7464 51.12 38.7796 49.2521 38.7796Z" fill="#212429"/>
<path d="M6.33203 38.7792C7.24917 36.5962 8.10132 34.5135 8.9856 32.43C9.70703 30.7105 10.427 28.958 11.1477 27.2385C11.8363 25.5516 13.212 24.5596 14.8835 24.5596C16.587 24.5596 17.9627 25.5184 18.6506 27.2054C20.2235 31.0407 21.7963 34.91 23.4013 38.8124H20.617C19.5027 38.8124 19.5027 38.8124 19.0442 37.754C18.6185 36.7289 18.6185 36.7289 17.537 36.7289H11.4427C11.1477 36.7289 10.9842 36.8284 10.8856 37.1254C10.6892 37.6877 10.5913 38.4159 10.1649 38.746C9.73917 39.0769 8.98632 38.8455 8.36346 38.8455C7.77346 38.7792 7.08489 38.7792 6.33203 38.7792ZM12.4585 33.3888H16.8813C17.0785 33.3888 17.2742 33.422 17.1435 33.0911C16.5213 31.4711 15.9313 29.8836 15.3092 28.263C15.2435 28.0647 15.1127 27.9328 14.9163 27.9328C14.7192 27.9328 14.6213 28.0647 14.5556 28.2305C13.8253 29.9369 13.1262 31.6566 12.4585 33.3888Z" fill="#212429"/>
<path fill-rule="evenodd" clip-rule="evenodd" d="M90.7965 25.9489C90.338 26.4781 89.8787 27.0065 89.4537 27.5689C89.1908 27.9654 88.8308 27.8335 88.503 27.8335C88.3387 27.8335 88.3723 27.6676 88.3723 27.5689V24.8575C88.3723 24.4278 88.6665 24.5597 88.8637 24.5597C89.0601 24.5597 89.3223 24.4934 89.2894 24.8575C89.2576 25.3887 89.2905 25.9218 89.3873 26.4449C89.8137 25.9158 90.3051 25.3866 90.698 24.8243C90.993 24.4278 91.3537 24.5265 91.7137 24.5265C91.878 24.5265 91.8451 24.6592 91.8451 24.758V27.602C91.8451 27.9985 91.5501 27.8335 91.3858 27.8666C91.1894 27.8998 90.9272 27.9329 90.9601 27.5689C90.993 27.0397 90.9601 26.5105 90.9601 26.0145C90.8622 25.9489 90.8294 25.9489 90.7958 25.9489H90.7965ZM73.0058 35.3729C73.3665 35.3729 73.7273 35.4061 74.0873 35.3729C74.4144 35.3398 74.5458 35.4393 74.5458 35.8033C74.5458 36.1667 74.4144 36.233 74.0873 36.1998C73.5958 36.1667 73.1372 36.1998 72.6451 36.1998C72.4815 36.1998 72.3508 36.1998 72.3508 36.4313C72.3508 36.6627 72.5144 36.5971 72.6451 36.6295C73.0715 36.6295 73.4973 36.6627 73.9237 36.6295C74.3165 36.5964 74.2837 36.8285 74.3165 37.0924C74.3494 37.4564 74.1851 37.4889 73.9237 37.4564C73.5857 37.4233 73.2453 37.4233 72.9073 37.4564C72.7437 37.4896 72.4158 37.2906 72.383 37.6547C72.383 38.0512 72.7437 37.8861 72.9401 37.8861C73.3665 37.9193 73.8251 37.9193 74.2508 37.8861C74.6115 37.8529 74.6115 38.0851 74.6115 38.3497C74.6115 38.6467 74.5787 38.7793 74.2187 38.7793C73.5958 38.7462 73.0058 38.7793 72.383 38.7793C71.7608 38.7793 71.4658 38.4816 71.4658 37.8529V35.737C71.4658 35.4393 71.5644 35.3729 71.8265 35.4061C72.2194 35.3729 72.6123 35.3729 73.0058 35.3729ZM93.3522 29.9501H94.433C94.728 29.9501 94.8915 29.9833 94.8915 30.3466C94.8915 30.7431 94.7608 30.8095 94.433 30.777C94.0076 30.7439 93.5804 30.7439 93.1551 30.777C92.9915 30.777 92.7294 30.6444 92.7623 30.9753C92.7623 31.3055 93.0244 31.1411 93.188 31.1735C93.5587 31.2066 93.9315 31.2066 94.3022 31.1735C94.6623 31.1404 94.6623 31.3393 94.6951 31.6032C94.6951 31.9009 94.6294 32.0336 94.3022 31.9997C93.8758 31.9673 93.4501 31.9997 93.0237 31.9997C92.8608 31.9997 92.7623 31.9997 92.7623 32.1987C92.7623 32.3969 92.8608 32.4301 93.0244 32.4301C93.5815 32.4301 94.1058 32.4633 94.6622 32.4301C94.9901 32.4301 95.023 32.562 94.9901 32.8266C94.9572 33.058 95.0558 33.3226 94.6622 33.2902C94.0072 33.257 93.3844 33.2902 92.7294 33.2902C92.1723 33.2902 91.8773 32.9585 91.8773 32.4301V30.2803C91.8773 30.0164 91.9758 29.9501 92.2058 29.9501H93.3522ZM110.291 31.2067C109.734 31.8678 109.242 32.4301 108.817 33.0256C108.554 33.4221 108.194 33.2563 107.834 33.2902C107.669 33.2902 107.702 33.1575 107.702 33.058V30.2147C107.702 29.8182 107.964 29.9501 108.161 29.9501C108.358 29.9501 108.62 29.8838 108.62 30.2478C108.587 30.777 108.62 31.3055 108.62 31.9997C109.177 31.3386 109.635 30.777 110.094 30.2147C110.225 30.082 110.323 29.9501 110.553 29.9169C111.175 29.8838 111.175 29.8838 111.175 30.4793C111.175 31.2723 111.142 32.0992 111.175 32.8929C111.208 33.3226 110.947 33.2238 110.684 33.257C110.389 33.2902 110.258 33.2238 110.291 32.8605C110.324 32.3969 110.291 31.9017 110.291 31.2067Z" fill="#212429"/>
<path d="M91.4508 37.0596V35.7375C91.4508 35.4729 91.5494 35.3734 91.8115 35.4065C92.2372 35.4397 92.6958 35.4065 93.1222 35.4729C93.7115 35.5392 93.9737 35.8694 93.9408 36.4649C93.9408 36.6631 93.9737 36.7295 94.1372 36.7958C94.6287 36.994 94.793 37.4237 94.7272 37.9204C94.6615 38.3825 94.2358 38.7466 93.7115 38.7798C93.0565 38.8129 92.4008 38.7798 91.713 38.7798C91.4844 38.7798 91.418 38.6803 91.418 38.482C91.4837 37.986 91.4508 37.5232 91.4508 37.0604V37.0596ZM93.0565 37.9529C93.3187 37.8209 93.8422 38.1511 93.8422 37.6551C93.8422 37.2586 93.3515 37.4244 93.0894 37.4569C92.8601 37.49 92.368 37.1591 92.4008 37.6883C92.3687 38.1511 92.8272 37.7878 93.0565 37.9529ZM92.6958 36.63C92.8601 36.5968 93.0887 36.6963 93.0887 36.4317C93.0887 36.2003 92.8601 36.2003 92.6958 36.2003C92.5315 36.2003 92.3358 36.1671 92.3687 36.4317C92.3687 36.6963 92.5651 36.5975 92.6958 36.63Z" fill="#212429"/>
<path fill-rule="evenodd" clip-rule="evenodd" d="M69.3357 38.7463H68.0585C67.5343 38.7131 67.2721 38.4154 67.2393 37.8862C67.2393 37.192 67.2721 36.4977 67.2393 35.8359C67.2393 35.5057 67.305 35.373 67.665 35.373C67.9928 35.373 68.1564 35.4394 68.1243 35.8359C68.0914 36.4314 68.1243 36.9937 68.1243 37.5892C68.1243 37.853 68.1893 37.9525 68.4514 37.9525C69.5657 37.9857 69.5657 38.0189 69.5657 36.8942C69.5657 36.564 69.5985 36.2331 69.5657 35.9022C69.5 35.4394 69.73 35.373 70.1228 35.373C70.45 35.373 70.5157 35.4725 70.5157 35.8034C70.4828 36.3982 70.5157 36.993 70.5157 37.5892C70.5157 37.7211 70.45 37.9194 70.7121 37.9194C71.0071 37.9194 70.9414 38.0852 70.9414 38.2503C70.9743 38.6136 70.9085 38.8126 70.4828 38.7463C70.1228 38.7131 69.7293 38.7463 69.3364 38.7463" fill="#212429"/>
<path d="M67.2393 31.6364V30.2479C67.2393 30.0821 67.2393 29.9502 67.4685 29.9502C67.96 29.9502 68.4514 29.9834 68.9428 29.9834C69.205 29.9834 69.5328 30.1153 69.5657 30.3467C69.6964 30.9422 70.09 31.3387 70.4171 31.8015C70.8435 32.397 70.3193 33.2239 69.5657 33.2903C68.8771 33.3559 68.1893 33.2903 67.4685 33.3227C67.2393 33.3227 67.2393 33.2239 67.2393 33.0257V31.6364ZM68.8121 32.4634H69.3035C69.4678 32.4634 69.6307 32.397 69.6307 32.1988C69.6307 32.0005 69.4671 31.9674 69.3035 31.9674H68.3535C68.1564 31.9674 68.1243 32.0661 68.1243 32.2319C68.1243 32.3978 68.1893 32.4965 68.3528 32.4626H68.8121V32.4634ZM68.4514 31.1736C68.6157 31.1736 68.8443 31.2068 68.8443 30.9754C68.8771 30.7439 68.6478 30.7439 68.4843 30.7439C68.32 30.7439 68.1243 30.6776 68.1243 30.9422C68.1243 31.2068 68.3207 31.1736 68.4514 31.1736Z" fill="#212429"/>
<path fill-rule="evenodd" clip-rule="evenodd" d="M99.0526 27.834H97.774C97.2833 27.834 97.0211 27.5362 96.9883 27.0734V24.7917C96.9883 24.4283 97.1847 24.4939 97.3811 24.5271C97.5783 24.5602 97.9054 24.362 97.9054 24.7917V26.6437C97.9054 26.9415 98.004 27.0071 98.2983 27.0071C99.3797 27.0071 99.3797 27.0402 99.3797 25.9163C99.3797 25.6186 99.4126 25.3208 99.3797 25.0562C99.3147 24.5934 99.4783 24.4615 99.9369 24.4939C100.232 24.5271 100.363 24.5934 100.33 24.8904C100.298 25.4203 100.33 25.9495 100.33 26.4786C100.33 26.7093 100.199 26.9746 100.658 27.0071C100.887 27.0402 100.723 27.4375 100.756 27.6357C100.756 27.8671 100.56 27.7677 100.461 27.7677C99.9368 27.834 99.4783 27.834 99.0526 27.834ZM103.77 25.7844C103.213 26.4786 102.755 27.0071 102.296 27.5694C102.001 27.9335 101.64 27.8008 101.313 27.8008C101.149 27.8008 101.215 27.6026 101.215 27.5038V24.8248C101.215 24.4283 101.444 24.4939 101.673 24.4939C101.903 24.4939 102.165 24.4283 102.132 24.8255C102.1 25.354 102.132 25.8831 102.132 26.5442C102.656 25.9163 103.148 25.3871 103.541 24.8248C103.836 24.4283 104.163 24.4939 104.524 24.4939C104.72 24.4939 104.688 24.6266 104.688 24.7585V27.5362C104.688 27.9003 104.458 27.834 104.295 27.8008C104.098 27.7677 103.77 27.9666 103.77 27.5362V25.7844Z" fill="#212429"/>
<path d="M105.441 27.8006C105.507 27.6355 105.572 27.536 105.637 27.4372C105.867 27.1395 105.9 26.9412 105.572 26.5771C104.917 25.8497 105.441 24.6263 106.424 24.5268C107.08 24.4612 107.735 24.5268 108.422 24.4937C108.652 24.4937 108.652 24.5931 108.652 24.7914V27.536C108.652 27.8676 108.488 27.9 108.292 27.8337C108.095 27.8006 107.735 28.032 107.735 27.536C107.735 27.404 107.833 27.1395 107.57 27.1395C107.276 27.1395 106.915 26.9412 106.686 27.3053C106.293 27.8676 106.293 27.8676 105.441 27.8006ZM107.08 25.3537H106.719C106.391 25.3537 106.195 25.5195 106.195 25.8497C106.195 26.1475 106.391 26.3126 106.686 26.3126H107.44C107.669 26.3126 107.702 26.2462 107.735 26.0148C107.767 25.3206 107.8 25.3206 107.08 25.3537Z" fill="#212429"/>
<path fill-rule="evenodd" clip-rule="evenodd" d="M75.3321 37.0594C75.3321 36.6297 75.3649 36.1669 75.3321 35.7372C75.2992 35.3407 75.5285 35.3731 75.7578 35.3731C75.9871 35.3731 76.2163 35.3075 76.2163 35.704C76.2492 36.5965 76.2492 36.5965 77.1013 36.5965C77.7563 36.5965 77.7563 36.5965 77.7892 35.9354C77.7892 35.4063 78.0178 35.2412 78.5428 35.3731C78.7392 35.4394 78.7071 35.5721 78.7071 35.704V38.4155C78.7071 38.8783 78.4113 38.7132 78.1821 38.7464C77.9199 38.7795 77.7892 38.7464 77.7892 38.4155C77.7892 37.4235 77.7563 37.4566 76.7735 37.4235C76.3149 37.3903 76.1506 37.5561 76.2163 38.0189C76.2492 38.1509 76.2163 38.2835 76.2163 38.4155C76.2492 38.812 75.9878 38.7464 75.7578 38.7464C75.5285 38.7464 75.2663 38.7795 75.3321 38.4155V37.0594ZM78.8706 31.6034C78.8706 32.0662 78.8378 32.5298 78.8706 32.9926C78.9028 33.4223 78.6085 33.2904 78.3785 33.2904C78.1821 33.2904 77.9528 33.356 77.9528 32.9926C77.9856 32.3971 77.9528 31.8016 77.9528 31.1737C77.9528 30.9754 77.9856 30.7109 77.6906 30.7772C77.3956 30.8428 76.9699 30.5126 76.8721 31.0742C76.7735 31.5378 76.7078 31.9674 76.6099 32.4303C76.5113 32.9594 76.1835 33.2233 75.6599 33.2572C75.1349 33.2904 74.9713 33.0914 75.1028 32.5954C75.1349 32.4966 75.1678 32.4303 75.2663 32.4634C75.7249 32.5622 75.7578 32.1989 75.7906 31.9011C75.8563 31.4714 75.9549 31.0742 76.0192 30.6445C76.0856 30.2149 76.3478 29.9503 76.7735 29.9503C77.3635 29.9171 77.9528 29.9503 78.5756 29.9503C78.8042 29.9503 78.8706 30.0822 78.8378 30.2805C78.8706 30.7109 78.8706 31.1405 78.8706 31.6034Z" fill="#212429"/>
<path d="M83.424 26.1803C83.424 27.1723 82.6054 27.9322 81.5568 27.9322C80.5411 27.9322 79.7218 27.1392 79.7218 26.1803C79.7218 25.1883 80.5082 24.4277 81.5897 24.4277C82.6375 24.4277 83.424 25.1883 83.424 26.1796V26.1803ZM82.5068 26.1472C82.5068 25.5848 82.114 25.1883 81.5568 25.1883C80.9997 25.1883 80.639 25.5848 80.639 26.1472C80.639 26.7426 80.9997 27.1392 81.5568 27.1392C82.1461 27.1392 82.5068 26.7426 82.5068 26.1472ZM81.4254 29.8837C82.474 29.8837 83.2932 30.6768 83.2604 31.6695C83.2275 32.6283 82.4082 33.3889 81.3925 33.3889C80.3447 33.3889 79.5254 32.5959 79.5254 31.6032C79.5254 30.6112 80.3447 29.8513 81.4254 29.8837ZM80.4425 31.6032C80.4425 32.1655 80.8354 32.5952 81.3925 32.562C81.9497 32.562 82.3425 32.1655 82.3425 31.57C82.3425 31.0408 81.9168 30.6112 81.4254 30.6112C80.8682 30.6112 80.4425 31.0408 80.4425 31.6032ZM95.6447 31.5044C95.6775 31.0408 95.4161 30.3134 95.7433 30.0164C96.0383 29.7518 96.759 29.9501 97.2833 29.9501C97.5118 29.9501 97.7418 29.9501 97.9383 29.9832C98.6261 30.1152 98.9868 30.6112 98.954 31.3717C98.9211 32.0004 98.4954 32.4964 97.8397 32.562C97.6008 32.595 97.3586 32.595 97.1197 32.562C96.759 32.5295 96.464 32.5295 96.5297 33.0912C96.5625 33.4877 96.169 33.257 95.9725 33.2901C95.8083 33.3226 95.6447 33.3226 95.6447 33.058C95.6775 32.8273 95.6447 32.562 95.6447 32.3306V31.5044ZM97.1847 31.7351H97.5454C97.8404 31.7351 98.0368 31.6032 98.0697 31.3054C98.1025 30.9752 97.8733 30.8094 97.5783 30.777C97.3161 30.7438 97.054 30.777 96.8247 30.777C96.6275 30.777 96.5625 30.8757 96.5625 31.0408C96.464 31.7358 96.464 31.7358 97.1847 31.7358V31.7351Z" fill="#212429"/>
<path fill-rule="evenodd" clip-rule="evenodd" d="M83.9162 31.6366C83.9162 31.1737 83.949 30.7109 83.9162 30.2481C83.8833 29.8515 84.1783 29.9503 84.3755 29.9503C84.5719 29.9503 84.834 29.8177 84.834 30.2149C84.834 30.5126 84.7026 30.9092 84.899 31.0742C85.0962 31.2069 85.489 31.1074 85.784 31.1406C86.2755 31.2069 86.439 31.0411 86.374 30.5451C86.3412 30.2481 86.2426 29.884 86.7997 29.9172C87.1926 29.9503 87.2912 30.0166 87.2583 30.4132C87.2256 31.2505 87.2256 32.0889 87.2583 32.9263C87.2583 33.2904 87.094 33.3228 86.8326 33.2904C86.6033 33.2572 86.3412 33.3892 86.3412 32.9588C86.3412 31.9675 86.3083 31.9999 85.3255 31.9675C84.8669 31.9343 84.7026 32.0994 84.8012 32.5298C84.834 32.6617 84.8012 32.7605 84.8012 32.8932C84.8669 33.2897 84.6369 33.3228 84.3426 33.3228C84.0476 33.3228 83.8512 33.3228 83.8833 32.9263C83.949 32.4966 83.9162 32.0338 83.9162 31.6366Z" fill="#212429"/>
<path d="M90.7961 37.0595C90.7961 38.0522 90.0096 38.8128 88.9282 38.8128C87.8796 38.8128 87.0939 38.0846 87.0611 37.0926C87.0611 36.0682 87.8146 35.3076 88.8953 35.3076C89.9439 35.3076 90.7632 36.0682 90.7953 37.0595H90.7961ZM89.8782 37.0926C89.8782 36.5303 89.4853 36.1006 88.9282 36.1006C88.3711 36.1006 87.9453 36.531 87.9453 37.0926C87.9453 37.6218 88.3382 38.0515 88.8632 38.0515C89.4525 38.0515 89.8461 37.655 89.8782 37.0926ZM74.7418 31.6035C74.7418 32.5955 73.9225 33.3892 72.8746 33.3892C71.8261 33.3892 71.0389 32.6286 71.0389 31.6698C71.0389 30.6446 71.7932 29.8841 72.8746 29.8841C73.9553 29.8509 74.7418 30.6122 74.7418 31.6035ZM71.9568 31.6035C71.9568 32.199 72.3496 32.5955 72.9068 32.5955C73.4639 32.5955 73.8568 32.1658 73.8568 31.6035C73.8568 31.0743 73.4311 30.6446 72.9396 30.6446C72.3825 30.6115 71.9568 31.0412 71.9568 31.6035ZM67.2068 27.8676C67.6646 26.8417 68.0253 25.8829 68.4839 24.9572C68.8118 24.2954 69.8268 24.2954 70.1553 24.9897C70.5811 25.8829 70.9411 26.8425 71.3675 27.8013C70.9082 27.735 70.4175 28.032 70.1875 27.4041C70.1546 27.3377 69.9589 27.3377 69.8603 27.3377H68.7461C68.6153 27.3377 68.4511 27.3046 68.4182 27.4041C68.1896 28.0652 67.6646 27.735 67.2061 27.8669L67.2068 27.8676ZM69.8275 26.544C69.6632 26.1143 69.5653 25.6846 69.2703 25.2874C69.2046 25.4201 69.1389 25.5188 69.1061 25.5852C68.6803 26.6103 68.6803 26.6103 69.8275 26.544Z" fill="#212429"/>
<path fill-rule="evenodd" clip-rule="evenodd" d="M86.1765 27.8338H84.8986C84.4072 27.8338 84.1129 27.536 84.0801 27.0407V24.8246C84.0801 24.4612 84.2765 24.4937 84.5058 24.5268C84.7351 24.5268 84.9972 24.4281 84.9972 24.8578C84.9644 25.4532 84.9972 26.048 84.9972 26.6435C84.9972 26.9412 85.0958 27.0068 85.3579 27.04C86.4722 27.0732 86.4722 27.0732 86.4722 25.9824C86.4722 25.6847 86.5044 25.3869 86.4722 25.1223C86.4058 24.6595 86.5701 24.4937 87.0615 24.5268C87.3237 24.56 87.4215 24.6263 87.3887 24.8909C87.3565 25.4857 87.3887 26.048 87.3887 26.6428C87.3887 26.8418 87.3237 27.0068 87.6508 27.0732C87.9794 27.1063 87.7822 27.4697 87.8151 27.6687C87.8479 27.9332 87.6508 27.8669 87.5201 27.8669C87.0615 27.8338 86.6351 27.8338 86.1772 27.8338" fill="#212429"/>
<path d="M96.4643 27.8673C95.9728 27.7671 95.4814 28.0649 95.285 27.4701C95.2521 27.3706 95.1207 27.4038 94.99 27.4038H93.7121C93.6142 27.4038 93.45 27.437 93.45 27.4701C93.2535 28.1312 92.7621 27.7347 92.2707 27.8998C92.7293 26.8415 93.1228 25.8495 93.6135 24.9238C93.9742 24.262 94.9243 24.3615 95.2521 25.0557C95.6778 25.9158 96.0378 26.8415 96.4643 27.8673ZM94.4 25.254C94.1714 25.7175 93.9743 26.114 93.8757 26.5444H94.8914C94.7607 26.114 94.6293 25.7175 94.4 25.254ZM83.195 37.0268V36.9604C83.2607 36.4313 83.0643 35.8689 83.2935 35.3398C84.1778 35.3729 85.0628 35.1415 85.915 35.5388C86.4057 35.7695 86.57 36.2662 86.5364 36.7953C86.5043 37.3577 86.1764 37.7542 85.62 37.92C85.2271 38.0519 84.8335 38.0188 84.44 37.9856C84.1778 37.9856 84.0143 38.0188 84.08 38.3497C84.145 38.8457 83.785 38.6799 83.5557 38.713C83.2607 38.7462 83.1628 38.6467 83.195 38.3497C83.2278 37.9193 83.195 37.4896 83.195 37.0268ZM84.735 37.1926H85.0957C85.39 37.1926 85.6528 37.0599 85.62 36.729C85.62 36.3981 85.39 36.233 85.0957 36.233H84.3743C84.2107 36.233 84.1128 36.2662 84.08 36.4976C84.0471 37.1587 84.0471 37.1919 84.735 37.1919" fill="#212429"/>
<path fill-rule="evenodd" clip-rule="evenodd" d="M107.113 29.9837C107.047 30.0825 107.014 30.1488 106.949 30.2144C106.654 30.6448 106.163 31.0745 106.163 31.5049C106.163 31.9345 106.654 32.3642 106.916 32.7946C106.981 32.9265 107.08 33.0585 107.145 33.1911C106.359 33.4225 106.162 33.3569 105.769 32.6951C105.54 32.3642 105.474 31.8351 104.852 31.9345C104.623 31.9677 104.524 32.034 104.557 32.2655V32.662C104.557 33.3231 104.524 33.3562 103.869 33.2906C103.705 33.2575 103.639 33.2243 103.639 33.026V30.182C103.639 29.7523 103.968 29.9174 104.164 29.9174C104.361 29.8842 104.59 29.8511 104.556 30.2151C104.556 30.3471 104.524 30.4458 104.556 30.5785C104.59 30.7443 104.393 31.0413 104.721 31.0745C104.983 31.1076 105.311 31.2071 105.474 30.8438C105.507 30.7443 105.606 30.678 105.639 30.5785C105.933 29.9505 106.424 29.8179 107.113 29.9837ZM111.7 33.2575C111.994 32.7946 112.256 32.3311 112.584 31.9021C112.781 31.6368 112.748 31.4385 112.551 31.174C112.256 30.8099 112.027 30.4134 111.732 29.9837C112.518 29.686 112.911 30.1156 113.239 30.7111C113.534 31.2735 113.567 31.2403 113.927 30.7111C113.968 30.6734 114.001 30.6284 114.026 30.5785C114.288 29.9174 114.779 29.8179 115.434 29.9837C115.206 30.3139 115.009 30.678 114.746 30.9757C114.451 31.3391 114.386 31.6368 114.714 32.034C115.009 32.3974 115.205 32.7946 115.467 33.1911C114.616 33.3894 114.517 33.3569 114.059 32.5956C113.567 31.8351 113.534 31.8351 113.141 32.5956C112.846 33.2243 112.387 33.4225 111.699 33.2575H111.7ZM101.379 29.8842C101.969 29.8842 102.493 30.05 102.854 30.5453C102.919 30.6448 103.148 30.7775 102.919 30.9094C102.722 31.0089 102.559 31.2735 102.264 31.1408C102.198 31.1076 102.165 31.0089 102.099 30.975C101.674 30.6116 100.921 30.6448 100.592 31.0089C100.298 31.3391 100.298 31.9345 100.592 32.2979C100.953 32.6944 101.609 32.7283 102.067 32.3642C102.198 32.2655 102.231 32.034 102.526 32.1335C103.05 32.3642 103.116 32.53 102.69 32.9265C102.067 33.4889 101.346 33.522 100.593 33.2906C99.9043 33.0585 99.5443 32.53 99.4786 31.8351C99.4128 31.1408 99.675 30.5785 100.264 30.2151C100.579 29.9629 100.979 29.8443 101.379 29.8842ZM77.3957 24.4282C78.1171 24.4282 78.6407 24.5933 79.0343 25.0562C79.1321 25.1556 79.3943 25.3207 79.1 25.4527C78.9028 25.5522 78.7393 25.9494 78.4114 25.6185L78.2807 25.4858C77.855 25.1225 77.1336 25.1556 76.8064 25.5522C76.5114 25.9162 76.5114 26.4785 76.8064 26.8087C77.1664 27.2052 77.855 27.2391 78.2807 26.8751C78.4114 26.7756 78.445 26.5442 78.7064 26.6768C79.2636 26.9414 79.2964 27.0402 78.8378 27.4698C78.1821 28.0985 76.9043 28.0985 76.2164 27.5037C75.5614 26.9082 75.4307 25.8499 75.9878 25.1225C76.315 24.6596 76.8721 24.4282 77.3957 24.4282ZM73.3664 24.4282C74.0871 24.4282 74.6114 24.5933 75.0043 25.0893C75.1028 25.1888 75.2664 25.3539 75.07 25.4534C74.8736 25.5522 74.6771 25.9494 74.3814 25.6516C74.2178 25.4858 74.0543 25.3539 73.8243 25.2876C73.3336 25.1556 72.8093 25.3207 72.6128 25.718C72.4157 26.1145 72.5143 26.6768 72.8414 26.9414C73.2021 27.2391 73.825 27.206 74.2178 26.8751C74.3493 26.7431 74.4471 26.5442 74.7093 26.7092C75.2007 26.9745 75.2336 27.0733 74.8407 27.4705C74.2836 27.9997 73.235 28.1316 72.5143 27.7351C71.8593 27.4035 71.5314 26.71 71.6621 25.8499C71.7607 24.9898 72.5143 24.4282 73.3664 24.4282ZM89.5514 29.9505H90.9928C91.3857 29.9174 91.255 30.2151 91.2878 30.4134C91.2878 30.6116 91.3207 30.8099 90.9928 30.8099C90.01 30.8431 90.01 30.8762 90.01 31.9014C90.01 32.2323 89.9771 32.5625 90.01 32.8934C90.0428 33.2575 89.9443 33.3562 89.5514 33.3562C89.1586 33.3562 89.06 33.2243 89.0928 32.8602C89.125 32.2979 89.0928 31.7695 89.0928 31.2071C89.0928 30.8762 88.9943 30.7775 88.7 30.8106H88.3064C88.0114 30.8106 87.7821 30.8431 87.7821 30.4134C87.7821 30.0169 87.9464 29.9505 88.2736 29.9837C88.6993 29.9505 89.125 29.9505 89.5514 29.9505ZM80.9671 35.3734H82.4086C82.8014 35.3402 82.7036 35.6048 82.7036 35.8362C82.7036 36.0352 82.7364 36.2327 82.4086 36.2327C82.0814 36.2327 81.655 36.0684 81.4586 36.3329C81.2943 36.5636 81.4257 36.9609 81.4257 37.2918C81.4257 37.6883 81.3928 38.0848 81.4257 38.482C81.4586 38.8785 81.1636 38.7466 80.9671 38.7466C80.7707 38.7466 80.5086 38.8461 80.5086 38.4489V36.6631C80.5086 36.2998 80.41 36.1671 80.05 36.2003C79.9186 36.2335 79.7878 36.2003 79.6571 36.2003C79.3286 36.2335 79.2307 36.134 79.2307 35.8038C79.2307 35.4721 79.2964 35.3402 79.6564 35.3734C80.0828 35.4065 80.5086 35.3734 80.9671 35.3734Z" fill="#212429"/>
<path fill-rule="evenodd" clip-rule="evenodd" d="M30.8714 62.4231C14.13 62.4231 0.5 48.6671 0.5 31.7692C0.5 14.8706 14.1293 1.11523 30.8714 1.11523C34.8357 1.11523 38.6693 1.87509 42.3064 3.36309C42.9614 3.62768 43.2564 4.35509 42.9943 5.01691C42.7321 5.678 42.0114 5.97575 41.3564 5.71116C38.0248 4.35284 34.4646 3.65665 30.8714 3.66084C15.505 3.66084 2.98929 16.293 2.98929 31.8016C2.98929 47.311 15.505 59.9431 30.8714 59.9431C46.2371 59.9431 58.7529 47.311 58.7529 31.8016C58.7529 27.7673 57.9336 23.8988 56.2957 20.261C56.0007 19.633 56.2957 18.8725 56.9179 18.574C57.5407 18.277 58.2943 18.574 58.5893 19.2027C60.3586 23.1714 61.2429 27.404 61.2429 31.8016C61.2429 48.6671 47.6136 62.4231 30.8714 62.4231Z" fill="#3DAE2B"/>
<path fill-rule="evenodd" clip-rule="evenodd" d="M58.0658 10.8696C58.0658 14.772 54.9201 17.9463 51.0544 17.9463C47.188 17.9463 44.043 14.772 44.043 10.8696C44.043 6.96795 47.188 3.79297 51.0544 3.79297C51.9715 3.79297 52.8887 3.99195 53.708 4.32213C55.3751 5.00927 56.7217 6.30942 57.4758 7.95995C57.8365 8.85246 58.0658 9.84446 58.0658 10.8696Z" fill="#FFC600"/>
</g>
<defs>
<clipPath id="clip0_75_7434">
<rect width="115" height="62" fill="white" transform="translate(0.5 0.882812)"/>
</clipPath>
</defs>
</svg>
