<svg width="145" height="59" viewBox="0 0 145 59" fill="none" xmlns="http://www.w3.org/2000/svg">
<g clip-path="url(#clip0_75_7458)">
<path d="M45.6554 28.5344L45.0996 26.8366H45.041L44.5097 28.4772L43.7052 30.9428H46.4452L45.6554 28.5344ZM47.6055 33.7471C47.4641 33.7471 47.3812 33.7471 47.3178 33.5754L46.7328 31.8776H43.4079L42.8179 33.5754C42.8052 33.6288 42.7728 33.6758 42.727 33.7075C42.6811 33.7391 42.625 33.7532 42.5692 33.7471H41.7844C41.6332 33.7471 41.5991 33.6422 41.6332 33.5277L44.3 26.1117C44.4268 25.7397 44.534 25.6348 44.8997 25.6348H45.2458C45.67 25.6348 45.7675 25.7492 45.8845 26.1117L48.5367 33.5277C48.5854 33.6327 48.5367 33.7471 48.3953 33.7471H47.6055Z" fill="#00325F"/>
<path d="M50.4524 33.5278C50.4524 33.7139 50.3939 33.7472 50.2184 33.7472H49.6334C49.4676 33.7472 49.3848 33.7139 49.3848 33.5278V27.6427C49.3848 26.584 49.8722 25.6587 51.3787 25.6587H54.5379C54.7281 25.6587 54.7622 25.7398 54.7622 25.9019V26.3788C54.7622 26.5649 54.7281 26.6221 54.5379 26.6221H51.3885C50.74 26.6221 50.4573 26.8891 50.4573 27.4901L50.4524 33.5278Z" fill="#00325F"/>
<path d="M61.0466 33.7472H57.7654C56.2346 33.7472 55.7715 32.8363 55.7715 31.7775V27.6474C55.7715 26.584 56.3273 25.6587 57.7654 25.6587H60.9881C61.1635 25.6587 61.1977 25.7398 61.1977 25.9019V26.3788C61.1977 26.5505 61.1635 26.6078 60.9881 26.6078H57.7801C57.1317 26.6078 56.8489 26.8844 56.8489 27.4853V28.9876H60.598C60.7735 28.9876 60.8077 29.0543 60.8077 29.2261V29.6648C60.8077 29.8174 60.7735 29.8985 60.598 29.8985H56.8489V31.9063C56.8489 32.4214 57.1073 32.7695 57.7801 32.7695H61.0466C61.2318 32.7695 61.2708 32.8411 61.2708 33.0127V33.4897C61.2708 33.6518 61.2318 33.7329 61.0466 33.7329" fill="#00325F"/>
<path d="M67.862 25.8683C67.862 25.7062 67.9302 25.6729 68.0862 25.6729H68.7249C68.8858 25.6729 68.9492 25.7062 68.9492 25.8683V33.5515C68.9492 33.7136 68.8858 33.747 68.7249 33.747H68.0862C67.9302 33.747 67.862 33.7136 67.862 33.5515V29.9508H63.6985V33.5515C63.6985 33.7136 63.64 33.747 63.4742 33.747H62.8258C62.6844 33.747 62.6016 33.7136 62.6016 33.5515V25.8683C62.6016 25.7062 62.6844 25.6729 62.8258 25.6729H63.4742C63.64 25.6729 63.6985 25.7062 63.6985 25.8683V29.0303H67.862V25.8683Z" fill="#00325F"/>
<path d="M72.4747 26.6075H70.1736C70.0322 26.6075 70.0078 26.5599 70.0078 26.4216V25.8588C70.0078 25.73 70.0078 25.6729 70.1736 25.6729H75.9606C76.0971 25.6729 76.1215 25.73 76.1215 25.8588V26.4216C76.1215 26.5599 76.0971 26.6075 75.9606 26.6075H73.5863V33.5515C73.5863 33.7136 73.5278 33.747 73.3767 33.747H72.7039C72.5478 33.747 72.4796 33.7136 72.4796 33.5515L72.4747 26.6075Z" fill="#00325F"/>
<path d="M81.923 32.4691C82.0981 32.3976 82.1565 32.4929 82.1906 32.5597L82.4149 33.0367C82.5127 33.2179 82.4642 33.2656 82.3566 33.3371C81.5843 33.7197 80.7256 33.9051 79.8608 33.876C77.6569 33.876 76.3457 32.617 76.3457 29.827C76.3457 27.2278 77.8077 25.5586 79.9434 25.5586C80.7036 25.5397 81.4569 25.7035 82.1375 26.0355C82.2345 26.0832 82.2785 26.15 82.1959 26.2978L81.9276 26.832C81.8791 26.9226 81.845 26.9703 81.7131 26.9131C81.172 26.6765 80.5854 26.5546 79.9919 26.5554C78.198 26.5554 77.4568 28.1578 77.4568 29.8317C77.4568 31.5057 78.0661 32.8888 80.0503 32.8888C80.699 32.8811 81.3387 32.7397 81.9276 32.4739" fill="#00325F"/>
<path d="M85.6226 26.6075H83.3261C83.1799 26.6075 83.1602 26.5599 83.1602 26.4216V25.8588C83.1602 25.73 83.1602 25.6729 83.3261 25.6729H89.1233C89.2643 25.6729 89.2885 25.73 89.2885 25.8588V26.4216C89.2885 26.5599 89.2643 26.6075 89.1233 26.6075H86.7344V33.5515C86.7344 33.7136 86.6753 33.747 86.5199 33.747H85.8469C85.6953 33.747 85.6226 33.7136 85.6226 33.5515V26.6075Z" fill="#00325F"/>
<path d="M93.5993 29.8221H91.4052V32.7982H93.5993C94.9544 32.7982 95.281 31.8968 95.281 31.2863C95.281 30.4231 94.696 29.8221 93.5993 29.8221ZM91.4052 28.9351H93.575C93.7471 28.9536 93.9206 28.9358 94.0851 28.8828C94.2496 28.83 94.4004 28.7431 94.5277 28.6283C94.6543 28.5135 94.7551 28.3733 94.8218 28.2172C94.8892 28.0612 94.921 27.8929 94.9157 27.7238C94.9165 27.569 94.8839 27.4158 94.8202 27.2743C94.7558 27.1329 94.6618 27.0064 94.5436 26.9035C94.4254 26.8006 94.2859 26.7235 94.1351 26.6775C93.9835 26.6313 93.8244 26.6174 93.6675 26.6364H91.4052V28.9351ZM95.0378 29.3358C95.4569 29.4861 95.8161 29.7652 96.0602 30.1313C96.3042 30.4975 96.4209 30.9311 96.3929 31.3674C96.3929 32.7982 95.2227 33.752 93.716 33.752H90.9179C90.4934 33.752 90.3184 33.5803 90.3184 33.1749V26.2501C90.3184 25.8447 90.4745 25.6587 90.9179 25.6587H93.5508C94.9885 25.6587 96.0367 26.2358 96.0367 27.6427C96.0412 27.9747 95.9495 28.3012 95.7729 28.5847C95.5963 28.8681 95.3417 29.097 95.0378 29.2451V29.3358Z" fill="#00325F"/>
<path d="M100.756 26.4837C99.0692 26.4837 98.3188 27.9479 98.3188 29.6648C98.3188 31.5724 98.8842 32.9221 100.722 32.9221C102.56 32.9221 103.16 31.3721 103.16 29.7125C103.16 28.0527 102.712 26.4837 100.79 26.4837H100.756ZM100.732 33.8664C98.4212 33.8664 97.251 32.3784 97.251 29.7125C97.251 27.0464 98.7137 25.5347 100.756 25.5347C103.067 25.5347 104.271 27.0942 104.271 29.6648C104.271 32.3546 103.053 33.8664 100.732 33.8664Z" fill="#00325F"/>
<path d="M47.2979 43.4856C47.5222 43.395 47.5904 43.4522 47.6587 43.6239L48.0584 44.4442C48.1608 44.6588 48.1267 44.7399 47.9853 44.821C47.1658 45.273 46.2343 45.4942 45.2942 45.4601C42.7492 45.4601 41.6182 43.9196 41.6182 41.3872C41.6182 38.8548 43.1344 37.2332 45.3722 37.2332C46.1636 37.1979 46.9509 37.3621 47.6587 37.7102C47.8342 37.8055 47.8586 37.8628 47.7562 38.1108L47.3906 38.8977C47.3125 39.1027 47.2638 39.1504 47.0444 39.0694C46.538 38.8753 45.999 38.775 45.4551 38.7737C44.1729 38.7737 43.5049 39.8896 43.5049 41.3777C43.5049 42.8657 43.9925 43.8719 45.5233 43.8719C46.1416 43.8525 46.7505 43.7181 47.3175 43.4761" fill="#00325F"/>
<path d="M54.8118 38.8308H52.7007V45.0831C52.7007 45.2787 52.652 45.3216 52.418 45.3216H51.1699C50.9846 45.3216 50.9018 45.2643 50.9018 45.0831V38.8308H48.8395C48.6737 38.8308 48.6152 38.7592 48.6152 38.6018V37.586C48.6152 37.3905 48.664 37.3428 48.8395 37.3428H54.8118C54.997 37.3428 55.0458 37.3905 55.0458 37.586V38.6018C55.0458 38.7592 54.9775 38.8308 54.8118 38.8308Z" fill="#00325F"/>
<path d="M59.3357 38.8835H57.8195V41.0487H59.3503C59.6439 41.0487 59.9253 40.9347 60.1329 40.7316C60.3404 40.5286 60.4571 40.2532 60.4571 39.9661C60.4571 39.679 60.3404 39.4036 60.1329 39.2006C59.9253 38.9975 59.6439 38.8835 59.3503 38.8835H59.3357ZM57.8195 45.0834C57.8195 45.2885 57.7757 45.3219 57.5416 45.3219H56.3131C56.1278 45.3219 56.0449 45.2646 56.0449 45.0834V38.0299C56.0449 37.6102 56.1863 37.3335 56.747 37.3335H59.6038C61.2956 37.3335 62.334 38.3827 62.334 39.8326C62.334 40.6099 61.9977 42.4365 59.3699 42.4365H57.8195V45.0834Z" fill="#00325F"/>
<path d="M64.5273 42.2507H66.3604L65.9119 40.82L65.4829 39.189H65.4146L64.971 40.82L64.5273 42.2507ZM66.7797 43.6815H64.108L63.6497 45.1122C63.6059 45.2601 63.5474 45.3269 63.3231 45.3269H61.9581C61.7971 45.3269 61.763 45.2124 61.7972 45.1027L64.2348 37.949C64.3957 37.4244 64.6053 37.3338 65.0831 37.3242H65.7851C66.3117 37.3242 66.5067 37.391 66.6919 37.949L69.1296 45.1027C69.1637 45.1933 69.1296 45.3269 68.9785 45.3269H67.589C67.4135 45.3269 67.3014 45.3269 67.2526 45.1457L66.7797 43.6815Z" fill="#00325F"/>
<path d="M75.0237 38.8313H72.9126V45.0836C72.9126 45.2791 72.8687 45.3221 72.6348 45.3221H71.3867C71.1965 45.3221 71.1185 45.2648 71.1185 45.0836V38.8313H69.0514C68.8905 38.8313 68.832 38.7597 68.832 38.6023V37.5865C68.832 37.3909 68.8758 37.3433 69.0514 37.3433H75.0237C75.2089 37.3433 75.2577 37.3909 75.2577 37.5865V38.6023C75.2577 38.7597 75.1894 38.8313 75.0237 38.8313Z" fill="#00325F"/>
<path d="M81.873 45.3314H78.3973C76.6715 45.3314 76.2422 44.2727 76.2422 43.233V39.4463C76.2422 38.3637 76.8125 37.3335 78.3874 37.3335H81.7365C81.9222 37.3335 81.9563 37.3908 81.9563 37.6102V38.5639C81.9563 38.7595 81.9124 38.8168 81.7365 38.8168H78.7724C78.1631 38.8168 78.0123 39.1219 78.0123 39.5225V40.4001H81.3614C81.5463 40.4001 81.5804 40.4573 81.5804 40.6767V41.5638C81.5804 41.7498 81.5463 41.8261 81.3614 41.8261H78.0123V43.1281C78.0123 43.6527 78.2798 43.8148 78.7724 43.8148H81.8533C82.0488 43.8148 82.0829 43.8577 82.0829 44.0867V45.0405C82.0829 45.2265 82.0389 45.3028 81.8533 45.3028" fill="#00325F"/>
<path d="M85.1844 45.0834C85.1844 45.2885 85.1503 45.3219 84.9161 45.3219H83.6777C83.4928 45.3219 83.4102 45.2646 83.4102 45.0834V39.4463C83.4102 38.3589 83.946 37.3335 85.555 37.3335H88.9193C89.1141 37.3335 89.1482 37.3908 89.1482 37.6102V38.5639C89.1482 38.7595 89.1042 38.8168 88.9193 38.8168H85.94C85.3352 38.8168 85.1844 39.1124 85.1844 39.5225V45.0834Z" fill="#00325F"/>
<path d="M95.2369 39.9947L94.1986 41.7068L92.2485 44.8307C91.9802 45.2551 91.8537 45.3076 91.3762 45.3076H90.8881C90.2841 45.3076 90.1279 45.0024 90.1279 44.5207V37.5529C90.1279 37.3908 90.2007 37.3335 90.3765 37.3335H91.6248C91.834 37.3335 91.8681 37.3812 91.8681 37.5529V42.6988H91.9363L92.9117 41.1012L94.93 37.8629C95.1982 37.4289 95.3248 37.3478 95.7879 37.3478H96.2752C96.8459 37.3478 97.0316 37.5529 97.0316 38.1491V45.1311C97.0316 45.2885 96.9626 45.3457 96.7876 45.3457H95.5393C95.3301 45.3457 95.2809 45.3028 95.2809 45.1311V39.9947H95.2369Z" fill="#00325F"/>
<path d="M104.592 45.3316H103.32C103.134 45.3316 103.076 45.2744 103.076 45.1171V42.5274C102.616 42.5936 102.151 42.6271 101.687 42.6275C99.2485 42.6275 98.4004 41.5354 98.4004 39.766V37.5436C98.4004 37.3815 98.4686 37.3242 98.6444 37.3242H99.9268C100.126 37.3242 100.17 37.3719 100.17 37.5436V39.5944C100.17 40.6674 100.731 41.0919 101.921 41.0919C102.308 41.0926 102.695 41.0575 103.076 40.9869V37.5436C103.076 37.3815 103.134 37.3242 103.32 37.3242H104.592C104.802 37.3242 104.851 37.3719 104.851 37.5436V45.1075C104.851 45.2792 104.802 45.3221 104.592 45.3221" fill="#00325F"/>
<path d="M112.208 45.3314H108.756C107.031 45.3314 106.602 44.2727 106.602 43.233V39.4463C106.602 38.3637 107.172 37.3335 108.746 37.3335H112.096C112.281 37.3335 112.315 37.3908 112.315 37.6102V38.5639C112.315 38.7595 112.267 38.8168 112.096 38.8168H109.112C108.503 38.8168 108.352 39.1219 108.352 39.5225V40.4001H111.701C111.886 40.4001 111.92 40.4573 111.92 40.6767V41.5638C111.92 41.7498 111.886 41.8261 111.701 41.8261H108.352V43.1281C108.352 43.6527 108.62 43.8148 109.112 43.8148H112.189C112.389 43.8148 112.423 43.8577 112.423 44.0867V45.0405C112.423 45.2265 112.379 45.3028 112.189 45.3028" fill="#00325F"/>
<path d="M118.965 43.4859C119.185 43.3953 119.253 43.4526 119.326 43.6242L119.721 44.4445C119.829 44.6592 119.795 44.7403 119.653 44.8213C118.832 45.2735 117.899 45.4947 116.957 45.4604C114.417 45.4604 113.281 43.92 113.281 41.3875C113.281 38.8551 114.802 37.2336 117.04 37.2336C117.831 37.1986 118.618 37.3629 119.326 37.7105C119.502 37.8059 119.526 37.8631 119.419 38.1111L119.058 38.898C118.975 39.1031 118.931 39.1508 118.707 39.0697C118.202 38.8762 117.665 38.7759 117.123 38.774C115.835 38.774 115.148 39.89 115.148 41.378C115.148 42.866 115.636 43.8723 117.167 43.8723C117.787 43.8534 118.397 43.7192 118.965 43.4764" fill="#00325F"/>
<path d="M125.752 41.0776C126.556 41.3399 126.756 41.7834 126.931 42.4558L127.653 45.1075C127.678 45.1838 127.687 45.3317 127.492 45.3317H126.137C126.085 45.3389 126.032 45.3268 125.988 45.2976C125.945 45.2685 125.914 45.2245 125.903 45.1743L125.201 42.6991C124.967 41.9122 124.562 41.7453 123.738 41.7453H122.763V45.1314C122.763 45.2936 122.704 45.3126 122.554 45.3126H121.203C121.061 45.3126 120.993 45.3126 120.993 45.1314V37.5007C120.993 37.3385 121.061 37.3147 121.203 37.3147H122.568C122.719 37.3147 122.778 37.3385 122.754 37.5007V40.4099H123.684C124.001 40.4403 124.317 40.3508 124.567 40.16C124.817 39.9692 124.983 39.6916 125.03 39.3845L125.552 37.453C125.563 37.4022 125.593 37.3575 125.636 37.3282C125.68 37.2989 125.734 37.2872 125.786 37.2957H127.093C127.292 37.2957 127.278 37.4435 127.258 37.5246L126.722 39.5657C126.666 39.8561 126.551 40.1327 126.383 40.3785C126.216 40.6243 126 40.8345 125.747 40.9965L125.752 41.0776Z" fill="#00325F"/>
<path d="M133.976 39.9947L132.938 41.7068L130.988 44.8307C130.719 45.2551 130.593 45.3076 130.11 45.3076H129.647C129.038 45.3076 128.887 45.0024 128.887 44.5207V37.5529C128.887 37.3908 128.959 37.3335 129.13 37.3335H130.378C130.593 37.3335 130.627 37.3812 130.627 37.5529V42.6988H130.695L131.67 41.1012L133.689 37.8629C133.957 37.4289 134.088 37.3478 134.552 37.3478H135.039C135.609 37.3478 135.795 37.5529 135.795 38.1491V45.1311C135.795 45.2885 135.727 45.3457 135.551 45.3457H134.303C134.093 45.3457 134.045 45.3028 134.045 45.1311V39.9947H133.976Z" fill="#00325F"/>
<path d="M140.261 42.5938L138.852 45.0832C138.806 45.1747 138.732 45.2494 138.64 45.2966C138.548 45.3438 138.443 45.3609 138.34 45.3456H136.902C136.765 45.3456 136.727 45.2215 136.785 45.1214L139.271 41.1916L136.994 37.567C136.926 37.4717 136.96 37.3477 137.136 37.3477H138.501C138.803 37.3477 138.886 37.3953 138.988 37.6005L140.271 39.8229L141.543 37.6005C141.66 37.3953 141.743 37.3477 142.03 37.3477H143.371C143.547 37.3477 143.571 37.4717 143.499 37.5766L141.29 41.1678L143.771 45.1071C143.788 45.1279 143.799 45.153 143.801 45.1793C143.804 45.2058 143.799 45.2324 143.787 45.256C143.774 45.2796 143.755 45.2993 143.732 45.3127C143.708 45.326 143.681 45.3324 143.654 45.3312H142.192C142.093 45.3414 141.993 45.3217 141.906 45.2749C141.819 45.2279 141.749 45.1561 141.704 45.069L140.261 42.5938Z" fill="#00325F"/>
<path d="M47.4296 52.2686L46.3912 53.9807L44.4411 57.1047C44.1729 57.5288 44.0461 57.6098 43.5684 57.6098H43.0809C42.4763 57.6098 42.3252 57.3001 42.3252 56.8233V49.8267C42.3252 49.6646 42.3935 49.6074 42.5689 49.6074H43.817C44.0267 49.6074 44.0608 49.6551 44.0608 49.8267V54.9584H44.1291L45.1041 53.3655L47.1225 50.1225C47.3907 49.6884 47.5174 49.6074 47.9855 49.6074H48.4729C49.0434 49.6074 49.2286 49.8125 49.2286 50.4086V57.3907C49.2286 57.5526 49.1603 57.6098 48.9849 57.6098H47.7368C47.5272 57.6098 47.4833 57.5623 47.4833 57.3907V52.2686H47.4296Z" fill="#00325F"/>
<path d="M57.4334 56.9206H56.2097C56.0098 56.9206 55.9416 56.8634 55.9416 56.677V53.4819H52.7775V56.677C52.7775 56.8731 52.7337 56.9206 52.4996 56.9206H51.2613C51.0761 56.9206 50.9932 56.8634 50.9932 56.677V49.1705C50.9932 48.9893 51.0761 48.9321 51.2613 48.9321H52.4996C52.7337 48.9321 52.7775 48.9751 52.7775 49.1705V52.032H55.9416V49.1705C55.9416 48.9893 56.0098 48.9321 56.2097 48.9321H57.4334C57.6675 48.9321 57.7114 48.9751 57.7114 49.1705V56.677C57.7114 56.8731 57.6675 56.9206 57.4334 56.9206Z" fill="#00325F"/>
<path d="M64.5616 51.5792L63.5231 53.2912L61.5729 56.415C61.3048 56.8398 61.1732 56.9208 60.6954 56.9208H60.2322C59.6228 56.9208 59.4717 56.6103 59.4717 56.1335V49.1374C59.4717 48.9752 59.5448 48.918 59.7155 48.918H60.9635C61.1732 48.918 61.2122 48.9657 61.2122 49.1374V54.2689H61.2805L62.2555 52.6761L64.2739 49.433C64.542 48.999 64.6736 48.918 65.1368 48.918H65.6243C66.1997 48.918 66.3849 49.123 66.3849 49.7192V56.7009C66.3849 56.8636 66.3166 56.9208 66.1412 56.9208H64.8931C64.6834 56.9208 64.6347 56.8732 64.6347 56.7009V51.5792H64.5616Z" fill="#00325F"/>
<path d="M74.8295 55.3897L75.4097 55.4469C75.8289 55.4803 75.863 55.6758 75.8533 55.9241L75.7265 58.5614C75.7265 58.7092 75.6534 58.7902 75.5023 58.7902H74.5272C74.3663 58.7902 74.3078 58.7189 74.2981 58.5518L74.2249 56.897H68.8621C68.3258 56.897 68.1162 56.6437 68.1162 56.129V49.1374C68.1162 48.9752 68.1844 48.918 68.36 48.918H69.6422C69.8518 48.918 69.9005 48.9657 69.9005 49.1374V55.4231H73.0354V49.1374C73.0354 48.9752 73.1036 48.918 73.2694 48.918H74.5516C74.771 48.918 74.81 48.9657 74.81 49.1374L74.8295 55.3897Z" fill="#00325F"/>
<path d="M81.9081 51.5792L80.8697 53.2912L78.8856 56.415C78.6173 56.8398 78.4907 56.9208 78.0132 56.9208H77.5251C76.9211 56.9208 76.7695 56.6103 76.7695 56.1335V49.1374C76.7695 48.9752 76.8377 48.918 77.0136 48.918H78.2618C78.471 48.918 78.5051 48.9657 78.5051 49.1374V54.2689H78.5786L79.5533 52.6761L81.5723 49.433C81.8398 48.999 81.9672 48.918 82.4348 48.918H82.9221C83.4928 48.918 83.683 49.123 83.683 49.7192V56.7009C83.683 56.8636 83.6095 56.9208 83.4345 56.9208H82.1862C81.9763 56.9208 81.9331 56.8732 81.9331 56.7009V51.5792H81.9081Z" fill="#00325F"/>
<path d="M87.2461 53.8395H89.0794L88.6353 52.4088L88.2063 50.7777H88.148L87.7046 52.4088L87.2461 53.8395ZM89.4985 55.2703H86.827L86.3737 56.7007C86.3245 56.8485 86.2714 56.9206 86.0471 56.9206H84.6821C84.5207 56.9206 84.482 56.8062 84.5207 56.6918L86.9588 49.5377C87.1241 49.0084 87.334 48.9177 87.8115 48.9082H88.5087C89.0355 48.9082 89.2355 48.975 89.4205 49.5377L91.8579 56.6918C91.8707 56.7163 91.8768 56.7438 91.8761 56.7713C91.8745 56.7988 91.8654 56.8255 91.8503 56.8485C91.8351 56.8716 91.8139 56.8909 91.7881 56.9035C91.7631 56.9161 91.7351 56.9221 91.707 56.9206H90.2936C90.1177 56.9206 90.001 56.8968 89.9571 56.7342L89.4985 55.2703Z" fill="#00325F"/>
<path d="M97.7473 50.4153H95.6366V56.677C95.6366 56.8731 95.5873 56.9206 95.3539 56.9206H94.1057C93.92 56.9206 93.8374 56.8634 93.8374 56.677V50.4153H91.7751C91.6091 50.4153 91.5508 50.3438 91.5508 50.1864V49.1705C91.5508 48.9751 91.6 48.9321 91.7751 48.9321H97.7473C97.933 48.9321 97.9815 48.9751 97.9815 49.1705V50.1864C97.9868 50.2176 97.9838 50.2495 97.974 50.2795C97.9641 50.3095 97.9467 50.3367 97.9239 50.3591C97.9012 50.3814 97.8732 50.3981 97.8428 50.4079C97.8118 50.4177 97.7792 50.4202 97.7473 50.4153Z" fill="#00325F"/>
<path d="M104.09 51.5792L103.052 53.2912L101.102 56.415C100.834 56.8398 100.707 56.9208 100.229 56.9208H99.7416C99.1323 56.9208 98.9814 56.6103 98.9814 56.1335V49.1374C98.9814 48.9752 99.0542 48.918 99.23 48.918H100.478C100.687 48.918 100.722 48.9657 100.722 49.1374V54.2689H100.79L101.765 52.6761L103.788 49.433C104.056 48.999 104.183 48.918 104.651 48.918H105.139C105.709 48.918 105.894 49.123 105.894 49.7192V56.7009C105.894 56.8636 105.826 56.9208 105.651 56.9208H104.403C104.193 56.9208 104.144 56.8732 104.144 56.7009V51.5792H104.09Z" fill="#00325F"/>
<path d="M111.101 53.3485H109.423V55.3897H111.101C111.246 55.4035 111.393 55.3873 111.532 55.3423C111.671 55.2973 111.798 55.2244 111.906 55.1283C112.015 55.0321 112.101 54.9149 112.16 54.7842C112.219 54.6535 112.25 54.5121 112.25 54.3691C112.25 54.2261 112.219 54.0847 112.16 53.954C112.101 53.8232 112.015 53.706 111.906 53.6099C111.798 53.5138 111.671 53.4409 111.532 53.3959C111.393 53.3509 111.246 53.3347 111.101 53.3485ZM109.423 51.9559H111.008C111.121 51.9716 111.236 51.9626 111.345 51.9296C111.453 51.8967 111.553 51.8406 111.637 51.7654C111.721 51.6901 111.787 51.5976 111.83 51.4945C111.873 51.3913 111.892 51.2802 111.886 51.169C111.89 51.066 111.87 50.9634 111.829 50.8683C111.788 50.7733 111.727 50.6881 111.649 50.6187C111.571 50.5492 111.479 50.4973 111.378 50.4663C111.277 50.4353 111.171 50.4261 111.067 50.4393H109.423V51.9559ZM112.836 52.5473C113.224 52.7058 113.551 52.9773 113.775 53.3247C113.998 53.6721 114.106 54.0784 114.085 54.4883C114.085 55.9189 112.861 56.9208 111.296 56.9208H108.371C107.81 56.9208 107.669 56.7158 107.669 56.2241V49.6286C107.669 49.1516 107.81 48.918 108.371 48.918H111.228C112.637 48.918 113.734 49.4998 113.734 50.9401C113.731 51.2485 113.647 51.5512 113.49 51.8186C113.333 52.086 113.108 52.3091 112.836 52.4662V52.5473Z" fill="#00325F"/>
<path d="M23.1309 4.97949L37.7324 13.2063L45.0259 9.07143L23.1309 4.97949Z" fill="#A0CDEB"/>
<path d="M1.23633 0.882812L15.8379 9.10961L23.1314 4.9795L1.23633 0.882812Z" fill="#F7403A"/>
<path d="M15.8477 17.3604L30.4492 25.5872L37.7427 21.4571L15.8477 17.3604Z" fill="#E1E6E6"/>
<path d="M45.0259 9.07129L37.7422 21.4568L37.7324 13.2062L45.0259 9.07129Z" fill="#0055A0"/>
<path d="M37.7427 21.457L30.459 33.8425L30.4492 25.5871L37.7427 21.457Z" fill="#AFAFAF"/>
<path d="M23.1313 4.97949L15.8477 17.3602L15.8379 9.10953L23.1313 4.97949Z" fill="#AA272F"/>
</g>
<defs>
<clipPath id="clip0_75_7458">
<rect width="144" height="57.931" fill="white" transform="translate(0.5 0.882812)"/>
</clipPath>
</defs>
</svg>
