<svg width="145" height="33" viewBox="0 0 145 33" fill="none" xmlns="http://www.w3.org/2000/svg">
<g clip-path="url(#clip0_75_7499)">
<path d="M39.8936 1.01367V11.9551H42.8067V3.56884H46.6467V11.9551H49.626V1.01367H39.8936Z" fill="#DB2B21"/>
<path d="M55.7823 9.46557C56.312 9.46557 56.7754 9.40005 57.0402 9.33454C57.3051 9.26902 57.5037 9.07247 57.6361 8.8104C57.7685 8.54833 57.8347 8.15523 57.8347 7.63109V5.27247C57.8347 4.87936 57.7685 4.55178 57.7023 4.28971C57.6361 4.02764 57.5037 3.89661 57.3713 3.76557C57.2389 3.63454 57.0402 3.56902 56.7754 3.5035C56.5106 3.43798 56.1795 3.43798 55.7823 3.43798C55.2526 3.43798 54.7892 3.5035 54.5244 3.56902C54.2595 3.63454 54.0609 3.83109 53.9285 4.02764C53.7961 4.28971 53.7299 4.68281 53.7299 5.20695V7.69661C53.7299 8.22074 53.7961 8.61385 53.9285 8.87592C54.0609 9.13798 54.2595 9.26902 54.5244 9.40005C54.7892 9.53109 55.1864 9.46557 55.7823 9.46557ZM55.7823 12.0207C54.9878 12.0207 54.2595 11.9552 53.6637 11.8242C53.0678 11.6932 52.5382 11.4966 52.0747 11.2345C51.6113 10.9725 51.2802 10.5138 51.0154 9.98971C50.7506 9.46557 50.6182 8.8104 50.6182 7.95867V4.94488C50.6182 4.15867 50.7506 3.43798 51.0154 2.91385C51.2802 2.38971 51.6113 1.99661 52.0747 1.66902C52.5382 1.34143 53.0678 1.2104 53.6637 1.07936C54.2595 0.94833 54.9878 0.882812 55.7823 0.882812C56.5768 0.882812 57.3051 0.94833 57.9009 1.07936C58.4968 1.2104 59.0264 1.40695 59.4899 1.66902C59.9533 1.93109 60.2844 2.38971 60.5492 2.91385C60.814 3.43798 60.9464 4.09316 60.9464 4.94488V8.02419C60.9464 8.8104 60.814 9.53109 60.5492 10.0552C60.2844 10.5794 59.9533 10.9725 59.4899 11.3001C59.0264 11.5621 58.4968 11.7587 57.9009 11.8897C57.3051 11.9552 56.5768 12.0207 55.7823 12.0207ZM64.7864 6.58281H66.7726C67.1699 6.58281 67.4347 6.5173 67.6333 6.45178C67.832 6.38626 67.8982 6.25523 67.9644 5.99316C68.0306 5.79661 68.0306 5.4035 68.0306 4.94488C68.0306 4.55178 68.0306 4.22419 67.9644 4.02764C67.8982 3.83109 67.7657 3.70005 67.5671 3.56902C67.3685 3.43798 67.1037 3.43798 66.7064 3.43798H64.7202V6.58281H64.7864ZM64.7864 11.9552H61.8733V1.01385H67.4347C68.0968 1.01385 68.6926 1.07936 69.2223 1.2104C69.6857 1.34143 70.083 1.6035 70.3478 1.93109C70.6126 2.25867 70.8775 2.65178 71.0099 3.17592C71.1423 3.70005 71.2085 4.28971 71.2085 5.0104C71.2085 5.79661 71.1423 6.45178 71.0099 6.97592C70.8775 7.50005 70.6789 7.89316 70.414 8.22074C70.1492 8.54833 69.752 8.74488 69.2885 8.87592C68.8251 9.00695 68.163 9.07247 67.3685 9.07247H64.7864V11.9552Z" fill="#DB2B21"/>
<path d="M71.0762 1.01367V3.56884H73.9231V11.9551H76.9024V3.56884H79.8155V1.01367H71.0762ZM84.9134 3.17574L86.3038 7.89298H83.5893L84.9134 3.17574ZM82.5962 1.01367L79.2858 11.9551H82.3313L82.861 10.0551H86.8334L87.4293 11.9551H90.4086L87.032 1.01367H82.5962Z" fill="#DB2B21"/>
<path d="M92.0641 1.01367H101.002V11.9551H98.0228V3.56884H94.8448V8.15505C94.8448 8.94126 94.7124 9.66195 94.5138 10.2516C94.249 10.8413 93.9179 11.2999 93.3883 11.5619C92.9248 11.8895 92.2628 12.0206 91.5345 12.0206C91.0048 12.0206 90.4752 11.9551 90.0117 11.8895V9.53091C90.2103 9.59643 90.5414 9.66195 90.9386 9.66195C91.3359 9.66195 91.6007 9.53091 91.7993 9.33436C91.9317 9.13781 92.0641 8.74471 92.0641 8.22057V1.01367Z" fill="#DB2B21"/>
<path d="M39.8936 16.4102H47.9708V26.3033H46.8453V17.3929H41.0191V26.3033H39.8936V16.4102Z" fill="#B4B1B1"/>
<path d="M50.42 23.4862C50.4862 24.0103 50.6187 24.4034 50.8173 24.6655C51.0159 24.9276 51.3469 25.1241 51.7442 25.2552C52.1414 25.3862 52.6711 25.3862 53.3994 25.3862C54.1276 25.3862 54.6573 25.3207 55.0545 25.2552C55.4518 25.1241 55.7166 24.9276 55.9814 24.6655C56.18 24.4034 56.3125 24.0103 56.3787 23.4862C56.4449 22.9621 56.5111 22.2414 56.5111 21.3241C56.5111 20.3414 56.5111 19.6207 56.3787 19.1621C56.3125 18.6379 56.18 18.2448 55.9814 17.9827C55.7828 17.7207 55.4518 17.5241 55.1207 17.3931C54.6573 17.3276 54.1276 17.2621 53.3994 17.2621C52.6711 17.2621 52.1414 17.3276 51.7442 17.3931C51.3469 17.5241 51.0821 17.6552 50.8835 17.9827C50.6849 18.2448 50.5525 18.6379 50.4862 19.1621C50.42 19.6862 50.3538 20.4069 50.3538 21.3241C50.2876 22.3069 50.3538 23.0276 50.42 23.4862ZM49.3607 18.7034C49.4931 18.0483 49.6918 17.5241 50.0228 17.1965C50.3538 16.869 50.7511 16.6069 51.2807 16.4758C51.8104 16.3448 52.5387 16.2793 53.3994 16.2793C54.26 16.2793 54.9883 16.3448 55.518 16.4758C56.0476 16.6069 56.4449 16.869 56.7759 17.1965C57.1069 17.5241 57.3056 18.0483 57.438 18.7034C57.5704 19.3586 57.6366 20.2103 57.6366 21.3241C57.6366 22.4379 57.5704 23.2896 57.438 23.9448C57.3056 24.6 57.1069 25.1241 56.7759 25.4517C56.4449 25.7793 56.0476 26.0414 55.518 26.1724C54.9883 26.3034 54.26 26.369 53.3994 26.369C52.5387 26.369 51.8104 26.3034 51.2807 26.1724C50.7511 26.0414 50.3538 25.7793 50.0228 25.4517C49.6918 25.1241 49.4931 24.6 49.3607 23.9448C49.2283 23.2896 49.1621 22.4379 49.1621 21.3241C49.2283 20.2758 49.2283 19.3586 49.3607 18.7034ZM65.2504 22.9621H66.3097C66.3097 23.8138 66.1773 24.5345 65.9787 24.9931C65.78 25.4517 65.3828 25.8448 64.7869 26.0414C64.1911 26.2379 63.3966 26.369 62.3373 26.369C61.5428 26.369 60.8807 26.3034 60.4173 26.1724C59.9538 26.0414 59.4904 25.7793 59.2256 25.4517C58.8945 25.1241 58.6959 24.6 58.5635 23.9448C58.4311 23.2896 58.3649 22.4379 58.3649 21.3896C58.3649 20.3414 58.4311 19.4896 58.5635 18.8345C58.6959 18.1793 58.8945 17.6552 59.2256 17.3276C59.5566 16.9345 59.9538 16.7379 60.4173 16.5414C60.9469 16.4103 61.5428 16.3448 62.3373 16.3448C63.1318 16.3448 63.7938 16.4103 64.2573 16.5414C64.7207 16.6724 65.118 16.869 65.3828 17.131C65.6476 17.3931 65.8463 17.7207 65.9125 18.1138C66.0449 18.5069 66.1111 19.031 66.1111 19.6207H65.0518C64.9856 18.9655 64.8531 18.5069 64.7869 18.1793C64.7207 17.8517 64.3897 17.6552 64.0587 17.5241C63.7276 17.3931 63.1318 17.2621 62.3373 17.2621C61.7414 17.2621 61.278 17.3276 60.8807 17.4586C60.5497 17.5896 60.2187 17.7862 60.02 18.0483C59.8214 18.3103 59.689 18.769 59.5566 19.2931C59.381 20.6854 59.381 22.0939 59.5566 23.4862C59.6228 24.0103 59.8214 24.4034 60.02 24.6655C60.2187 24.9276 60.5497 25.1241 60.8807 25.2552C61.2118 25.3862 61.7414 25.3862 62.3373 25.3862C62.9331 25.3862 63.4628 25.3207 63.7938 25.2552C64.1911 25.1896 64.4559 25.0586 64.6545 24.8621C64.8531 24.6655 64.9856 24.469 65.118 24.1414C65.1842 23.8793 65.2504 23.4862 65.2504 22.9621Z" fill="#B4B1B1"/>
<path d="M69.7518 26.3033V17.3929H66.4414V16.4102H74.1214V17.3929H70.8773V26.3033H69.7518ZM81.0731 23.2895L78.8883 17.1964L76.7035 23.2895H81.0731ZM74.32 26.3033L77.9614 16.4102H79.5504L83.258 26.3033H82.0662L81.338 24.2722H76.3062L75.5118 26.3033H74.32Z" fill="#B4B1B1"/>
<path d="M85.3775 21.6515V25.255H88.4892C88.9526 25.255 89.3499 25.255 89.6147 25.1895C89.8795 25.1239 90.1444 25.0584 90.2768 24.9274C90.4754 24.7964 90.6078 24.5998 90.674 24.4033C90.7402 24.1412 90.8064 23.8136 90.8064 23.4205C90.8064 22.8964 90.7402 22.5033 90.674 22.2412C90.5416 21.9791 90.4092 21.8481 90.1444 21.7171C89.8795 21.6515 89.4823 21.586 88.9526 21.586H85.3775V21.6515ZM85.3775 17.3929V20.7343H88.5554C89.0851 20.7343 89.4161 20.6688 89.7471 20.6033C90.012 20.4722 90.2106 20.3412 90.343 20.0791C90.4754 19.8171 90.5416 19.4895 90.5416 18.9653C90.5416 18.3757 90.4092 17.9171 90.2106 17.7205C90.012 17.5239 89.6147 17.3929 89.0188 17.3929H85.3775ZM89.3499 26.3033H84.252V16.4102H89.0851C89.9458 16.4102 90.6078 16.6067 91.0051 16.9998C91.4023 17.3929 91.6009 17.9826 91.6009 18.8998C91.6009 19.2929 91.6009 19.686 91.5347 19.9481C91.4685 20.2102 91.3361 20.4722 91.2037 20.6688C91.0713 20.8653 90.7402 21.0619 90.4092 21.1929C90.8064 21.3239 91.1375 21.455 91.4023 21.6515C91.6009 21.8481 91.7995 22.1102 91.8657 22.3722C91.932 22.6343 91.9982 23.0274 91.9982 23.486C91.9982 24.4033 91.7995 25.1239 91.4023 25.5826C90.9389 26.0412 90.2768 26.3033 89.3499 26.3033Z" fill="#B4B1B1"/>
<path d="M99.3467 16.4102H100.472V25.3205H105.57V16.4102H106.696V25.3205H107.358V28.5964H106.365V26.3033H93.1895V16.4102H94.2488V25.3205H99.3467V16.4102ZM108.483 16.4102H109.609V25.5171L115.303 16.4102H117.09V26.3033H115.965V17.2619L110.271 26.3033H108.483V16.4102ZM119.805 16.4102V20.7343H120.798L124.903 16.4102H126.359L121.791 21.1929L126.889 26.3033H125.366L120.798 21.7171H119.805V26.3033H118.679V16.4102H119.805Z" fill="#B4B1B1"/>
<path d="M128.544 23.4862C128.61 24.0103 128.743 24.4034 128.941 24.6655C129.14 24.9276 129.471 25.1241 129.868 25.2552C130.265 25.3862 130.795 25.3862 131.523 25.3862C132.252 25.3862 132.781 25.3207 133.179 25.2552C133.576 25.1241 133.841 24.9276 134.105 24.6655C134.304 24.4034 134.436 24.0103 134.503 23.4862C134.569 22.9621 134.635 22.2414 134.635 21.3241C134.635 20.3414 134.569 19.6207 134.503 19.1621C134.436 18.6379 134.304 18.2448 134.105 17.9827C133.907 17.7207 133.576 17.5241 133.245 17.3931C132.848 17.2621 132.318 17.2621 131.59 17.2621C130.861 17.2621 130.332 17.3276 129.934 17.3931C129.537 17.5241 129.272 17.6552 129.074 17.9827C128.875 18.2448 128.743 18.6379 128.676 19.1621C128.61 19.6862 128.544 20.4069 128.544 21.3241C128.412 22.3069 128.478 23.0276 128.544 23.4862ZM127.485 18.7034C127.617 18.0483 127.816 17.5241 128.147 17.1965C128.478 16.869 128.875 16.6069 129.405 16.4758C129.934 16.3448 130.663 16.2793 131.523 16.2793C132.384 16.2793 133.112 16.3448 133.642 16.4758C134.172 16.6069 134.569 16.869 134.9 17.1965C135.231 17.5241 135.43 18.0483 135.562 18.7034C135.694 19.3586 135.761 20.2103 135.761 21.3241C135.761 22.4379 135.694 23.2896 135.562 23.9448C135.43 24.6 135.231 25.1241 134.9 25.4517C134.569 25.7793 134.172 26.0414 133.642 26.1724C133.112 26.3034 132.384 26.369 131.523 26.369C130.663 26.369 129.934 26.3034 129.405 26.1724C128.875 26.0414 128.478 25.7793 128.147 25.4517C127.816 25.1241 127.617 24.6 127.485 23.9448C127.352 23.2896 127.286 22.4379 127.286 21.3241C127.286 20.2758 127.352 19.3586 127.485 18.7034ZM137.945 21.6517V25.2552H141.057C141.521 25.2552 141.918 25.2552 142.183 25.1896C142.448 25.1241 142.712 25.0586 142.845 24.9276C143.043 24.7965 143.176 24.6 143.242 24.4034C143.308 24.1414 143.374 23.8138 143.374 23.4207C143.374 22.8965 143.308 22.5034 143.242 22.2414C143.11 21.9793 142.977 21.8483 142.712 21.7172C142.448 21.6517 142.05 21.5862 141.521 21.5862H137.945V21.6517ZM137.945 17.3931V20.7345H141.123C141.653 20.7345 141.984 20.669 142.315 20.6034C142.58 20.4724 142.779 20.3414 142.911 20.0793C143.043 19.8172 143.11 19.4896 143.11 18.9655C143.11 18.3758 142.977 17.9172 142.779 17.7207C142.58 17.5241 142.183 17.3931 141.587 17.3931H137.945ZM141.918 26.3034H136.82V16.4103H141.653C142.514 16.4103 143.176 16.6069 143.573 17C143.97 17.3931 144.169 17.9827 144.169 18.9C144.169 19.2931 144.169 19.6862 144.103 19.9483C144.036 20.2103 143.904 20.4724 143.772 20.669C143.639 20.8655 143.308 21.0621 142.977 21.1931C143.374 21.3241 143.705 21.4552 143.97 21.6517C144.169 21.8483 144.368 22.1103 144.434 22.3724C144.5 22.6345 144.566 23.0276 144.566 23.4862C144.566 24.4034 144.368 25.1241 143.97 25.5827C143.507 26.0414 142.845 26.3034 141.918 26.3034Z" fill="#B4B1B1"/>
<path d="M5.92897 11.5619H21.4876V26.9584H5.92897V11.5619ZM0.5 32.3308H26.9166V6.18945H0.5V32.3308Z" fill="#B4B1B1"/>
<path d="M11.2913 6.25523H26.8499V21.6518H11.2913V6.25523ZM5.8623 27.0242H32.2789V0.882812H5.8623V27.0242Z" fill="#DB2B21"/>
<path d="M21.4873 6.25497V27.0239L26.9163 32.3308V6.18945L21.4873 6.25497Z" fill="#B4B1B1"/>
</g>
<defs>
<clipPath id="clip0_75_7499">
<rect width="144" height="31.4483" fill="white" transform="translate(0.5 0.882812)"/>
</clipPath>
</defs>
</svg>
