<svg width="40" height="40" viewBox="0 0 40 40" fill="none" xmlns="http://www.w3.org/2000/svg">
<g filter="url(#filter0_b_1971_729)">
<circle cx="20" cy="20" r="20" fill="url(#paint0_linear_1971_729)"/>
<path d="M18.6101 21.3201C19.6539 22.3789 20.9168 23.1964 22.3101 23.7151L24.1951 22.2151C24.251 22.1766 24.3173 22.156 24.3851 22.156C24.453 22.156 24.5192 22.1766 24.5751 22.2151L28.0751 24.4701C28.208 24.55 28.3205 24.6597 28.4037 24.7905C28.4869 24.9213 28.5385 25.0697 28.5545 25.2239C28.5705 25.3781 28.5504 25.534 28.4959 25.6791C28.4413 25.8242 28.3538 25.9546 28.2401 26.0601L26.6001 27.6801C26.3653 27.9122 26.0766 28.0825 25.7599 28.1758C25.4432 28.2692 25.1083 28.2827 24.7851 28.2151C21.5612 27.5493 18.5897 25.9899 16.2101 23.7151C13.8834 21.4177 12.2733 18.4945 11.5751 15.3001C11.5062 14.9819 11.5205 14.6513 11.6169 14.3404C11.7133 14.0294 11.8883 13.7486 12.1251 13.5251L13.8251 11.8851C13.9303 11.777 14.0586 11.6941 14.2004 11.6426C14.3422 11.5911 14.4938 11.5723 14.6438 11.5877C14.7939 11.6031 14.9385 11.6523 15.0669 11.7315C15.1953 11.8107 15.3041 11.9179 15.3851 12.0451L17.7151 15.5001C17.7553 15.5544 17.777 15.6201 17.777 15.6876C17.777 15.7551 17.7553 15.8209 17.7151 15.8751L16.1801 17.7201C16.7129 19.0856 17.543 20.3153 18.6101 21.3201V21.3201Z" fill="white"/>
</g>
<defs>
<filter id="filter0_b_1971_729" x="-4" y="-4" width="48" height="48" filterUnits="userSpaceOnUse" color-interpolation-filters="sRGB">
<feFlood flood-opacity="0" result="BackgroundImageFix"/>
<feGaussianBlur in="BackgroundImage" stdDeviation="2"/>
<feComposite in2="SourceAlpha" operator="in" result="effect1_backgroundBlur_1971_729"/>
<feBlend mode="normal" in="SourceGraphic" in2="effect1_backgroundBlur_1971_729" result="shape"/>
</filter>
<linearGradient id="paint0_linear_1971_729" x1="0" y1="20" x2="40" y2="20" gradientUnits="userSpaceOnUse">
<stop stop-color="#2DD2A3"/>
<stop offset="1" stop-color="#33BA7D"/>
</linearGradient>
</defs>
</svg>
