<svg width="35" height="35" viewBox="0 0 35 35" fill="none" xmlns="http://www.w3.org/2000/svg">
<circle cx="17.5" cy="17.5" r="17" stroke="white"/>
<path d="M16.0779 19.1668C17.1216 20.1636 18.3845 20.9331 19.7779 21.4214L21.6629 20.0093C21.7188 19.9731 21.785 19.9537 21.8529 19.9537C21.9207 19.9537 21.987 19.9731 22.0429 20.0093L25.5429 22.1322C25.6758 22.2074 25.7882 22.3106 25.8714 22.4338C25.9546 22.5569 26.0063 22.6966 26.0223 22.8418C26.0383 22.987 26.0182 23.1336 25.9636 23.2703C25.9091 23.4069 25.8215 23.5297 25.7079 23.629L24.0679 25.154C23.833 25.3725 23.5444 25.5328 23.2277 25.6207C22.911 25.7085 22.5761 25.7212 22.2529 25.6576C19.029 25.0308 16.0575 23.5628 13.6779 21.4214C11.3511 19.2587 9.74103 16.5069 9.04289 13.4997C8.97393 13.2001 8.98832 12.8889 9.08468 12.5962C9.18104 12.3034 9.3561 12.0391 9.59289 11.8287L11.2929 10.2849C11.3981 10.1831 11.5264 10.105 11.6682 10.0566C11.8099 10.0081 11.9615 9.99042 12.1116 10.0049C12.2617 10.0194 12.4063 10.0657 12.5347 10.1402C12.663 10.2148 12.7718 10.3157 12.8529 10.4355L15.1829 13.688C15.2231 13.739 15.2448 13.8009 15.2448 13.8645C15.2448 13.928 15.2231 13.9899 15.1829 14.041L13.6479 15.7778C14.1807 17.0633 15.0108 18.2209 16.0779 19.1668Z" fill="white"/>
</svg>
