<svg width="40" height="40" viewBox="0 0 40 40" fill="none" xmlns="http://www.w3.org/2000/svg">
<circle cx="20" cy="20" r="20" fill="url(#paint0_linear_1971_735)"/>
<g clip-path="url(#clip0_1971_735)">
<path d="M29.2959 21.5775C29.8926 16.555 29.0092 13.3842 27.4159 11.95L27.4167 11.9492C24.8451 9.50002 16.1601 9.13752 13.0834 12.0592C11.7017 13.4884 11.2151 15.5859 11.1617 18.1825C11.1084 20.78 11.0451 25.6459 15.5792 26.9659H15.5834L15.5792 28.9817C15.5792 28.9817 15.5484 29.7984 16.0701 29.9625C16.6667 30.1559 16.9367 29.7767 18.7926 27.56C21.8959 27.8292 24.2792 27.2125 24.5501 27.1225C25.1767 26.9125 28.7226 26.4434 29.2959 21.5775ZM19.0984 26.1417C19.0984 26.1417 17.1342 28.5909 16.5234 29.2267C16.3234 29.4334 16.1042 29.4142 16.1076 29.0042C16.1076 28.735 16.1226 25.6575 16.1226 25.6575C12.2784 24.5559 12.5051 20.4125 12.5467 18.245C12.5884 16.0767 12.9851 14.3009 14.1551 13.105C16.8542 10.5742 24.4684 11.14 26.4084 12.9634C28.7801 15.0659 27.9359 21.0059 27.9409 21.2084C27.4534 25.27 24.5801 25.5275 24.0517 25.7034C23.8259 25.7784 21.7301 26.3175 19.0984 26.1417Z" fill="white"/>
<path d="M20.185 13.5808C19.8641 13.5808 19.8641 14.0808 20.185 14.085C22.6741 14.1041 24.7241 15.8391 24.7466 19.0216C24.7466 19.3575 25.2383 19.3533 25.2341 19.0175H25.2333C25.2066 15.5883 22.9683 13.6 20.185 13.5808Z" fill="white"/>
<path d="M23.459 18.494C23.4515 18.8256 23.9423 18.8415 23.9465 18.5056C23.9873 16.6148 22.8215 15.0573 20.6306 14.8931C20.3098 14.8698 20.2765 15.374 20.5965 15.3973C22.4965 15.5415 23.4973 16.8381 23.459 18.494Z" fill="white"/>
<path d="M22.934 20.645C22.5223 20.4067 22.1032 20.555 21.9298 20.7892L21.5673 21.2583C21.3832 21.4967 21.039 21.465 21.039 21.465C18.5273 20.8008 17.8557 18.1725 17.8557 18.1725C17.8557 18.1725 17.8249 17.8167 18.0549 17.6258L18.5082 17.2508C18.7348 17.0708 18.8782 16.6375 18.6473 16.2117C18.0307 15.0975 17.6165 14.7133 17.4057 14.4183C17.184 14.1408 16.8507 14.0783 16.504 14.2658H16.4965C15.7757 14.6875 14.9865 15.4767 15.239 16.2892C15.6699 17.1458 16.4615 19.8767 18.9848 21.94C20.1707 22.9158 22.0473 23.9158 22.844 24.1467L22.8515 24.1583C23.6365 24.42 24.3998 23.6 24.8073 22.8575V22.8517C24.9882 22.4925 24.9282 22.1525 24.664 21.93C24.1957 21.4733 23.489 20.9692 22.934 20.645Z" fill="white"/>
<path d="M20.9741 16.7535C21.775 16.8001 22.1633 17.2185 22.205 18.0776C22.22 18.4135 22.7075 18.3901 22.6925 18.0543C22.6391 16.9326 22.0541 16.3076 21.0008 16.2493C20.68 16.2301 20.65 16.7343 20.9741 16.7535Z" fill="white"/>
</g>
<defs>
<linearGradient id="paint0_linear_1971_735" x1="20" y1="0" x2="20" y2="40" gradientUnits="userSpaceOnUse">
<stop stop-color="#2CD5A8"/>
<stop offset="1" stop-color="#33B879"/>
</linearGradient>
<clipPath id="clip0_1971_735">
<rect width="20" height="20" fill="white" transform="translate(10 10)"/>
</clipPath>
</defs>
</svg>
