<svg width="40" height="40" viewBox="0 0 40 40" fill="none" xmlns="http://www.w3.org/2000/svg">
<circle cx="20" cy="20" r="20" fill="url(#paint0_linear_1971_748)"/>
<g clip-path="url(#clip0_1971_748)">
<path d="M24.5893 21.9226L24.5818 21.9851C22.7493 21.0717 22.5576 20.9501 22.3209 21.3051C22.1568 21.5509 21.6784 22.1084 21.5343 22.2734C21.3884 22.4359 21.2434 22.4484 20.9959 22.3359C20.7459 22.2109 19.9434 21.9484 18.9934 21.0984C18.2534 20.4359 17.7568 19.6234 17.6101 19.3734C17.3659 18.9517 17.8768 18.8917 18.3418 18.0117C18.4251 17.8367 18.3826 17.6992 18.3209 17.5751C18.2584 17.4501 17.7609 16.2251 17.5526 15.7367C17.3526 15.2501 17.1468 15.3117 16.9926 15.3117C16.5126 15.2701 16.1618 15.2767 15.8526 15.5984C14.5076 17.0767 14.8468 18.6017 15.9976 20.2234C18.2593 23.1834 19.4643 23.7284 21.6676 24.4851C22.2626 24.6742 22.8051 24.6476 23.2343 24.5859C23.7126 24.5101 24.7068 23.9851 24.9143 23.3976C25.1268 22.8101 25.1268 22.3226 25.0643 22.2101C25.0026 22.0976 24.8393 22.0351 24.5893 21.9226Z" fill="white"/>
<path d="M27.1 12.8736C20.6925 6.67938 10.0883 11.1719 10.0842 19.9102C10.0842 21.6569 10.5417 23.3602 11.4133 24.8644L10 29.9994L15.2792 28.6227C21.8667 32.181 29.9967 27.456 30 19.9152C30 17.2685 28.9667 14.7777 27.0875 12.9061L27.1 12.8736ZM28.335 19.8877C28.33 26.2486 21.3475 30.2211 15.825 26.9744L15.525 26.7961L12.4 27.6086L13.2375 24.5711L13.0383 24.2586C9.60167 18.7877 13.55 11.6377 20.06 11.6377C22.2717 11.6377 24.3475 12.5002 25.9108 14.0627C27.4733 15.6119 28.335 17.6877 28.335 19.8877Z" fill="white"/>
</g>
<defs>
<linearGradient id="paint0_linear_1971_748" x1="20" y1="0" x2="20" y2="40" gradientUnits="userSpaceOnUse">
<stop stop-color="#2CD5A8"/>
<stop offset="1" stop-color="#33B879"/>
</linearGradient>
<clipPath id="clip0_1971_748">
<rect width="20" height="20" fill="white" transform="translate(10 10)"/>
</clipPath>
</defs>
</svg>
