<svg xmlns="http://www.w3.org/2000/svg" fill="none" viewBox="0 0 25 24"><path fill="#fff" d="M7.8 0A6.93 6.93 0 0 0 .876 6.924v9.587A6.93 6.93 0 0 0 7.8 23.435h9.587a6.93 6.93 0 0 0 6.924-6.924V6.924A6.93 6.93 0 0 0 17.387 0H7.8zm11.185 4.26c.586 0 1.065.48 1.065 1.066 0 .586-.48 1.065-1.065 1.065-.586 0-1.066-.479-1.066-1.065s.48-1.065 1.066-1.065zM12.593 5.86a5.862 5.862 0 0 1 5.86 5.858 5.862 5.862 0 0 1-5.86 5.86 5.862 5.862 0 0 1-5.858-5.86 5.862 5.862 0 0 1 5.858-5.858zm0 1.065A4.8 4.8 0 0 0 7.8 11.717a4.8 4.8 0 0 0 4.793 4.794 4.8 4.8 0 0 0 4.794-4.793 4.8 4.8 0 0 0-4.794-4.794z"/></svg>