<svg width="40" height="40" viewBox="0 0 40 40" fill="none" xmlns="http://www.w3.org/2000/svg">
<rect width="40" height="40" rx="2" fill="#FF20A7"/>
<rect width="40" height="40" rx="2" fill="url(#paint0_radial_0_10827)"/>
<rect width="40" height="40" rx="2" fill="url(#paint1_radial_0_10827)"/>
<path fill-rule="evenodd" clip-rule="evenodd" d="M25.518 32.4817H14.7494C12.8454 32.4817 11.0194 31.7254 9.67301 30.3792C8.32667 29.0331 7.57031 27.2073 7.57031 25.3035V14.1772C7.57031 12.2735 8.32667 10.4477 9.67301 9.10147C11.0194 7.7553 12.8454 6.99902 14.7494 6.99902H25.518C27.4221 6.99902 29.2481 7.7553 30.5944 9.10147C31.9408 10.4477 32.6971 12.2735 32.6971 14.1772V25.3035C32.6971 27.2073 31.9408 29.0331 30.5944 30.3792C29.2481 31.7254 27.4221 32.4817 25.518 32.4817ZM30.3639 13.6389C30.3639 12.449 29.8912 11.3079 29.0497 10.4665C28.2083 9.62516 27.067 9.15249 25.877 9.15249H14.211C13.021 9.15249 11.8797 9.62516 11.0382 10.4665C10.1968 11.3079 9.72404 12.449 9.72404 13.6389V25.3035C9.72404 26.4933 10.1968 27.6345 11.0382 28.4758C11.8797 29.3172 13.021 29.7899 14.211 29.7899H25.877C27.067 29.7899 28.2083 29.3172 29.0497 28.4758C29.8912 27.6345 30.3639 26.4933 30.3639 25.3035V13.6389ZM26.7744 14.3567C26.4549 14.3567 26.1426 14.262 25.877 14.0845C25.6113 13.907 25.4043 13.6548 25.282 13.3597C25.1598 13.0645 25.1278 12.7398 25.1901 12.4265C25.2525 12.1132 25.4063 11.8254 25.6322 11.5996C25.8581 11.3737 26.1459 11.2199 26.4592 11.1575C26.7726 11.0952 27.0974 11.1272 27.3925 11.2494C27.6877 11.3717 27.94 11.5787 28.1175 11.8443C28.295 12.1099 28.3897 12.4222 28.3897 12.7416C28.3897 13.1699 28.2195 13.5808 27.9166 13.8836C27.6137 14.1865 27.2028 14.3567 26.7744 14.3567ZM20.044 26.2008C18.7483 26.2008 17.4818 25.8166 16.4045 25.0969C15.3272 24.3771 14.4876 23.3541 13.9917 22.1573C13.4959 20.9604 13.3662 19.6434 13.6189 18.3728C13.8717 17.1022 14.4956 15.935 15.4118 15.019C16.3279 14.1029 17.4952 13.4791 18.766 13.2264C20.0367 12.9736 21.3539 13.1033 22.5509 13.5991C23.7479 14.0949 24.7711 14.9344 25.4909 16.0116C26.2107 17.0887 26.5949 18.3551 26.5949 19.6506C26.5949 21.3878 25.9047 23.0539 24.6762 24.2823C23.4477 25.5107 21.7814 26.2008 20.044 26.2008ZM20.044 15.4334C19.2098 15.4334 18.3943 15.6808 17.7007 16.1442C17.0071 16.6075 16.4666 17.2662 16.1473 18.0368C15.8281 18.8074 15.7446 19.6553 15.9073 20.4734C16.0701 21.2914 16.4717 22.0429 17.0616 22.6326C17.6515 23.2224 18.403 23.6241 19.2212 23.7868C20.0393 23.9495 20.8873 23.866 21.658 23.5468C22.4287 23.2276 23.0874 22.6871 23.5509 21.9936C24.0143 21.3001 24.2617 20.4847 24.2617 19.6506C24.2617 18.5322 23.8173 17.4595 23.0264 16.6686C22.2354 15.8777 21.1626 15.4334 20.044 15.4334Z" fill="white"/>
<defs>
<radialGradient id="paint0_radial_0_10827" cx="0" cy="0" r="1" gradientUnits="userSpaceOnUse" gradientTransform="translate(10 38.75) rotate(106.302) scale(27.61)">
<stop stop-color="#FFFCB2"/>
<stop offset="0.233898" stop-color="#FFB21C" stop-opacity="0.81768"/>
<stop offset="1" stop-color="#FF24BE" stop-opacity="0"/>
</radialGradient>
<radialGradient id="paint1_radial_0_10827" cx="0" cy="0" r="1" gradientUnits="userSpaceOnUse" gradientTransform="translate(9.5) rotate(75.3027) scale(15.7659 36.9717)">
<stop stop-color="#2E62DF"/>
<stop offset="1" stop-color="#6E48D8" stop-opacity="0"/>
</radialGradient>
</defs>
</svg>
