<svg xmlns="http://www.w3.org/2000/svg" fill="none" viewBox="0 0 17 24"><path fill="#B13957" d="M8 0C3.58 0 0 3.58 0 8c0 3.655 1.93 7.583 3.828 10.627 1.899 3.043 3.798 5.203 3.798 5.203.095.108.232.17.375.17.142 0 .279-.063.375-.17 0 0 1.9-2.205 3.797-5.266C14.069 15.504 16 11.584 16 8.001c0-4.42-3.58-8.001-8-8.001zm0 1c3.882 0 7.001 3.12 7.001 7 0 3.218-1.818 7.042-3.672 10.033-1.553 2.506-2.867 4.12-3.328 4.672-.465-.549-1.78-2.127-3.329-4.61C2.821 15.126 1 11.295 1 8.001c0-3.882 3.12-7 7-7zm0 4a3.507 3.507 0 0 0-3.5 3.5c0 1.929 1.573 3.501 3.5 3.501 1.929 0 3.5-1.572 3.5-3.5S9.93 5 8 5zm0 1c1.387 0 2.5 1.114 2.5 2.5C10.5 9.889 9.388 11 8 11a2.493 2.493 0 0 1-2.5-2.5C5.5 7.115 6.614 6 8 6z"/></svg>