<svg xmlns="http://www.w3.org/2000/svg" fill="none" viewBox="0 0 29 29"><path fill="#B13957" d="M10.6 18.684a.31.31 0 0 1-.21-.075.319.319 0 0 1-.074-.213V12.45c0-.084.025-.15.074-.2a.284.284 0 0 1 .21-.088h.52c.082 0 .148.029.198.087.049.05.074.117.074.201v.426c.445-.56 1.047-.84 1.805-.84.907 0 1.55.385 1.929 1.154a2.21 2.21 0 0 1 .84-.84 2.476 2.476 0 0 1 1.237-.314c.676 0 1.229.234 1.657.702.429.469.643 1.146.643 2.032v3.625a.292.292 0 0 1-.086.213.265.265 0 0 1-.198.075h-.532a.31.31 0 0 1-.21-.075.319.319 0 0 1-.074-.213v-3.512c0-.669-.136-1.145-.408-1.43-.272-.292-.63-.439-1.076-.439-.396 0-.738.15-1.026.452-.28.293-.42.765-.42 1.417v3.512a.292.292 0 0 1-.087.213.265.265 0 0 1-.198.075h-.544a.31.31 0 0 1-.21-.075.32.32 0 0 1-.075-.213v-3.512c0-.66-.144-1.137-.432-1.43a1.395 1.395 0 0 0-1.051-.439c-.396 0-.738.147-1.027.44-.28.292-.42.764-.42 1.417v3.524a.292.292 0 0 1-.087.213.265.265 0 0 1-.198.075H10.6zM21.008 14.295a.265.265 0 0 1-.198-.076.273.273 0 0 1-.074-.2v-.264c0-.067.02-.13.062-.188.041-.067.12-.146.235-.238l.569-.414c.436-.31.754-.543.952-.702.198-.167.346-.326.445-.477a.827.827 0 0 0 .16-.489.54.54 0 0 0-.21-.451.718.718 0 0 0-.494-.176.906.906 0 0 0-.433.088.607.607 0 0 0-.198.163 4.183 4.183 0 0 0-.123.238.638.638 0 0 1-.137.188.307.307 0 0 1-.16.038h-.334c-.148 0-.223-.071-.223-.213 0-.218.075-.423.223-.615.148-.2.342-.36.581-.477.247-.125.515-.188.804-.188.47 0 .849.138 1.137.414.289.268.433.594.433.978 0 .293-.066.552-.198.778a2.515 2.515 0 0 1-.569.652c-.247.21-.614.485-1.1.828h1.78c.083 0 .149.025.199.075.049.05.074.117.074.2v.252c0 .083-.025.15-.074.2a.265.265 0 0 1-.198.076h-2.93zM4.354 4.436a.5.5 0 0 0-.708 0L.464 7.618a.5.5 0 1 0 .708.707L4 5.497l2.828 2.828a.5.5 0 1 0 .708-.707L4.354 4.436zm21.473 20.918a.5.5 0 0 0 0-.707l-3.182-3.182a.5.5 0 0 0-.707.707L24.767 25l-2.829 2.828a.5.5 0 1 0 .707.708l3.182-3.182zM3.5 4.79V21h1V4.79h-1zM8 25.5h17.474v-1H8v1zM3.5 21A4.5 4.5 0 0 0 8 25.5v-1A3.5 3.5 0 0 1 4.5 21h-1z"/><path stroke="#B13957" stroke-linecap="round" d="M28 17.421V3a2 2 0 0 0-2-2H12.842"/></svg>