<svg width="40" height="40" viewBox="0 0 40 40" fill="none" xmlns="http://www.w3.org/2000/svg">
<rect width="40" height="40" rx="2" fill="#35AEE2"/>
<path fill-rule="evenodd" clip-rule="evenodd" d="M16.3579 25.5227C16.431 24.488 17.283 23.6809 18.3201 23.6639L18.8363 23.6554C20.6946 23.6249 21.5861 25.9244 20.1928 27.1544L19.6429 27.6399C18.3011 28.8245 16.1981 27.7852 16.3242 25.9997L16.3579 25.5227Z" fill="#A9CAE1"/>
<path fill-rule="evenodd" clip-rule="evenodd" d="M32.6688 7.61841C32.6814 7.61399 32.68 7.61456 32.6928 7.61057C33.4334 7.37822 33.8756 7.93431 33.956 8.55814C33.9736 8.69512 33.9549 8.83345 33.9266 8.96861L29.3501 30.763C29.3217 30.8982 29.3172 31.0393 29.2741 31.1705C29.0787 31.7658 28.07 32.1565 27.5299 31.8587L16.5247 23.9412C16.4137 23.8613 16.2948 23.7931 16.17 23.7375L12.3447 22.0348L5.52884 19.7962C5.41056 19.7573 5.29569 19.7083 5.18771 19.6464C4.66489 19.3465 4.28171 19.0238 4.704 18.2066C5.1658 17.313 32.2644 7.76093 32.6688 7.61841Z" fill="white"/>
<path fill-rule="evenodd" clip-rule="evenodd" d="M29.1784 11.828C29.4983 12.1857 26.4849 14.746 23.4806 17.4421C20.9207 19.739 18.3237 22.1227 17.1977 23.1594C16.8244 23.5031 16.5973 23.9758 16.5606 24.482L16.1845 29.6703C16.1326 30.3855 15.5871 30.8002 15.1928 30.2012C14.7893 29.5895 14.2659 28.1529 14.0278 27.2666C13.708 26.0775 13.3193 24.4909 13.0515 23.378C12.857 22.5699 13.1826 21.7323 13.8739 21.2708C17.5368 18.8252 28.777 11.3792 29.1784 11.828Z" fill="#C9DAEA"/>
</svg>
