<svg xmlns="http://www.w3.org/2000/svg" width="15" height="13" fill="none" xmlns:v="https://vecta.io/nano"><g clip-path="url(#A)"><path d="M8.514 12.975H6.107c-.402 0-.729-.283-.729-.631V7.648H3.974c-.402 0-.729-.283-.729-.631V5.006c0-.348.327-.631.729-.631h1.404V3.367c0-.999.363-1.849 1.049-2.458s1.652-.935 2.785-.935l1.836.003c.401.001.728.283.728.631v1.868c0 .348-.327.631-.729.631H9.81c-.377 0-.473.065-.493.085-.034.033-.074.127-.074.387v.796h1.71c.129 0 .253.027.361.079.231.112.375.323.375.552l-.001 2.012c0 .348-.327.63-.729.63H9.243v4.696c0 .348-.327.631-.729.631zm-2.255-.762h2.103V7.307c0-.232.218-.421.487-.421h1.959l.001-1.749h-1.96c-.268 0-.487-.189-.487-.421V3.579c0-.298.035-.636.295-.891.314-.308.809-.343 1.154-.343h1.084V.739L9.211.737c-1.821 0-2.952 1.008-2.952 2.631v1.349c0 .232-.218.421-.487.421H4.126v1.749h1.647c.268 0 .487.189.487.421v4.905zM11.045.739h0 0z" fill="#1c2d5a"/></g><defs><clipPath id="A"><path fill="#fff" d="M0 0h15v13H0z"/></clipPath></defs></svg>