<svg xmlns="http://www.w3.org/2000/svg" width="12" height="11" fill="none" xmlns:v="https://vecta.io/nano"><g clip-path="url(#A)"><path d="M11.672 8.073L9.998 6.538c-.598-.548-1.615-.329-1.854.384-.179.493-.778.768-1.316.658-1.196-.274-2.811-1.7-3.11-2.851-.179-.493.179-1.042.718-1.206.778-.219 1.017-1.151.419-1.7L3.179.288c-.478-.384-1.196-.384-1.615 0L.428 1.329c-1.136 1.096.12 4.002 2.931 6.579s5.981 3.783 7.177 2.686l1.136-1.042c.419-.439.419-1.096 0-1.48z" fill="#1c2d5a"/></g><defs><clipPath id="A"><path fill="#fff" d="M0 0h12v11H0z"/></clipPath></defs></svg>