<svg xmlns="http://www.w3.org/2000/svg" width="13" height="14" fill="none" xmlns:v="https://vecta.io/nano"><g clip-path="url(#A)" fill="#1c2d5a"><path d="M6.407 6.744c.86 0 1.605-.332 2.214-.988s.917-1.458.917-2.384-.309-1.728-.917-2.384S7.267 0 6.407 0 4.802.332 4.193.988s-.917 1.458-.917 2.384.309 1.729.917 2.384 1.354.988 2.214.988zm5.479 4.021a8.97 8.97 0 0 0-.105-.885 7.43 7.43 0 0 0-.202-.889c-.084-.283-.198-.562-.339-.829a3.13 3.13 0 0 0-.512-.719 2.24 2.24 0 0 0-.735-.498 2.38 2.38 0 0 0-.939-.183c-.133 0-.261.059-.509.232l-.53.368c-.17.117-.401.226-.686.325-.278.097-.56.146-.839.146a2.55 2.55 0 0 1-.839-.146c-.285-.099-.515-.208-.685-.325l-.531-.368c-.248-.174-.376-.232-.509-.232a2.38 2.38 0 0 0-.939.183 2.24 2.24 0 0 0-.736.498c-.193.199-.365.441-.512.718a4.58 4.58 0 0 0-.34.83 7.57 7.57 0 0 0-.202.889l-.105.885-.026.827c0 .731.216 1.322.641 1.759.42.43.976.649 1.652.649h6.26c.676 0 1.232-.218 1.652-.649.425-.436.641-1.028.641-1.759l-.026-.827z"/></g><defs><clipPath id="A"><path fill="#fff" d="M0 0h13v14H0z"/></clipPath></defs></svg>