<svg xmlns="http://www.w3.org/2000/svg" fill="none" viewBox="0 0 26 24"><path fill="#fff" d="M25.39.322c-.44-.372-1.13-.426-1.844-.14-.751.302-21.24 9.09-22.075 9.45-.152.052-1.477.546-1.34 1.648.122.993 1.187 1.404 1.317 1.451l5.209 1.784c.345 1.15 1.62 5.395 1.901 6.301.176.566.462 1.308.964 1.461.44.17.879.015 1.162-.208l3.185-2.954 5.141 4.01.123.073c.349.155.683.232 1.003.232.246 0 .483-.046.709-.139.77-.316 1.078-1.05 1.11-1.133l3.84-19.96c.235-1.067-.09-1.61-.406-1.876zM11.25 15.228l-1.756 4.686-1.758-5.857L21.21 4.099l-9.958 11.13z"/></svg>