<svg width="40" height="40" viewBox="0 0 40 40" fill="none" xmlns="http://www.w3.org/2000/svg">
<rect width="40" height="40" rx="2" fill="#55ABED"/>
<path fill-rule="evenodd" clip-rule="evenodd" d="M30.649 14.3656C30.8788 14.114 30.6016 13.7435 30.2742 13.8379C29.9208 13.9398 29.6972 13.4119 29.9454 13.1404C30.0781 12.9952 30.2016 12.8425 30.3141 12.6831C30.5549 12.3418 30.176 11.9881 29.7884 12.1438C29.3078 12.3368 28.8126 12.4929 28.3071 12.6106C27.9643 12.6903 27.614 12.5664 27.3394 12.3462C26.9878 12.0643 26.5968 11.8325 26.1776 11.6582C25.5843 11.4116 24.9468 11.2854 24.3031 11.2871C21.6714 11.2871 19.5776 13.2724 19.5776 15.7735C19.5776 16.3526 19.0797 16.8296 18.5047 16.7604C15.792 16.4339 13.3354 15.373 11.3714 13.7587C10.5153 13.0549 9.16839 13.2307 9.21794 14.3379C9.21794 15.3618 9.51985 16.301 10.0829 17.0571C10.3469 17.4117 10.111 17.9843 9.69216 17.8428C9.52424 17.7861 9.3592 17.7205 9.19779 17.6461C9.12307 17.6117 9.03619 17.6653 9.03619 17.7475C9.03619 19.5167 10.2118 20.9551 11.8084 21.6686C12.0977 21.7979 12.0793 22.2294 11.7624 22.2339C11.334 22.2695 11.0127 22.6897 11.2299 23.0607C11.4099 23.3682 11.6255 23.6504 11.8718 23.9029C12.7281 24.7806 13.0929 26.6002 11.9097 26.9221C11.0973 27.1431 10.2535 27.2577 9.39969 27.2587C9.08658 27.2587 8.9732 27.5601 9.25377 27.6991C11.1435 28.6351 13.3476 29.2327 15.5792 29.2327C24.3486 29.2327 29.0286 22.3046 29.0286 16.3119C29.0286 16.2842 29.0288 16.2575 29.0291 16.2315C29.0322 15.9467 29.1733 15.6777 29.4001 15.5056C29.8509 15.1634 30.2689 14.7818 30.649 14.3656Z" fill="white"/>
</svg>
