<svg xmlns="http://www.w3.org/2000/svg" fill="none" viewBox="0 0 39 24"><path fill="#fff" d="M38.283 21.007c-1.56-2.806-5.576-6.178-7.234-7.645a1.078 1.078 0 0 1-.09-1.54c3.165-3.401 5.696-7.308 6.567-9.67.384-1.042-.411-2.144-1.532-2.144h-3.257c-1.073 0-1.701.385-2 .998-2.63 5.39-4.886 7.722-6.465 9.085-.885.764-2.263.131-2.263-1.03V1.875c0-.995-.814-1.8-1.818-1.8L14.242.007c-.749 0-1.176.848-.727 1.442l.982 1.41c.37.488.57 1.083.57 1.693l-.006 6.35c0 1.104-1.338 1.643-2.133.87-2.69-2.62-5.022-7.967-5.862-10.524A1.811 1.811 0 0 0 5.343.008L2.136 0C.932 0 .052 1.141.379 2.29 3.31 12.578 9.324 22.365 20.042 23.426c1.056.104 1.967-.746 1.967-1.798V18.29c0-.957.75-1.78 1.715-1.804l.102-.001c2.834 0 6.01 4.125 7.12 6.055.319.555.916.894 1.561.894h4.315c1.26 0 2.067-1.335 1.46-2.428z"/></svg>