<svg width="36" height="36" viewBox="0 0 36 36" fill="none" xmlns="http://www.w3.org/2000/svg">
<g id="Group 26">
<ellipse id="Ellipse 23" cx="18" cy="17.9999" rx="18" ry="17.9999" fill="#D5D0CD"/>
<path id="Ellipse 28" d="M18 0.000125885C20.3638 0.000125885 22.7044 0.46571 24.8883 1.37029C27.0722 2.27487 29.0565 3.60074 30.7279 5.27219C32.3994 6.94363 33.7252 8.92793 34.6298 11.1118C35.5344 13.2956 36 15.6363 36 18.0001C36 20.3638 35.5344 22.7045 34.6298 24.8883C33.7252 27.0722 32.3994 29.0565 30.7279 30.7279C29.0565 32.3994 27.0721 33.7253 24.8883 34.6298C22.7044 35.5344 20.3638 36 18 36L18 18.0001L18 0.000125885Z" fill="#BAAB9C"/>
</g>
</svg>
