<svg width="57" height="57" viewBox="0 0 57 57" fill="none" xmlns="http://www.w3.org/2000/svg">
<path d="M44.5713 12.7331L39.7562 7.60082C38.7932 6.58404 37.5091 6 36.1334 6H16.139C14.7633 6 13.4792 6.58101 12.5162 7.60082C11.5532 8.62062 11 9.97329 11 11.4258V46.6256C11 49.5791 13.2929 52 16.0903 52H40.8998C43.6972 52 45.9901 49.5791 45.9901 46.6256V16.5097C46.0818 15.1056 45.5315 13.7499 44.5685 12.7331H44.5713ZM43.2414 14.1372C43.7 14.6214 43.9752 15.2024 44.1127 15.8319H37.5091C37.0964 15.8319 36.7754 15.4929 36.7754 15.0572V8.08499C37.3715 8.23025 37.9218 8.52076 38.3804 9.00493L43.2414 14.1372V14.1372ZM40.9915 50.0149H16.1362C14.3477 50.0149 12.9261 48.5139 12.9261 46.6256V11.3804C12.9261 10.4605 13.2471 9.63739 13.8891 8.95954C14.4853 8.33011 15.3107 7.94277 16.182 7.94277L34.9382 7.99118V15.0602C34.9382 16.5611 36.1305 17.82 37.5521 17.82H44.2016V46.5833C44.2016 48.4715 42.7341 50.0239 40.9915 50.0239V50.0149Z" fill="white"/>
<path d="M36.9416 32H25.0103C24.4811 32 24 32.6429 24 33.5C24 34.2857 24.433 35 25.0103 35H36.9897C37.5189 35 38 34.3571 38 33.5C37.9519 32.6429 37.5189 32 36.9416 32Z" fill="white"/>
<path d="M36.9416 23H25.0103C24.4811 23 24 23.6429 24 24.5C24 25.2857 24.433 26 25.0103 26H36.9897C37.5189 26 38 25.3571 38 24.5C37.9519 23.6429 37.5189 23 36.9416 23Z" fill="white"/>
<path d="M36.9416 41H25.0103C24.4811 41 24 41.6429 24 42.5C24 43.3571 24.433 44 25.0103 44H36.9897C37.5189 44 38 43.3571 38 42.5C38 41.6429 37.5189 41 36.9416 41Z" fill="white"/>
<path d="M21.0156 23H19.9844C19.4688 23 19 23.4219 19 23.9844V25.0156C19 25.5313 19.4219 26 19.9844 26H21.0156C21.5313 26 22 25.5781 22 25.0156V23.9844C21.9531 23.4219 21.5313 23 21.0156 23Z" fill="white"/>
<path d="M21.0156 32H19.9844C19.4688 32 19 32.4219 19 32.9844V34.0156C19 34.5312 19.4219 35 19.9844 35H21.0156C21.5313 35 22 34.5781 22 34.0156V32.9375C21.9531 32.4219 21.5313 32 21.0156 32Z" fill="white"/>
<path d="M21.0156 41H19.9844C19.4688 41 19 41.4219 19 41.9844V43.0156C19 43.5312 19.4219 44 19.9844 44H21.0156C21.5313 44 22 43.5781 22 43.0156V41.9844C21.9531 41.4219 21.5313 41 21.0156 41Z" fill="white"/>
</svg>
