<svg width="57" height="57" viewBox="0 0 57 57" fill="none" xmlns="http://www.w3.org/2000/svg">
<path d="M49.0562 26.7948L46.3262 21.8831L48.1579 18.1498C48.5607 17.3171 48.6175 16.3587 48.3158 15.4843C48.0141 14.6098 47.3785 13.8904 46.5479 13.4831L35.1496 8.19813C34.3957 7.83732 33.5338 7.77257 32.7345 8.01669C31.9352 8.26081 31.2566 8.79603 30.8329 9.51647L28.3012 13.7165L25.7462 9.51647C25.4454 9.02079 25.0226 8.61044 24.5181 8.32452C24.0137 8.0386 23.4444 7.88664 22.8646 7.88313C22.3806 7.88573 21.903 7.99319 21.4646 8.19813L10.1129 13.5065C9.28026 13.9116 8.64209 14.6302 8.33815 15.5048C8.0342 16.3795 8.08925 17.339 8.49123 18.1731L10.3346 21.8831L8.09457 25.8381C7.79433 26.3734 7.60262 26.9627 7.53044 27.5722C7.45825 28.1817 7.507 28.7994 7.67389 29.39C7.84078 29.9806 8.12253 30.5325 8.50302 31.0141C8.88351 31.4957 9.35525 31.8975 9.89123 32.1965L10.2879 32.4065V39.6515C10.2891 40.5388 10.5433 41.4074 11.0206 42.1554C11.4979 42.9035 12.1786 43.4999 12.9829 43.8748L24.6496 49.1131C25.7857 49.6205 27.0161 49.8828 28.2604 49.8828C29.5047 49.8828 30.7351 49.6205 31.8712 49.1131L43.5379 43.8748C44.3443 43.5016 45.0275 42.9059 45.5069 42.1577C45.9864 41.4096 46.2423 40.5401 46.2446 39.6515V32.3131L47.5512 31.6015C47.9716 31.391 48.3452 31.098 48.6498 30.74C48.9544 30.382 49.1838 29.9663 49.3243 29.5177C49.4648 29.0691 49.5134 28.5968 49.4674 28.129C49.4213 27.6611 49.2815 27.2074 49.0562 26.7948ZM29.4679 30.5165V16.6098L43.5379 23.3298L29.4679 30.5165ZM30.6346 14.4048L32.8629 10.7298C32.9518 10.5758 33.0792 10.4475 33.2326 10.3575C33.386 10.2675 33.5601 10.2189 33.7379 10.2165C33.883 10.2168 34.0263 10.2487 34.1579 10.3098L45.5212 15.6181C45.6515 15.681 45.7681 15.7691 45.8642 15.8772C45.9603 15.9853 46.0341 16.1114 46.0812 16.2481C46.1337 16.4067 46.1535 16.5742 46.1395 16.7407C46.1255 16.9071 46.0779 17.0689 45.9996 17.2165L44.0979 21.0665L30.6346 14.5798V14.4048ZM10.5329 16.2481C10.5801 16.1114 10.6538 15.9853 10.75 15.8772C10.8461 15.7691 10.9626 15.681 11.0929 15.6181L22.4562 10.3098C22.5841 10.25 22.7234 10.2182 22.8646 10.2165C23.0444 10.2169 23.2209 10.2645 23.3765 10.3546C23.5321 10.4447 23.6613 10.5741 23.7512 10.7298L25.9679 14.4048V14.5798L12.4929 21.0198L10.5912 17.2165C10.5126 17.0687 10.4667 16.9057 10.4566 16.7387C10.4466 16.5716 10.4726 16.4043 10.5329 16.2481ZM27.1346 16.6098V30.5165L13.0646 23.3298L27.1346 16.6098ZM10.1362 26.9698L11.2329 25.0098L25.9679 32.5465V32.8848L24.8946 35.0898C24.7199 35.4565 24.4457 35.7669 24.1034 35.9855C23.761 36.2041 23.3641 36.3223 22.9579 36.3265C22.6106 36.3287 22.2688 36.2402 21.9662 36.0698L10.9996 30.1431C10.4751 29.8454 10.0862 29.3563 9.91457 28.7781C9.82834 28.4773 9.80353 28.1621 9.84161 27.8514C9.8797 27.5408 9.97989 27.2409 10.1362 26.9698ZM13.9396 41.7165C13.5465 41.5266 13.2145 41.2302 12.9815 40.861C12.7484 40.4918 12.6236 40.0647 12.6212 39.6281V33.7131L20.7879 38.1581C21.3295 38.4482 21.9243 38.6252 22.5364 38.6785C23.1484 38.7319 23.7649 38.6604 24.3485 38.4684C24.9321 38.2764 25.4707 37.9679 25.9315 37.5616C26.3924 37.1553 26.7659 36.6597 27.0296 36.1048L27.0996 35.9648V47.4331C26.5886 47.344 26.0908 47.1911 25.6179 46.9781L13.9396 41.7165ZM43.9929 39.6281C43.9905 40.0647 43.8657 40.4918 43.6327 40.861C43.3996 41.2302 43.0677 41.5266 42.6746 41.7165L31.0079 46.9548C30.5315 47.1694 30.0297 47.3223 29.5146 47.4098V35.9648C29.8702 36.7119 30.4145 37.3534 31.0938 37.826C31.773 38.2986 32.5637 38.586 33.3879 38.6598H33.6912C34.4557 38.6616 35.2075 38.4646 35.8729 38.0881L44.0396 33.6198L43.9929 39.6281ZM47.1662 28.8831C47.075 29.1667 46.8789 29.4046 46.6179 29.5481H46.5596L34.6479 36.0465C34.3411 36.2168 33.9955 36.3052 33.6446 36.3031C33.2377 36.3017 32.8397 36.1847 32.4968 35.9657C32.154 35.7468 31.8804 35.4349 31.7079 35.0665L30.6346 32.8848V32.5465L45.3812 25.0098L47.0146 27.9381C47.1014 28.0777 47.1595 28.2331 47.1855 28.3954C47.2116 28.5576 47.205 28.7234 47.1662 28.8831Z" fill="white"/>
</svg>
