<svg width="57" height="57" viewBox="0 0 57 57" fill="none" xmlns="http://www.w3.org/2000/svg">
<path d="M15.6663 39.3832C16.5946 39.3832 17.4848 39.0144 18.1412 38.358C18.7976 37.7017 19.1663 36.8114 19.1663 35.8832V26.5498C19.1665 25.6336 18.8074 24.7538 18.1661 24.0994C17.5248 23.445 16.6524 23.0682 15.7363 23.0498C16.0232 20.4839 17.2454 18.1136 19.1695 16.3919C21.0935 14.6702 23.5844 13.7177 26.1663 13.7165H30.833C33.4149 13.7177 35.9059 14.6702 37.8299 16.3919C39.7539 18.1136 40.9761 20.4839 41.263 23.0498C40.3469 23.0682 39.4746 23.445 38.8333 24.0994C38.192 24.7538 37.8328 25.6336 37.833 26.5498V35.8832C37.8314 36.7762 38.1712 37.636 38.7828 38.2867C39.3944 38.9373 40.2316 39.3296 41.123 39.3832C40.8823 40.064 40.4369 40.6537 39.8479 41.0714C39.2589 41.4891 38.5551 41.7145 37.833 41.7165H32.9563C32.6811 40.9381 32.1396 40.282 31.4275 39.8643C30.7153 39.4465 29.8784 39.294 29.0647 39.4336C28.2509 39.5732 27.5127 39.996 26.9806 40.6272C26.4484 41.2585 26.1565 42.0575 26.1565 42.8832C26.1565 43.7088 26.4484 44.5078 26.9806 45.1391C27.5127 45.7703 28.2509 46.1931 29.0647 46.3328C29.8784 46.4724 30.7153 46.3198 31.4275 45.9021C32.1396 45.4843 32.6811 44.8282 32.9563 44.0498H37.833C39.2523 44.0434 40.6206 43.5197 41.6815 42.5769C42.7424 41.6341 43.4232 40.3369 43.5963 38.9282C44.6547 38.4826 45.5581 37.7346 46.1931 36.7778C46.8282 35.8211 47.1667 34.6982 47.1663 33.5498V28.8832C47.168 27.7467 46.8377 26.6344 46.2159 25.6831C45.5941 24.7317 44.708 23.9828 43.6663 23.5282C43.49 20.2452 42.0605 17.1552 39.6726 14.8954C37.2847 12.6356 34.1207 11.3784 30.833 11.3832H26.1663C22.8787 11.3784 19.7146 12.6356 17.3268 14.8954C14.9389 17.1552 13.5093 20.2452 13.333 23.5282C12.2914 23.9828 11.4052 24.7317 10.7835 25.6831C10.1617 26.6344 9.83133 27.7467 9.83301 28.8832V33.5498C9.83301 35.0969 10.4476 36.5807 11.5416 37.6746C12.6355 38.7686 14.1193 39.3832 15.6663 39.3832ZM29.6663 44.0498C29.4356 44.0498 29.21 43.9814 29.0182 43.8532C28.8263 43.725 28.6768 43.5428 28.5885 43.3296C28.5002 43.1164 28.4771 42.8819 28.5221 42.6556C28.5671 42.4292 28.6782 42.2214 28.8414 42.0582C29.0045 41.895 29.2124 41.7839 29.4387 41.7389C29.6651 41.6939 29.8996 41.717 30.1128 41.8053C30.326 41.8936 30.5082 42.0431 30.6364 42.235C30.7646 42.4269 30.833 42.6524 30.833 42.8832C30.833 43.1926 30.7101 43.4893 30.4913 43.7081C30.2725 43.9269 29.9758 44.0498 29.6663 44.0498ZM44.833 28.8832V33.5498C44.833 34.4781 44.4643 35.3683 43.8079 36.0247C43.1515 36.6811 42.2613 37.0498 41.333 37.0498C41.0236 37.0498 40.7268 36.9269 40.5081 36.7081C40.2893 36.4893 40.1663 36.1926 40.1663 35.8832V26.5498C40.1663 26.2404 40.2893 25.9437 40.5081 25.7249C40.7268 25.5061 41.0236 25.3832 41.333 25.3832C42.2613 25.3832 43.1515 25.7519 43.8079 26.4083C44.4643 27.0647 44.833 27.9549 44.833 28.8832ZM12.1663 28.8832C12.1663 27.9549 12.5351 27.0647 13.1915 26.4083C13.8479 25.7519 14.7381 25.3832 15.6663 25.3832C15.9758 25.3832 16.2725 25.5061 16.4913 25.7249C16.7101 25.9437 16.833 26.2404 16.833 26.5498V35.8832C16.833 36.1926 16.7101 36.4893 16.4913 36.7081C16.2725 36.9269 15.9758 37.0498 15.6663 37.0498C14.7381 37.0498 13.8479 36.6811 13.1915 36.0247C12.5351 35.3683 12.1663 34.4781 12.1663 33.5498V28.8832Z" fill="white"/>
</svg>
