<svg width="45" height="45" viewBox="0 0 45 45" fill="none" xmlns="http://www.w3.org/2000/svg">
<g clip-path="url(#clip0_13_2)">
<path d="M37.75 -0.5H6.25C4.45979 -0.5 2.7429 0.211159 1.47703 1.47703C0.211159 2.7429 -0.5 4.45979 -0.5 6.25V28.75C-0.5 30.5402 0.211159 32.2571 1.47703 33.523C2.7429 34.7888 4.45979 35.5 6.25 35.5H32.3275L40.6525 43.8475C40.8627 44.056 41.1121 44.221 41.3862 44.333C41.6603 44.445 41.9539 44.5017 42.25 44.5C42.5451 44.5076 42.838 44.446 43.105 44.32C43.5159 44.1512 43.8676 43.8646 44.1159 43.4962C44.3641 43.1278 44.4978 42.6942 44.5 42.25V6.25C44.5 4.45979 43.7888 2.7429 42.523 1.47703C41.2571 0.211159 39.5402 -0.5 37.75 -0.5Z" fill="white"/>
<circle cx="12.3282" cy="17.1642" r="2.8209" fill="#FF0000"/>
<circle cx="21.1939" cy="17.1642" r="2.8209" fill="#FF0000"/>
<circle cx="30.8658" cy="17.1642" r="2.8209" fill="#FF0000"/>
</g>
<defs>
<clipPath id="clip0_13_2">
<rect width="45" height="45" fill="white"/>
</clipPath>
</defs>
</svg>
