<svg width="52" height="8" viewBox="0 0 52 8" fill="none" xmlns="http://www.w3.org/2000/svg">
<g clip-path="url(#clip0_256_1254)">
<path d="M9.12976 0H7.95172V6.64151H9.12976V0Z" fill="white"/>
<path d="M1.17804 1.35849H0V8H1.17804V1.35849Z" fill="white"/>
<path d="M3.82861 0.905655H2.65057V7.54716H3.82861V0.905655Z" fill="white"/>
<path d="M6.47918 0.452835H5.30115V7.09434H6.47918V0.452835Z" fill="white"/>
<path d="M41.9408 3.81873L39.9397 1.57323H38.7698V6.77234H39.9913V3.45521L41.8183 5.4205H42.044L43.8396 3.45521V6.77234H45.061V1.57323H43.8912L41.9408 3.81873Z" fill="white"/>
<path d="M50.8809 1.57323L47.8535 4.95246V1.57323H46.632V6.77234H47.751L50.7785 3.39311V6.77234H52V1.57323H50.8809Z" fill="white"/>
<path d="M32.1906 3.47566C32.1906 4.30342 32.6391 4.95549 33.3275 5.22889L32.0366 6.77234H33.5316L34.706 5.36824H35.9768V6.77234H37.1982V1.57323H34.0885C32.9291 1.57323 32.1906 2.37373 32.1906 3.47566ZM35.9775 2.71832V4.25571H34.315C33.7604 4.25571 33.4628 3.94369 33.4628 3.48626C33.4628 3.02883 33.7708 2.7168 34.315 2.7168L35.9775 2.71832Z" fill="white"/>
<path d="M26.5142 2.61305C26.4395 4.40112 26.0657 5.5553 25.3339 5.5553H25.1507V6.80339L25.3458 6.81399C26.8132 6.89654 27.6243 5.59695 27.7574 2.75846H29.6875V6.77234H30.9067V1.57323H26.5553L26.5142 2.61305Z" fill="white"/>
<path d="M21.9159 1.50052C20.2639 1.50052 19.0753 2.6547 19.0753 4.1724C19.0753 5.74236 20.3685 6.85564 21.9159 6.85564C23.5276 6.85564 24.7797 5.68026 24.7797 4.1724C24.7797 2.66454 23.5276 1.50052 21.9159 1.50052ZM21.9159 5.60755C20.9822 5.60755 20.3461 4.99411 20.3461 4.1724C20.3461 3.33024 20.983 2.73346 21.9159 2.73346C22.8488 2.73346 23.5066 3.35751 23.5066 4.1724C23.5066 4.98729 22.8398 5.60755 21.9159 5.60755Z" fill="white"/>
<path d="M17.7795 1.5831H13.4685L13.4274 2.62292C13.3661 4.12093 12.9788 5.54548 12.247 5.56593L11.9084 5.57653V8.00001H13.1403V6.77313H17.4199V8.00001H18.6623V5.56593H17.7795V1.5831ZM16.558 5.56593H13.9514C14.3924 4.89039 14.6286 3.91267 14.6698 2.76909H16.558V5.56593Z" fill="white"/>
</g>
<defs>
<clipPath id="clip0_256_1254">
<rect width="52" height="8" fill="white"/>
</clipPath>
</defs>
</svg>
