<svg width="18" height="20" viewBox="0 0 18 20" fill="none" xmlns="http://www.w3.org/2000/svg">
<path fill-rule="evenodd" clip-rule="evenodd" d="M17 3.00001H15.83C15.6234 2.41448 15.2403 1.90744 14.7334 1.5488C14.2265 1.19015 13.6209 0.997559 13 0.997559C12.3791 0.997559 11.7735 1.19015 11.2666 1.5488C10.7597 1.90744 10.3766 2.41448 10.17 3.00001H1C0.734784 3.00001 0.48043 3.10537 0.292893 3.2929C0.105357 3.48044 0 3.73479 0 4.00001C0 4.26523 0.105357 4.51958 0.292893 4.70712C0.48043 4.89465 0.734784 5.00001 1 5.00001H10.17C10.3766 5.58554 10.7597 6.09258 11.2666 6.45122C11.7735 6.80986 12.3791 7.00246 13 7.00246C13.6209 7.00246 14.2265 6.80986 14.7334 6.45122C15.2403 6.09258 15.6234 5.58554 15.83 5.00001H17C17.2652 5.00001 17.5196 4.89465 17.7071 4.70712C17.8946 4.51958 18 4.26523 18 4.00001C18 3.73479 17.8946 3.48044 17.7071 3.2929C17.5196 3.10537 17.2652 3.00001 17 3.00001ZM13 5.00001C13.2652 5.00001 13.5196 4.89465 13.7071 4.70712C13.8946 4.51958 14 4.26523 14 4.00001C14 3.73479 13.8946 3.48044 13.7071 3.2929C13.5196 3.10537 13.2652 3.00001 13 3.00001C12.7348 3.00001 12.4804 3.10537 12.2929 3.2929C12.1054 3.48044 12 3.73479 12 4.00001C12 4.26523 12.1054 4.51958 12.2929 4.70712C12.4804 4.89465 12.7348 5.00001 13 5.00001ZM0 10C0 9.73479 0.105357 9.48044 0.292893 9.2929C0.48043 9.10537 0.734784 9.00001 1 9.00001H2.17C2.3766 8.41448 2.75974 7.90744 3.2666 7.5488C3.77346 7.19015 4.37909 6.99756 5 6.99756C5.62091 6.99756 6.22654 7.19015 6.7334 7.5488C7.24026 7.90744 7.6234 8.41448 7.83 9.00001H17C17.2652 9.00001 17.5196 9.10537 17.7071 9.2929C17.8946 9.48044 18 9.73479 18 10C18 10.2652 17.8946 10.5196 17.7071 10.7071C17.5196 10.8947 17.2652 11 17 11H7.83C7.6234 11.5855 7.24026 12.0926 6.7334 12.4512C6.22654 12.8099 5.62091 13.0025 5 13.0025C4.37909 13.0025 3.77346 12.8099 3.2666 12.4512C2.75974 12.0926 2.3766 11.5855 2.17 11H1C0.734784 11 0.48043 10.8947 0.292893 10.7071C0.105357 10.5196 0 10.2652 0 10ZM5 11C5.26522 11 5.51957 10.8947 5.70711 10.7071C5.89464 10.5196 6 10.2652 6 10C6 9.73479 5.89464 9.48044 5.70711 9.2929C5.51957 9.10537 5.26522 9.00001 5 9.00001C4.73478 9.00001 4.48043 9.10537 4.29289 9.2929C4.10536 9.48044 4 9.73479 4 10C4 10.2652 4.10536 10.5196 4.29289 10.7071C4.48043 10.8947 4.73478 11 5 11ZM1 15C0.734784 15 0.48043 15.1054 0.292893 15.2929C0.105357 15.4804 0 15.7348 0 16C0 16.2652 0.105357 16.5196 0.292893 16.7071C0.48043 16.8947 0.734784 17 1 17H10.17C10.3766 17.5855 10.7597 18.0926 11.2666 18.4512C11.7735 18.8099 12.3791 19.0025 13 19.0025C13.6209 19.0025 14.2265 18.8099 14.7334 18.4512C15.2403 18.0926 15.6234 17.5855 15.83 17H17C17.2652 17 17.5196 16.8947 17.7071 16.7071C17.8946 16.5196 18 16.2652 18 16C18 15.7348 17.8946 15.4804 17.7071 15.2929C17.5196 15.1054 17.2652 15 17 15H15.83C15.6234 14.4145 15.2403 13.9074 14.7334 13.5488C14.2265 13.1902 13.6209 12.9976 13 12.9976C12.3791 12.9976 11.7735 13.1902 11.2666 13.5488C10.7597 13.9074 10.3766 14.4145 10.17 15H1ZM14 16C14 16.2652 13.8946 16.5196 13.7071 16.7071C13.5196 16.8947 13.2652 17 13 17C12.7348 17 12.4804 16.8947 12.2929 16.7071C12.1054 16.5196 12 16.2652 12 16C12 15.7348 12.1054 15.4804 12.2929 15.2929C12.4804 15.1054 12.7348 15 13 15C13.2652 15 13.5196 15.1054 13.7071 15.2929C13.8946 15.4804 14 15.7348 14 16Z" fill="white"/>
</svg>
