<svg width="17" height="17" viewBox="0 0 17 17" fill="none" xmlns="http://www.w3.org/2000/svg">
<g clip-path="url(#clip0_57_2419)">
<path fill-rule="evenodd" clip-rule="evenodd" d="M5.95 15.3043C3.60655 15.3043 1.7 13.3977 1.7 11.0543C1.7 8.7108 3.60655 6.80425 5.95 6.80425C8.29345 6.80425 10.2 8.7108 10.2 11.0543C10.2 13.3977 8.29345 15.3043 5.95 15.3043ZM10.2 0V1.7H14.0981L9.5081 6.29168C8.48253 5.51981 7.23359 5.10274 5.95 5.10342C4.77324 5.10342 3.6229 5.4523 2.64445 6.10605C1.66599 6.75981 0.903367 7.68904 0.453001 8.77621C0.00263437 9.86338 -0.115245 11.0597 0.114268 12.2139C0.343781 13.368 0.910379 14.4282 1.74242 15.2604C2.57445 16.0925 3.63456 16.6593 4.78869 16.889C5.94283 17.1187 7.13914 17.0009 8.22638 16.5507C9.31362 16.1005 10.2429 15.338 10.8968 14.3596C11.5507 13.3813 11.8998 12.231 11.9 11.0543C11.8998 9.77041 11.4825 8.52138 10.7109 7.49529L15.3 2.9061V6.8H17V0H10.2Z" fill="#559DDF"/>
</g>
<defs>
<clipPath id="clip0_57_2419">
<rect width="17" height="17" fill="white"/>
</clipPath>
</defs>
</svg>
