<svg width="32" height="32" viewBox="0 0 32 32" fill="none" xmlns="http://www.w3.org/2000/svg">
<rect opacity="0.08" width="32" height="32" rx="4" fill="#B182BC"/>
<path fill-rule="evenodd" clip-rule="evenodd" d="M13.8666 11.4667C14.1853 11.4667 14.4736 11.6558 14.6005 11.9482L16.2503 15.7497L20.0518 17.3995C20.3441 17.5263 20.5333 17.8146 20.5333 18.1333C20.5333 18.452 20.3441 18.7403 20.0518 18.8672L16.2503 20.517L14.6005 24.3185C14.4736 24.6108 14.1853 24.8 13.8666 24.8C13.5479 24.8 13.2596 24.6108 13.1327 24.3185L11.483 20.517L7.68146 18.8672C7.38911 18.7403 7.19995 18.452 7.19995 18.1333C7.19995 17.8146 7.38911 17.5263 7.68146 17.3995L11.483 15.7497L13.1327 11.9482C13.2596 11.6558 13.5479 11.4667 13.8666 11.4667ZM13.8666 14.2762L12.825 16.6763C12.7442 16.8625 12.5957 17.0109 12.4096 17.0917L10.0095 18.1333L12.4096 19.175C12.5957 19.2557 12.7442 19.4042 12.825 19.5904L13.8666 21.9905L14.9082 19.5904C14.989 19.4042 15.1375 19.2557 15.3236 19.175L17.7238 18.1333L15.3236 17.0917C15.1375 17.0109 14.989 16.8625 14.9082 16.6763L13.8666 14.2762Z" fill="black"/>
<path fill-rule="evenodd" clip-rule="evenodd" d="M20.5333 6.66669C20.852 6.66669 21.1403 6.85585 21.2671 7.1482L22.1906 9.27604L24.3184 10.1995C24.6108 10.3264 24.7999 10.6147 24.7999 10.9334C24.7999 11.2521 24.6108 11.5403 24.3184 11.6672L22.1906 12.5907L21.2671 14.7185C21.1403 15.0109 20.852 15.2 20.5333 15.2C20.2146 15.2 19.9263 15.0109 19.7994 14.7185L18.876 12.5907L16.7481 11.6672C16.4558 11.5403 16.2666 11.2521 16.2666 10.9334C16.2666 10.6147 16.4558 10.3264 16.7481 10.1995L18.876 9.27604L19.7994 7.1482C19.9263 6.85585 20.2146 6.66669 20.5333 6.66669ZM20.5333 9.47619L20.218 10.2027C20.1372 10.3888 19.9887 10.5373 19.8026 10.6181L19.0761 10.9334L19.8026 11.2486C19.9887 11.3294 20.1372 11.4779 20.218 11.664L20.5333 12.3905L20.8486 11.664C20.9293 11.4779 21.0778 11.3294 21.2639 11.2486L21.9904 10.9334L21.2639 10.6181C21.0778 10.5373 20.9293 10.3888 20.8486 10.2027L20.5333 9.47619Z" fill="#B182BC"/>
</svg>
