<svg width="21" height="21" viewBox="0 0 21 21" fill="none" xmlns="http://www.w3.org/2000/svg">
<g id="Group 347">
<path id="Vector" d="M5.75 7.91104V4.4565C5.75 2.54786 7.88156 1.00195 10.5 1.00195C13.1244 1.00195 15.25 2.55218 15.25 4.4565V7.91104M1 6.18377H20V20.002H1V6.18377Z" stroke="#222222" stroke-width="2" stroke-linecap="round"/>
<rect id="Rectangle 4237" x="2" y="7.00195" width="17" height="11.9883" fill="#222222"/>
<g id="Rectangle 4238">
<path d="M4.74512 7.00195H6.74512V8.00195C6.74512 8.55424 6.2974 9.00195 5.74512 9.00195C5.19283 9.00195 4.74512 8.55424 4.74512 8.00195V7.00195Z" fill="white"/>
<path d="M14.2575 7.00195H16.2575V8.00195C16.2575 8.55424 15.8098 9.00195 15.2575 9.00195C14.7052 9.00195 14.2575 8.55424 14.2575 8.00195V7.00195Z" fill="white"/>
</g>
</g>
</svg>
