<svg width="388" height="290" viewBox="0 0 388 290" fill="none" xmlns="http://www.w3.org/2000/svg">
<path d="M341.305 288.182V7.99957L370.691 0.640649V267.157L341.305 288.182Z" fill="#222222" stroke="black"/>
<path d="M339.82 31.7057V280.627V288.123H333.087H67.4278H60.5025V280.627V31.7057H58.2584C53.3851 31.7057 49.4736 27.3387 49.4736 22.1895V18.0179C49.4736 12.8035 53.321 8.69727 58.2584 8.69727H339.627C344.501 8.69727 348.412 12.8687 348.412 18.0179V22.1895C348.412 27.3387 344.565 31.5102 339.82 31.7057ZM189.838 208.603H210.677C213.563 208.603 215.807 211.08 215.807 214.209V220.466C215.807 223.595 213.563 226.072 210.677 226.072H189.838C186.952 226.072 184.708 223.595 184.708 220.466V214.209C184.772 211.146 187.016 208.603 189.838 208.603ZM74.3532 186.442H326.162V120.48H74.3532V186.442ZM326.162 202.411H74.3532V273.131H326.162V202.411ZM189.838 126.477H210.677C213.563 126.477 215.807 129.149 215.807 132.082V138.535C215.807 141.468 213.563 143.945 210.677 143.945H189.838C186.952 143.945 184.708 141.468 184.708 138.535V132.082C184.772 129.215 187.016 126.477 189.838 126.477ZM132.897 43.9595H153.737C156.622 43.9595 158.866 46.6318 158.866 49.5649V55.757C158.866 58.8857 156.622 61.3624 153.737 61.3624H132.897C130.011 61.3624 127.767 58.8857 127.767 55.757V49.5649C127.831 46.6318 130.076 43.9595 132.897 43.9595ZM74.3532 104.707H326.162V36.2682H74.3532V104.707Z" fill="#222222"/>
<path d="M253.745 43.9596H264.165H274.585C277.471 43.9596 279.715 46.6319 279.715 49.5649V55.7571C279.715 58.8857 277.471 61.3625 274.585 61.3625H253.745C250.86 61.3625 248.616 58.8857 248.616 55.7571V49.5649C248.68 46.6319 250.924 43.9596 253.745 43.9596Z" fill="#222222"/>
<path d="M253.745 43.9596H264.165H274.585C277.471 43.9596 279.715 46.6319 279.715 49.5649V55.7571C279.715 58.8857 277.471 61.3625 274.585 61.3625H253.745C250.86 61.3625 248.616 58.8857 248.616 55.7571V49.5649C248.68 46.6319 250.924 43.9596 253.745 43.9596Z" fill="#222222"/>
<path d="M153.737 94.2357C153.737 94.2357 165.689 65.7229 205.548 65.7229C245.406 65.7229 253.745 94.2357 253.745 94.2357M339.82 31.7057V280.627V288.123H333.087H67.4278H60.5025V280.627V31.7057H58.2584C53.3851 31.7057 49.4736 27.3387 49.4736 22.1895V18.0179C49.4736 12.8035 53.321 8.69727 58.2584 8.69727H339.627C344.501 8.69727 348.412 12.8687 348.412 18.0179V22.1895C348.412 27.3387 344.565 31.5102 339.82 31.7057ZM189.838 208.603H210.677C213.563 208.603 215.807 211.08 215.807 214.209V220.466C215.807 223.595 213.563 226.072 210.677 226.072H189.838C186.952 226.072 184.708 223.595 184.708 220.466V214.209C184.772 211.146 187.016 208.603 189.838 208.603ZM74.3532 186.442H326.162V120.48H74.3532V186.442ZM326.162 202.411H74.3532V273.131H326.162V202.411ZM189.838 126.477H210.677C213.563 126.477 215.807 129.149 215.807 132.082V138.535C215.807 141.468 213.563 143.945 210.677 143.945H189.838C186.952 143.945 184.708 141.468 184.708 138.535V132.082C184.772 129.215 187.016 126.477 189.838 126.477ZM132.897 43.9595H153.737C156.622 43.9595 158.866 46.6318 158.866 49.5649V55.757C158.866 58.8857 156.622 61.3624 153.737 61.3624H132.897C130.011 61.3624 127.767 58.8857 127.767 55.757V49.5649C127.831 46.6318 130.076 43.9595 132.897 43.9595ZM74.3532 104.707H326.162V36.2682H74.3532V104.707ZM253.745 43.9596C250.924 43.9596 248.68 46.6319 248.616 49.5649V55.7571C248.616 58.8857 250.86 61.3625 253.745 61.3625H274.585C277.471 61.3625 279.715 58.8857 279.715 55.7571V49.5649C279.715 46.6319 277.471 43.9596 274.585 43.9596H264.165H253.745Z" stroke="black" stroke-width="2" stroke-miterlimit="10"/>
<ellipse cx="149.779" cy="54.9342" rx="5.12898" ry="5.1373" fill="white"/>
<ellipse cx="257.678" cy="54.9146" rx="5.12898" ry="5.1373" fill="white"/>
<ellipse cx="149.783" cy="57.1315" rx="1.39881" ry="1.40108" fill="#222222"/>
<ellipse cx="256.746" cy="56.7839" rx="1.39881" ry="1.40108" fill="#222222"/>
<path d="M59.9386 7.5L79.9131 0.5H367.298L340.436 7.5H59.9386Z" fill="#222222" stroke="black"/>
<path d="M362.002 127.186C362.002 127.186 407.114 126.098 376.133 211.431C345.153 296.765 225.577 250.566 225.577 250.566" stroke="#222222"/>
<path d="M60.3849 130.666C60.3849 130.666 -27.1632 167.405 10.34 225.562C47.8432 283.719 132.634 242.955 132.634 242.955" stroke="#222222"/>
<path d="M132.091 243.499L133.178 236.977M132.091 243.499L135.895 239.151M132.091 243.499L136.983 244.042M226.121 250.565L221.229 248.934M226.121 250.565L223.946 242.412M226.121 250.565L220.142 253.282" stroke="#222222"/>
<g clip-path="url(#clip0_1_3681)">
<path d="M180.465 276.11C168.212 276.11 156.461 271.243 147.797 262.579C139.133 253.914 134.266 242.163 134.266 229.911C134.266 217.658 139.133 205.907 147.797 197.242C156.461 188.578 168.212 183.711 180.465 183.711C192.718 183.711 204.469 188.578 213.133 197.242C221.797 205.907 226.665 217.658 226.665 229.911C226.665 242.163 221.797 253.914 213.133 262.579C204.469 271.243 192.718 276.11 180.465 276.11Z" fill="#222222"/>
<path d="M180.465 269.51C185.665 269.51 190.815 268.486 195.619 266.495C200.423 264.505 204.789 261.589 208.466 257.911C212.143 254.234 215.06 249.869 217.05 245.064C219.04 240.26 220.064 235.11 220.064 229.91C220.064 224.71 219.04 219.561 217.05 214.756C215.06 209.952 212.143 205.586 208.466 201.909C204.789 198.232 200.423 195.315 195.619 193.325C190.815 191.335 185.665 190.311 180.465 190.311C169.962 190.311 159.89 194.483 152.464 201.909C145.037 209.335 140.865 219.408 140.865 229.91C140.865 240.413 145.037 250.485 152.464 257.911C159.89 265.338 169.962 269.51 180.465 269.51Z" fill="#222222"/>
<path d="M188.121 231.124C191.546 228.682 194.087 225.468 195.183 221.376C197.717 211.958 191.097 202.256 180.359 202.256C175.528 202.256 171.601 203.972 168.704 206.823C167.252 208.204 166.108 209.875 165.344 211.727C164.872 212.952 164.905 214.315 165.438 215.516C165.97 216.716 166.957 217.656 168.182 218.129C169.408 218.601 170.771 218.568 171.971 218.036C173.172 217.503 174.112 216.516 174.584 215.291C174.853 214.765 175.21 214.29 175.64 213.885C176.749 212.796 178.214 212.156 180.359 212.156C184.299 212.156 186.537 215.429 185.626 218.802C185.184 220.445 184.075 221.851 182.379 223.052C180.854 224.141 179.277 224.795 178.412 225.032C177.36 225.314 176.43 225.935 175.767 226.799C175.103 227.663 174.743 228.721 174.743 229.811V239.189C174.743 240.502 175.264 241.761 176.193 242.689C177.121 243.618 178.38 244.139 179.693 244.139C181.006 244.139 182.265 243.618 183.193 242.689C184.121 241.761 184.643 240.502 184.643 239.189V233.19C185.751 232.649 186.933 231.969 188.121 231.124Z" fill="white"/>
<path d="M179.733 260.495C183.378 260.495 186.333 257.54 186.333 253.895C186.333 250.25 183.378 247.295 179.733 247.295C176.088 247.295 173.133 250.25 173.133 253.895C173.133 257.54 176.088 260.495 179.733 260.495Z" fill="white"/>
</g>
<defs>
<clipPath id="clip0_1_3681">
<rect width="92.3991" height="92.3991" fill="white" transform="translate(134.266 183.711)"/>
</clipPath>
</defs>
</svg>
