<svg width="11" height="14" viewBox="0 0 11 14" fill="none" xmlns="http://www.w3.org/2000/svg">
<g id="Group 313">
<path id="Subtract" fill-rule="evenodd" clip-rule="evenodd" d="M5.89836 10.4767C6.99887 9.88046 10 7.97217 10 4.89258C10 2.4073 7.98528 0.392578 5.5 0.392578C3.01472 0.392578 1 2.4073 1 4.89258C1 7.97217 4.00113 9.88046 5.10164 10.4767C5.3521 10.6124 5.6479 10.6124 5.89836 10.4767ZM5.5 6.82122C6.56512 6.82122 7.42857 5.95777 7.42857 4.89265C7.42857 3.82753 6.56512 2.96408 5.5 2.96408C4.43488 2.96408 3.57143 3.82753 3.57143 4.89265C3.57143 5.95777 4.43488 6.82122 5.5 6.82122Z" fill="#F03A3A"/>
<path id="Ellipse 40" d="M9.39711 9.71429C9.79207 10.0075 10 10.34 10 10.6786C10 11.0171 9.79207 11.3497 9.39711 11.6429C9.00216 11.936 8.43409 12.1795 7.75 12.3488C7.06591 12.518 6.28992 12.6071 5.5 12.6071C4.71009 12.6071 3.93409 12.518 3.25 12.3488C2.56591 12.1795 1.99784 11.936 1.60289 11.6429C1.20793 11.3497 1 11.0171 1 10.6786C1 10.34 1.20793 10.0075 1.60289 9.71429" stroke="#F03A3A" stroke-width="2" stroke-linecap="round"/>
</g>
</svg>
