<?xml version="1.0" encoding="utf-8"?><svg viewBox="0 0 33 31" xmlns="http://www.w3.org/2000/svg" xmlns:xlink="http://www.w3.org/1999/xlink"><style>:root>svg{display:none}:root>svg:target{display:block}</style><svg viewBox="0 0 22 21" id="favorite" xmlns="http://www.w3.org/2000/svg"><path id="aVector" d="M16.625 14.302C15.125 15.9784 11 20.002 11 20.002C11 20.002 6.875 15.9784 5.375 14.302C1.875 10.3902 1 8.86276 1 6.06862C1 3.27451 3 1.00195 6 1.00195C8.5 1.00195 10 2.67842 11 4.3549C12 2.67842 13.5 1.00195 16 1.00195C19 1.00195 21 3.27451 21 6.06862C21 8.86276 20.125 10.3902 16.625 14.302Z"/></svg><svg viewBox="0 0 33 31" id="reviews-star" xmlns="http://www.w3.org/2000/svg"><g id="bзвездочки"><path id="bVector" d="M24.9301 30.992C24.6736 30.993 24.4207 30.9315 24.1925 30.8126L16.015 26.4584L7.83754 30.8126C7.572 30.9546 7.27261 31.018 6.97341 30.9956C6.67421 30.9732 6.3872 30.8658 6.145 30.6857C5.90281 30.5056 5.71514 30.2601 5.60334 29.9769C5.49154 29.6938 5.46009 29.3844 5.51257 29.084L7.11599 19.9025L0.509876 13.3793C0.303768 13.1701 0.157558 12.9078 0.0869369 12.6205C0.0163158 12.3332 0.0239498 12.0317 0.10902 11.7485C0.201954 11.4587 0.372906 11.2011 0.602475 11.0051C0.832043 10.8091 1.11104 10.6825 1.4078 10.6396L10.5473 9.28598L14.5719 0.919953C14.7032 0.644232 14.9082 0.4117 15.1634 0.248997C15.4187 0.0862944 15.7138 0 16.015 0C16.3162 0 16.6113 0.0862944 16.8666 0.248997C17.1218 0.4117 17.3268 0.644232 17.4581 0.919953L21.5308 9.26967L30.6703 10.6232C30.9671 10.6661 31.2461 10.7928 31.4757 10.9888C31.7052 11.1848 31.8762 11.4424 31.9691 11.7322C32.0542 12.0154 32.0618 12.3169 31.9912 12.6042C31.9206 12.8915 31.7744 13.1538 31.5682 13.363L24.9621 19.8862L26.5656 29.0676C26.6228 29.3734 26.5928 29.6894 26.4792 29.9784C26.3655 30.2673 26.173 30.5172 25.9242 30.6985C25.6338 30.9054 25.2842 31.0086 24.9301 30.992Z"/></g></svg></svg>