<svg width="20" height="20" viewBox="0 0 20 20" fill="none" xmlns="http://www.w3.org/2000/svg">
<g id="basil:vk-solid">
<path id="Vector" d="M17.9192 14.317H16.0183C15.2992 14.317 15.0825 13.7345 13.7933 12.4445C12.6667 11.3586 12.1908 11.2236 11.9058 11.2236C11.5117 11.2236 11.4042 11.332 11.4042 11.8745V13.5845C11.4042 14.047 11.2542 14.3178 10.0458 14.3178C8.87358 14.239 7.7368 13.8829 6.72914 13.2788C5.72148 12.6746 4.87177 11.8397 4.25 10.8428C2.77366 9.00532 1.74642 6.8487 1.25 4.54446C1.25 4.25946 1.35833 4.00113 1.90167 4.00113H3.80167C4.29 4.00113 4.46583 4.21863 4.6575 4.72113C5.58 7.43613 7.15417 9.7978 7.79333 9.7978C8.03833 9.7978 8.145 9.68946 8.145 9.07863V6.28196C8.06417 5.00613 7.38667 4.89863 7.38667 4.43696C7.39524 4.31516 7.45095 4.2015 7.54198 4.12012C7.63301 4.03875 7.75217 3.99606 7.87417 4.00113H10.8608C11.2692 4.00113 11.4042 4.20446 11.4042 4.6928V8.4678C11.4042 8.8753 11.5792 9.0103 11.7025 9.0103C11.9475 9.0103 12.1358 8.8753 12.585 8.42696C13.5478 7.25279 14.3344 5.9446 14.92 4.54363C14.9799 4.37543 15.0933 4.23144 15.2427 4.13364C15.3921 4.03585 15.5694 3.9896 15.7475 4.00196H17.6483C18.2183 4.00196 18.3392 4.28696 18.2183 4.69363C17.527 6.24231 16.6715 7.71238 15.6667 9.07863C15.4617 9.39113 15.38 9.55363 15.6667 9.9203C15.855 10.2053 16.5217 10.762 16.9692 11.2911C17.6208 11.9411 18.1617 12.6928 18.5708 13.5161C18.7342 14.0461 18.4617 14.317 17.9192 14.317Z" fill="white"/>
</g>
</svg>
