<svg xmlns="http://www.w3.org/2000/svg" width="61" height="62" fill="none" xmlns:v="https://vecta.io/nano"><g clip-path="url(#D)"><path d="M54.112 21.167H37.387A6.9 6.9 0 0 1 30.5 14.28a6.9 6.9 0 0 1 8.009-6.796 9.36 9.36 0 0 1 8.717-5.995 9.4 9.4 0 0 1 8.787 6.171 6.9 6.9 0 0 1 4.987 6.619 6.9 6.9 0 0 1-6.887 6.887z" fill="url(#A)"/><path d="M59.606 33.636a25.03 25.03 0 0 0-11.14-2.63H36.06l-11.15-7.871h-9.574l7.871 7.871h-8.074l-8.855-7.871H.454l3.898 8.772-1.4.233v3.307l.629.45c4.532 3.237 9.871 4.948 15.44 4.948h2.218l-7.199 7.199 1.006.664a5.99 5.99 0 0 1 .88.71l.287.281h5.747l12.544-8.855h13.715c3.393 0 6.695-.678 9.813-2.014l1.44-.617C60.4 37.814 61 36.904 61 35.894a2.51 2.51 0 0 0-1.395-2.258zm-39.52-8.533h4.2l8.363 5.903h-6.66l-5.903-5.903zm-16.603 0H5.53l6.641 5.903h-1.355c-.702 0-1.41.059-2.103.174l-2.356.393-2.875-6.47zm55.214 11.302l-1.44.617a22.8 22.8 0 0 1-9.038 1.856H37.291l1.649-1.164-1.135-1.608-16.47 11.626h-4.2l10.127-10.127-1.391-1.391-2.663 2.663h-4.186A24.46 24.46 0 0 1 4.92 34.434v-.627l4.118-.687c.586-.097 1.186-.147 1.779-.147h37.649a23.06 23.06 0 0 1 10.26 2.421c.19.095.308.286.308.499 0 .222-.133.423-.336.511z" fill="url(#B)"/><path d="M20.085 25.103h4.2l8.363 5.903h-6.66l-5.903-5.903z" fill="url(#B)"/><path d="M58.697 36.405l-1.44.617a22.8 22.8 0 0 1-9.038 1.856H37.291l1.649-1.164-1.135-1.608-16.47 11.626h-4.2l10.127-10.127-1.391-1.391-2.663 2.663h-4.186A24.46 24.46 0 0 1 4.92 34.434v-.627l4.118-.687c.586-.097 1.186-.147 1.779-.147h37.649a23.06 23.06 0 0 1 10.26 2.421c.19.095.308.286.308.499 0 .222-.133.423-.336.511z" fill="url(#B)"/><path d="M3.483 25.103H5.53l6.641 5.903h-1.355c-.702 0-1.41.059-2.103.174l-2.356.393-2.875-6.47z" fill="url(#B)"/><path d="M17.71 61.506H5.903A5.91 5.91 0 0 1 0 55.603c0-2.891 2.128-5.339 4.94-5.802 1.383-2.469 4.019-4.037 6.866-4.037a7.88 7.88 0 0 1 7.698 6.252c1.869.729 3.125 2.523 3.125 4.571 0 2.712-2.207 4.919-4.919 4.919z" fill="url(#C)"/></g><defs><linearGradient id="A" x1="60.355" y1="19.663" x2="47.785" y2="-19.948" gradientUnits="userSpaceOnUse"><stop stop-color="#f09642"/><stop offset="1" stop-color="#f4e26e"/></linearGradient><linearGradient id="B" x1="-1.11" y1="24.844" x2="54.675" y2="83.703" gradientUnits="userSpaceOnUse"><stop stop-color="#272671"/><stop offset="1" stop-color="#7bb3cb"/></linearGradient><linearGradient id="C" x1="22.151" y1="60.302" x2="11.467" y2="29.078" gradientUnits="userSpaceOnUse"><stop stop-color="#f09642"/><stop offset="1" stop-color="#f4e26e"/></linearGradient><clipPath id="D"><path fill="#fff" transform="translate(0 .998)" d="M0 0h61v61H0z"/></clipPath></defs></svg>