<svg width="20" height="20" viewBox="0 0 20 20" fill="none" xmlns="http://www.w3.org/2000/svg">
<g id="mdi:odnoklassniki">
<path id="Vector" d="M14.8584 9.61602C14.625 9.14102 13.9667 8.74102 13.0917 9.41602C11.9 10.366 10 10.366 10 10.366C10 10.366 8.10004 10.366 6.90838 9.41602C6.03338 8.74102 5.37504 9.14102 5.14171 9.61602C4.72504 10.4493 5.19171 10.8577 6.25004 11.5327C7.15838 12.116 8.40004 12.3327 9.20004 12.416L8.53338 13.0827C7.58338 14.0243 6.66671 14.9327 6.04171 15.566C5.66671 15.9493 5.66671 16.5577 6.04171 16.916L6.15838 17.0493C6.53338 17.4243 7.15004 17.4243 7.52504 17.0493L10 14.566C10.9584 15.5077 11.8667 16.416 12.5 17.0493C12.875 17.4243 13.4834 17.4243 13.8667 17.0493L13.975 16.916C14.3584 16.5577 14.3584 15.9493 13.975 15.566L11.4917 13.0827L10.8334 12.4077C11.625 12.3327 12.85 12.1077 13.75 11.5327C14.8084 10.8577 15.275 10.4493 14.8584 9.61602ZM10 2.80768C11.15 2.80768 12.0834 3.74102 12.0834 4.88268C12.0834 6.03268 11.15 6.95768 10 6.95768C8.85004 6.95768 7.91671 6.03268 7.91671 4.88268C7.91671 3.74102 8.85004 2.80768 10 2.80768ZM10 9.09935C12.3334 9.09935 14.2167 7.21602 14.2167 4.88268C14.2167 3.76435 13.7725 2.69183 12.9817 1.90105C12.1909 1.11027 11.1184 0.666016 10 0.666016C8.88171 0.666016 7.80919 1.11027 7.01841 1.90105C6.22763 2.69183 5.78338 3.76435 5.78338 4.88268C5.78338 7.21602 7.66671 9.09935 10 9.09935Z" fill="white"/>
</g>
</svg>
