<svg width="13" height="12" viewBox="0 0 13 12" fill="none" xmlns="http://www.w3.org/2000/svg">
<path d="M10.1162 11.9969C10.0122 11.9973 9.90959 11.9735 9.81702 11.9275L6.49994 10.2419L3.18287 11.9275C3.07516 11.9824 2.95372 12.007 2.83235 11.9983C2.71098 11.9896 2.59456 11.9481 2.49632 11.8783C2.39808 11.8086 2.32195 11.7136 2.2766 11.604C2.23125 11.4944 2.21849 11.3746 2.23978 11.2583L2.89019 7.7042L0.21051 5.17908C0.126905 5.09811 0.0675972 4.99656 0.0389508 4.88535C0.0103044 4.77413 0.013401 4.65744 0.0479084 4.54781C0.0856059 4.43561 0.15495 4.33592 0.248071 4.26004C0.341192 4.18416 0.454362 4.13514 0.574738 4.11854L4.28206 3.59457L5.91458 0.356111C5.96784 0.24938 6.05099 0.159368 6.15452 0.0963861C6.25805 0.0334043 6.37776 0 6.49994 0C6.62213 0 6.74184 0.0334043 6.84537 0.0963861C6.9489 0.159368 7.03205 0.24938 7.08531 0.356111L8.73734 3.58826L12.4447 4.11222C12.565 4.12883 12.6782 4.17785 12.7713 4.25373C12.8645 4.32961 12.9338 4.4293 12.9715 4.54149C13.006 4.65113 13.0091 4.76782 12.9804 4.87903C12.9518 4.99025 12.8925 5.09179 12.8089 5.17277L10.1292 7.69789L10.7796 11.252C10.8028 11.3703 10.7907 11.4927 10.7446 11.6045C10.6985 11.7164 10.6204 11.8131 10.5195 11.8833C10.4017 11.9634 10.2599 12.0033 10.1162 11.9969ZM6.49994 8.90363C6.6042 8.90108 6.70734 8.92501 6.79913 8.97307L9.25116 10.2356L8.78287 7.57795C8.7647 7.47647 8.77239 7.37222 8.80527 7.27428C8.83815 7.17635 8.89521 7.08772 8.97149 7.01611L10.9227 5.16646L8.191 4.77507C8.09083 4.75549 7.99682 4.71328 7.91659 4.65186C7.83636 4.59044 7.77216 4.51154 7.72921 4.42155L6.49994 2.05425L5.27067 4.42155C5.22362 4.51227 5.1547 4.59063 5.06978 4.64997C4.98486 4.70932 4.88644 4.7479 4.78287 4.76244L2.05116 5.15383L4.00238 7.00348C4.07866 7.07509 4.13573 7.16373 4.1686 7.26166C4.20148 7.35959 4.20917 7.46384 4.191 7.56532L3.72271 10.1914L6.17474 8.92888C6.27864 8.89139 6.39123 8.88265 6.49994 8.90363Z" fill="#FFF000"/>
</svg>
