<svg width="14" height="12" viewBox="0 0 14 12" fill="none" xmlns="http://www.w3.org/2000/svg">
<path d="M10.8525 11.9969C10.7485 11.9973 10.6459 11.9735 10.5533 11.9275L7.23627 10.2419L3.9192 11.9275C3.81149 11.9824 3.69004 12.007 3.56868 11.9983C3.44731 11.9896 3.33089 11.9481 3.23265 11.8783C3.1344 11.8086 3.05828 11.7136 3.01293 11.604C2.96758 11.4944 2.95482 11.3746 2.97611 11.2583L3.62651 7.7042L0.946838 5.17909C0.863233 5.09811 0.803925 4.99656 0.775279 4.88535C0.746633 4.77413 0.749729 4.65744 0.784236 4.54781C0.821934 4.43561 0.891278 4.33592 0.984399 4.26004C1.07752 4.18417 1.19069 4.13514 1.31107 4.11854L5.01839 3.59457L6.65091 0.356111C6.70416 0.24938 6.78732 0.159368 6.89085 0.0963861C6.99438 0.0334043 7.11409 0 7.23627 0C7.35846 0 7.47817 0.0334043 7.5817 0.0963861C7.68522 0.159368 7.76838 0.24938 7.82164 0.356111L9.47367 3.58826L13.181 4.11222C13.3014 4.12883 13.4145 4.17785 13.5077 4.25373C13.6008 4.32961 13.6701 4.4293 13.7078 4.54149C13.7423 4.65113 13.7454 4.76782 13.7168 4.87903C13.6881 4.99025 13.6288 5.0918 13.5452 5.17277L10.8655 7.69789L11.5159 11.252C11.5392 11.3703 11.527 11.4927 11.4809 11.6045C11.4348 11.7164 11.3567 11.8131 11.2558 11.8833C11.138 11.9634 10.9962 12.0033 10.8525 11.9969Z" fill="#FFF000"/>
</svg>
