<svg width="16" height="20" viewBox="0 0 16 20" fill="none" xmlns="http://www.w3.org/2000/svg">
<g id="&#208;&#152;&#208;&#186;&#208;&#190;&#208;&#189;&#208;&#186;&#208;&#176; &#208;&#146;&#208;&#190;&#208;&#185;&#209;&#130;&#208;&#184;">
<g id="&#240;&#159;&#166;&#134; icon &#34;person&#34;">
<g id="Group">
<path id="Vector" d="M9.94449 6.9121C9.36892 7.29668 8.69223 7.50195 8 7.50195C7.07174 7.50195 6.1815 7.1332 5.52513 6.47683C4.86875 5.82045 4.5 4.93021 4.5 4.00195C4.5 3.30972 4.70527 2.63303 5.08986 2.05746C5.47444 1.48189 6.02107 1.03328 6.66061 0.768376C7.30015 0.50347 8.00388 0.434158 8.68282 0.569206C9.36175 0.704255 9.98539 1.0376 10.4749 1.52708C10.9644 2.01656 11.2977 2.6402 11.4327 3.31914C11.5678 3.99807 11.4985 4.70181 11.2336 5.34135C10.9687 5.98089 10.5201 6.52751 9.94449 6.9121Z" fill="#222222" stroke="#222222"/>
<path id="Vector_2" d="M15.3145 19.3161C15.1945 19.4342 15.0302 19.502 14.8571 19.502H1.14286C0.969841 19.502 0.805469 19.4342 0.685494 19.3161C0.565785 19.1983 0.5 19.0401 0.5 18.877C0.5 16.9235 1.28823 15.0485 2.6939 13.6648C4.09984 12.2808 6.00836 11.502 8 11.502C9.99164 11.502 11.9002 12.2808 13.3061 13.6648C14.7118 15.0485 15.5 16.9235 15.5 18.877C15.5 19.0402 15.4342 19.1983 15.3145 19.3161Z" fill="#222222" stroke="#222222"/>
</g>
</g>
</g>
</svg>
