<svg xmlns="http://www.w3.org/2000/svg" width="52" height="52" fill="none" xmlns:v="https://vecta.io/nano"><g clip-path="url(#D)"><mask id="A" maskUnits="userSpaceOnUse" x="-.996" y="1" width="51" height="49" fill="#000"><path fill="#fff" d="M-.996 1h51v49h-51z"/><path d="M46.57 27.923v-7.779l2.149-1.709a.77.77 0 0 0 .234-.288c.053-.113.076-.237.069-.361s-.046-.245-.11-.353-.152-.201-.258-.272L24.962 2.125a.87.87 0 0 0-.899 0L.373 17.16c-.106.071-.194.163-.258.272s-.101.229-.11.353.016.248.069.361a.77.77 0 0 0 .234.288l8.684 6.885v.451c-1.095 2.253-1.653 4.715-1.633 7.205s.617 4.944 1.747 7.18a16.73 16.73 0 0 0 4.782 5.74 17.4 17.4 0 0 0 6.876 3.17c2.508.544 5.111.536 7.615-.025a17.39 17.39 0 0 0 6.853-3.215 16.72 16.72 0 0 0 4.742-5.772 16.19 16.19 0 0 0 1.696-7.191c.007-2.452-.552-4.874-1.634-7.09v-.451l4.901-3.885v6.489L42.934 31.8a2.31 2.31 0 0 0-.255 1.169 2.32 2.32 0 0 0 .365 1.142 2.42 2.42 0 0 0 .893.825c.365.197.777.299 1.195.299h1.242c.418.001.829-.102 1.195-.299a2.42 2.42 0 0 0 .893-.825 2.32 2.32 0 0 0 .365-1.142 2.31 2.31 0 0 0-.255-1.169l-2.001-3.878zm-28.576 4.147c.027-3.165.613-6.301 1.732-9.275a48.67 48.67 0 0 1 4.787-.222l4.787.222c1.119 2.973 1.704 6.11 1.732 9.275H17.994zm13.038 1.583c-.035 2.44-.378 4.866-1.021 7.225a17.35 17.35 0 0 0-10.996 0c-.643-2.359-.986-4.785-1.021-7.225h13.038zm-6.519-12.662c-5.588 0-11.2.863-13.888 2.517v-4.891c0-1.076 4.902-3.165 13.888-3.165S38.4 17.54 38.4 18.617v4.891c-2.688-1.654-8.3-2.517-13.888-2.517zm-6.617 2.018c-.983 2.927-1.501 5.983-1.536 9.061H9.016a14.45 14.45 0 0 1 1.528-5.769c.055-.108.083-.227.082-.348v-.214c0-.768 2.532-2.058 7.271-2.73zM9.032 33.652h7.328c.039 2.637.42 5.258 1.136 7.803-1.337.585-2.591 1.332-3.733 2.224-2.837-2.637-4.529-6.223-4.73-10.026zm5.988 11.079a15.54 15.54 0 0 1 2.974-1.765 14.05 14.05 0 0 0 2.483 4.392c-1.981-.515-3.837-1.409-5.457-2.627zm9.493 3.165c-1.83 0-3.733-2.042-5.008-5.508 3.242-1.097 6.773-1.097 10.015 0-1.274 3.466-3.178 5.508-5.008 5.508zm4.036-.538a14.05 14.05 0 0 0 2.483-4.392 15.54 15.54 0 0 1 2.974 1.765c-1.62 1.219-3.476 2.112-5.457 2.627zm6.715-3.68a17.37 17.37 0 0 0-3.733-2.224c.715-2.544 1.097-5.166 1.135-7.803h7.328c-.201 3.804-1.893 7.39-4.73 10.026zm-2.598-11.609a29.51 29.51 0 0 0-1.536-9.061c4.738.673 7.271 1.962 7.271 2.73v.214c-.001.121.027.24.082.348a14.45 14.45 0 0 1 1.528 5.769h-7.344zm7.369-8.792v-4.661c0-3.118-7.81-4.748-15.521-4.748s-15.521 1.63-15.521 4.748v4.661l-6.789-5.381 22.31-14.157 22.31 14.157-6.789 5.381zm7.034 10.003a.78.78 0 0 1-.295.277.81.81 0 0 1-.399.095h-1.242a.81.81 0 0 1-.399-.095.78.78 0 0 1-.42-.659c-.007-.136.022-.271.084-.393l1.356-2.619 1.356 2.619c.062.122.091.257.084.393a.78.78 0 0 1-.124.383z"/></mask><path d="M46.57 27.923v-7.779l2.149-1.709a.77.77 0 0 0 .234-.288c.053-.113.076-.237.069-.361s-.046-.245-.11-.353-.152-.201-.258-.272L24.962 2.125a.87.87 0 0 0-.899 0L.373 17.16c-.106.071-.194.163-.258.272s-.101.229-.11.353.016.248.069.361a.77.77 0 0 0 .234.288l8.684 6.885v.451c-1.095 2.253-1.653 4.715-1.633 7.205s.617 4.944 1.747 7.18a16.73 16.73 0 0 0 4.782 5.74 17.4 17.4 0 0 0 6.876 3.17c2.508.544 5.111.536 7.615-.025a17.39 17.39 0 0 0 6.853-3.215 16.72 16.72 0 0 0 4.742-5.772 16.19 16.19 0 0 0 1.696-7.191c.007-2.452-.552-4.874-1.634-7.09v-.451l4.901-3.885v6.489L42.934 31.8a2.31 2.31 0 0 0-.255 1.169 2.32 2.32 0 0 0 .365 1.142 2.42 2.42 0 0 0 .893.825c.365.197.777.299 1.195.299h1.242c.418.001.829-.102 1.195-.299a2.42 2.42 0 0 0 .893-.825 2.32 2.32 0 0 0 .365-1.142 2.31 2.31 0 0 0-.255-1.169l-2.001-3.878zm-28.576 4.147c.027-3.165.613-6.301 1.732-9.275a48.67 48.67 0 0 1 4.787-.222l4.787.222c1.119 2.973 1.704 6.11 1.732 9.275H17.994zm13.038 1.583c-.035 2.44-.378 4.866-1.021 7.225a17.35 17.35 0 0 0-10.996 0c-.643-2.359-.986-4.785-1.021-7.225h13.038zm-6.519-12.662c-5.588 0-11.2.863-13.888 2.517v-4.891c0-1.076 4.902-3.165 13.888-3.165S38.4 17.54 38.4 18.617v4.891c-2.688-1.654-8.3-2.517-13.888-2.517zm-6.617 2.018c-.983 2.927-1.501 5.983-1.536 9.061H9.016a14.45 14.45 0 0 1 1.528-5.769c.055-.108.083-.227.082-.348v-.214c0-.768 2.532-2.058 7.271-2.73zM9.032 33.652h7.328c.039 2.637.42 5.258 1.136 7.803-1.337.585-2.591 1.332-3.733 2.224-2.837-2.637-4.529-6.223-4.73-10.026zm5.988 11.079a15.54 15.54 0 0 1 2.974-1.765 14.05 14.05 0 0 0 2.483 4.392c-1.981-.515-3.837-1.409-5.457-2.627zm9.493 3.165c-1.83 0-3.733-2.042-5.008-5.508 3.242-1.097 6.773-1.097 10.015 0-1.274 3.466-3.178 5.508-5.008 5.508zm4.036-.538a14.05 14.05 0 0 0 2.483-4.392 15.54 15.54 0 0 1 2.974 1.765c-1.62 1.219-3.476 2.112-5.457 2.627zm6.715-3.68a17.37 17.37 0 0 0-3.733-2.224c.715-2.544 1.097-5.166 1.135-7.803h7.328c-.201 3.804-1.893 7.39-4.73 10.026zm-2.598-11.609a29.51 29.51 0 0 0-1.536-9.061c4.738.673 7.271 1.962 7.271 2.73v.214c-.001.121.027.24.082.348a14.45 14.45 0 0 1 1.528 5.769h-7.344zm7.369-8.792v-4.661c0-3.118-7.81-4.748-15.521-4.748s-15.521 1.63-15.521 4.748v4.661l-6.789-5.381 22.31-14.157 22.31 14.157-6.789 5.381zm7.034 10.003a.78.78 0 0 1-.295.277.81.81 0 0 1-.399.095h-1.242a.81.81 0 0 1-.399-.095.78.78 0 0 1-.42-.659c-.007-.136.022-.271.084-.393l1.356-2.619 1.356 2.619c.062.122.091.257.084.393a.78.78 0 0 1-.124.383z" fill="url(#B)"/><path d="M46.5695 27.9228V20.1438L48.718 18.4344C48.8188 18.3581 48.899 18.2591 48.9516 18.1461C49.0043 18.033 49.0278 17.9093 49.0202 17.7855C49.0116 17.6612 48.974 17.5404 48.9104 17.4322C48.8467 17.3239 48.7586 17.231 48.6526 17.1604L24.9621 2.12465C24.8273 2.04319 24.6716 2 24.5128 2C24.3539 2 24.1982 2.04319 24.0635 2.12465L0.372913 17.1604C0.266941 17.231 0.178826 17.3239 0.115166 17.4322C0.0515049 17.5404 0.0139464 17.6612 0.00530104 17.7855C-0.0022982 17.9093 0.0212373 18.033 0.0738858 18.1461C0.126534 18.2591 0.206722 18.3581 0.30756 18.4344L8.99137 25.3192V25.7703C7.89663 28.0231 7.33844 30.4853 7.35804 32.9751C7.37765 35.4649 7.97454 37.9187 9.10463 40.155C10.2347 42.3913 11.8691 44.353 13.887 45.8952C15.9049 47.4374 18.2548 48.5207 20.7629 49.0649C23.2711 49.6092 25.8734 49.6005 28.3776 49.0396C30.8819 48.4786 33.224 47.3797 35.2309 45.8241C37.2378 44.2685 38.8582 42.2959 39.9724 40.0521C41.0866 37.8083 41.666 35.3507 41.668 32.8608C41.6745 30.409 41.1164 27.9867 40.0341 25.7703V25.3192L44.9356 21.4337V27.9228L42.9342 31.8004C42.7475 32.1627 42.6595 32.5653 42.6787 32.9698C42.6979 33.3743 42.8236 33.7674 43.0438 34.1115C43.264 34.4557 43.5715 34.7396 43.9369 34.9363C44.3024 35.1329 44.7137 35.2357 45.1317 35.2349H46.3734C46.7914 35.2357 47.2027 35.1329 47.5682 34.9363C47.9336 34.7396 48.2411 34.4557 48.4613 34.1115C48.6815 33.7674 48.8072 33.3743 48.8264 32.9698C48.8456 32.5653 48.7576 32.1627 48.5709 31.8004L46.5695 27.9228ZM17.9938 32.0695C18.0213 28.9049 18.607 25.7682 19.7256 22.7948C21.3164 22.6424 22.9142 22.5684 24.5128 22.5732C26.1113 22.5684 27.7091 22.6424 29.2999 22.7948C30.4185 25.7682 31.0042 28.9049 31.0317 32.0695H17.9938ZM31.0317 33.6522C30.997 36.0919 30.6541 38.5183 30.0106 40.8772C26.4487 39.6849 22.5768 39.6849 19.0149 40.8772C18.3714 38.5183 18.0285 36.0919 17.9938 33.6522H31.0317ZM24.5128 20.9905C18.9251 20.9905 13.3128 21.8531 10.6252 23.507V18.6165C10.6252 17.5402 15.5267 15.451 24.5128 15.451C33.4988 15.451 38.4003 17.5402 38.4003 18.6165V23.507C35.7127 21.8531 30.1005 20.9905 24.5128 20.9905ZM17.8957 23.0085C16.9128 25.936 16.3949 28.9912 16.3599 32.0695H9.01588C9.11684 30.0662 9.63655 28.1035 10.5435 26.3005C10.5984 26.1922 10.6264 26.073 10.6252 25.9523V25.7386C10.6252 24.971 13.1576 23.6811 17.8957 23.0085ZM9.03221 33.6522H16.3599C16.3986 36.289 16.7801 38.9105 17.4955 41.4549C16.1585 42.0395 14.904 42.7867 13.7622 43.6786C10.9248 41.0421 9.23303 37.4559 9.03221 33.6522ZM15.0202 44.7311C15.9394 44.036 16.937 43.444 17.9938 42.9664C18.546 44.5616 19.3869 46.0488 20.4772 47.3584C18.4959 46.8431 16.6406 45.9499 15.0202 44.7311ZM24.5128 47.8965C22.6829 47.8965 20.7795 45.8549 19.5051 42.3887C22.7474 41.2914 26.2781 41.2914 29.5205 42.3887C28.2461 45.8549 26.3426 47.8965 24.5128 47.8965ZM28.5483 47.3584C29.6386 46.0488 30.4795 44.5616 31.0317 42.9664C32.0885 43.444 33.0861 44.036 34.0053 44.7311C32.3849 45.9499 30.5297 46.8431 28.5483 47.3584ZM35.2634 43.6786C34.1215 42.7867 32.867 42.0395 31.5301 41.4549C32.2454 38.9105 32.6269 36.289 32.6656 33.6522H39.9933C39.7925 37.4559 38.1007 41.0421 35.2634 43.6786ZM32.6656 32.0695C32.6306 28.9912 32.1128 25.936 31.1298 23.0085C35.8679 23.6811 38.4003 24.971 38.4003 25.7386V25.9523C38.3991 26.073 38.4271 26.1922 38.482 26.3005C39.389 28.1035 39.9087 30.0662 40.0096 32.0695H32.6656ZM40.0341 23.2775V18.6165C40.0341 15.4985 32.2244 13.8683 24.5128 13.8683C16.8011 13.8683 8.99137 15.4985 8.99137 18.6165V23.2775L2.2028 17.8963L24.5128 3.73901L46.8227 17.8963L40.0341 23.2775ZM47.0678 33.2802C46.9963 33.3961 46.8943 33.4916 46.7724 33.5569C46.6504 33.6222 46.5127 33.6551 46.3734 33.6522H45.1317C44.9924 33.6551 44.8547 33.6222 44.7327 33.5569C44.6108 33.4916 44.5088 33.3961 44.4373 33.2802C44.3629 33.1651 44.32 33.0333 44.3129 32.8976C44.3058 32.7619 44.3345 32.6266 44.3965 32.5047L45.7526 29.8853L47.1086 32.5047C47.1706 32.6266 47.1994 32.7619 47.1922 32.8976C47.1851 33.0333 47.1422 33.1651 47.0678 33.2802Z" stroke="url(#C)" mask="url(#A)"/></g><defs><linearGradient id="B" x1="-6.123" y1="-5.429" x2="57.164" y2="70.006" gradientUnits="userSpaceOnUse"><stop stop-color="#1c2d5a"/><stop offset="1" stop-color="#4fc3dd" stop-opacity=".96"/></linearGradient><linearGradient id="C" x1="24.513" y1="2" x2="24.513" y2="49.467" gradientUnits="userSpaceOnUse"><stop stop-color="#1c2d5a"/><stop offset="1" stop-color="#4fc3dd"/></linearGradient><clipPath id="D"><path fill="#fff" d="M0 0h52v52H0z"/></clipPath></defs></svg>