<svg xmlns="http://www.w3.org/2000/svg" width="52" height="52" fill="none" xmlns:v="https://vecta.io/nano"><g clip-path="url(#C)"><path d="M51.72 21.556L42.589 8.562a1.53 1.53 0 0 0-2.503 0l-3.475 4.945a20.4 20.4 0 0 0-16.173-7.946C9.169 5.562 0 14.73 0 26s9.169 20.438 20.438 20.438a20.39 20.39 0 0 0 13.953-5.504l-.094 1.53a1.53 1.53 0 0 0 1.526 1.624h11.028a1.53 1.53 0 0 0 1.526-1.624l-1.143-18.5h3.234c1.238 0 1.962-1.398 1.251-2.409zM20.438 43.38c-9.583 0-17.38-7.797-17.38-17.38s7.796-17.38 17.38-17.38a17.25 17.25 0 0 1 14.317 7.527l-3.801 5.409c-.712 1.013.016 2.409 1.251 2.409h3.234l-.739 11.964c-3.255 4.672-8.556 7.45-14.262 7.45zm25.17-22.473a1.53 1.53 0 0 0-1.526 1.624l1.143 18.5H37.45l1.143-18.5a1.53 1.53 0 0 0-1.526-1.624H35.15l6.188-8.805 6.188 8.805h-1.917z" fill="url(#A)"/><path d="M22.367 24.471h-3.861a1.94 1.94 0 0 1-1.938-1.938c0-1.072.868-1.938 1.937-1.938h.026 3.698c.91.008 1.789.505 2.294 1.296l.02.031a1.53 1.53 0 0 0 2.112.468 1.53 1.53 0 0 0 .468-2.112l-.021-.033c-1.066-1.667-2.806-2.708-5.137-2.708v-1.834a1.53 1.53 0 0 0-1.529-1.529 1.53 1.53 0 0 0-1.529 1.529v1.834c-1.462 0-2.727.265-3.921 1.45a4.96 4.96 0 0 0-1.476 3.546c0 2.755 2.242 4.996 4.996 4.996h3.861a1.94 1.94 0 0 1 1.938 1.938c0 1.031-.816 1.938-1.963 1.938h-4.035c-.795-.007-1.557-.38-2.092-1.022a1.53 1.53 0 0 0-2.154-.196 1.53 1.53 0 0 0-.196 2.154c1.431 1.718 3.097 2.123 5.043 2.123v1.834a1.53 1.53 0 0 0 1.529 1.529 1.53 1.53 0 0 0 1.529-1.529v-1.834c3.562 0 5.397-2.509 5.397-4.996 0-2.755-2.241-4.996-4.996-4.996z" fill="url(#B)"/></g><defs><linearGradient id="A" x1="-6.5" y1="-.836" x2="44.997" y2="74.778" gradientUnits="userSpaceOnUse"><stop stop-color="#1c2d5a"/><stop offset="1" stop-color="#4fc3dd" stop-opacity=".96"/></linearGradient><linearGradient id="B" x1="11.778" y1="10.471" x2="41.496" y2="30.561" gradientUnits="userSpaceOnUse"><stop stop-color="#1c2d5a"/><stop offset="1" stop-color="#4fc3dd" stop-opacity=".96"/></linearGradient><clipPath id="C"><path fill="#fff" d="M0 0h52v52H0z"/></clipPath></defs></svg>