<svg xmlns="http://www.w3.org/2000/svg" width="75" height="68" fill="none" xmlns:v="https://vecta.io/nano"><path d="M48.536 65.044c12.411 2.913 25.051-18.658 25.266-28.818C74.193 17.738 57.661 1.421 27.626.596 17.316.313 5.72 5.058 5.399 14.259 5.092 23.061 25.486 31.715 30.618 39.4c6.72 10.063-1.212 21.155 17.918 25.644z" fill="url(#A)"/><path d="M56.886 51.27l2.042-2.066c1.285-1.301 1.285-3.418 0-4.719-.623-.63-1.45-.977-2.331-.977-.661 0-1.292.196-1.829.56l-.43-1.462 2.21-2.238a3.37 3.37 0 0 0 0-4.719 3.27 3.27 0 0 0-4.34-.282l-2.619-8.899 2.992-2.967c2.721-2.754 4.933-5.669 6.229-8.209 2.19-4.292 1.274-6.586.119-7.755s-3.421-2.096-7.661.121c-2.508 1.312-5.388 3.551-8.109 6.305l-2.931 3.028-8.792-2.651c.996-1.307.905-3.195-.278-4.394a3.27 3.27 0 0 0-4.661 0l-2.21 2.238-1.444-.435c.36-.544.553-1.183.553-1.852 0-.891-.343-1.729-.965-2.359a3.27 3.27 0 0 0-4.661 0l-2.041 2.066L5.32 6.466c-.371-.111-.771-.009-1.044.268L1.598 9.444c-.45.455-.39 1.232.122 1.612l26.25 19.45-15.645 18.351-7.721-3.006c-.388-.151-.828-.057-1.122.241L.308 49.304c-.411.416-.411 1.09 0 1.506l15.87 16.065c.405.411 1.082.411 1.488 0l3.174-3.212c.294-.298.388-.743.238-1.136l-2.969-7.815 18.128-15.838 2.085 2.885c.37.512 1.121.578 1.575.142.378-.364.431-.974.123-1.399l-2.204-3.049 10.063-9.332 9.911 33.682-1.367 1.383L42.8 44.345c-.343-.474-1.001-.578-1.47-.23s-.571 1.014-.228 1.489L55.45 65.445c.375.519 1.143.579 1.592.124l2.678-2.711c.273-.276.375-.682.265-1.057L56.886 51.27zM27.981 11.452c.459-.465 1.227-.465 1.686 0a1.22 1.22 0 0 1 0 1.707l-.493.499-2.599-.784 1.406-1.422zm-8.728-2.41c.464-.471 1.221-.471 1.686 0a1.22 1.22 0 0 1 0 1.707l-.325.328-2.598-.783 1.236-1.252zm-15.3 1.029L5.32 8.688l33.273 10.033c-2.961 3.166-6.104 6.654-9.219 10.187L3.953 10.072zm.534 38.015l6.405 2.494-3.566 4.322-4.787-4.846 1.947-1.97zm4.334 8.328c3.667-4.479 23.052-28.019 35.824-40.947 2.534-2.565 5.3-4.723 7.587-5.918 1.717-.898 4.015-1.715 5.208-.507s.386 3.534-.501 5.272c-1.181 2.315-3.313 5.114-5.847 7.68-12.77 12.927-36.025 32.55-40.45 36.263l-1.82-1.842zm10.048 6.23l-1.946 1.97-4.787-4.845 4.27-3.609 2.464 6.484zm36.885-16.654c.465-.471 1.221-.471 1.686 0a1.22 1.22 0 0 1 0 1.707l-1.236 1.252-.774-2.63.325-.328zm-2.38-8.836c.464-.471 1.221-.47 1.686 0a1.23 1.23 0 0 1 0 1.707l-1.406 1.423-.774-2.631.494-.499z" fill="#fff"/><defs><linearGradient id="A" x1="5.896" y1="0" x2="60.559" y2="83.106" gradientUnits="userSpaceOnUse"><stop stop-color="#f09642" stop-opacity=".78"/><stop offset="1" stop-color="#f0d542" stop-opacity=".79"/></linearGradient></defs></svg>