<svg width="1440" height="542" viewBox="0 0 1440 542" fill="none" xmlns="http://www.w3.org/2000/svg">
<g filter="url(#filter0_d_54_37)">
<path fill-rule="evenodd" clip-rule="evenodd" d="M-16 416.058L26.7028 409.056C68.3889 401.054 152.778 386.05 237.167 401.054C321.556 416.058 405.944 461.069 490.333 491.077C574.722 521.085 659.111 535.088 743.5 506.081C827.889 476.073 912.278 401.054 996.667 349.04C1081.06 297.027 1165.44 267.019 1249.83 282.023C1334.22 297.027 1418.61 356.042 1461.31 386.05L1503 416.058V192H1461.31C1418.61 192 1334.22 192 1249.83 192C1165.44 192 1081.06 192 996.667 192C912.278 192 827.889 192 743.5 192C659.111 192 574.722 192 490.333 192C405.944 192 321.556 192 237.167 192C152.778 192 68.3889 192 26.7028 192H-16V416.058Z" fill="#FD8958"/>
<path fill-rule="evenodd" clip-rule="evenodd" d="M-16 416.058L26.7028 409.056C68.3889 401.054 152.778 386.05 237.167 401.054C321.556 416.058 405.944 461.069 490.333 491.077C574.722 521.085 659.111 535.088 743.5 506.081C827.889 476.073 912.278 401.054 996.667 349.04C1081.06 297.027 1165.44 267.019 1249.83 282.023C1334.22 297.027 1418.61 356.042 1461.31 386.05L1503 416.058V192H1461.31C1418.61 192 1334.22 192 1249.83 192C1165.44 192 1081.06 192 996.667 192C912.278 192 827.889 192 743.5 192C659.111 192 574.722 192 490.333 192C405.944 192 321.556 192 237.167 192C152.778 192 68.3889 192 26.7028 192H-16V416.058Z" />
</g>
<g filter="url(#filter1_d_54_37)">
<path fill-rule="evenodd" clip-rule="evenodd" d="M-369 105.915L-327 112.915C-286 120.915 -203 135.915 -120 120.915C-37 105.915 46 60.915 129 30.915C212 0.915041 295 -13.085 378 15.915C461 45.915 544 120.915 627 172.915C710 224.915 793 254.915 876 239.915C959 224.915 1042 165.915 1084 135.915L1125 105.915V329.915H1084C1042 329.915 959 329.915 876 329.915C793 329.915 710 329.915 627 329.915C544 329.915 461 329.915 378 329.915C295 329.915 212 329.915 129 329.915C46 329.915 -37 329.915 -120 329.915C-203 329.915 -286 329.915 -327 329.915H-369V105.915Z" fill="#FD8958"/>
<path fill-rule="evenodd" clip-rule="evenodd" d="M-369 105.915L-327 112.915C-286 120.915 -203 135.915 -120 120.915C-37 105.915 46 60.915 129 30.915C212 0.915041 295 -13.085 378 15.915C461 45.915 544 120.915 627 172.915C710 224.915 793 254.915 876 239.915C959 224.915 1042 165.915 1084 135.915L1125 105.915V329.915H1084C1042 329.915 959 329.915 876 329.915C793 329.915 710 329.915 627 329.915C544 329.915 461 329.915 378 329.915C295 329.915 212 329.915 129 329.915C46 329.915 -37 329.915 -120 329.915C-203 329.915 -286 329.915 -327 329.915H-369V105.915Z" />
</g>
<g filter="url(#filter2_d_54_37)">
<path fill-rule="evenodd" clip-rule="evenodd" d="M-368 164.942L-325.241 171.944C-283.5 179.946 -199 194.95 -114.5 179.946C-30 164.942 54.5 119.931 139 89.923C223.5 59.9153 308 45.9117 392.5 74.9191C477 104.927 561.5 179.946 646 231.96C730.5 283.973 815 313.981 899.5 298.977C984 283.973 1068.5 224.958 1111.26 194.95L1153 164.942V389H1111.26C1068.5 389 984 389 899.5 389C815 389 730.5 389 646 389C561.5 389 477 389 392.5 389C308 389 223.5 389 139 389C54.5 389 -30 389 -114.5 389C-199 389 -283.5 389 -325.241 389H-368V164.942Z" fill="#FFF8F0"/>
<path fill-rule="evenodd" clip-rule="evenodd" d="M-368 164.942L-325.241 171.944C-283.5 179.946 -199 194.95 -114.5 179.946C-30 164.942 54.5 119.931 139 89.923C223.5 59.9153 308 45.9117 392.5 74.9191C477 104.927 561.5 179.946 646 231.96C730.5 283.973 815 313.981 899.5 298.977C984 283.973 1068.5 224.958 1111.26 194.95L1153 164.942V389H1111.26C1068.5 389 984 389 899.5 389C815 389 730.5 389 646 389C561.5 389 477 389 392.5 389C308 389 223.5 389 139 389C54.5 389 -30 389 -114.5 389C-199 389 -283.5 389 -325.241 389H-368V164.942Z"/>
</g>
<g filter="url(#filter3_d_54_37)">
<path fill-rule="evenodd" clip-rule="evenodd" d="M475 114.915L517 121.915C558 129.915 641 144.915 724 129.915C807 114.915 890 69.915 973 39.915C1056 9.91504 1139 -4.08496 1222 24.915C1305 54.915 1388 129.915 1471 181.915C1554 233.915 1637 263.915 1720 248.915C1803 233.915 1886 174.915 1928 144.915L1969 114.915V338.915H1928C1886 338.915 1803 338.915 1720 338.915C1637 338.915 1554 338.915 1471 338.915C1388 338.915 1305 338.915 1222 338.915C1139 338.915 1056 338.915 973 338.915C890 338.915 807 338.915 724 338.915C641 338.915 558 338.915 517 338.915H475V114.915Z" fill="#FD8958"/>
<path fill-rule="evenodd" clip-rule="evenodd" d="M475 114.915L517 121.915C558 129.915 641 144.915 724 129.915C807 114.915 890 69.915 973 39.915C1056 9.91504 1139 -4.08496 1222 24.915C1305 54.915 1388 129.915 1471 181.915C1554 233.915 1637 263.915 1720 248.915C1803 233.915 1886 174.915 1928 144.915L1969 114.915V338.915H1928C1886 338.915 1803 338.915 1720 338.915C1637 338.915 1554 338.915 1471 338.915C1388 338.915 1305 338.915 1222 338.915C1139 338.915 1056 338.915 973 338.915C890 338.915 807 338.915 724 338.915C641 338.915 558 338.915 517 338.915H475V114.915Z"/>
</g>
<g filter="url(#filter4_d_54_37)">
<path fill-rule="evenodd" clip-rule="evenodd" d="M1439 462L1379 484C1319 505 1199 548 1079 527C959 505 839 419 719 397C599 376 479 419 359 426C239 433 119 404 59 390L-1 376V246H59C119 246 239 246 359 246C479 246 599 246 719 246C839 246 959 246 1079 246C1199 246 1319 246 1379 246H1439V462Z" fill="#FFE2C4"/>
<path fill-rule="evenodd" clip-rule="evenodd" d="M1439 462L1379 484C1319 505 1199 548 1079 527C959 505 839 419 719 397C599 376 479 419 359 426C239 433 119 404 59 390L-1 376V246H59C119 246 239 246 359 246C479 246 599 246 719 246C839 246 959 246 1079 246C1199 246 1319 246 1379 246H1439V462Z"/>
</g>
<g filter="url(#filter5_d_54_37)">
<path fill-rule="evenodd" clip-rule="evenodd" d="M1599.23 381.125L1551.75 375.877C1505.35 369.613 1411.48 358.101 1318.6 375.936C1225.72 393.771 1133.83 440.953 1041.44 473.461C949.058 505.97 856.144 522.826 761.805 497.619C667.433 471.433 571.571 401.227 476.47 353.52C381.369 305.813 286.997 279.627 194.116 297.462C101.234 315.297 9.80983 376.175 -36.4483 407.122L-81.5813 438.03L-89 218.905L-42.8734 217.344C4.37829 215.744 97.7567 212.583 191.135 209.421C284.513 206.26 377.892 203.098 471.27 199.937C564.649 196.776 658.027 193.614 751.405 190.453C844.784 187.291 938.162 184.13 1031.54 180.968C1124.92 177.807 1218.3 174.646 1311.68 171.484C1405.05 168.323 1498.43 165.161 1544.56 163.6L1591.81 162L1599.23 381.125Z" fill="#FFF8F0"/>
<path fill-rule="evenodd" clip-rule="evenodd" d="M1599.23 381.125L1551.75 375.877C1505.35 369.613 1411.48 358.101 1318.6 375.936C1225.72 393.771 1133.83 440.953 1041.44 473.461C949.058 505.97 856.144 522.826 761.805 497.619C667.433 471.433 571.571 401.227 476.47 353.52C381.369 305.813 286.997 279.627 194.116 297.462C101.234 315.297 9.80983 376.175 -36.4483 407.122L-81.5813 438.03L-89 218.905L-42.8734 217.344C4.37829 215.744 97.7567 212.583 191.135 209.421C284.513 206.26 377.892 203.098 471.27 199.937C564.649 196.776 658.027 193.614 751.405 190.453C844.784 187.291 938.162 184.13 1031.54 180.968C1124.92 177.807 1218.3 174.646 1311.68 171.484C1405.05 168.323 1498.43 165.161 1544.56 163.6L1591.81 162L1599.23 381.125Z"/>
</g>
<g filter="url(#filter6_d_54_37)">
<path fill-rule="evenodd" clip-rule="evenodd" d="M-31 78.2483L11.6747 85.1283C53.3333 92.9912 137.667 107.734 222 92.9912C306.333 78.2483 390.667 67.717 475 38.2313C559.333 8.74558 639.534 1.45267 743.749 16.8705C853.494 33.1064 899.067 104.999 1008.43 123.807C1095.35 138.754 1234 123.807 1234 123.807C1234 123.807 1402.67 80.4857 1445.34 51L1487 78.2483V298.408H1445.34C1402.67 298.408 1277.77 270.428 1234 273C1117.34 279.856 1072.44 282.087 968 331C811.066 404.5 688.5 393.5 647 393.5C605.5 393.5 533.459 381.533 455 331C376.541 280.467 325.145 250.898 222 241.42C119.366 231.988 10.6586 316.549 -31 316.549V298.408V78.2483Z" fill="#FFE2C4"/>
<path fill-rule="evenodd" clip-rule="evenodd" d="M-31 78.2483L11.6747 85.1283C53.3333 92.9912 137.667 107.734 222 92.9912C306.333 78.2483 390.667 67.717 475 38.2313C559.333 8.74558 639.534 1.45267 743.749 16.8705C853.494 33.1064 899.067 104.999 1008.43 123.807C1095.35 138.754 1234 123.807 1234 123.807C1234 123.807 1402.67 80.4857 1445.34 51L1487 78.2483V298.408H1445.34C1402.67 298.408 1277.77 270.428 1234 273C1117.34 279.856 1072.44 282.087 968 331C811.066 404.5 688.5 393.5 647 393.5C605.5 393.5 533.459 381.533 455 331C376.541 280.467 325.145 250.898 222 241.42C119.366 231.988 10.6586 316.549 -31 316.549V298.408V78.2483Z" />
</g>
<defs>
<filter id="filter0_d_54_37" x="-20" y="192" width="1527" height="338" filterUnits="userSpaceOnUse" color-interpolation-filters="sRGB">
<feFlood flood-opacity="0" result="BackgroundImageFix"/>
<feColorMatrix in="SourceAlpha" type="matrix" values="0 0 0 0 0 0 0 0 0 0 0 0 0 0 0 0 0 0 127 0" result="hardAlpha"/>
<feOffset dy="4"/>
<feGaussianBlur stdDeviation="2"/>
<feComposite in2="hardAlpha" operator="out"/>
<feColorMatrix type="matrix" values="0 0 0 0 0 0 0 0 0 0 0 0 0 0 0 0 0 0 0.25 0"/>
<feBlend mode="normal" in2="BackgroundImageFix" result="effect1_dropShadow_54_37"/>
<feBlend mode="normal" in="SourceGraphic" in2="effect1_dropShadow_54_37" result="shape"/>
</filter>
<filter id="filter1_d_54_37" x="-369" y="0" width="1515" height="337.915" filterUnits="userSpaceOnUse" color-interpolation-filters="sRGB">
<feFlood flood-opacity="0" result="BackgroundImageFix"/>
<feColorMatrix in="SourceAlpha" type="matrix" values="0 0 0 0 0 0 0 0 0 0 0 0 0 0 0 0 0 0 127 0" result="hardAlpha"/>
<feOffset dx="17" dy="4"/>
<feGaussianBlur stdDeviation="2"/>
<feComposite in2="hardAlpha" operator="out"/>
<feColorMatrix type="matrix" values="0 0 0 0 0 0 0 0 0 0 0 0 0 0 0 0 0 0 0.25 0"/>
<feBlend mode="normal" in2="BackgroundImageFix" result="effect1_dropShadow_54_37"/>
<feBlend mode="normal" in="SourceGraphic" in2="effect1_dropShadow_54_37" result="shape"/>
</filter>
<filter id="filter2_d_54_37" x="-368" y="59" width="1570" height="338" filterUnits="userSpaceOnUse" color-interpolation-filters="sRGB">
<feFlood flood-opacity="0" result="BackgroundImageFix"/>
<feColorMatrix in="SourceAlpha" type="matrix" values="0 0 0 0 0 0 0 0 0 0 0 0 0 0 0 0 0 0 127 0" result="hardAlpha"/>
<feOffset dx="45" dy="4"/>
<feGaussianBlur stdDeviation="2"/>
<feComposite in2="hardAlpha" operator="out"/>
<feColorMatrix type="matrix" values="0 0 0 0 0 0 0 0 0 0 0 0 0 0 0 0 0 0 0.25 0"/>
<feBlend mode="normal" in2="BackgroundImageFix" result="effect1_dropShadow_54_37"/>
<feBlend mode="normal" in="SourceGraphic" in2="effect1_dropShadow_54_37" result="shape"/>
</filter>
<filter id="filter3_d_54_37" x="475" y="6" width="1511" height="337.915" filterUnits="userSpaceOnUse" color-interpolation-filters="sRGB">
<feFlood flood-opacity="0" result="BackgroundImageFix"/>
<feColorMatrix in="SourceAlpha" type="matrix" values="0 0 0 0 0 0 0 0 0 0 0 0 0 0 0 0 0 0 127 0" result="hardAlpha"/>
<feOffset dx="13" dy="1"/>
<feGaussianBlur stdDeviation="2"/>
<feComposite in2="hardAlpha" operator="out"/>
<feColorMatrix type="matrix" values="0 0 0 0 0 0 0 0 0 0 0 0 0 0 0 0 0 0 0.25 0"/>
<feBlend mode="normal" in2="BackgroundImageFix" result="effect1_dropShadow_54_37"/>
<feBlend mode="normal" in="SourceGraphic" in2="effect1_dropShadow_54_37" result="shape"/>
</filter>
<filter id="filter4_d_54_37" x="-5" y="246" width="1448" height="294.629" filterUnits="userSpaceOnUse" color-interpolation-filters="sRGB">
<feFlood flood-opacity="0" result="BackgroundImageFix"/>
<feColorMatrix in="SourceAlpha" type="matrix" values="0 0 0 0 0 0 0 0 0 0 0 0 0 0 0 0 0 0 127 0" result="hardAlpha"/>
<feOffset dy="4"/>
<feGaussianBlur stdDeviation="2"/>
<feComposite in2="hardAlpha" operator="out"/>
<feColorMatrix type="matrix" values="0 0 0 0 0 0 0 0 0 0 0 0 0 0 0 0 0 0 0.25 0"/>
<feBlend mode="normal" in2="BackgroundImageFix" result="effect1_dropShadow_54_37"/>
<feBlend mode="normal" in="SourceGraphic" in2="effect1_dropShadow_54_37" result="shape"/>
</filter>
<filter id="filter5_d_54_37" x="-92.9999" y="162" width="1696.23" height="355.783" filterUnits="userSpaceOnUse" color-interpolation-filters="sRGB">
<feFlood flood-opacity="0" result="BackgroundImageFix"/>
<feColorMatrix in="SourceAlpha" type="matrix" values="0 0 0 0 0 0 0 0 0 0 0 0 0 0 0 0 0 0 127 0" result="hardAlpha"/>
<feOffset dy="4"/>
<feGaussianBlur stdDeviation="2"/>
<feComposite in2="hardAlpha" operator="out"/>
<feColorMatrix type="matrix" values="0 0 0 0 0 0 0 0 0 0 0 0 0 0 0 0 0 0 0.25 0"/>
<feBlend mode="normal" in2="BackgroundImageFix" result="effect1_dropShadow_54_37"/>
<feBlend mode="normal" in="SourceGraphic" in2="effect1_dropShadow_54_37" result="shape"/>
</filter>
<filter id="filter6_d_54_37" x="-35" y="9" width="1526" height="393.084" filterUnits="userSpaceOnUse" color-interpolation-filters="sRGB">
<feFlood flood-opacity="0" result="BackgroundImageFix"/>
<feColorMatrix in="SourceAlpha" type="matrix" values="0 0 0 0 0 0 0 0 0 0 0 0 0 0 0 0 0 0 127 0" result="hardAlpha"/>
<feOffset dy="4"/>
<feGaussianBlur stdDeviation="2"/>
<feComposite in2="hardAlpha" operator="out"/>
<feColorMatrix type="matrix" values="0 0 0 0 0 0 0 0 0 0 0 0 0 0 0 0 0 0 0.25 0"/>
<feBlend mode="normal" in2="BackgroundImageFix" result="effect1_dropShadow_54_37"/>
<feBlend mode="normal" in="SourceGraphic" in2="effect1_dropShadow_54_37" result="shape"/>
</filter>
</defs>
</svg>
