<svg width="98" height="31" viewBox="0 0 98 31" fill="none" xmlns="http://www.w3.org/2000/svg">
<path d="M50.9335 30.2923H47.8965V17.5034H53.5439C54.5918 17.5034 55.7278 17.7068 56.6876 18.5163C57.6705 19.3458 57.907 20.4464 57.907 21.2599C57.907 22.859 56.9889 23.8719 56.108 24.3704C55.5516 24.6815 55.0601 24.7732 54.5872 24.7931C54.7355 24.8649 54.8885 24.9766 55.2085 25.3275C55.5284 25.6784 56.108 26.3563 58.7833 30.2963H55.2548C54.87 29.7819 54.8283 29.6503 54.5686 29.2674C54.3739 28.9564 54.3553 28.9723 53.8638 28.1987C52.6676 26.3045 52.2364 25.7143 51.8933 25.4033C51.7634 25.2916 51.6151 25.164 51.4018 25.0723C51.1885 24.9805 51.0169 24.9606 50.9335 24.9606V30.2923ZM51.9396 23.0225C52.7742 23.0225 53.6506 23.0026 54.1838 22.5998C54.4851 22.3606 54.7633 21.9379 54.7633 21.3118C54.7633 20.8332 54.6335 20.0596 53.6923 19.7486C53.1591 19.5811 52.496 19.5651 52.0045 19.5651H50.9335V23.0265H51.9396V23.0225Z" fill="black"/>
<path d="M61.8256 30V21.8182H64.4304V30H61.8256ZM63.1307 20.8647C62.7649 20.8647 62.4506 20.744 62.1879 20.5025C61.9251 20.2575 61.7937 19.9627 61.7937 19.6183C61.7937 19.2773 61.9251 18.9862 62.1879 18.7447C62.4506 18.4996 62.7649 18.3771 63.1307 18.3771C63.5 18.3771 63.8143 18.4996 64.0735 18.7447C64.3363 18.9862 64.4677 19.2773 64.4677 19.6183C64.4677 19.9627 64.3363 20.2575 64.0735 20.5025C63.8143 20.744 63.5 20.8647 63.1307 20.8647Z" fill="black"/>
<path d="M75.0678 29.6624H67V28.1351L72.1559 21.97H67.4266V20.2393H75.5546V21.9301L70.7186 27.9477H75.7447L75.0678 29.6624Z" fill="black"/>
<path d="M85.5512 21.3637C86.6871 22.4683 86.9004 23.7205 86.9004 24.9527C86.9004 26.1849 86.6871 27.4371 85.5512 28.5417C84.5033 29.5546 83.2421 29.8856 81.916 29.8856C80.59 29.8856 79.3288 29.5546 78.2809 28.5417C77.1449 27.4371 76.9316 26.1849 76.9316 24.9527C76.9316 23.7205 77.1449 22.4683 78.2809 21.3637C79.3288 20.3508 80.59 20.0198 81.916 20.0198C83.2421 20.0198 84.5033 20.3508 85.5512 21.3637ZM80.6734 22.3407C80.2237 22.8551 80.0938 23.7205 80.0938 24.9527C80.0938 26.1849 80.2237 27.0503 80.6734 27.5647C81.0582 28.0233 81.5729 28.0791 81.916 28.0791C82.2591 28.0791 82.7738 28.0233 83.1586 27.5647C83.6084 27.0503 83.7382 26.1849 83.7382 24.9527C83.7382 23.7205 83.6084 22.8551 83.1586 22.3407C82.7738 21.8821 82.2591 21.8263 81.916 21.8263C81.5729 21.8223 81.0582 21.8781 80.6734 22.3407Z" fill="black"/>
<path d="M94.9217 29.6625V23.5332C94.9217 22.9829 94.8985 22.5961 94.6667 22.3727C94.4766 22.1893 94.2401 22.1534 94.0454 22.1534C93.744 22.1534 93.3823 22.2092 92.9743 22.3927C92.6544 22.5402 92.2695 22.7795 91.9682 22.9988V29.6585H89.1445V22.8353C89.1445 22.301 89.1213 21.5672 88.7596 20.6261L91.2634 20C91.4581 20.2592 91.6482 20.6261 91.6714 21.1764L92.0331 20.9571C92.2278 20.8454 92.3762 20.6979 92.8909 20.4586C93.1041 20.3469 93.897 20.016 94.9032 20.016C96.3173 20.016 97.1937 20.6779 97.5368 21.4316C97.7501 21.9102 97.7501 22.4246 97.7501 22.7755V29.6585H94.9217V29.6625Z" fill="black"/>
<path d="M50.5672 6.74036C50.5672 6.76429 50.5579 6.78423 50.5394 6.79619C50.5208 6.80816 50.493 6.81613 50.4606 6.82411C50.4281 6.83208 50.3771 6.83208 50.3122 6.83208C50.2473 6.83208 50.2009 6.82809 50.1638 6.82411C50.1267 6.81613 50.0989 6.80816 50.0803 6.79619C50.0618 6.78423 50.0572 6.76429 50.0572 6.74036V6.46122C49.9134 6.59281 49.7558 6.69251 49.5796 6.76429C49.4034 6.83607 49.2179 6.87196 49.0232 6.87196C48.8516 6.87196 48.6986 6.85202 48.5595 6.81613C48.4204 6.77625 48.3045 6.72042 48.2071 6.64864C48.1098 6.57686 48.0356 6.48514 47.9799 6.38146C47.9243 6.27778 47.8965 6.15416 47.8965 6.02256C47.8965 5.86305 47.9336 5.72746 48.0078 5.61181C48.082 5.49617 48.1886 5.40046 48.3277 5.3207C48.4668 5.24494 48.6384 5.18512 48.8424 5.14923C49.0464 5.10935 49.2736 5.0934 49.524 5.0934H49.9737V4.87407C49.9737 4.7664 49.9598 4.67069 49.932 4.58695C49.9042 4.5032 49.8624 4.43541 49.8021 4.37958C49.7419 4.32375 49.6677 4.28388 49.5703 4.25596C49.4776 4.22805 49.3617 4.2121 49.2226 4.2121C49.0742 4.2121 48.9444 4.22805 48.8285 4.25596C48.7125 4.28786 48.6105 4.31977 48.5224 4.35566C48.4343 4.39155 48.3602 4.42345 48.2999 4.45535C48.2396 4.48725 48.1979 4.49922 48.17 4.49922C48.1515 4.49922 48.133 4.49523 48.119 4.48725C48.1051 4.47928 48.0912 4.46731 48.082 4.45136C48.0727 4.43541 48.0634 4.41547 48.0588 4.38756C48.0541 4.36363 48.0495 4.33173 48.0495 4.30381C48.0495 4.25197 48.0541 4.21209 48.0634 4.18019C48.0727 4.14829 48.0912 4.12038 48.1237 4.09645C48.1561 4.06853 48.2118 4.03663 48.2906 4.00074C48.3694 3.96485 48.4622 3.93295 48.5642 3.90105C48.6662 3.86914 48.7821 3.84522 48.9026 3.82528C49.0278 3.80534 49.1484 3.79736 49.2736 3.79736C49.5054 3.79736 49.7048 3.82129 49.8717 3.86516C50.034 3.90902 50.1684 3.97682 50.2705 4.06455C50.3725 4.15228 50.4466 4.26394 50.493 4.39155C50.5394 4.52314 50.5626 4.67468 50.5626 4.85014V6.74036H50.5672ZM49.9737 5.46028H49.4637C49.3014 5.46028 49.1577 5.47224 49.0371 5.49617C48.9166 5.5201 48.8145 5.55599 48.7357 5.60384C48.6569 5.65169 48.5966 5.70752 48.5595 5.77133C48.5224 5.83513 48.5039 5.9109 48.5039 5.99863C48.5039 6.14219 48.5595 6.25784 48.6662 6.34557C48.7728 6.4333 48.9258 6.47318 49.1159 6.47318C49.2736 6.47318 49.4173 6.43729 49.5518 6.3695C49.6862 6.3017 49.8253 6.19802 49.9737 6.05446V5.46028Z" fill="black"/>
<path d="M53.6088 4.08448C53.6088 4.12436 53.6041 4.16025 53.5995 4.19215C53.5949 4.22007 53.5856 4.244 53.5763 4.26393C53.567 4.28387 53.5531 4.29584 53.5392 4.30381C53.5253 4.31179 53.5114 4.31577 53.4882 4.31577H52.2641V6.73638C52.2641 6.75233 52.2595 6.76828 52.2502 6.78024C52.241 6.7922 52.227 6.80018 52.2039 6.80815C52.1807 6.81613 52.1529 6.82411 52.1111 6.82809C52.074 6.83208 52.023 6.83607 51.9628 6.83607C51.9071 6.83607 51.8561 6.83208 51.819 6.82809C51.7819 6.82411 51.7495 6.81613 51.7263 6.80815C51.7031 6.80018 51.6892 6.78822 51.6799 6.78024C51.6707 6.76828 51.666 6.75631 51.666 6.73638V4.04062C51.666 3.97681 51.6846 3.93295 51.717 3.90104C51.7495 3.86914 51.7958 3.85718 51.8515 3.85718H53.4882C53.5068 3.85718 53.5253 3.86117 53.5392 3.87313C53.5531 3.8811 53.5624 3.89705 53.5763 3.91699C53.5856 3.93693 53.5949 3.96086 53.5995 3.98877C53.6041 4.0127 53.6088 4.0446 53.6088 4.08448Z" fill="black"/>
<path d="M56.9288 5.21303C56.9288 5.29279 56.9056 5.35261 56.8592 5.38451C56.8129 5.4204 56.7572 5.43635 56.697 5.43635H54.5548C54.5548 5.59188 54.5734 5.73145 54.6105 5.85507C54.6476 5.97869 54.7078 6.08636 54.7913 6.17409C54.8748 6.26183 54.986 6.33361 55.1205 6.37747C55.255 6.42533 55.4219 6.44925 55.6166 6.44925C55.7696 6.44925 55.9087 6.43729 56.0293 6.41735C56.1498 6.39741 56.2565 6.3695 56.3446 6.34557C56.4327 6.31766 56.5069 6.29373 56.5625 6.27379C56.6181 6.25385 56.6645 6.24189 56.6923 6.24189C56.7109 6.24189 56.7248 6.24588 56.7387 6.25385C56.7526 6.26183 56.7619 6.27379 56.7711 6.28575C56.7804 6.30171 56.7851 6.32164 56.7897 6.34557C56.7943 6.37348 56.7943 6.4014 56.7943 6.44128C56.7943 6.46919 56.7943 6.49312 56.7897 6.51306C56.7851 6.533 56.7851 6.54895 56.7804 6.5649C56.7758 6.58085 56.7711 6.59281 56.7619 6.60877C56.7526 6.62073 56.7433 6.63269 56.7294 6.64466C56.7155 6.65662 56.6784 6.67656 56.6135 6.70049C56.5486 6.72441 56.4651 6.75233 56.3585 6.77625C56.2565 6.80018 56.1359 6.82411 55.9968 6.84405C55.8624 6.86398 55.714 6.87196 55.561 6.87196C55.2921 6.87196 55.0602 6.84006 54.8562 6.77625C54.6568 6.71245 54.4853 6.61674 54.3462 6.48913C54.2071 6.36152 54.1051 6.206 54.0355 6.01458C53.966 5.82317 53.9289 5.60384 53.9289 5.34862C53.9289 5.10935 53.966 4.89002 54.0355 4.69861C54.1097 4.50719 54.2117 4.34369 54.3462 4.2121C54.4807 4.07651 54.6476 3.97681 54.8377 3.90503C55.0324 3.83325 55.2457 3.79736 55.4868 3.79736C55.7418 3.79736 55.9597 3.83325 56.1406 3.90503C56.3214 3.97681 56.4698 4.06853 56.5857 4.18817C56.7016 4.3078 56.7851 4.44738 56.8407 4.60689C56.8963 4.7664 56.9242 4.93788 56.9242 5.12131V5.21303H56.9288ZM56.326 5.0615C56.3353 4.79033 56.2657 4.57897 56.1174 4.42744C55.969 4.2759 55.7511 4.19614 55.4636 4.19614C55.3152 4.19614 55.1854 4.22007 55.0741 4.26792C54.9629 4.31578 54.8701 4.37958 54.7959 4.45934C54.7218 4.53909 54.6615 4.63082 54.6197 4.7345C54.578 4.83818 54.5548 4.94984 54.5502 5.0615H56.326Z" fill="black"/>
<path d="M60.6887 6.73629C60.6887 6.75225 60.6841 6.7682 60.6748 6.78016C60.6655 6.79212 60.6516 6.8001 60.6284 6.80807C60.6052 6.81605 60.5774 6.82403 60.5403 6.82801C60.5032 6.832 60.4522 6.83599 60.3966 6.83599C60.3363 6.83599 60.2853 6.832 60.2482 6.82801C60.2111 6.82403 60.1787 6.81605 60.1601 6.80807C60.1369 6.8001 60.123 6.78813 60.1138 6.78016C60.1045 6.7682 60.0998 6.75623 60.0998 6.73629V5.50805H58.4399V6.73629C58.4399 6.75225 58.4353 6.7682 58.426 6.78016C58.4167 6.79212 58.4028 6.8001 58.3796 6.80807C58.3565 6.81605 58.3286 6.82403 58.2869 6.82801C58.2498 6.832 58.1988 6.83599 58.1385 6.83599C58.0829 6.83599 58.0319 6.832 57.9948 6.82801C57.9577 6.82403 57.9253 6.81605 57.9021 6.80807C57.8789 6.8001 57.865 6.78813 57.8557 6.78016C57.8464 6.7682 57.8418 6.75623 57.8418 6.73629V3.93685C57.8418 3.9209 57.8464 3.90495 57.8557 3.89299C57.865 3.88102 57.8789 3.87305 57.9021 3.86108C57.9253 3.85311 57.9577 3.84513 57.9948 3.84115C58.0319 3.83716 58.0829 3.83716 58.1385 3.83716C58.1988 3.83716 58.2498 3.83716 58.2869 3.84115C58.324 3.84513 58.3565 3.84912 58.3796 3.86108C58.4028 3.86906 58.4167 3.88102 58.426 3.89299C58.4353 3.90495 58.4399 3.91691 58.4399 3.93685V5.07736H60.0998V3.93685C60.0998 3.9209 60.1045 3.90495 60.1138 3.89299C60.123 3.88102 60.1369 3.87305 60.1601 3.86108C60.1833 3.85311 60.2111 3.84513 60.2482 3.84115C60.2853 3.83716 60.3363 3.83716 60.3966 3.83716C60.4522 3.83716 60.5032 3.83716 60.5403 3.84115C60.5774 3.84513 60.6099 3.84912 60.6284 3.86108C60.6516 3.86906 60.6655 3.88102 60.6748 3.89299C60.6841 3.90495 60.6887 3.91691 60.6887 3.93685V6.73629Z" fill="black"/>
<path d="M64.0735 4.08847C64.0735 4.12835 64.0689 4.16424 64.0642 4.19614C64.0596 4.22406 64.0503 4.24798 64.041 4.26792C64.0318 4.28786 64.0179 4.29982 64.0039 4.31179C63.99 4.31976 63.9715 4.32774 63.9483 4.32774H62.97V6.74036C62.97 6.75632 62.9653 6.77227 62.9561 6.78423C62.9468 6.79619 62.9329 6.80417 62.9097 6.81214C62.8865 6.82012 62.8587 6.8281 62.817 6.83208C62.7799 6.83607 62.7289 6.84006 62.6686 6.84006C62.6129 6.84006 62.5619 6.83607 62.5248 6.83208C62.4878 6.8281 62.4553 6.82012 62.4321 6.81214C62.4089 6.80417 62.395 6.79221 62.3857 6.78423C62.3765 6.77227 62.3718 6.7603 62.3718 6.74036V4.32774H61.3935C61.375 4.32774 61.3564 4.32375 61.3425 4.31179C61.3286 4.30381 61.3147 4.28786 61.3054 4.26792C61.2961 4.24798 61.2869 4.22406 61.2822 4.19614C61.2776 4.16424 61.2729 4.13234 61.2729 4.08847C61.2729 4.05258 61.2776 4.01669 61.2822 3.98877C61.2869 3.96086 61.2961 3.93693 61.3054 3.91699C61.3147 3.89705 61.3286 3.8811 61.3425 3.87313C61.3564 3.86515 61.375 3.85718 61.3935 3.85718H63.9437C63.9622 3.85718 63.9808 3.86117 63.9947 3.87313C64.0086 3.8811 64.0225 3.89705 64.0318 3.91699C64.041 3.93693 64.0503 3.96086 64.0549 3.99276C64.0735 4.01669 64.0735 4.05258 64.0735 4.08847Z" fill="black"/>
<path d="M66.9346 6.30968C66.9346 6.34557 66.9346 6.37349 66.93 6.4014C66.9253 6.42932 66.9253 6.44925 66.9161 6.46521C66.9114 6.48116 66.9021 6.49711 66.8929 6.51306C66.8836 6.52502 66.8651 6.54496 66.8372 6.57287C66.8094 6.5968 66.7538 6.63269 66.6842 6.66858C66.61 6.70846 66.5312 6.74036 66.4385 6.77226C66.3504 6.80417 66.2484 6.82809 66.1417 6.84405C66.0351 6.86398 65.9238 6.87196 65.8125 6.87196C65.5807 6.87196 65.3721 6.84006 65.1912 6.77226C65.0104 6.70447 64.8574 6.60877 64.7368 6.48116C64.6163 6.35355 64.5235 6.19802 64.4586 6.01059C64.3937 5.82317 64.3613 5.61182 64.3613 5.36856C64.3613 5.0934 64.3984 4.85413 64.4772 4.65873C64.556 4.45934 64.6626 4.29983 64.7971 4.17222C64.9316 4.04461 65.0939 3.95289 65.2793 3.88908C65.4648 3.82927 65.6642 3.79736 65.8774 3.79736C65.9795 3.79736 66.0815 3.80534 66.1788 3.82129C66.2762 3.83724 66.3643 3.86117 66.4478 3.8851C66.5312 3.91301 66.6008 3.94491 66.6657 3.97681C66.7306 4.01271 66.777 4.04062 66.8048 4.06853C66.8326 4.09246 66.8558 4.1124 66.8651 4.12835C66.8743 4.1443 66.8836 4.16025 66.8929 4.18019C66.9021 4.20013 66.9068 4.22406 66.9068 4.24799C66.9114 4.27191 66.9114 4.30381 66.9114 4.3397C66.9114 4.41946 66.9021 4.47529 66.879 4.51118C66.8558 4.54308 66.8326 4.55903 66.8001 4.55903C66.763 4.55903 66.7213 4.54308 66.6749 4.50719C66.6286 4.4713 66.5683 4.43541 66.4941 4.39553C66.4199 4.35566 66.3365 4.31578 66.2298 4.28388C66.1278 4.24799 66.0073 4.23203 65.8682 4.23203C65.5807 4.23203 65.3628 4.32774 65.2098 4.51517C65.0568 4.70658 64.9779 4.98174 64.9779 5.34064C64.9779 5.5201 64.9965 5.67961 65.0382 5.81519C65.0799 5.95078 65.1356 6.06642 65.2144 6.15416C65.2932 6.24588 65.386 6.31367 65.4972 6.35753C65.6085 6.4014 65.7384 6.42533 65.8821 6.42533C66.0212 6.42533 66.1417 6.40539 66.2437 6.3695C66.3458 6.33361 66.4385 6.28974 66.5127 6.24587C66.5869 6.20201 66.6518 6.16213 66.7028 6.12624C66.7538 6.09035 66.7955 6.07041 66.8233 6.07041C66.8419 6.07041 66.8558 6.0744 66.8651 6.08238C66.879 6.09035 66.8882 6.1063 66.8975 6.12624C66.9068 6.14618 66.9114 6.17011 66.9161 6.20201C66.9346 6.23391 66.9346 6.2698 66.9346 6.30968Z" fill="black"/>
<path d="M70.0085 4.08847C70.0085 4.12835 70.0039 4.16424 69.9993 4.19614C69.9946 4.22406 69.9853 4.24798 69.9761 4.26792C69.9668 4.28786 69.9529 4.29982 69.939 4.31179C69.9251 4.32375 69.9065 4.32774 69.8833 4.32774H68.905V6.74036C68.905 6.75632 68.9004 6.77227 68.8911 6.78423C68.8818 6.79619 68.8679 6.80417 68.8447 6.81214C68.8216 6.82012 68.7937 6.8281 68.752 6.83208C68.7149 6.83607 68.6639 6.84006 68.6036 6.84006C68.548 6.84006 68.497 6.83607 68.4599 6.83208C68.4228 6.8281 68.3903 6.82012 68.3672 6.81214C68.344 6.80417 68.3301 6.79221 68.3208 6.78423C68.3115 6.77227 68.3069 6.7603 68.3069 6.74036V4.32774H67.3286C67.31 4.32774 67.2915 4.32375 67.2776 4.31179C67.2636 4.30381 67.2497 4.28786 67.2405 4.26792C67.2312 4.24798 67.2219 4.22406 67.2173 4.19614C67.2126 4.16424 67.208 4.13234 67.208 4.08847C67.208 4.05258 67.2126 4.01669 67.2173 3.98877C67.2219 3.96086 67.2312 3.93693 67.2405 3.91699C67.2497 3.89705 67.2636 3.8811 67.2776 3.87313C67.2915 3.86515 67.31 3.85718 67.3286 3.85718H69.8787C69.8973 3.85718 69.9158 3.86117 69.9297 3.87313C69.9436 3.8811 69.9575 3.89705 69.9668 3.91699C69.9761 3.93693 69.9853 3.96086 69.99 3.99276C70.0039 4.01669 70.0085 4.05258 70.0085 4.08847Z" fill="black"/>
<path d="M73.2682 5.93092C73.2682 6.07847 73.2358 6.21007 73.1709 6.32571C73.106 6.44136 73.0086 6.53707 72.8834 6.61682C72.7536 6.69259 72.5959 6.75241 72.4058 6.79229C72.2157 6.83217 71.9932 6.8521 71.7381 6.8521C71.6593 6.8521 71.5805 6.8521 71.5063 6.8521C71.4321 6.8521 71.3579 6.84812 71.2884 6.84413C71.2188 6.84014 71.1493 6.83615 71.0797 6.83216C71.0102 6.82818 70.9406 6.82419 70.8757 6.81621C70.7784 6.80425 70.7088 6.78032 70.6624 6.73247C70.6161 6.6886 70.5929 6.62081 70.5929 6.53308V4.12046C70.5929 4.03671 70.6161 3.96892 70.6578 3.92505C70.7042 3.88119 70.7691 3.85327 70.8618 3.8453C70.9221 3.83732 70.9917 3.83334 71.0612 3.82935C71.1307 3.82536 71.2049 3.82137 71.2791 3.81738C71.3533 3.8134 71.4321 3.8134 71.511 3.80941C71.5898 3.80542 71.6732 3.80542 71.7521 3.80542C71.9839 3.80542 72.1879 3.82137 72.3595 3.85327C72.531 3.88518 72.6747 3.93702 72.786 4.00082C72.8973 4.06463 72.9854 4.14438 73.0364 4.2361C73.092 4.32782 73.1199 4.43549 73.1199 4.55513C73.1199 4.71464 73.0689 4.84624 72.9715 4.9579C72.8741 5.06955 72.7304 5.14931 72.5403 5.19716C72.7768 5.24103 72.9576 5.32477 73.0781 5.4484C73.208 5.58398 73.2682 5.73951 73.2682 5.93092ZM72.5496 4.6309C72.5496 4.5631 72.5356 4.50329 72.5078 4.44746C72.48 4.39163 72.429 4.34776 72.3641 4.31187C72.2992 4.27598 72.2111 4.24807 72.1091 4.22813C72.0024 4.20819 71.8772 4.20021 71.7289 4.20021C71.6176 4.20021 71.5109 4.2042 71.4182 4.20819C71.3255 4.21218 71.2467 4.22015 71.1817 4.22414V5.09348H71.7891C72.0395 5.09348 72.2296 5.0536 72.3595 4.97385C72.4893 4.89409 72.5496 4.77844 72.5496 4.6309ZM72.6562 5.9389C72.6562 5.85515 72.6377 5.78337 72.6052 5.71957C72.5727 5.65576 72.5171 5.60392 72.4429 5.56404C72.3687 5.52416 72.276 5.49226 72.1601 5.47232C72.0442 5.45238 71.9097 5.44042 71.7521 5.44042H71.1678V6.43338C71.2142 6.44136 71.2606 6.44535 71.3116 6.44934C71.3626 6.45332 71.4136 6.45731 71.4646 6.45731C71.5156 6.4613 71.5666 6.4613 71.6222 6.46529C71.6732 6.46927 71.7196 6.46927 71.766 6.46927C71.9236 6.46927 72.0581 6.45731 72.1694 6.43338C72.2806 6.40946 72.3734 6.37357 72.4475 6.3297C72.5217 6.28584 72.5727 6.23001 72.6098 6.16221C72.6423 6.09442 72.6562 6.01865 72.6562 5.9389Z" fill="black"/>
<path d="M77.1722 5.30475C77.1722 5.53206 77.1351 5.74341 77.0655 5.93483C76.996 6.12624 76.8894 6.29373 76.7549 6.42932C76.6158 6.56889 76.4442 6.67656 76.2356 6.75631C76.0269 6.83208 75.7858 6.87196 75.5123 6.87196C75.2433 6.87196 75.0115 6.83607 74.8121 6.76828C74.6128 6.70049 74.4458 6.60079 74.316 6.46919C74.1816 6.33759 74.0842 6.17808 74.0193 5.99464C73.9544 5.80722 73.9219 5.59586 73.9219 5.36058C73.9219 5.13328 73.9544 4.92192 74.0239 4.73051C74.0935 4.53909 74.1955 4.37161 74.3346 4.23602C74.4737 4.09645 74.6452 3.98878 74.8539 3.91301C75.0625 3.83724 75.3036 3.79736 75.5818 3.79736C75.8507 3.79736 76.0826 3.83325 76.282 3.90105C76.4813 3.96884 76.6483 4.06853 76.7781 4.20013C76.9125 4.33173 77.0099 4.49124 77.0748 4.67468C77.1397 4.85812 77.1722 5.06947 77.1722 5.30475ZM76.5555 5.34064C76.5555 5.18911 76.537 5.04555 76.5045 4.90996C76.4721 4.77438 76.4164 4.65873 76.3422 4.55505C76.268 4.45535 76.166 4.37161 76.0362 4.31578C75.9064 4.25596 75.7487 4.22805 75.554 4.22805C75.3778 4.22805 75.2248 4.25596 75.095 4.3078C74.9651 4.36363 74.8631 4.4394 74.7797 4.53511C74.6962 4.6348 74.6359 4.75045 74.5942 4.88603C74.5525 5.02162 74.5339 5.16917 74.5339 5.32868C74.5339 5.48022 74.5525 5.62777 74.5849 5.75936C74.6174 5.89495 74.673 6.0106 74.7472 6.11428C74.8214 6.21796 74.9281 6.29373 75.0532 6.35355C75.1831 6.41336 75.3407 6.44128 75.5355 6.44128C75.7116 6.44128 75.8647 6.41336 75.9898 6.36152C76.115 6.30968 76.2263 6.23391 76.3051 6.13422C76.3886 6.03851 76.4489 5.91888 76.486 5.78728C76.5323 5.64771 76.5555 5.50016 76.5555 5.34064Z" fill="black"/>
<path d="M50.9706 12.1118C50.9706 12.1277 50.9659 12.1437 50.9566 12.1556C50.9474 12.1676 50.9335 12.1756 50.9103 12.1836C50.8871 12.1915 50.8593 12.1995 50.8222 12.2035C50.7851 12.2075 50.7341 12.2115 50.6784 12.2115C50.6182 12.2115 50.5672 12.2075 50.5301 12.2035C50.493 12.1995 50.4605 12.1915 50.442 12.1836C50.4234 12.1756 50.4049 12.1636 50.3956 12.1556C50.3863 12.1437 50.3817 12.1317 50.3817 12.1118V10.8835H48.7218V12.1118C48.7218 12.1277 48.7171 12.1437 48.7079 12.1556C48.6986 12.1676 48.6847 12.1756 48.6615 12.1836C48.6383 12.1915 48.6105 12.1995 48.5688 12.2035C48.5317 12.2075 48.4807 12.2115 48.4204 12.2115C48.3648 12.2115 48.3138 12.2075 48.2767 12.2035C48.2396 12.1995 48.2071 12.1915 48.1839 12.1836C48.1607 12.1756 48.1468 12.1636 48.1376 12.1556C48.1283 12.1437 48.1237 12.1317 48.1237 12.1118V9.31234C48.1237 9.29639 48.1283 9.28044 48.1376 9.26848C48.1468 9.25651 48.1607 9.24854 48.1839 9.23657C48.2071 9.2286 48.2396 9.22062 48.2767 9.21663C48.3138 9.21265 48.3648 9.21265 48.4204 9.21265C48.4807 9.21265 48.5317 9.21265 48.5688 9.21663C48.6059 9.22062 48.6383 9.22461 48.6615 9.23657C48.6847 9.24455 48.6986 9.25651 48.7079 9.26848C48.7171 9.28044 48.7218 9.2924 48.7218 9.31234V10.4529H50.3817V9.31234C50.3817 9.29639 50.3863 9.28044 50.3956 9.26848C50.4049 9.25651 50.4188 9.24854 50.442 9.23657C50.4652 9.2286 50.493 9.22062 50.5301 9.21663C50.5672 9.21265 50.6182 9.21265 50.6784 9.21265C50.7341 9.21265 50.7851 9.21265 50.8222 9.21663C50.8593 9.22062 50.8917 9.22461 50.9103 9.23657C50.9335 9.24455 50.9474 9.25651 50.9566 9.26848C50.9659 9.28044 50.9706 9.2924 50.9706 9.31234V12.1118Z" fill="black"/>
<path d="M54.8559 10.5924C54.8559 10.6722 54.8327 10.732 54.7863 10.7639C54.7399 10.7998 54.6843 10.8157 54.624 10.8157H52.4819C52.4819 10.9713 52.5005 11.1108 52.5375 11.2345C52.5746 11.3581 52.6349 11.4658 52.7184 11.5535C52.8018 11.6412 52.9131 11.713 53.0476 11.7569C53.182 11.8047 53.349 11.8286 53.5437 11.8286C53.6967 11.8286 53.8358 11.8167 53.9564 11.7967C54.0769 11.7768 54.1835 11.7489 54.2716 11.725C54.3597 11.697 54.4339 11.6731 54.4896 11.6532C54.5452 11.6332 54.5916 11.6213 54.6194 11.6213C54.6379 11.6213 54.6519 11.6253 54.6658 11.6332C54.6797 11.6412 54.6889 11.6532 54.6982 11.6651C54.7075 11.6771 54.7121 11.701 54.7168 11.725C54.7214 11.7529 54.7214 11.7808 54.7214 11.8207C54.7214 11.8486 54.7214 11.8725 54.7168 11.8925C54.7121 11.9124 54.7121 11.9283 54.7075 11.9443C54.7029 11.9602 54.6982 11.9722 54.6889 11.9882C54.6797 12.0001 54.6704 12.0121 54.6565 12.024C54.6426 12.036 54.6055 12.056 54.5406 12.0799C54.4757 12.1038 54.3922 12.1317 54.2856 12.1556C54.1835 12.1796 54.063 12.2035 53.9239 12.2234C53.7894 12.2434 53.6411 12.2514 53.488 12.2514C53.2191 12.2514 52.9873 12.2195 52.7833 12.1556C52.5793 12.0918 52.4124 11.9961 52.2733 11.8685C52.1342 11.7409 52.0321 11.5854 51.9626 11.394C51.893 11.2026 51.856 10.9832 51.856 10.728C51.856 10.4887 51.893 10.2694 51.9626 10.078C52.0368 9.88659 52.1388 9.72309 52.2733 9.59149C52.4077 9.4559 52.5746 9.35621 52.7647 9.28443C52.9595 9.21265 53.1728 9.17676 53.4139 9.17676C53.6689 9.17676 53.8868 9.21265 54.0676 9.28443C54.2485 9.35621 54.3968 9.44793 54.5128 9.56756C54.6287 9.6872 54.7121 9.82677 54.7678 9.98628C54.8234 10.1458 54.8512 10.3173 54.8512 10.5007V10.5924H54.8559ZM54.2531 10.4409C54.2624 10.1697 54.1928 9.95837 54.0445 9.80683C53.8961 9.65529 53.6782 9.57554 53.3907 9.57554C53.2423 9.57554 53.1125 9.59947 53.0012 9.64732C52.8899 9.69517 52.7972 9.75898 52.723 9.83873C52.6488 9.91849 52.5885 10.0102 52.5468 10.1139C52.5051 10.2176 52.4819 10.3292 52.4773 10.4409H54.2531Z" fill="black"/>
<path d="M55.6953 13.1289C55.6953 13.1449 55.6907 13.1568 55.6861 13.1648C55.6768 13.1728 55.6629 13.1808 55.6443 13.1887C55.6258 13.1967 55.598 13.2007 55.5655 13.2047C55.5331 13.2087 55.496 13.2127 55.4496 13.2127C55.3986 13.2127 55.3569 13.2087 55.3244 13.2047C55.292 13.2007 55.2641 13.1967 55.2456 13.1887C55.227 13.1808 55.2085 13.1728 55.2039 13.1648C55.1946 13.1568 55.1899 13.1449 55.1899 13.1289V11.8807C55.1899 11.8289 55.1992 11.793 55.2178 11.7771C55.2363 11.7611 55.2734 11.7531 55.329 11.7531H55.5609C55.649 11.6614 55.7324 11.5537 55.8113 11.4341C55.8901 11.3145 55.9596 11.1629 56.0245 10.9835C56.0895 10.8 56.1497 10.5847 56.2054 10.3295C56.261 10.0743 56.312 9.77118 56.3584 9.41627C56.363 9.38835 56.3677 9.36044 56.3769 9.33651C56.3862 9.31258 56.3955 9.29265 56.414 9.28068C56.4279 9.26872 56.4465 9.25676 56.4697 9.24878C56.4928 9.24081 56.516 9.23682 56.5438 9.23682H58.3521C58.4078 9.23682 58.4541 9.25277 58.4866 9.28068C58.5191 9.31258 58.5376 9.35645 58.5376 9.42026V11.7611H58.992C59.043 11.7611 59.0801 11.7691 59.0986 11.785C59.1218 11.801 59.1311 11.8369 59.1311 11.8887V13.1369C59.1311 13.1528 59.1265 13.1648 59.1218 13.1728C59.1125 13.1808 59.0986 13.1887 59.0801 13.1967C59.0615 13.2047 59.0337 13.2087 58.9966 13.2127C58.9642 13.2166 58.9224 13.2206 58.8761 13.2206C58.8297 13.2206 58.788 13.2166 58.7555 13.2127C58.7231 13.2087 58.6999 13.2047 58.6767 13.1967C58.6582 13.1887 58.6396 13.1808 58.635 13.1728C58.6257 13.1648 58.6211 13.1528 58.6211 13.1369V12.1958H55.6861V13.1289H55.6953ZM57.9441 9.65554H56.9148C56.8638 9.9945 56.8128 10.2776 56.7571 10.5129C56.7015 10.7442 56.6459 10.9396 56.5856 11.0991C56.5253 11.2586 56.4604 11.3902 56.3908 11.4899C56.3213 11.5896 56.2517 11.6774 56.1822 11.7571H57.9487V9.65554H57.9441Z" fill="black"/>
<path d="M62.4694 11.3064C62.4694 11.454 62.4369 11.5856 62.372 11.7012C62.3071 11.8169 62.2098 11.9126 62.0846 11.9923C61.9547 12.0681 61.7971 12.1279 61.607 12.1678C61.4169 12.2077 61.1943 12.2276 60.9393 12.2276C60.8605 12.2276 60.7817 12.2276 60.7075 12.2276C60.6333 12.2276 60.5591 12.2236 60.4896 12.2196C60.42 12.2156 60.3505 12.2116 60.2809 12.2077C60.2114 12.2037 60.1418 12.1997 60.0769 12.1917C59.9795 12.1797 59.91 12.1558 59.8636 12.108C59.8172 12.0641 59.7941 11.9963 59.7941 11.9086V9.49595C59.7941 9.4122 59.8173 9.34441 59.859 9.30054C59.9053 9.25668 59.9703 9.22876 60.063 9.22079C60.1233 9.21281 60.1928 9.20882 60.2624 9.20484C60.3319 9.20085 60.4061 9.19686 60.4803 9.19287C60.5545 9.18888 60.6333 9.18888 60.7121 9.1849C60.7909 9.18091 60.8744 9.18091 60.9532 9.18091C61.1851 9.18091 61.3891 9.19686 61.5606 9.22876C61.7322 9.26067 61.8759 9.31251 61.9872 9.37631C62.0985 9.44012 62.1866 9.51987 62.2376 9.61159C62.2932 9.70331 62.321 9.81098 62.321 9.93062C62.321 10.0901 62.27 10.2217 62.1727 10.3334C62.0753 10.445 61.9316 10.5248 61.7415 10.5727C61.9779 10.6165 62.1587 10.7003 62.2793 10.8239C62.4091 10.9635 62.4694 11.119 62.4694 11.3064ZM61.7507 10.0064C61.7507 9.93859 61.7368 9.87878 61.709 9.82295C61.6812 9.76712 61.6302 9.72325 61.5653 9.68736C61.5003 9.65147 61.4123 9.62356 61.3102 9.60362C61.2036 9.58368 61.0784 9.5757 60.93 9.5757C60.8188 9.5757 60.7121 9.57969 60.6194 9.58368C60.5267 9.58767 60.4478 9.59564 60.3829 9.59963V10.469H60.9903C61.2407 10.469 61.4308 10.4291 61.5606 10.3493C61.6904 10.2696 61.7507 10.1579 61.7507 10.0064ZM61.8574 11.3184C61.8574 11.2346 61.8388 11.1629 61.8064 11.099C61.7739 11.0352 61.7183 10.9834 61.6441 10.9435C61.5699 10.9036 61.4772 10.8717 61.3613 10.8518C61.2453 10.8319 61.1109 10.8199 60.9532 10.8199H60.369V11.8129C60.4154 11.8208 60.4617 11.8248 60.5127 11.8288C60.5637 11.8328 60.6148 11.8368 60.6658 11.8368C60.7168 11.8408 60.7678 11.8408 60.8234 11.8448C60.8744 11.8488 60.9208 11.8488 60.9671 11.8488C61.1248 11.8488 61.2592 11.8368 61.3705 11.8129C61.4818 11.7889 61.5745 11.753 61.6487 11.7092C61.7229 11.6653 61.7739 11.6095 61.811 11.5417C61.8388 11.4699 61.8574 11.3981 61.8574 11.3184Z" fill="black"/>
<path d="M66.2388 12.1159C66.2388 12.1319 66.2342 12.1439 66.2249 12.1558C66.2157 12.1678 66.2017 12.1797 66.1786 12.1837C66.1554 12.1917 66.1276 12.1957 66.0905 12.1997C66.0534 12.2037 66.0024 12.2077 65.9467 12.2077C65.8911 12.2077 65.8401 12.2037 65.803 12.1997C65.7659 12.1957 65.7334 12.1917 65.7103 12.1837C65.6871 12.1758 65.6685 12.1678 65.6593 12.1558C65.65 12.1439 65.6453 12.1319 65.6453 12.1159V10.5049C65.6453 10.4251 65.65 10.3414 65.6546 10.2576C65.6593 10.1739 65.6639 10.0901 65.6732 10.0104C65.6175 10.0941 65.5573 10.1739 65.4923 10.2536C65.4274 10.3334 65.3579 10.4131 65.293 10.4929L63.9113 12.1159C63.8927 12.1319 63.8788 12.1478 63.8649 12.1598C63.851 12.1718 63.8371 12.1837 63.8139 12.1877C63.7953 12.1957 63.7675 12.1997 63.7351 12.2037C63.7026 12.2077 63.6655 12.2077 63.6191 12.2077C63.5681 12.2077 63.5218 12.2037 63.4893 12.1997C63.4569 12.1957 63.429 12.1917 63.4059 12.1837C63.3873 12.1758 63.3688 12.1678 63.3641 12.1558C63.3549 12.1439 63.3502 12.1319 63.3502 12.1159V9.30852C63.3502 9.29257 63.3549 9.2806 63.3641 9.26864C63.3734 9.25668 63.3873 9.24471 63.4105 9.23674C63.4337 9.22876 63.4661 9.22079 63.5032 9.22079C63.5403 9.2168 63.5867 9.2168 63.6423 9.2168C63.7582 9.2168 63.8371 9.22477 63.8788 9.24072C63.9205 9.25668 63.9437 9.2806 63.9437 9.31251V10.9316C63.9437 11.0113 63.9391 11.0911 63.9344 11.1708C63.9298 11.2506 63.9252 11.3303 63.9159 11.4101C63.9715 11.3303 64.0272 11.2546 64.0828 11.1788C64.1384 11.103 64.1987 11.0273 64.2636 10.9555L65.6639 9.30852C65.6778 9.29257 65.6917 9.27661 65.7103 9.26465C65.7242 9.25269 65.7474 9.24072 65.7659 9.23674C65.7891 9.22876 65.8169 9.22477 65.8494 9.22079C65.8818 9.2168 65.9236 9.2168 65.9746 9.2168C66.0256 9.2168 66.0673 9.2168 66.1044 9.22079C66.1415 9.22477 66.1693 9.22876 66.1878 9.23674C66.2064 9.24471 66.2249 9.25668 66.2296 9.26864C66.2388 9.2806 66.2435 9.29655 66.2435 9.31251V12.1159H66.2388Z" fill="black"/>
<path d="M71.6728 12.1357C71.6728 12.1477 71.6681 12.1596 71.6589 12.1676C71.6496 12.1756 71.631 12.1836 71.6078 12.1915C71.5847 12.1995 71.5568 12.2035 71.5198 12.2075C71.4827 12.2115 71.4363 12.2115 71.376 12.2115C71.3065 12.2115 71.2555 12.2075 71.2137 12.2035C71.172 12.1995 71.1396 12.1955 71.1117 12.1876C71.0885 12.1796 71.07 12.1716 71.0561 12.1596C71.0422 12.1477 71.0329 12.1357 71.0283 12.1198L70.6805 11.398C70.6342 11.3062 70.5878 11.2225 70.5368 11.1587C70.4858 11.0909 70.4348 11.0351 70.3745 10.9952C70.3142 10.9553 70.2447 10.9234 70.1659 10.9035C70.087 10.8835 69.9943 10.8756 69.8877 10.8756H69.6466V12.1397C69.6466 12.1517 69.6419 12.1596 69.628 12.1676C69.6141 12.1756 69.6002 12.1836 69.5724 12.1915C69.5445 12.1995 69.5167 12.2035 69.4796 12.2075C69.4425 12.2115 69.3962 12.2115 69.3498 12.2115C69.2988 12.2115 69.2524 12.2115 69.2153 12.2075C69.1782 12.2035 69.1458 12.1995 69.1226 12.1915C69.0994 12.1836 69.0809 12.1756 69.067 12.1676C69.0531 12.1596 69.0484 12.1477 69.0484 12.1397V10.8716H68.8073C68.7007 10.8716 68.6079 10.8795 68.5291 10.8995C68.4503 10.9194 68.3761 10.9513 68.3158 10.9912C68.2509 11.0311 68.1953 11.0869 68.1489 11.1547C68.0979 11.2225 68.0516 11.3023 68.0052 11.394L67.6574 12.1158C67.6528 12.1317 67.6435 12.1437 67.6296 12.1556C67.6157 12.1676 67.5972 12.1756 67.574 12.1836C67.5508 12.1915 67.5183 12.1955 67.4766 12.1995C67.4349 12.2035 67.3792 12.2075 67.3143 12.2075C67.2587 12.2075 67.2123 12.2075 67.1752 12.2035C67.1381 12.1995 67.1057 12.1955 67.0825 12.1876C67.0593 12.1796 67.0454 12.1716 67.0315 12.1636C67.0222 12.1556 67.0176 12.1437 67.0176 12.1317C67.0176 12.1198 67.0222 12.1038 67.0269 12.0839C67.0315 12.0639 67.0454 12.04 67.0593 12.0081L67.4163 11.3023C67.4627 11.2105 67.5137 11.1268 67.5647 11.055C67.6157 10.9832 67.676 10.9234 67.7316 10.8716C67.7919 10.8197 67.8568 10.7759 67.9217 10.74C67.9913 10.7041 68.0655 10.6762 68.1489 10.6522V10.6443C68.0933 10.6283 68.033 10.6084 67.9774 10.5805C67.9217 10.5565 67.8661 10.5167 67.8104 10.4728C67.7548 10.4249 67.6992 10.3691 67.6482 10.2973C67.5972 10.2255 67.5415 10.1378 67.4905 10.0341L67.1891 9.41602C67.1752 9.38811 67.1659 9.36418 67.1613 9.34424C67.152 9.3243 67.152 9.30437 67.152 9.28443C67.152 9.27246 67.1567 9.26449 67.1659 9.25651C67.1752 9.24854 67.1891 9.24056 67.2077 9.23259C67.2262 9.22461 67.2587 9.22062 67.2958 9.21663C67.3329 9.21265 67.3792 9.21265 67.4395 9.21265C67.5044 9.21265 67.5601 9.21265 67.6018 9.21663C67.6435 9.22062 67.6806 9.22461 67.7084 9.23259C67.7363 9.24056 67.7548 9.25252 67.7687 9.26449C67.7826 9.27645 67.7919 9.2924 67.7965 9.30835L68.084 9.95438C68.1257 10.0421 68.1675 10.1219 68.2138 10.1857C68.2602 10.2495 68.3112 10.3013 68.3668 10.3412C68.4225 10.3811 68.4874 10.409 68.5616 10.4289C68.6311 10.4449 68.7146 10.4568 68.8073 10.4568H69.0484V9.28044C69.0484 9.26848 69.0531 9.2605 69.067 9.25252C69.0809 9.24455 69.0948 9.23657 69.1226 9.23259C69.1458 9.2286 69.1782 9.22461 69.2153 9.22062C69.2524 9.21663 69.2988 9.21663 69.3498 9.21663C69.4008 9.21663 69.4425 9.21663 69.4796 9.22062C69.5167 9.22461 69.5492 9.2286 69.5724 9.23259C69.5955 9.23657 69.6141 9.24455 69.628 9.25252C69.6419 9.2605 69.6466 9.27246 69.6466 9.28044V10.4568H69.8877C69.9804 10.4568 70.0638 10.4489 70.138 10.4289C70.2122 10.409 70.2771 10.3811 70.3374 10.3412C70.3977 10.3013 70.4487 10.2495 70.4951 10.1857C70.5414 10.1219 70.5878 10.0461 70.6249 9.95837L70.9309 9.31234C70.9402 9.29639 70.9494 9.28044 70.9634 9.26848C70.9726 9.25651 70.9912 9.24455 71.0144 9.23657C71.0375 9.2286 71.07 9.22062 71.1071 9.22062C71.1488 9.21663 71.1998 9.21663 71.2647 9.21663C71.3204 9.21663 71.3714 9.21663 71.4085 9.22062C71.4456 9.22461 71.4734 9.2286 71.4966 9.23657C71.5151 9.24455 71.5337 9.25252 71.5383 9.2605C71.5476 9.26848 71.5522 9.28044 71.5522 9.28841C71.5522 9.30835 71.5476 9.32829 71.5429 9.34823C71.5383 9.36817 71.5244 9.3921 71.5151 9.42001L71.2045 10.0381C71.1535 10.1418 71.1025 10.2295 71.0468 10.2973C70.9912 10.3651 70.9355 10.4249 70.8799 10.4688C70.8243 10.5127 70.7686 10.5525 70.7176 10.5765C70.662 10.6044 70.6063 10.6243 70.5553 10.6403V10.6483C70.6388 10.6722 70.713 10.7041 70.7825 10.74C70.8521 10.7759 70.917 10.8197 70.9726 10.8716C71.0329 10.9234 71.0885 10.9872 71.1396 11.059C71.1906 11.1308 71.2416 11.2145 71.2879 11.3062L71.6403 12.0121C71.6496 12.028 71.6542 12.04 71.6589 12.052C71.6635 12.0639 71.6681 12.0759 71.6728 12.0879C71.6774 12.0998 71.6774 12.1078 71.682 12.1158C71.6728 12.1237 71.6728 12.1277 71.6728 12.1357Z" fill="black"/>
<path d="M75.3499 12.1159C75.3499 12.1319 75.3453 12.1439 75.336 12.1558C75.3267 12.1678 75.3128 12.1797 75.2897 12.1837C75.2665 12.1917 75.2386 12.1957 75.2016 12.1997C75.1645 12.2037 75.1135 12.2077 75.0578 12.2077C75.0022 12.2077 74.9512 12.2037 74.9141 12.1997C74.877 12.1957 74.8445 12.1917 74.8214 12.1837C74.7982 12.1758 74.7796 12.1678 74.7704 12.1558C74.7611 12.1439 74.7564 12.1319 74.7564 12.1159V10.5049C74.7564 10.4251 74.7611 10.3414 74.7657 10.2576C74.7703 10.1739 74.775 10.0901 74.7843 10.0104C74.7286 10.0941 74.6683 10.1739 74.6034 10.2536C74.5385 10.3334 74.469 10.4131 74.4041 10.4929L73.0223 12.1159C73.0038 12.1319 72.9899 12.1478 72.976 12.1598C72.9621 12.1718 72.9481 12.1837 72.925 12.1877C72.9064 12.1957 72.8786 12.1997 72.8461 12.2037C72.8137 12.2077 72.7766 12.2077 72.7302 12.2077C72.6792 12.2077 72.6329 12.2037 72.6004 12.1997C72.5679 12.1957 72.5401 12.1917 72.5169 12.1837C72.4984 12.1758 72.4799 12.1678 72.4752 12.1558C72.4659 12.1439 72.4613 12.1319 72.4613 12.1159V9.30852C72.4613 9.29257 72.4659 9.2806 72.4752 9.26864C72.4845 9.25668 72.4984 9.24471 72.5216 9.23674C72.5448 9.22876 72.5772 9.22079 72.6143 9.22079C72.6514 9.2168 72.6978 9.2168 72.7534 9.2168C72.8693 9.2168 72.9482 9.22477 72.9899 9.24072C73.0316 9.25668 73.0548 9.2806 73.0548 9.31251V10.9316C73.0548 11.0113 73.0502 11.0911 73.0455 11.1708C73.0409 11.2506 73.0362 11.3303 73.027 11.4101C73.0826 11.3303 73.1383 11.2546 73.1939 11.1788C73.2495 11.103 73.3098 11.0273 73.3747 10.9555L74.775 9.30852C74.7889 9.29257 74.8028 9.27661 74.8214 9.26465C74.8353 9.25269 74.8584 9.24072 74.877 9.23674C74.9002 9.22876 74.928 9.22477 74.9605 9.22079C74.9929 9.2168 75.0346 9.2168 75.0856 9.2168C75.1366 9.2168 75.1784 9.2168 75.2155 9.22079C75.2526 9.22477 75.2804 9.22876 75.2989 9.23674C75.3175 9.24471 75.336 9.25668 75.3407 9.26864C75.3499 9.2806 75.3546 9.29655 75.3546 9.31251V12.1159H75.3499Z" fill="black"/>
<path d="M80.5662 12.0839C80.5708 12.1277 80.5523 12.1596 80.5152 12.1796C80.4781 12.1995 80.4039 12.2075 80.2926 12.2075C80.2323 12.2075 80.1813 12.2075 80.1442 12.2035C80.1071 12.1995 80.0747 12.1955 80.0515 12.1915C80.0283 12.1836 80.0144 12.1756 80.0051 12.1636C79.9959 12.1517 79.9912 12.1357 79.9866 12.1198L79.7501 10.4848C79.7408 10.4249 79.7362 10.3651 79.7269 10.2973C79.7177 10.2295 79.713 10.1617 79.7038 10.094C79.6945 10.0262 79.6898 9.95837 79.6852 9.89057C79.6806 9.82278 79.6713 9.75897 79.6667 9.69916L79.662 9.62738C79.6388 9.6872 79.6157 9.751 79.5925 9.81879C79.5693 9.88659 79.5415 9.95438 79.5136 10.0222C79.4858 10.09 79.458 10.1578 79.4348 10.2255C79.4116 10.2933 79.3838 10.3571 79.3653 10.417L78.6837 12.0759C78.6744 12.0998 78.6605 12.1198 78.6512 12.1397C78.6373 12.1556 78.6188 12.1716 78.5956 12.1796C78.5724 12.1915 78.5446 12.1955 78.5075 12.1995C78.4704 12.2035 78.4287 12.2075 78.3777 12.2075C78.3267 12.2075 78.2849 12.2035 78.2525 12.1995C78.22 12.1955 78.1922 12.1875 78.169 12.1796C78.1458 12.1716 78.1273 12.1556 78.1134 12.1397C78.0995 12.1237 78.0856 12.1038 78.0763 12.0759L77.4179 10.413C77.3947 10.3532 77.3669 10.2933 77.3437 10.2255C77.3205 10.1578 77.2927 10.09 77.2695 10.0222C77.2463 9.95438 77.2185 9.8826 77.1953 9.8148C77.1721 9.74701 77.149 9.68321 77.135 9.62339L77.1304 9.69517C77.1211 9.75499 77.1165 9.81879 77.1072 9.88658C77.098 9.95438 77.0933 10.0222 77.084 10.09C77.0748 10.1578 77.0655 10.2255 77.0609 10.2933C77.0516 10.3611 77.0469 10.421 77.0423 10.4808L76.8198 12.0879C76.8151 12.1118 76.8105 12.1317 76.8012 12.1477C76.7919 12.1636 76.778 12.1756 76.7502 12.1836C76.727 12.1915 76.6946 12.1955 76.6575 12.1995C76.6204 12.2035 76.5694 12.2035 76.5045 12.2035C76.4442 12.2035 76.3978 12.1995 76.3607 12.1955C76.3236 12.1915 76.3004 12.1836 76.2819 12.1756C76.2634 12.1636 76.2541 12.1517 76.2494 12.1357C76.2448 12.1198 76.2448 12.0998 76.2494 12.0799L76.6065 9.42799C76.6204 9.3602 76.6436 9.31234 76.6899 9.27645C76.7317 9.24056 76.7966 9.22461 76.88 9.22461H77.1675C77.2371 9.22461 77.2973 9.2286 77.3483 9.24056C77.3993 9.24854 77.4411 9.26449 77.4735 9.28841C77.5106 9.31234 77.5384 9.34026 77.5616 9.38013C77.5848 9.42001 77.608 9.46787 77.6312 9.52369L78.1134 10.716C78.1412 10.7878 78.169 10.8636 78.1968 10.9354C78.2247 11.0072 78.2525 11.0829 78.2803 11.1547C78.3035 11.2265 78.3313 11.2943 78.3545 11.3661C78.3777 11.4339 78.3962 11.5016 78.4194 11.5615H78.4287C78.4519 11.4977 78.4704 11.4299 78.4936 11.3581C78.5168 11.2863 78.54 11.2145 78.5678 11.1388C78.5956 11.067 78.6234 10.9912 78.6512 10.9194C78.679 10.8476 78.7069 10.7759 78.7347 10.7121L79.2169 9.52768C79.2354 9.47584 79.2586 9.43198 79.2818 9.3921C79.305 9.35222 79.3328 9.3243 79.3653 9.30038C79.3977 9.27645 79.4395 9.2605 79.4858 9.24854C79.5322 9.23657 79.5878 9.23259 79.6574 9.23259H79.9402C80.0283 9.23259 80.0932 9.24854 80.1396 9.28044C80.186 9.31234 80.2091 9.3602 80.2184 9.42799L80.5662 12.0839Z" fill="black"/>
<path d="M84.4936 10.6841C84.4936 10.9115 84.4565 11.1228 84.3869 11.3142C84.3174 11.5056 84.2107 11.6731 84.0763 11.8087C83.9372 11.9483 83.7656 12.056 83.557 12.1357C83.3483 12.2155 83.1072 12.2514 82.8336 12.2514C82.5647 12.2514 82.3329 12.2155 82.1335 12.1477C81.9341 12.0799 81.7672 11.9802 81.6374 11.8486C81.5029 11.717 81.4056 11.5575 81.3407 11.374C81.2757 11.1866 81.2433 10.9753 81.2433 10.74C81.2433 10.5127 81.2757 10.3013 81.3453 10.1099C81.4148 9.91849 81.5168 9.751 81.6559 9.61542C81.795 9.47584 81.9666 9.36817 82.1753 9.2924C82.3839 9.21664 82.625 9.17676 82.9032 9.17676C83.1721 9.17676 83.404 9.21265 83.6033 9.28044C83.8027 9.34823 83.9696 9.44793 84.0994 9.57953C84.2339 9.71112 84.3313 9.87064 84.3962 10.0541C84.4611 10.2375 84.4936 10.4489 84.4936 10.6841ZM83.8722 10.7161C83.8722 10.5645 83.8537 10.421 83.8212 10.2854C83.7888 10.1498 83.7332 10.0341 83.659 9.93045C83.5848 9.83076 83.4828 9.74701 83.3529 9.69118C83.2231 9.63137 83.0655 9.60345 82.8707 9.60345C82.6946 9.60345 82.5415 9.63137 82.4117 9.68321C82.2819 9.73904 82.1799 9.81481 82.0964 9.91051C82.013 10.0102 81.9527 10.1259 81.911 10.2614C81.8692 10.397 81.8507 10.5446 81.8507 10.7041C81.8507 10.8556 81.8692 11.0032 81.9017 11.1348C81.9341 11.2704 81.9898 11.386 82.064 11.4897C82.1382 11.5934 82.2448 11.6691 82.37 11.729C82.4998 11.7888 82.6575 11.8167 82.8522 11.8167C83.0284 11.8167 83.1814 11.7888 83.3066 11.7369C83.4364 11.6811 83.5431 11.6093 83.6219 11.5096C83.7053 11.4139 83.7656 11.2943 83.8027 11.1627C83.8537 11.0271 83.8722 10.8796 83.8722 10.7161Z" fill="black"/>
<path d="M87.7114 11.6891C87.7114 11.725 87.7114 11.7529 87.7067 11.7808C87.7021 11.8087 87.7021 11.8286 87.6928 11.8446C87.6882 11.8605 87.6789 11.8765 87.6697 11.8925C87.6604 11.9044 87.6418 11.9244 87.614 11.9523C87.5862 11.9762 87.5306 12.0121 87.461 12.048C87.3868 12.0879 87.308 12.1198 87.2153 12.1517C87.1272 12.1836 87.0252 12.2075 86.9185 12.2234C86.8119 12.2434 86.7006 12.2514 86.5893 12.2514C86.3575 12.2514 86.1488 12.2195 85.968 12.1517C85.7872 12.0839 85.6342 11.9882 85.5136 11.8605C85.3931 11.7329 85.3003 11.5774 85.2354 11.39C85.1705 11.2026 85.1381 10.9912 85.1381 10.748C85.1381 10.4728 85.1752 10.2335 85.254 10.0381C85.3328 9.83873 85.4394 9.67922 85.5739 9.55161C85.7084 9.424 85.8706 9.33228 86.0561 9.26848C86.2416 9.20866 86.4409 9.17676 86.6542 9.17676C86.7562 9.17676 86.8582 9.18473 86.9556 9.20068C87.053 9.21663 87.1411 9.24056 87.2245 9.26449C87.308 9.2924 87.3776 9.32431 87.4425 9.35621C87.5074 9.3921 87.5537 9.42001 87.5816 9.44793C87.6094 9.47186 87.6326 9.49179 87.6418 9.50774C87.6511 9.5237 87.6604 9.53965 87.6697 9.55959C87.6789 9.57953 87.6836 9.60345 87.6836 9.62738C87.6882 9.65131 87.6882 9.68321 87.6882 9.7191C87.6882 9.79886 87.6789 9.85468 87.6557 9.89058C87.6326 9.92248 87.6094 9.93843 87.5769 9.93843C87.5398 9.93843 87.4981 9.92248 87.4517 9.88659C87.4054 9.8507 87.3451 9.81481 87.2709 9.77493C87.1967 9.73505 87.1133 9.69517 87.0066 9.66327C86.9046 9.62738 86.7841 9.61143 86.645 9.61143C86.3575 9.61143 86.1396 9.70714 85.9866 9.89456C85.8336 10.086 85.7547 10.3611 85.7547 10.72C85.7547 10.8995 85.7733 11.059 85.815 11.1946C85.8567 11.3302 85.9124 11.4458 85.9912 11.5335C86.07 11.6253 86.1628 11.6931 86.274 11.7369C86.3853 11.7808 86.5151 11.8047 86.6589 11.8047C86.798 11.8047 86.9185 11.7848 87.0205 11.7489C87.1225 11.713 87.2153 11.6691 87.2895 11.6253C87.3636 11.5814 87.4286 11.5415 87.4796 11.5056C87.5306 11.4697 87.5723 11.4498 87.6001 11.4498C87.6187 11.4498 87.6326 11.4538 87.6418 11.4618C87.6557 11.4697 87.665 11.4857 87.6743 11.5056C87.6836 11.5256 87.6882 11.5495 87.6928 11.5814C87.7114 11.6093 87.7114 11.6452 87.7114 11.6891Z" fill="black"/>
<path d="M90.7806 9.46811C90.7806 9.50799 90.776 9.54388 90.7714 9.57578C90.7667 9.6037 90.7574 9.62762 90.7482 9.64756C90.7389 9.6675 90.725 9.67946 90.7111 9.69143C90.6972 9.70339 90.6786 9.70738 90.6554 9.70738H89.6771V12.12C89.6771 12.136 89.6725 12.1519 89.6632 12.1639C89.6539 12.1758 89.64 12.1838 89.6168 12.1918C89.5936 12.1998 89.5658 12.2077 89.5241 12.2117C89.487 12.2157 89.436 12.2197 89.3757 12.2197C89.3201 12.2197 89.2691 12.2157 89.232 12.2117C89.1949 12.2077 89.1624 12.1998 89.1393 12.1918C89.1161 12.1838 89.1022 12.1718 89.0929 12.1639C89.0836 12.1519 89.079 12.1399 89.079 12.12V9.70738H88.1007C88.0821 9.70738 88.0636 9.70339 88.0497 9.69143C88.0357 9.68345 88.0218 9.6675 88.0126 9.64756C88.0033 9.62762 87.994 9.6037 87.9894 9.57578C87.9847 9.54388 87.9801 9.51198 87.9801 9.46811C87.9801 9.43222 87.9847 9.39633 87.9894 9.36841C87.994 9.3405 88.0033 9.31657 88.0126 9.29663C88.0218 9.2767 88.0357 9.26074 88.0497 9.25277C88.0636 9.24479 88.0821 9.23682 88.1007 9.23682H90.6508C90.6694 9.23682 90.6879 9.2408 90.7018 9.25277C90.7157 9.26074 90.7296 9.2767 90.7389 9.29663C90.7482 9.31657 90.7574 9.3405 90.7621 9.3724C90.7806 9.39633 90.7806 9.42823 90.7806 9.46811Z" fill="black"/>
<path d="M94.2676 12.1159C94.2676 12.1319 94.2629 12.1439 94.2536 12.1558C94.2444 12.1678 94.2305 12.1797 94.2073 12.1837C94.1841 12.1917 94.1563 12.1957 94.1192 12.1997C94.0821 12.2037 94.0311 12.2077 93.9754 12.2077C93.9198 12.2077 93.8688 12.2037 93.8317 12.1997C93.7946 12.1957 93.7622 12.1917 93.739 12.1837C93.7158 12.1758 93.6972 12.1678 93.688 12.1558C93.6787 12.1439 93.6741 12.1319 93.6741 12.1159V10.5049C93.6741 10.4251 93.6787 10.3414 93.6833 10.2576C93.688 10.1739 93.6926 10.0901 93.7019 10.0104C93.6462 10.0941 93.586 10.1739 93.521 10.2536C93.4561 10.3334 93.3866 10.4131 93.3217 10.4929L91.9399 12.1159C91.9214 12.1319 91.9075 12.1478 91.8936 12.1598C91.8797 12.1718 91.8658 12.1837 91.8426 12.1877C91.824 12.1957 91.7962 12.1997 91.7638 12.2037C91.7313 12.2077 91.6942 12.2077 91.6478 12.2077C91.5968 12.2077 91.5505 12.2037 91.518 12.1997C91.4856 12.1957 91.4577 12.1917 91.4346 12.1837C91.416 12.1758 91.3975 12.1678 91.3928 12.1558C91.3835 12.1439 91.3789 12.1319 91.3789 12.1159V9.30852C91.3789 9.29257 91.3835 9.2806 91.3928 9.26864C91.4021 9.25668 91.416 9.24471 91.4392 9.23674C91.4624 9.22876 91.4948 9.22079 91.5319 9.22079C91.569 9.2168 91.6154 9.2168 91.671 9.2168C91.7869 9.2168 91.8658 9.22477 91.9075 9.24072C91.9492 9.25668 91.9724 9.2806 91.9724 9.31251V10.9316C91.9724 11.0113 91.9678 11.0911 91.9631 11.1708C91.9585 11.2506 91.9539 11.3303 91.9446 11.4101C92.0002 11.3303 92.0559 11.2546 92.1115 11.1788C92.1671 11.103 92.2274 11.0273 92.2923 10.9555L93.6926 9.30852C93.7065 9.29257 93.7204 9.27661 93.739 9.26465C93.7529 9.25269 93.7761 9.24072 93.7946 9.23674C93.8178 9.22876 93.8456 9.22477 93.8781 9.22079C93.9105 9.2168 93.9523 9.2168 94.0033 9.2168C94.0543 9.2168 94.096 9.2168 94.1331 9.22079C94.1702 9.22477 94.198 9.22876 94.2165 9.23674C94.2351 9.24471 94.2536 9.25668 94.2583 9.26864C94.2675 9.2806 94.2722 9.29655 94.2722 9.31251V12.1159H94.2676Z" fill="black"/>
<path d="M0 3V30H16.5517L0 3Z" fill="black"/>
<path d="M31.7241 12.4434C31.7241 5.60252 25.2802 0.0540784 17.3049 0.00270392V0H12.6164H12.5754H0L18.5426 30H31.159L26.3 22.137C29.6056 19.8576 31.7241 16.3641 31.7241 12.4434Z" fill="#FD8958"/>
</svg>
