<svg width="117" height="32" viewBox="0 0 117 32" fill="none" xmlns="http://www.w3.org/2000/svg">
<g id="sim">
<g id="mir-logo">
<g id="Group-5">
<path id="Combined-Shape" fill-rule="evenodd" clip-rule="evenodd" d="M10.8195 0.00546065C11.8647 -0.000809244 14.9712 -0.281343 16.2871 4.17149C17.1735 7.17097 18.5854 12.0843 20.5229 18.9114H21.312C23.3898 11.7138 24.8171 6.80047 25.594 4.17149C26.9236 -0.327727 30.2474 0.00554881 31.577 0.00554881L41.8349 0.00556164V31.9999H31.3798V13.1451H30.6787L24.8505 31.9999H16.9844L11.1562 13.1311H10.4551V31.9999H0V0.00556164L10.8195 0.00546065ZM56.8482 0.00556164V18.8744H57.6822L64.7717 3.35869C66.1479 0.271017 69.081 0.00556164 69.081 0.00556164H79.1984V32H68.5249V13.1311H67.6909L60.7404 28.6469C59.3642 31.7206 56.2921 32 56.2921 32H46.1747V0.00556164H56.8482ZM116.091 15.2095C114.602 19.4398 109.926 22.4694 104.75 22.4694H93.5565V32H83.4067V15.2095H116.091Z" fill="#0F754E"/>
<path id="path24" fill-rule="evenodd" clip-rule="evenodd" d="M105.238 0.00585938H82.873C83.4053 7.12891 89.5232 13.2267 95.8565 13.2267H116.794C118.003 7.30661 113.843 0.00585938 105.238 0.00585938Z" fill="url(#paint0_linear_288_2280)"/>
</g>
</g>
</g>
<defs>
<linearGradient id="paint0_linear_288_2280" x1="3495.54" y1="831.654" x2="82.873" y2="831.654" gradientUnits="userSpaceOnUse">
<stop stop-color="#1F5CD7"/>
<stop offset="1" stop-color="#02AEFF"/>
</linearGradient>
</defs>
</svg>
