<svg width="52" height="32" viewBox="0 0 52 32" fill="none" xmlns="http://www.w3.org/2000/svg">
<g id="Group 458">
<path id="rect887" d="M18.2676 3.42188H33.739V28.5768H18.2676V3.42188Z" fill="#FF5F00"/>
<path id="path889" d="M19.8614 16.0004C19.8595 13.5782 20.4111 11.1873 21.4744 9.00869C22.5378 6.83003 24.085 4.9207 25.9991 3.42519C23.6284 1.57055 20.7814 0.417252 17.7835 0.0971183C14.7856 -0.223015 11.7576 0.302928 9.04576 1.61484C6.33388 2.92674 4.04749 4.97169 2.44788 7.51595C0.848278 10.0602 0 13.0011 0 16.0026C0 19.0041 0.848278 21.945 2.44788 24.4893C4.04749 27.0336 6.33388 29.0785 9.04576 30.3904C11.7576 31.7023 14.7856 32.2283 17.7835 31.9081C20.7814 31.588 23.6284 30.4347 25.9991 28.5801C24.0844 27.0841 22.5368 25.174 21.4734 22.9946C20.4101 20.8151 19.8588 18.4233 19.8614 16.0004V16.0004Z" fill="#EB001B"/>
<path id="path891" d="M50.4642 25.915V25.3997H50.6874V25.293H50.1562V25.3997H50.366V25.9151L50.4642 25.915ZM51.4953 25.915V25.2931H51.3346L51.1472 25.7373L50.9597 25.293H50.799V25.915H50.9151V25.4441L51.0892 25.8485H51.2097L51.3838 25.4441V25.915H51.4953Z" fill="#F79E1B"/>
<path id="path893" d="M51.9995 16.0009C51.9995 19.0026 51.151 21.9438 49.5511 24.4881C47.9512 27.0325 45.6645 29.0774 42.9522 30.3891C40.24 31.7008 37.2118 32.2264 34.2137 31.9058C31.2155 31.5852 28.3685 30.4313 25.998 28.5761C27.9113 27.0793 29.4582 25.1694 30.5218 22.9906C31.5854 20.8119 32.1381 18.4211 32.1381 15.9987C32.1381 13.5762 31.5854 11.1854 30.5218 9.00668C29.4582 6.82791 27.9113 4.91805 25.998 3.42122C28.3685 1.56598 31.2155 0.412111 34.2137 0.0915114C37.2118 -0.229088 40.24 0.296516 42.9523 1.60824C45.6645 2.91997 47.9513 4.96489 49.5511 7.50926C51.151 10.0536 51.9995 12.9948 51.9995 15.9965V16.0009Z" fill="#F79E1B"/>
</g>
</svg>
