<svg width="1440" height="578" viewBox="0 0 1440 578" fill="none" xmlns="http://www.w3.org/2000/svg">
<g filter="url(#filter0_d_66_36)">
<path fill-rule="evenodd" clip-rule="evenodd" d="M874 472.15L934 494.15C994 515.15 1114 558.15 1234 537.15C1354 515.15 1474 429.15 1594 407.15C1714 386.15 1834 429.15 1954 436.15C2074 443.15 2194 414.15 2254 400.15L2314 386.15V256.15H2254C2194 256.15 2074 256.15 1954 256.15C1834 256.15 1714 256.15 1594 256.15C1474 256.15 1354 256.15 1234 256.15C1114 256.15 994 256.15 934 256.15H874V472.15Z" fill="#FFE2C4"/>
<path fill-rule="evenodd" clip-rule="evenodd" d="M874 472.15L934 494.15C994 515.15 1114 558.15 1234 537.15C1354 515.15 1474 429.15 1594 407.15C1714 386.15 1834 429.15 1954 436.15C2074 443.15 2194 414.15 2254 400.15L2314 386.15V256.15H2254C2194 256.15 2074 256.15 1954 256.15C1834 256.15 1714 256.15 1594 256.15C1474 256.15 1354 256.15 1234 256.15C1114 256.15 994 256.15 934 256.15H874V472.15Z" />
</g>
<g filter="url(#filter1_d_66_36)">
<path fill-rule="evenodd" clip-rule="evenodd" d="M0 459.677L42.2811 452.441C83.5556 444.173 167.111 428.669 250.667 444.173C334.222 459.677 417.778 506.189 501.333 537.197C584.889 568.205 668.444 582.675 752 552.701C835.556 521.693 919.111 444.173 1002.67 390.425C1086.22 336.678 1169.78 305.67 1253.33 321.174C1336.89 336.678 1420.44 397.661 1462.73 428.669L1504 459.677V228.15H1462.73C1420.44 228.15 1336.89 228.15 1253.33 228.15C1169.78 228.15 1086.22 228.15 1002.67 228.15C919.111 228.15 835.556 228.15 752 228.15C668.444 228.15 584.889 228.15 501.333 228.15C417.778 228.15 334.222 228.15 250.667 228.15C167.111 228.15 83.5556 228.15 42.2811 228.15H0V459.677Z" fill="#0FB6C8"/>
<path fill-rule="evenodd" clip-rule="evenodd" d="M0 459.677L42.2811 452.441C83.5556 444.173 167.111 428.669 250.667 444.173C334.222 459.677 417.778 506.189 501.333 537.197C584.889 568.205 668.444 582.675 752 552.701C835.556 521.693 919.111 444.173 1002.67 390.425C1086.22 336.678 1169.78 305.67 1253.33 321.174C1336.89 336.678 1420.44 397.661 1462.73 428.669L1504 459.677V228.15H1462.73C1420.44 228.15 1336.89 228.15 1253.33 228.15C1169.78 228.15 1086.22 228.15 1002.67 228.15C919.111 228.15 835.556 228.15 752 228.15C668.444 228.15 584.889 228.15 501.333 228.15C417.778 228.15 334.222 228.15 250.667 228.15C167.111 228.15 83.5556 228.15 42.2811 228.15H0V459.677Z" />
</g>
<g filter="url(#filter2_d_66_36)">
<path fill-rule="evenodd" clip-rule="evenodd" d="M1812 117.065L1770 124.065C1729 132.065 1646 147.065 1563 132.065C1480 117.065 1397 72.0654 1314 42.0654C1231 12.0654 1148 -1.93457 1065 27.0654C982 57.0654 899 132.065 816 184.065C733 236.065 650 266.065 567 251.065C484 236.065 401 177.065 359 147.065L318 117.065V341.065H359C401 341.065 484 341.065 567 341.065C650 341.065 733 341.065 816 341.065C899 341.065 982 341.065 1065 341.065C1148 341.065 1231 341.065 1314 341.065C1397 341.065 1480 341.065 1563 341.065C1646 341.065 1729 341.065 1770 341.065H1812V117.065Z" fill="#0FB6C8"/>
<path fill-rule="evenodd" clip-rule="evenodd" d="M1812 117.065L1770 124.065C1729 132.065 1646 147.065 1563 132.065C1480 117.065 1397 72.0654 1314 42.0654C1231 12.0654 1148 -1.93457 1065 27.0654C982 57.0654 899 132.065 816 184.065C733 236.065 650 266.065 567 251.065C484 236.065 401 177.065 359 147.065L318 117.065V341.065H359C401 341.065 484 341.065 567 341.065C650 341.065 733 341.065 816 341.065C899 341.065 982 341.065 1065 341.065C1148 341.065 1231 341.065 1314 341.065C1397 341.065 1480 341.065 1563 341.065C1646 341.065 1729 341.065 1770 341.065H1812V117.065Z" />
</g>
<g filter="url(#filter3_d_66_36)">
<path fill-rule="evenodd" clip-rule="evenodd" d="M1818 385.208L1775.24 378.206C1733.5 370.204 1649 355.2 1564.5 370.204C1480 385.208 1395.5 430.22 1311 460.227C1226.5 490.235 1142 504.239 1057.5 475.231C973 445.224 888.5 370.204 804 318.191C719.5 266.177 635 236.17 550.5 251.174C466 266.177 381.5 325.193 338.741 355.2L297 385.208V161.15H338.741C381.5 161.15 466 161.15 550.5 161.15C635 161.15 719.5 161.15 804 161.15C888.5 161.15 973 161.15 1057.5 161.15C1142 161.15 1226.5 161.15 1311 161.15C1395.5 161.15 1480 161.15 1564.5 161.15C1649 161.15 1733.5 161.15 1775.24 161.15H1818V385.208Z" fill="#FFF8F0"/>
<path fill-rule="evenodd" clip-rule="evenodd" d="M1818 385.208L1775.24 378.206C1733.5 370.204 1649 355.2 1564.5 370.204C1480 385.208 1395.5 430.22 1311 460.227C1226.5 490.235 1142 504.239 1057.5 475.231C973 445.224 888.5 370.204 804 318.191C719.5 266.177 635 236.17 550.5 251.174C466 266.177 381.5 325.193 338.741 355.2L297 385.208V161.15H338.741C381.5 161.15 466 161.15 550.5 161.15C635 161.15 719.5 161.15 804 161.15C888.5 161.15 973 161.15 1057.5 161.15C1142 161.15 1226.5 161.15 1311 161.15C1395.5 161.15 1480 161.15 1564.5 161.15C1649 161.15 1733.5 161.15 1775.24 161.15H1818V385.208Z" />
</g>
<g filter="url(#filter4_d_66_36)">
<path fill-rule="evenodd" clip-rule="evenodd" d="M968 126.065L926 133.065C885 141.065 802 156.065 719 141.065C636 126.065 553 81.0654 470 51.0654C387 21.0654 304 7.06543 221 36.0654C138 66.0654 55 141.065 -28 193.065C-111 245.065 -194 275.065 -277 260.065C-360 245.065 -443 186.065 -485 156.065L-526 126.065V350.065H-485C-443 350.065 -360 350.065 -277 350.065C-194 350.065 -111 350.065 -28 350.065C55 350.065 138 350.065 221 350.065C304 350.065 387 350.065 470 350.065C553 350.065 636 350.065 719 350.065C802 350.065 885 350.065 926 350.065H968V126.065Z" fill="#0FB6C8"/>
<path fill-rule="evenodd" clip-rule="evenodd" d="M968 126.065L926 133.065C885 141.065 802 156.065 719 141.065C636 126.065 553 81.0654 470 51.0654C387 21.0654 304 7.06543 221 36.0654C138 66.0654 55 141.065 -28 193.065C-111 245.065 -194 275.065 -277 260.065C-360 245.065 -443 186.065 -485 156.065L-526 126.065V350.065H-485C-443 350.065 -360 350.065 -277 350.065C-194 350.065 -111 350.065 -28 350.065C55 350.065 138 350.065 221 350.065C304 350.065 387 350.065 470 350.065C553 350.065 636 350.065 719 350.065C802 350.065 885 350.065 926 350.065H968V126.065Z" />
</g>
<g filter="url(#filter5_d_66_36)">
<path fill-rule="evenodd" clip-rule="evenodd" d="M-152.492 362.275L-105.009 357.027C-58.617 350.763 35.2581 339.251 128.14 357.086C221.021 374.921 312.909 422.103 405.294 454.612C497.679 487.12 590.594 503.977 684.932 478.769C779.304 452.584 875.167 382.377 970.267 334.67C1065.37 286.964 1159.74 260.778 1252.62 278.613C1345.5 296.448 1436.93 357.325 1483.19 388.272L1528.32 419.181L1535.74 200.056L1489.61 198.494C1442.36 196.894 1348.98 193.733 1255.6 190.572C1162.22 187.41 1068.85 184.249 975.467 181.087C882.089 177.926 788.71 174.765 695.332 171.603C601.953 168.442 508.575 165.28 415.197 162.119C321.818 158.957 228.44 155.796 135.062 152.635C41.6832 149.473 -51.6951 146.312 -97.8218 144.75L-145.074 143.15L-152.492 362.275Z" fill="#FFF8F0"/>
<path fill-rule="evenodd" clip-rule="evenodd" d="M-152.492 362.275L-105.009 357.027C-58.617 350.763 35.2581 339.251 128.14 357.086C221.021 374.921 312.909 422.103 405.294 454.612C497.679 487.12 590.594 503.977 684.932 478.769C779.304 452.584 875.167 382.377 970.267 334.67C1065.37 286.964 1159.74 260.778 1252.62 278.613C1345.5 296.448 1436.93 357.325 1483.19 388.272L1528.32 419.181L1535.74 200.056L1489.61 198.494C1442.36 196.894 1348.98 193.733 1255.6 190.572C1162.22 187.41 1068.85 184.249 975.467 181.087C882.089 177.926 788.71 174.765 695.332 171.603C601.953 168.442 508.575 165.28 415.197 162.119C321.818 158.957 228.44 155.796 135.062 152.635C41.6832 149.473 -51.6951 146.312 -97.8218 144.75L-145.074 143.15L-152.492 362.275Z" />
</g>
<g filter="url(#filter6_d_66_36)">
<path fill-rule="evenodd" clip-rule="evenodd" d="M1473.12 64.7029L1430.44 73.6996C1388.78 83.9814 1304.44 103.26 1220.1 83.9814C1135.76 64.7029 965 29.0719 965 29.0719C965 29.0719 791.076 -8.17401 679.5 1.6504C580.534 10.3645 529.179 39.6595 433.038 64.7029C345.071 87.6172 298.303 131.969 208.02 124.278C118.625 116.663 39.34 67.6287 -3.33813 29.0718L-45 64.7029V352.595H-3.33813C39.34 352.595 164.242 316.006 208.02 319.369C324.69 328.334 480.542 376.316 480.542 376.316C480.542 376.316 742.495 457.772 913.576 449.629C1024.74 444.338 1082.83 398.506 1194.1 396.622C1316.33 394.551 1399.97 462.024 1503.12 449.629C1605.77 437.296 1431.46 376.316 1473.12 376.316V352.595V64.7029Z" fill="#FFE2C4"/>
<path fill-rule="evenodd" clip-rule="evenodd" d="M1473.12 64.7029L1430.44 73.6996C1388.78 83.9814 1304.44 103.26 1220.1 83.9814C1135.76 64.7029 965 29.0719 965 29.0719C965 29.0719 791.076 -8.17401 679.5 1.6504C580.534 10.3645 529.179 39.6595 433.038 64.7029C345.071 87.6172 298.303 131.969 208.02 124.278C118.625 116.663 39.34 67.6287 -3.33813 29.0718L-45 64.7029V352.595H-3.33813C39.34 352.595 164.242 316.006 208.02 319.369C324.69 328.334 480.542 376.316 480.542 376.316C480.542 376.316 742.495 457.772 913.576 449.629C1024.74 444.338 1082.83 398.506 1194.1 396.622C1316.33 394.551 1399.97 462.024 1503.12 449.629C1605.77 437.296 1431.46 376.316 1473.12 376.316V352.595V64.7029Z" />
</g>
<defs>
<filter id="filter0_d_66_36" x="870" y="256.15" width="1448" height="294.629" filterUnits="userSpaceOnUse" color-interpolation-filters="sRGB">
<feFlood flood-opacity="0" result="BackgroundImageFix"/>
<feColorMatrix in="SourceAlpha" type="matrix" values="0 0 0 0 0 0 0 0 0 0 0 0 0 0 0 0 0 0 127 0" result="hardAlpha"/>
<feOffset dy="4"/>
<feGaussianBlur stdDeviation="2"/>
<feComposite in2="hardAlpha" operator="out"/>
<feColorMatrix type="matrix" values="0 0 0 0 0 0 0 0 0 0 0 0 0 0 0 0 0 0 0.25 0"/>
<feBlend mode="normal" in2="BackgroundImageFix" result="effect1_dropShadow_66_36"/>
<feBlend mode="normal" in="SourceGraphic" in2="effect1_dropShadow_66_36" result="shape"/>
</filter>
<filter id="filter1_d_66_36" x="-4" y="228.15" width="1512" height="349" filterUnits="userSpaceOnUse" color-interpolation-filters="sRGB">
<feFlood flood-opacity="0" result="BackgroundImageFix"/>
<feColorMatrix in="SourceAlpha" type="matrix" values="0 0 0 0 0 0 0 0 0 0 0 0 0 0 0 0 0 0 127 0" result="hardAlpha"/>
<feOffset dy="4"/>
<feGaussianBlur stdDeviation="2"/>
<feComposite in2="hardAlpha" operator="out"/>
<feColorMatrix type="matrix" values="0 0 0 0 0 0 0 0 0 0 0 0 0 0 0 0 0 0 0.25 0"/>
<feBlend mode="normal" in2="BackgroundImageFix" result="effect1_dropShadow_66_36"/>
<feBlend mode="normal" in="SourceGraphic" in2="effect1_dropShadow_66_36" result="shape"/>
</filter>
<filter id="filter2_d_66_36" x="318" y="11.1504" width="1515" height="337.915" filterUnits="userSpaceOnUse" color-interpolation-filters="sRGB">
<feFlood flood-opacity="0" result="BackgroundImageFix"/>
<feColorMatrix in="SourceAlpha" type="matrix" values="0 0 0 0 0 0 0 0 0 0 0 0 0 0 0 0 0 0 127 0" result="hardAlpha"/>
<feOffset dx="17" dy="4"/>
<feGaussianBlur stdDeviation="2"/>
<feComposite in2="hardAlpha" operator="out"/>
<feColorMatrix type="matrix" values="0 0 0 0 0 0 0 0 0 0 0 0 0 0 0 0 0 0 0.25 0"/>
<feBlend mode="normal" in2="BackgroundImageFix" result="effect1_dropShadow_66_36"/>
<feBlend mode="normal" in="SourceGraphic" in2="effect1_dropShadow_66_36" result="shape"/>
</filter>
<filter id="filter3_d_66_36" x="286" y="161.15" width="1532" height="338" filterUnits="userSpaceOnUse" color-interpolation-filters="sRGB">
<feFlood flood-opacity="0" result="BackgroundImageFix"/>
<feColorMatrix in="SourceAlpha" type="matrix" values="0 0 0 0 0 0 0 0 0 0 0 0 0 0 0 0 0 0 127 0" result="hardAlpha"/>
<feOffset dx="-7" dy="4"/>
<feGaussianBlur stdDeviation="2"/>
<feComposite in2="hardAlpha" operator="out"/>
<feColorMatrix type="matrix" values="0 0 0 0 0 0 0 0 0 0 0 0 0 0 0 0 0 0 0.25 0"/>
<feBlend mode="normal" in2="BackgroundImageFix" result="effect1_dropShadow_66_36"/>
<feBlend mode="normal" in="SourceGraphic" in2="effect1_dropShadow_66_36" result="shape"/>
</filter>
<filter id="filter4_d_66_36" x="-526" y="17.1504" width="1511" height="337.915" filterUnits="userSpaceOnUse" color-interpolation-filters="sRGB">
<feFlood flood-opacity="0" result="BackgroundImageFix"/>
<feColorMatrix in="SourceAlpha" type="matrix" values="0 0 0 0 0 0 0 0 0 0 0 0 0 0 0 0 0 0 127 0" result="hardAlpha"/>
<feOffset dx="13" dy="1"/>
<feGaussianBlur stdDeviation="2"/>
<feComposite in2="hardAlpha" operator="out"/>
<feColorMatrix type="matrix" values="0 0 0 0 0 0 0 0 0 0 0 0 0 0 0 0 0 0 0.25 0"/>
<feBlend mode="normal" in2="BackgroundImageFix" result="effect1_dropShadow_66_36"/>
<feBlend mode="normal" in="SourceGraphic" in2="effect1_dropShadow_66_36" result="shape"/>
</filter>
<filter id="filter5_d_66_36" x="-156.492" y="143.15" width="1696.23" height="355.783" filterUnits="userSpaceOnUse" color-interpolation-filters="sRGB">
<feFlood flood-opacity="0" result="BackgroundImageFix"/>
<feColorMatrix in="SourceAlpha" type="matrix" values="0 0 0 0 0 0 0 0 0 0 0 0 0 0 0 0 0 0 127 0" result="hardAlpha"/>
<feOffset dy="4"/>
<feGaussianBlur stdDeviation="2"/>
<feComposite in2="hardAlpha" operator="out"/>
<feColorMatrix type="matrix" values="0 0 0 0 0 0 0 0 0 0 0 0 0 0 0 0 0 0 0.25 0"/>
<feBlend mode="normal" in2="BackgroundImageFix" result="effect1_dropShadow_66_36"/>
<feBlend mode="normal" in="SourceGraphic" in2="effect1_dropShadow_66_36" result="shape"/>
</filter>
<filter id="filter6_d_66_36" x="-49" y="0" width="1589" height="459.151" filterUnits="userSpaceOnUse" color-interpolation-filters="sRGB">
<feFlood flood-opacity="0" result="BackgroundImageFix"/>
<feColorMatrix in="SourceAlpha" type="matrix" values="0 0 0 0 0 0 0 0 0 0 0 0 0 0 0 0 0 0 127 0" result="hardAlpha"/>
<feOffset dy="4"/>
<feGaussianBlur stdDeviation="2"/>
<feComposite in2="hardAlpha" operator="out"/>
<feColorMatrix type="matrix" values="0 0 0 0 0 0 0 0 0 0 0 0 0 0 0 0 0 0 0.25 0"/>
<feBlend mode="normal" in2="BackgroundImageFix" result="effect1_dropShadow_66_36"/>
<feBlend mode="normal" in="SourceGraphic" in2="effect1_dropShadow_66_36" result="shape"/>
</filter>
</defs>
</svg>
