<svg width="245" height="63" viewBox="0 0 245 63" fill="none" xmlns="http://www.w3.org/2000/svg">
<path d="M99.1414 61.7656H90V21H106.999C110.153 21 113.572 21.6483 116.461 24.2287C119.42 26.8727 120.132 30.381 120.132 32.9742C120.132 38.0715 117.368 41.3002 114.717 42.8891C113.042 43.8806 111.562 44.173 110.139 44.2365C110.586 44.4653 111.046 44.8213 112.009 45.9399C112.972 47.0585 114.717 49.2194 122.769 61.7783H112.149C110.99 60.1386 110.865 59.7191 110.083 58.4988C109.497 57.5073 109.441 57.5581 107.962 55.0921C104.361 49.0542 103.063 47.1729 102.03 46.1814C101.64 45.8255 101.193 45.4187 100.551 45.1263C99.909 44.834 99.3926 44.7704 99.1414 44.7704V61.7656ZM102.17 38.5926C104.682 38.5926 107.32 38.5291 108.925 37.2452C109.832 36.4825 110.669 35.1351 110.669 33.1394C110.669 31.6141 110.278 29.148 107.445 28.1565C105.84 27.6227 103.845 27.5718 102.365 27.5718H99.1414V38.6054H102.17V38.5926Z" fill="black"/>
<path d="M133.642 62V35.8182H141.977V62H133.642ZM137.818 32.767C136.648 32.767 135.642 32.3807 134.801 31.608C133.96 30.8239 133.54 29.8807 133.54 28.7784C133.54 27.6875 133.96 26.7557 134.801 25.983C135.642 25.1989 136.648 24.8068 137.818 24.8068C139 24.8068 140.006 25.1989 140.835 25.983C141.676 26.7557 142.097 27.6875 142.097 28.7784C142.097 29.8807 141.676 30.8239 140.835 31.608C140.006 32.3807 139 32.767 137.818 32.767Z" fill="black"/>
<path d="M176.567 61.7653H152.283V56.8968L167.803 37.2449H153.567V31.7281H178.033V37.1178L163.476 56.2994H178.605L176.567 61.7653Z" fill="black"/>
<path d="M208.122 35.3123C211.542 38.8334 212.184 42.8248 212.184 46.7526C212.184 50.6805 211.542 54.6719 208.122 58.1929C204.968 61.4216 201.172 62.4767 197.181 62.4767C193.189 62.4767 189.393 61.4216 186.239 58.1929C182.82 54.6719 182.178 50.6805 182.178 46.7526C182.178 42.8248 182.82 38.8334 186.239 35.3123C189.393 32.0836 193.189 31.0286 197.181 31.0286C201.172 31.0286 204.968 32.0836 208.122 35.3123ZM193.44 38.4266C192.087 40.0664 191.696 42.8248 191.696 46.7526C191.696 50.6805 192.087 53.4389 193.44 55.0786C194.599 56.5404 196.148 56.7184 197.181 56.7184C198.213 56.7184 199.763 56.5404 200.921 55.0786C202.275 53.4389 202.665 50.6805 202.665 46.7526C202.665 42.8248 202.275 40.0664 200.921 38.4266C199.763 36.9648 198.213 36.7869 197.181 36.7869C196.148 36.7741 194.599 36.9521 193.44 38.4266Z" fill="black"/>
<path d="M236.328 61.7653V42.2278C236.328 40.4736 236.258 39.2406 235.56 38.5288C234.988 37.944 234.276 37.8296 233.69 37.8296C232.783 37.8296 231.694 38.0076 230.466 38.5923C229.503 39.0626 228.345 39.8253 227.438 40.5245V61.7526H218.938V40.0033C218.938 38.3 218.868 35.9611 217.78 32.9612L225.316 30.9655C225.902 31.7917 226.475 32.9612 226.544 34.7153L227.633 34.0162C228.219 33.6603 228.666 33.19 230.215 32.4273C230.857 32.0714 233.243 31.0163 236.272 31.0163C240.529 31.0163 243.166 33.1264 244.199 35.5289C244.841 37.0542 244.841 38.694 244.841 39.8126V61.7526H236.328V61.7653Z" fill="black"/>
<path d="M67 25.7164C67 11.5785 53.3906 0.111762 36.5473 0.0055881V0H26.6453H26.5586H0L39.1611 62H65.8064L55.5444 45.7498C62.5258 41.039 67 33.8192 67 25.7164Z" fill="#0FB6C8"/>
<path d="M0 6V62H35L0 6Z" fill="black"/>
</svg>
