<?xml version="1.0" encoding="utf-8"?><svg viewBox="0 0 21 17" xmlns="http://www.w3.org/2000/svg" xmlns:xlink="http://www.w3.org/1999/xlink"><style>:root>svg{display:none}:root>svg:target{display:block}</style><svg viewBox="0 0 10 17" id="facebook" xmlns="http://www.w3.org/2000/svg"><path d="M5.8693 17V9.2563H8.54354L8.94418 6.2253H5.8693V4.29488C5.8693 3.41934 6.11829 2.82277 7.40439 2.82277H9.03432V0.119162C8.75075 0.0823441 7.7778 0 6.64569 0C4.28194 0 2.66422 1.40795 2.66422 3.99468V6.2253H0V9.2563H2.66422V17H5.8693Z"/></svg><svg viewBox="0 0 17 17" id="instagram" xmlns="http://www.w3.org/2000/svg"><path fill-rule="evenodd" clip-rule="evenodd" d="M16.5827 14.6149C16.7246 14.2496 16.8935 13.7007 16.9396 12.6897C16.9896 11.5964 17 11.2686 17 8.5C17 5.73158 16.9894 5.40363 16.9396 4.31043C16.8935 3.29951 16.7246 2.75054 16.5825 2.38525C16.4164 1.93484 16.1514 1.52746 15.807 1.19302C15.4725 0.848766 15.0651 0.583774 14.6149 0.417501C14.2494 0.275592 13.7006 0.10663 12.6897 0.0605923C11.5963 0.0105997 11.2685 0 8.50008 0C5.73164 0 5.40368 0.0105997 4.31047 0.0604341C3.29954 0.10663 2.75057 0.275434 2.38527 0.417501C1.93486 0.583616 1.52748 0.848608 1.19303 1.19302C0.848774 1.52746 0.583621 1.93484 0.417347 2.38525C0.275436 2.75054 0.106631 3.29951 0.0604347 4.31043C0.0105998 5.40378 0 5.73158 0 8.50016C0 11.2686 0.0105998 11.5965 0.0604347 12.6897C0.106472 13.7007 0.275436 14.2496 0.417347 14.6149C0.583621 15.0653 0.848616 15.4725 1.19303 15.807C1.52748 16.1514 1.93486 16.4164 2.38511 16.5827C2.75057 16.7246 3.29954 16.8935 4.31032 16.9396C5.40352 16.9896 5.73132 17 8.50008 17C11.2687 17 11.5966 16.9896 12.6897 16.9396C13.7006 16.8935 14.2496 16.7246 14.6149 16.5827C15.5192 16.2338 16.2338 15.5192 16.5827 14.6149ZM8.49992 3.17579C5.5595 3.17579 3.17582 5.55961 3.17582 8.5C3.17582 11.4404 5.5595 13.824 8.49992 13.824C11.4405 13.824 13.8242 11.4404 13.8242 8.5C13.8242 5.55961 11.4405 3.17579 8.49992 3.17579ZM14.0346 4.20965C14.7217 4.20965 15.2787 3.65261 15.2787 2.96553C15.2787 2.27829 14.7217 1.72125 14.0346 1.72125C13.3473 1.72125 12.7903 2.27829 12.7903 2.96553C12.7903 3.65261 13.3473 4.20965 14.0346 4.20965Z"/><path d="M5.04407 8.49984C5.04391 10.4086 6.59132 11.9558 8.49992 11.956C10.4087 11.956 11.9561 10.4086 11.9561 8.49984C11.9561 6.59126 10.4088 5.04402 8.50007 5.04386C6.59132 5.04386 5.04407 6.59126 5.04407 8.49984Z"/></svg><svg viewBox="0 0 21 12" id="vk" xmlns="http://www.w3.org/2000/svg"><path d="M10.2753 11.9494H11.5301C11.5301 11.9494 11.9095 11.9074 12.1024 11.6984C12.2809 11.5064 12.2744 11.1463 12.2744 11.1463C12.2744 11.1463 12.2494 9.45967 13.0317 9.21122C13.8022 8.96671 14.7919 10.8413 15.8407 11.563C16.6335 12.1085 17.236 11.9889 17.236 11.9889L20.041 11.9494C20.041 11.9494 21.5085 11.8587 20.8128 10.7032C20.7564 10.6086 20.4072 9.84878 18.7271 8.28709C16.9682 6.65178 17.2045 6.91732 19.323 4.0897C20.6133 2.36763 21.1292 1.31598 20.9677 0.866405C20.8141 0.437859 19.8651 0.550911 19.8651 0.550911L16.7096 0.569315C16.7096 0.569315 16.476 0.537766 16.3014 0.641616C16.1321 0.744151 16.0232 0.980772 16.0232 0.980772C16.0232 0.980772 15.5231 2.31373 14.8563 3.44688C13.4505 5.83806 12.8874 5.96426 12.6577 5.81572C12.1234 5.46999 12.2573 4.42491 12.2573 3.6835C12.2573 1.36594 12.6078 0.399737 11.5735 0.149971C11.2296 0.0671538 10.9775 0.0119424 10.0994 0.00274048C8.9732 -0.00909055 8.01894 0.00668412 7.47947 0.27091C7.11982 0.447061 6.84286 0.840114 7.01218 0.862462C7.22089 0.890068 7.69342 0.989974 7.94413 1.33176C8.26834 1.77214 8.25652 2.76331 8.25652 2.76331C8.25652 2.76331 8.44291 5.49102 7.82205 5.83018C7.39546 6.06285 6.81135 5.5883 5.55783 3.41796C4.91597 2.30716 4.43031 1.07805 4.43031 1.07805C4.43031 1.07805 4.33711 0.849316 4.17041 0.727062C3.96827 0.578517 3.68475 0.531193 3.68475 0.531193L0.684156 0.549597C0.684156 0.549597 0.233935 0.562743 0.068548 0.758612C-0.0784627 0.933448 0.0567347 1.29364 0.0567347 1.29364C0.0567347 1.29364 2.40628 6.79769 5.0656 9.57272C7.50572 12.1164 10.2753 11.9494 10.2753 11.9494Z"/></svg></svg>