<svg width="25" height="25" viewBox="0 0 25 25" fill="none" xmlns="http://www.w3.org/2000/svg">
<g clip-path="url(#clip0_1_38)">
<path d="M22.129 18.862L18.4824 15.2153C17.7234 14.4564 16.4927 14.4555 15.7327 15.2153L14.6707 16.2773C12.2442 14.7955 10.2055 12.7568 8.72356 10.3302L9.88802 9.16578C10.646 8.40767 10.646 7.17413 9.88797 6.41602L6.24138 2.76944C5.48445 2.01261 4.2555 2.00557 3.48938 2.77174L1.19788 5.08106C0.101494 6.00167 -0.284151 7.51319 0.215849 8.94576C2.78157 16.2982 8.70286 22.2194 16.0552 24.7851C17.4385 25.2677 18.859 24.9068 19.7622 23.9763C19.7752 23.9648 19.788 23.9528 19.8004 23.9403L22.129 21.6117C22.8871 20.8536 22.8871 19.6201 22.129 18.862ZM20.9674 20.4501L18.6914 22.726C18.6636 22.7491 18.6374 22.7741 18.6127 22.801C18.1336 23.3217 17.363 23.5015 16.5966 23.2339C9.71287 20.8318 4.16917 15.2881 1.76702 8.40435C1.49197 7.61622 1.69041 6.79967 2.27259 6.32403C2.29471 6.30596 2.3159 6.28673 2.33601 6.26646L4.65335 3.93106C4.73015 3.85421 4.81995 3.84273 4.86658 3.84273C4.91326 3.84273 5.00296 3.85416 5.07981 3.93106L8.7263 7.57764C8.84388 7.69522 8.84387 7.88648 8.72635 8.00406L7.11292 9.61749C6.85213 9.87823 6.7971 10.2807 6.97825 10.6019C8.72913 13.7059 11.2951 16.2719 14.399 18.0227C14.7202 18.2039 15.1227 18.1487 15.3835 17.888L16.8945 16.3771C17.0121 16.2594 17.2031 16.2593 17.3209 16.3771L20.9675 20.0236C21.0849 20.1412 21.0849 20.3325 20.9674 20.4501Z" fill="#FD773E"/>
<path d="M13.1298 6.4126C12.6762 6.4126 12.3084 6.78037 12.3084 7.23403C12.3084 7.6877 12.6761 8.05547 13.1298 8.05547C15.2336 8.05547 16.9452 9.76704 16.9452 11.8709C16.9452 12.3245 17.313 12.6923 17.7666 12.6923C18.2203 12.6923 18.5881 12.3245 18.5881 11.8709C18.5881 8.86118 16.1395 6.4126 13.1298 6.4126Z" fill="#FD773E"/>
<path d="M13.1298 3.18872C12.6762 3.18872 12.3084 3.55649 12.3084 4.01016C12.3084 4.46382 12.6761 4.83159 13.1298 4.83159C17.0114 4.83159 20.1693 7.98946 20.1693 11.871C20.1693 12.3247 20.537 12.6924 20.9907 12.6924C21.4444 12.6924 21.8121 12.3247 21.8121 11.871C21.8121 7.0836 17.9173 3.18872 13.1298 3.18872Z" fill="#FD773E"/>
<path d="M21.5232 3.47759C19.2813 1.23564 16.3004 0.000976562 13.1298 0.000976562C12.6761 0.000976562 12.3083 0.36875 12.3083 0.822412C12.3083 1.27607 12.6761 1.64385 13.1298 1.64385C18.7691 1.64385 23.357 6.23174 23.357 11.871C23.357 12.3247 23.7248 12.6925 24.1785 12.6925C24.6321 12.6925 24.9999 12.3247 24.9999 11.871C24.9999 8.70039 23.7652 5.71958 21.5232 3.47759Z" fill="#FD773E"/>
</g>
<defs>
<clipPath id="clip0_1_38">
<rect width="25" height="25" fill="white"/>
</clipPath>
</defs>
</svg>
