<svg xmlns="http://www.w3.org/2000/svg" fill="none" viewBox="0 0 29 24"><path fill="#B13957" d="M11.234 0C8.602.048 6.92 1.112 6.198 2.764c-.689 1.574-.535 3.562-.035 5.618-.269.314-.482.737-.405 1.373.084.693.275 1.186.546 1.532.15.19.345.207.528.3.099.59.264 1.179.51 1.672.141.284.302.546.458.757.07.095.172.15.247.229.004.696.007 1.274-.053 2.007-.183.443-.61.8-1.303 1.145-.715.357-1.646.687-2.588 1.092-.942.405-1.91.898-2.677 1.672C.66 20.936.12 22 .036 23.401L0 24h22.609l-.035-.599c-.06-.975-.335-1.782-.757-2.447h6.427l-.036-.599c-.072-1.2-.541-2.133-1.197-2.8-.656-.666-1.477-1.082-2.271-1.426-.795-.343-1.574-.6-2.166-.898-.573-.286-.896-.574-1.04-.915a18.028 18.028 0 0 1-.052-1.638c.055-.062.143-.106.194-.176a4.51 4.51 0 0 0 .387-.652c.2-.411.337-.898.423-1.39.147-.082.303-.095.422-.247.242-.308.403-.727.476-1.32v-.018c.061-.515-.106-.861-.317-1.145.233-.764.52-1.968.422-3.222-.055-.691-.229-1.39-.651-1.972-.4-.555-1.057-.962-1.884-1.11-.537-.596-1.385-.863-2.377-.863-1.367.025-2.428.364-3.205.969a3.74 3.74 0 0 0-1.233-.476C13.547.288 12.482 0 11.252 0h-.018zm.018 1.127h.017c1.134.004 1.869.337 2.078.704l.14.23.265.034c.784.108 1.233.425 1.55.863.316.438.493 1.05.545 1.726.106 1.351-.284 2.925-.528 3.662l-.14.44.387.23c-.025-.016.215.147.158.616-.066.552-.198.838-.3.968-.1.13-.153.123-.158.123l-.475.036-.053.457c-.053.49-.249 1.083-.475 1.55a4.197 4.197 0 0 1-.335.581c-.103.143-.213.222-.158.194l-.3.158v.335c0 .816-.033 1.485.053 2.43v.07l.035.07c.322.866 1.066 1.405 1.884 1.814.82.41 1.759.711 2.642 1.092.755.326 1.446.713 2.007 1.197.002.002-.002.016 0 .018.026.026.057.05.088.07a.517.517 0 0 0 .123.106c.003.002.016-.002.018 0l.053.053c.475.482.774 1.12.933 1.92H1.303c.158-.798.456-1.438.933-1.92.601-.608 1.42-1.063 2.307-1.444.887-.38 1.82-.682 2.641-1.092.821-.41 1.58-.948 1.902-1.813l.035-.141c.086-.945.053-1.614.053-2.43v-.335l-.3-.158c.051.026-.07-.05-.176-.194a4.087 4.087 0 0 1-.352-.581c-.233-.467-.425-1.068-.475-1.55l-.053-.457-.475-.036c-.005 0-.058.007-.159-.123s-.233-.416-.3-.968c-.054-.47.183-.632.16-.617l.37-.229-.107-.404c-.53-2.043-.622-3.899-.07-5.16.55-1.256 1.673-2.047 4.015-2.095zm7.325.563h.017c.938.005 1.523.282 1.673.546l.14.23.265.052c.64.088.997.32 1.25.67.253.349.396.849.44 1.408.089 1.118-.237 2.45-.44 3.064l-.14.422.387.23c-.05-.032.15.076.105.44-.055.455-.174.682-.246.774-.073.092-.09.073-.07.07l-.476.036-.035.457c-.042.397-.218.883-.405 1.268-.095.192-.18.361-.264.476-.05.068-.086.119-.106.14h-.018c-.002.003 0 .018 0 .018l-.299.141v.335c0 .684-.02 1.259.053 2.06v.07l.035.07c.284.76.94 1.218 1.638 1.568.697.35 1.479.614 2.218.933.74.32 1.411.682 1.902 1.18.37.376.6.876.74 1.479h-6.128c-.693-.588-1.495-.995-2.29-1.338-.937-.405-1.857-.736-2.57-1.092-.684-.343-1.116-.691-1.303-1.127-.062-.742-.057-1.323-.053-2.025.073-.08.178-.134.247-.229.154-.213.301-.473.44-.757a6.23 6.23 0 0 0 .51-1.673c.177-.092.366-.114.511-.3.27-.345.462-.838.546-1.531a1.672 1.672 0 0 0-.387-1.338c.275-.894.627-2.338.51-3.821-.064-.81-.27-1.618-.757-2.29-.002-.004.002-.013 0-.017.53-.352 1.286-.577 2.36-.599z"/></svg>