<svg width="95" height="31" viewBox="0 0 95 31" fill="none" xmlns="http://www.w3.org/2000/svg">
<g id="Clip path group">
<mask id="mask0_288_2270" style="mask-type:luminance" maskUnits="userSpaceOnUse" x="0" y="0" width="95" height="31">
<g id="a">
<path id="Vector" d="M49.1317 9.91055C49.0775 14.2288 52.9401 16.6386 55.8498 18.0713C58.8394 19.5415 59.8435 20.4841 59.8321 21.7986C59.8093 23.8107 57.4473 24.6985 55.2365 24.7331C51.3796 24.7937 49.1374 23.681 47.3545 22.8392L45.9652 29.4088C47.7539 30.2419 51.0658 30.9683 54.5005 31C62.5622 31 67.8368 26.9787 67.8653 20.7435C67.8967 12.8307 57.0337 12.3925 57.1078 8.8555C57.1335 7.78315 58.1462 6.63874 60.3656 6.3476C61.4639 6.20058 64.4963 6.08815 67.9338 7.68802L69.2831 1.33179C67.4345 0.65148 65.0583 0 62.1 0C54.5119 0 49.1745 4.07607 49.1317 9.91055ZM82.2485 0.547703C80.7765 0.547703 79.5356 1.41538 78.9822 2.74717L67.4659 30.533H75.5219L77.1251 26.0563H86.9697L87.8997 30.533H95L88.804 0.547703H82.2485ZM83.3753 8.64795L85.7003 19.9076H79.3331L83.3753 8.64795ZM39.3642 0.547703L33.0141 30.533H40.6906L47.0379 0.547703H39.3642ZM28.0076 0.547703L20.0173 20.9569L16.7852 3.60331C16.4058 1.66617 14.9081 0.547703 13.245 0.547703H0.182587L0 1.41826C2.68152 2.00632 5.72818 2.95472 7.57387 3.96941C8.70353 4.58918 9.02587 5.13111 9.39672 6.60415L15.5186 30.533H23.6316L36.0693 0.547703H28.0076Z" fill="white"/>
</g>
</mask>
<g mask="url(#mask0_288_2270)">
<g id="Group">
<path id="Vector_2" d="M-9.94922 3.7025L83.6539 -31.1314L104.948 27.2989L11.346 62.1328" fill="url(#paint0_linear_288_2270)"/>
</g>
</g>
</g>
<defs>
<linearGradient id="paint0_linear_288_2270" x1="8.60455" y1="30.058" x2="88.8674" y2="0.805683" gradientUnits="userSpaceOnUse">
<stop stop-color="#222357"/>
<stop offset="1" stop-color="#254AA5"/>
</linearGradient>
</defs>
</svg>
