<svg width="1012" height="442" viewBox="0 0 1012 442" fill="none" xmlns="http://www.w3.org/2000/svg">
<g opacity="0.5">
<circle cx="21" cy="1" r="1" fill="#27AAE1"/>
<circle cx="43" cy="1" r="1" fill="#27AAE1"/>
<circle cx="65" cy="1" r="1" fill="#27AAE1"/>
<circle cx="87" cy="1" r="1" fill="#27AAE1"/>
<circle cx="109" cy="1" r="1" fill="#27AAE1"/>
<circle cx="131" cy="1" r="1" fill="#27AAE1"/>
<circle cx="153" cy="1" r="1" fill="#27AAE1"/>
<circle cx="175" cy="1" r="1" fill="#27AAE1"/>
<circle cx="197" cy="1" r="1" fill="#27AAE1"/>
<circle cx="219" cy="1" r="1" fill="#27AAE1"/>
<circle cx="241" cy="1" r="1" fill="#27AAE1"/>
<circle cx="263" cy="1" r="1" fill="#27AAE1"/>
<circle cx="285" cy="1" r="1" fill="#27AAE1"/>
<circle cx="307" cy="1" r="1" fill="#27AAE1"/>
<circle cx="329" cy="1" r="1" fill="#27AAE1"/>
<circle cx="351" cy="1" r="1" fill="#27AAE1"/>
<circle cx="373" cy="1" r="1" fill="#27AAE1"/>
<circle cx="395" cy="1" r="1" fill="#27AAE1"/>
<circle cx="417" cy="1" r="1" fill="#27AAE1"/>
<circle cx="439" cy="1" r="1" fill="#27AAE1"/>
<circle cx="461" cy="1" r="1" fill="#27AAE1"/>
<circle cx="483" cy="1" r="1" fill="#27AAE1"/>
<circle cx="505" cy="1" r="1" fill="#27AAE1"/>
<circle cx="527" cy="1" r="1" fill="#27AAE1"/>
<circle cx="549" cy="1" r="1" fill="#27AAE1"/>
<circle cx="571" cy="1" r="1" fill="#27AAE1"/>
<circle cx="593" cy="1" r="1" fill="#27AAE1"/>
<circle cx="615" cy="1" r="1" fill="#27AAE1"/>
<circle cx="637" cy="1" r="1" fill="#27AAE1"/>
<circle cx="659" cy="1" r="1" fill="#27AAE1"/>
<circle cx="681" cy="1" r="1" fill="#27AAE1"/>
<circle cx="703" cy="1" r="1" fill="#27AAE1"/>
<circle cx="725" cy="1" r="1" fill="#27AAE1"/>
<circle cx="747" cy="1" r="1" fill="#27AAE1"/>
<circle cx="769" cy="1" r="1" fill="#27AAE1"/>
<circle cx="791" cy="1" r="1" fill="#27AAE1"/>
<circle cx="813" cy="1" r="1" fill="#27AAE1"/>
<circle cx="835" cy="1" r="1" fill="#27AAE1"/>
<circle cx="857" cy="1" r="1" fill="#27AAE1"/>
<circle cx="879" cy="1" r="1" fill="#27AAE1"/>
<circle cx="901" cy="1" r="1" fill="#27AAE1"/>
<circle cx="923" cy="1" r="1" fill="#27AAE1"/>
<circle cx="945" cy="1" r="1" fill="#27AAE1"/>
<circle cx="967" cy="1" r="1" fill="#27AAE1"/>
<circle cx="989" cy="1" r="1" fill="#27AAE1"/>
<circle cx="1011" cy="1" r="1" fill="#27AAE1"/>
<circle cx="21" cy="23" r="1" fill="#27AAE1"/>
<circle cx="43" cy="23" r="1" fill="#27AAE1"/>
<circle cx="65" cy="23" r="1" fill="#27AAE1"/>
<circle cx="87" cy="23" r="1" fill="#27AAE1"/>
<circle cx="109" cy="23" r="1" fill="#27AAE1"/>
<circle cx="131" cy="23" r="1" fill="#27AAE1"/>
<circle cx="153" cy="23" r="1" fill="#27AAE1"/>
<circle cx="175" cy="23" r="1" fill="#27AAE1"/>
<circle cx="197" cy="23" r="1" fill="#27AAE1"/>
<circle cx="219" cy="23" r="1" fill="#27AAE1"/>
<circle cx="241" cy="23" r="1" fill="#27AAE1"/>
<circle cx="263" cy="23" r="1" fill="#27AAE1"/>
<circle cx="285" cy="23" r="1" fill="#27AAE1"/>
<circle cx="307" cy="23" r="1" fill="#27AAE1"/>
<circle cx="329" cy="23" r="1" fill="#27AAE1"/>
<circle cx="351" cy="23" r="1" fill="#27AAE1"/>
<circle cx="373" cy="23" r="1" fill="#27AAE1"/>
<circle cx="395" cy="23" r="1" fill="#27AAE1"/>
<circle cx="417" cy="23" r="1" fill="#27AAE1"/>
<circle cx="439" cy="23" r="1" fill="#27AAE1"/>
<circle cx="461" cy="23" r="1" fill="#27AAE1"/>
<circle cx="483" cy="23" r="1" fill="#27AAE1"/>
<circle cx="505" cy="23" r="1" fill="#27AAE1"/>
<circle cx="527" cy="23" r="1" fill="#27AAE1"/>
<circle cx="549" cy="23" r="1" fill="#27AAE1"/>
<circle cx="571" cy="23" r="1" fill="#27AAE1"/>
<circle cx="593" cy="23" r="1" fill="#27AAE1"/>
<circle cx="615" cy="23" r="1" fill="#27AAE1"/>
<circle cx="637" cy="23" r="1" fill="#27AAE1"/>
<circle cx="659" cy="23" r="1" fill="#27AAE1"/>
<circle cx="681" cy="23" r="1" fill="#27AAE1"/>
<circle cx="703" cy="23" r="1" fill="#27AAE1"/>
<circle cx="725" cy="23" r="1" fill="#27AAE1"/>
<circle cx="747" cy="23" r="1" fill="#27AAE1"/>
<circle cx="769" cy="23" r="1" fill="#27AAE1"/>
<circle cx="791" cy="23" r="1" fill="#27AAE1"/>
<circle cx="813" cy="23" r="1" fill="#27AAE1"/>
<circle cx="835" cy="23" r="1" fill="#27AAE1"/>
<circle cx="857" cy="23" r="1" fill="#27AAE1"/>
<circle cx="879" cy="23" r="1" fill="#27AAE1"/>
<circle cx="901" cy="23" r="1" fill="#27AAE1"/>
<circle cx="923" cy="23" r="1" fill="#27AAE1"/>
<circle cx="945" cy="23" r="1" fill="#27AAE1"/>
<circle cx="967" cy="23" r="1" fill="#27AAE1"/>
<circle cx="989" cy="23" r="1" fill="#27AAE1"/>
<circle cx="1011" cy="23" r="1" fill="#27AAE1"/>
<circle cx="21" cy="45" r="1" fill="#27AAE1"/>
<circle cx="43" cy="45" r="1" fill="#27AAE1"/>
<circle cx="65" cy="45" r="1" fill="#27AAE1"/>
<circle cx="87" cy="45" r="1" fill="#27AAE1"/>
<circle cx="109" cy="45" r="1" fill="#27AAE1"/>
<circle cx="131" cy="45" r="1" fill="#27AAE1"/>
<circle cx="153" cy="45" r="1" fill="#27AAE1"/>
<circle cx="175" cy="45" r="1" fill="#27AAE1"/>
<circle cx="197" cy="45" r="1" fill="#27AAE1"/>
<circle cx="219" cy="45" r="1" fill="#27AAE1"/>
<circle cx="241" cy="45" r="1" fill="#27AAE1"/>
<circle cx="263" cy="45" r="1" fill="#27AAE1"/>
<circle cx="285" cy="45" r="1" fill="#27AAE1"/>
<circle cx="307" cy="45" r="1" fill="#27AAE1"/>
<circle cx="329" cy="45" r="1" fill="#27AAE1"/>
<circle cx="351" cy="45" r="1" fill="#27AAE1"/>
<circle cx="373" cy="45" r="1" fill="#27AAE1"/>
<circle cx="395" cy="45" r="1" fill="#27AAE1"/>
<circle cx="417" cy="45" r="1" fill="#27AAE1"/>
<circle cx="439" cy="45" r="1" fill="#27AAE1"/>
<circle cx="461" cy="45" r="1" fill="#27AAE1"/>
<circle cx="483" cy="45" r="1" fill="#27AAE1"/>
<circle cx="505" cy="45" r="1" fill="#27AAE1"/>
<circle cx="527" cy="45" r="1" fill="#27AAE1"/>
<circle cx="549" cy="45" r="1" fill="#27AAE1"/>
<circle cx="571" cy="45" r="1" fill="#27AAE1"/>
<circle cx="593" cy="45" r="1" fill="#27AAE1"/>
<circle cx="615" cy="45" r="1" fill="#27AAE1"/>
<circle cx="637" cy="45" r="1" fill="#27AAE1"/>
<circle cx="659" cy="45" r="1" fill="#27AAE1"/>
<circle cx="681" cy="45" r="1" fill="#27AAE1"/>
<circle cx="703" cy="45" r="1" fill="#27AAE1"/>
<circle cx="725" cy="45" r="1" fill="#27AAE1"/>
<circle cx="747" cy="45" r="1" fill="#27AAE1"/>
<circle cx="769" cy="45" r="1" fill="#27AAE1"/>
<circle cx="791" cy="45" r="1" fill="#27AAE1"/>
<circle cx="813" cy="45" r="1" fill="#27AAE1"/>
<circle cx="835" cy="45" r="1" fill="#27AAE1"/>
<circle cx="857" cy="45" r="1" fill="#27AAE1"/>
<circle cx="879" cy="45" r="1" fill="#27AAE1"/>
<circle cx="901" cy="45" r="1" fill="#27AAE1"/>
<circle cx="923" cy="45" r="1" fill="#27AAE1"/>
<circle cx="945" cy="45" r="1" fill="#27AAE1"/>
<circle cx="967" cy="45" r="1" fill="#27AAE1"/>
<circle cx="989" cy="45" r="1" fill="#27AAE1"/>
<circle cx="1011" cy="45" r="1" fill="#27AAE1"/>
<circle cx="21" cy="67" r="1" fill="#27AAE1"/>
<circle cx="43" cy="67" r="1" fill="#27AAE1"/>
<circle cx="65" cy="67" r="1" fill="#27AAE1"/>
<circle cx="87" cy="67" r="1" fill="#27AAE1"/>
<circle cx="109" cy="67" r="1" fill="#27AAE1"/>
<circle cx="131" cy="67" r="1" fill="#27AAE1"/>
<circle cx="153" cy="67" r="1" fill="#27AAE1"/>
<circle cx="175" cy="67" r="1" fill="#27AAE1"/>
<circle cx="197" cy="67" r="1" fill="#27AAE1"/>
<circle cx="219" cy="67" r="1" fill="#27AAE1"/>
<circle cx="241" cy="67" r="1" fill="#27AAE1"/>
<circle cx="263" cy="67" r="1" fill="#27AAE1"/>
<circle cx="285" cy="67" r="1" fill="#27AAE1"/>
<circle cx="307" cy="67" r="1" fill="#27AAE1"/>
<circle cx="329" cy="67" r="1" fill="#27AAE1"/>
<circle cx="351" cy="67" r="1" fill="#27AAE1"/>
<circle cx="373" cy="67" r="1" fill="#27AAE1"/>
<circle cx="395" cy="67" r="1" fill="#27AAE1"/>
<circle cx="417" cy="67" r="1" fill="#27AAE1"/>
<circle cx="439" cy="67" r="1" fill="#27AAE1"/>
<circle cx="461" cy="67" r="1" fill="#27AAE1"/>
<circle cx="483" cy="67" r="1" fill="#27AAE1"/>
<circle cx="505" cy="67" r="1" fill="#27AAE1"/>
<circle cx="527" cy="67" r="1" fill="#27AAE1"/>
<circle cx="549" cy="67" r="1" fill="#27AAE1"/>
<circle cx="571" cy="67" r="1" fill="#27AAE1"/>
<circle cx="593" cy="67" r="1" fill="#27AAE1"/>
<circle cx="615" cy="67" r="1" fill="#27AAE1"/>
<circle cx="637" cy="67" r="1" fill="#27AAE1"/>
<circle cx="659" cy="67" r="1" fill="#27AAE1"/>
<circle cx="681" cy="67" r="1" fill="#27AAE1"/>
<circle cx="703" cy="67" r="1" fill="#27AAE1"/>
<circle cx="725" cy="67" r="1" fill="#27AAE1"/>
<circle cx="747" cy="67" r="1" fill="#27AAE1"/>
<circle cx="769" cy="67" r="1" fill="#27AAE1"/>
<circle cx="791" cy="67" r="1" fill="#27AAE1"/>
<circle cx="813" cy="67" r="1" fill="#27AAE1"/>
<circle cx="835" cy="67" r="1" fill="#27AAE1"/>
<circle cx="857" cy="67" r="1" fill="#27AAE1"/>
<circle cx="879" cy="67" r="1" fill="#27AAE1"/>
<circle cx="901" cy="67" r="1" fill="#27AAE1"/>
<circle cx="923" cy="67" r="1" fill="#27AAE1"/>
<circle cx="945" cy="67" r="1" fill="#27AAE1"/>
<circle cx="967" cy="67" r="1" fill="#27AAE1"/>
<circle cx="989" cy="67" r="1" fill="#27AAE1"/>
<circle cx="1011" cy="67" r="1" fill="#27AAE1"/>
<circle cx="21" cy="89" r="1" fill="#27AAE1"/>
<circle cx="43" cy="89" r="1" fill="#27AAE1"/>
<circle cx="65" cy="89" r="1" fill="#27AAE1"/>
<circle cx="87" cy="89" r="1" fill="#27AAE1"/>
<circle cx="109" cy="89" r="1" fill="#27AAE1"/>
<circle cx="131" cy="89" r="1" fill="#27AAE1"/>
<circle cx="153" cy="89" r="1" fill="#27AAE1"/>
<circle cx="175" cy="89" r="1" fill="#27AAE1"/>
<circle cx="197" cy="89" r="1" fill="#27AAE1"/>
<circle cx="219" cy="89" r="1" fill="#27AAE1"/>
<circle cx="241" cy="89" r="1" fill="#27AAE1"/>
<circle cx="263" cy="89" r="1" fill="#27AAE1"/>
<circle cx="285" cy="89" r="1" fill="#27AAE1"/>
<circle cx="307" cy="89" r="1" fill="#27AAE1"/>
<circle cx="329" cy="89" r="1" fill="#27AAE1"/>
<circle cx="351" cy="89" r="1" fill="#27AAE1"/>
<circle cx="373" cy="89" r="1" fill="#27AAE1"/>
<circle cx="395" cy="89" r="1" fill="#27AAE1"/>
<circle cx="417" cy="89" r="1" fill="#27AAE1"/>
<circle cx="439" cy="89" r="1" fill="#27AAE1"/>
<circle cx="461" cy="89" r="1" fill="#27AAE1"/>
<circle cx="483" cy="89" r="1" fill="#27AAE1"/>
<circle cx="505" cy="89" r="1" fill="#27AAE1"/>
<circle cx="527" cy="89" r="1" fill="#27AAE1"/>
<circle cx="549" cy="89" r="1" fill="#27AAE1"/>
<circle cx="571" cy="89" r="1" fill="#27AAE1"/>
<circle cx="593" cy="89" r="1" fill="#27AAE1"/>
<circle cx="615" cy="89" r="1" fill="#27AAE1"/>
<circle cx="637" cy="89" r="1" fill="#27AAE1"/>
<circle cx="659" cy="89" r="1" fill="#27AAE1"/>
<circle cx="681" cy="89" r="1" fill="#27AAE1"/>
<circle cx="703" cy="89" r="1" fill="#27AAE1"/>
<circle cx="725" cy="89" r="1" fill="#27AAE1"/>
<circle cx="747" cy="89" r="1" fill="#27AAE1"/>
<circle cx="769" cy="89" r="1" fill="#27AAE1"/>
<circle cx="791" cy="89" r="1" fill="#27AAE1"/>
<circle cx="813" cy="89" r="1" fill="#27AAE1"/>
<circle cx="835" cy="89" r="1" fill="#27AAE1"/>
<circle cx="857" cy="89" r="1" fill="#27AAE1"/>
<circle cx="879" cy="89" r="1" fill="#27AAE1"/>
<circle cx="901" cy="89" r="1" fill="#27AAE1"/>
<circle cx="923" cy="89" r="1" fill="#27AAE1"/>
<circle cx="351" cy="89" r="1" fill="#27AAE1"/>
<circle cx="923" cy="89" r="1" fill="#27AAE1"/>
<circle cx="945" cy="89" r="1" fill="#27AAE1"/>
<circle cx="967" cy="89" r="1" fill="#27AAE1"/>
<circle cx="989" cy="89" r="1" fill="#27AAE1"/>
<circle cx="1011" cy="89" r="1" fill="#27AAE1"/>
<circle cx="21" cy="111" r="1" fill="#27AAE1"/>
<circle cx="43" cy="111" r="1" fill="#27AAE1"/>
<circle cx="65" cy="111" r="1" fill="#27AAE1"/>
<circle cx="87" cy="111" r="1" fill="#27AAE1"/>
<circle cx="109" cy="111" r="1" fill="#27AAE1"/>
<circle cx="131" cy="111" r="1" fill="#27AAE1"/>
<circle cx="153" cy="111" r="1" fill="#27AAE1"/>
<circle cx="175" cy="111" r="1" fill="#27AAE1"/>
<circle cx="197" cy="111" r="1" fill="#27AAE1"/>
<circle cx="219" cy="111" r="1" fill="#27AAE1"/>
<circle cx="241" cy="111" r="1" fill="#27AAE1"/>
<circle cx="263" cy="111" r="1" fill="#27AAE1"/>
<circle cx="285" cy="111" r="1" fill="#27AAE1"/>
<circle cx="307" cy="111" r="1" fill="#27AAE1"/>
<circle cx="329" cy="111" r="1" fill="#27AAE1"/>
<circle cx="945" cy="111" r="1" fill="#27AAE1"/>
<circle cx="967" cy="111" r="1" fill="#27AAE1"/>
<circle cx="989" cy="111" r="1" fill="#27AAE1"/>
<circle cx="1011" cy="111" r="1" fill="#27AAE1"/>
<circle cx="21" cy="133" r="1" fill="#27AAE1"/>
<circle cx="43" cy="133" r="1" fill="#27AAE1"/>
<circle cx="65" cy="133" r="1" fill="#27AAE1"/>
<circle cx="87" cy="133" r="1" fill="#27AAE1"/>
<circle cx="109" cy="133" r="1" fill="#27AAE1"/>
<circle cx="131" cy="133" r="1" fill="#27AAE1"/>
<circle cx="153" cy="133" r="1" fill="#27AAE1"/>
<circle cx="175" cy="133" r="1" fill="#27AAE1"/>
<circle cx="197" cy="133" r="1" fill="#27AAE1"/>
<circle cx="219" cy="133" r="1" fill="#27AAE1"/>
<circle cx="241" cy="133" r="1" fill="#27AAE1"/>
<circle cx="263" cy="133" r="1" fill="#27AAE1"/>
<circle cx="285" cy="133" r="1" fill="#27AAE1"/>
<circle cx="307" cy="133" r="1" fill="#27AAE1"/>
<circle cx="329" cy="133" r="1" fill="#27AAE1"/>
<circle cx="945" cy="133" r="1" fill="#27AAE1"/>
<circle cx="967" cy="133" r="1" fill="#27AAE1"/>
<circle cx="989" cy="133" r="1" fill="#27AAE1"/>
<circle cx="1011" cy="133" r="1" fill="#27AAE1"/>
<circle cx="21" cy="155" r="1" fill="#27AAE1"/>
<circle cx="43" cy="155" r="1" fill="#27AAE1"/>
<circle cx="65" cy="155" r="1" fill="#27AAE1"/>
<circle cx="87" cy="155" r="1" fill="#27AAE1"/>
<circle cx="109" cy="155" r="1" fill="#27AAE1"/>
<circle cx="131" cy="155" r="1" fill="#27AAE1"/>
<circle cx="153" cy="155" r="1" fill="#27AAE1"/>
<circle cx="175" cy="155" r="1" fill="#27AAE1"/>
<circle cx="197" cy="155" r="1" fill="#27AAE1"/>
<circle cx="219" cy="155" r="1" fill="#27AAE1"/>
<circle cx="241" cy="155" r="1" fill="#27AAE1"/>
<circle cx="263" cy="155" r="1" fill="#27AAE1"/>
<circle cx="285" cy="155" r="1" fill="#27AAE1"/>
<circle cx="307" cy="155" r="1" fill="#27AAE1"/>
<circle cx="329" cy="155" r="1" fill="#27AAE1"/>
<circle cx="945" cy="155" r="1" fill="#27AAE1"/>
<circle cx="967" cy="155" r="1" fill="#27AAE1"/>
<circle cx="989" cy="155" r="1" fill="#27AAE1"/>
<circle cx="1011" cy="155" r="1" fill="#27AAE1"/>
<circle cx="21" cy="177" r="1" fill="#27AAE1"/>
<circle cx="43" cy="177" r="1" fill="#27AAE1"/>
<circle cx="65" cy="177" r="1" fill="#27AAE1"/>
<circle cx="87" cy="177" r="1" fill="#27AAE1"/>
<circle cx="109" cy="177" r="1" fill="#27AAE1"/>
<circle cx="131" cy="177" r="1" fill="#27AAE1"/>
<circle cx="153" cy="177" r="1" fill="#27AAE1"/>
<circle cx="175" cy="177" r="1" fill="#27AAE1"/>
<circle cx="197" cy="177" r="1" fill="#27AAE1"/>
<circle cx="219" cy="177" r="1" fill="#27AAE1"/>
<circle cx="241" cy="177" r="1" fill="#27AAE1"/>
<circle cx="263" cy="177" r="1" fill="#27AAE1"/>
<circle cx="285" cy="177" r="1" fill="#27AAE1"/>
<circle cx="307" cy="177" r="1" fill="#27AAE1"/>
<circle cx="329" cy="177" r="1" fill="#27AAE1"/>
<circle cx="791" cy="177" r="1" fill="#27AAE1"/>
<circle cx="813" cy="177" r="1" fill="#27AAE1"/>
<circle cx="835" cy="177" r="1" fill="#27AAE1"/>
<circle cx="857" cy="177" r="1" fill="#27AAE1"/>
<circle cx="879" cy="177" r="1" fill="#27AAE1"/>
<circle cx="901" cy="177" r="1" fill="#27AAE1"/>
<circle cx="923" cy="177" r="1" fill="#27AAE1"/>
<circle cx="945" cy="177" r="1" fill="#27AAE1"/>
<circle cx="967" cy="177" r="1" fill="#27AAE1"/>
<circle cx="989" cy="177" r="1" fill="#27AAE1"/>
<circle cx="1011" cy="177" r="1" fill="#27AAE1"/>
<circle cx="21" cy="199" r="1" fill="#27AAE1"/>
<circle cx="43" cy="199" r="1" fill="#27AAE1"/>
<circle cx="65" cy="199" r="1" fill="#27AAE1"/>
<circle cx="87" cy="199" r="1" fill="#27AAE1"/>
<circle cx="109" cy="199" r="1" fill="#27AAE1"/>
<circle cx="131" cy="199" r="1" fill="#27AAE1"/>
<circle cx="153" cy="199" r="1" fill="#27AAE1"/>
<circle cx="175" cy="199" r="1" fill="#27AAE1"/>
<circle cx="197" cy="199" r="1" fill="#27AAE1"/>
<circle cx="219" cy="199" r="1" fill="#27AAE1"/>
<circle cx="241" cy="199" r="1" fill="#27AAE1"/>
<circle cx="263" cy="199" r="1" fill="#27AAE1"/>
<circle cx="285" cy="199" r="1" fill="#27AAE1"/>
<circle cx="307" cy="199" r="1" fill="#27AAE1"/>
<circle cx="329" cy="199" r="1" fill="#27AAE1"/>
<circle cx="791" cy="199" r="1" fill="#27AAE1"/>
<circle cx="813" cy="199" r="1" fill="#27AAE1"/>
<circle cx="835" cy="199" r="1" fill="#27AAE1"/>
<circle cx="857" cy="199" r="1" fill="#27AAE1"/>
<circle cx="879" cy="199" r="1" fill="#27AAE1"/>
<circle cx="901" cy="199" r="1" fill="#27AAE1"/>
<circle cx="923" cy="199" r="1" fill="#27AAE1"/>
<circle cx="945" cy="199" r="1" fill="#27AAE1"/>
<circle cx="967" cy="199" r="1" fill="#27AAE1"/>
<circle cx="989" cy="199" r="1" fill="#27AAE1"/>
<circle cx="1011" cy="199" r="1" fill="#27AAE1"/>
<circle cx="21" cy="221" r="1" fill="#27AAE1"/>
<circle cx="43" cy="221" r="1" fill="#27AAE1"/>
<circle cx="65" cy="221" r="1" fill="#27AAE1"/>
<circle cx="87" cy="221" r="1" fill="#27AAE1"/>
<circle cx="109" cy="221" r="1" fill="#27AAE1"/>
<circle cx="131" cy="221" r="1" fill="#27AAE1"/>
<circle cx="153" cy="221" r="1" fill="#27AAE1"/>
<circle cx="175" cy="221" r="1" fill="#27AAE1"/>
<circle cx="197" cy="221" r="1" fill="#27AAE1"/>
<circle cx="219" cy="221" r="1" fill="#27AAE1"/>
<circle cx="241" cy="221" r="1" fill="#27AAE1"/>
<circle cx="263" cy="221" r="1" fill="#27AAE1"/>
<circle cx="285" cy="221" r="1" fill="#27AAE1"/>
<circle cx="307" cy="221" r="1" fill="#27AAE1"/>
<circle cx="329" cy="221" r="1" fill="#27AAE1"/>
<circle cx="791" cy="221" r="1" fill="#27AAE1"/>
<circle cx="813" cy="221" r="1" fill="#27AAE1"/>
<circle cx="835" cy="221" r="1" fill="#27AAE1"/>
<circle cx="857" cy="221" r="1" fill="#27AAE1"/>
<circle cx="879" cy="221" r="1" fill="#27AAE1"/>
<circle cx="901" cy="221" r="1" fill="#27AAE1"/>
<circle cx="923" cy="221" r="1" fill="#27AAE1"/>
<circle cx="945" cy="221" r="1" fill="#27AAE1"/>
<circle cx="967" cy="221" r="1" fill="#27AAE1"/>
<circle cx="989" cy="221" r="1" fill="#27AAE1"/>
<circle cx="1011" cy="221" r="1" fill="#27AAE1"/>
<circle cx="21" cy="243" r="1" fill="#27AAE1"/>
<circle cx="43" cy="243" r="1" fill="#27AAE1"/>
<circle cx="65" cy="243" r="1" fill="#27AAE1"/>
<circle cx="87" cy="243" r="1" fill="#27AAE1"/>
<circle cx="109" cy="243" r="1" fill="#27AAE1"/>
<circle cx="131" cy="243" r="1" fill="#27AAE1"/>
<circle cx="153" cy="243" r="1" fill="#27AAE1"/>
<circle cx="175" cy="243" r="1" fill="#27AAE1"/>
<circle cx="197" cy="243" r="1" fill="#27AAE1"/>
<circle cx="219" cy="243" r="1" fill="#27AAE1"/>
<circle cx="241" cy="243" r="1" fill="#27AAE1"/>
<circle cx="263" cy="243" r="1" fill="#27AAE1"/>
<circle cx="285" cy="243" r="1" fill="#27AAE1"/>
<circle cx="307" cy="243" r="1" fill="#27AAE1"/>
<circle cx="329" cy="243" r="1" fill="#27AAE1"/>
<circle cx="351" cy="243" r="1" fill="#27AAE1"/>
<circle cx="373" cy="243" r="1" fill="#27AAE1"/>
<circle cx="395" cy="243" r="1" fill="#27AAE1"/>
<circle cx="417" cy="243" r="1" fill="#27AAE1"/>
<circle cx="439" cy="243" r="1" fill="#27AAE1"/>
<circle cx="461" cy="243" r="1" fill="#27AAE1"/>
<circle cx="483" cy="243" r="1" fill="#27AAE1"/>
<circle cx="505" cy="243" r="1" fill="#27AAE1"/>
<circle cx="527" cy="243" r="1" fill="#27AAE1"/>
<circle cx="549" cy="243" r="1" fill="#27AAE1"/>
<circle cx="571" cy="243" r="1" fill="#27AAE1"/>
<circle cx="593" cy="243" r="1" fill="#27AAE1"/>
<circle cx="615" cy="243" r="1" fill="#27AAE1"/>
<circle cx="637" cy="243" r="1" fill="#27AAE1"/>
<circle cx="659" cy="243" r="1" fill="#27AAE1"/>
<circle cx="681" cy="243" r="1" fill="#27AAE1"/>
<circle cx="703" cy="243" r="1" fill="#27AAE1"/>
<circle cx="725" cy="243" r="1" fill="#27AAE1"/>
<circle cx="747" cy="243" r="1" fill="#27AAE1"/>
<circle cx="769" cy="243" r="1" fill="#27AAE1"/>
<circle cx="791" cy="243" r="1" fill="#27AAE1"/>
<circle cx="813" cy="243" r="1" fill="#27AAE1"/>
<circle cx="835" cy="243" r="1" fill="#27AAE1"/>
<circle cx="857" cy="243" r="1" fill="#27AAE1"/>
<circle cx="879" cy="243" r="1" fill="#27AAE1"/>
<circle cx="901" cy="243" r="1" fill="#27AAE1"/>
<circle cx="923" cy="243" r="1" fill="#27AAE1"/>
<circle cx="923" cy="265" r="1" fill="#27AAE1"/>
<circle cx="923" cy="287" r="1" fill="#27AAE1"/>
<circle cx="945" cy="243" r="1" fill="#27AAE1"/>
<circle cx="967" cy="243" r="1" fill="#27AAE1"/>
<circle cx="989" cy="243" r="1" fill="#27AAE1"/>
<circle cx="1011" cy="243" r="1" fill="#27AAE1"/>
<circle cx="21" cy="265" r="1" fill="#27AAE1"/>
<circle cx="43" cy="265" r="1" fill="#27AAE1"/>
<circle cx="65" cy="265" r="1" fill="#27AAE1"/>
<circle cx="87" cy="265" r="1" fill="#27AAE1"/>
<circle cx="109" cy="265" r="1" fill="#27AAE1"/>
<circle cx="131" cy="265" r="1" fill="#27AAE1"/>
<circle cx="153" cy="265" r="1" fill="#27AAE1"/>
<circle cx="175" cy="265" r="1" fill="#27AAE1"/>
<circle cx="197" cy="265" r="1" fill="#27AAE1"/>
<circle cx="219" cy="265" r="1" fill="#27AAE1"/>
<circle cx="241" cy="265" r="1" fill="#27AAE1"/>
<circle cx="263" cy="265" r="1" fill="#27AAE1"/>
<circle cx="285" cy="265" r="1" fill="#27AAE1"/>
<circle cx="307" cy="265" r="1" fill="#27AAE1"/>
<circle cx="945" cy="265" r="1" fill="#27AAE1"/>
<circle cx="967" cy="265" r="1" fill="#27AAE1"/>
<circle cx="989" cy="265" r="1" fill="#27AAE1"/>
<circle cx="1011" cy="265" r="1" fill="#27AAE1"/>
<circle cx="21" cy="287" r="1" fill="#27AAE1"/>
<circle cx="43" cy="287" r="1" fill="#27AAE1"/>
<circle cx="65" cy="287" r="1" fill="#27AAE1"/>
<circle cx="87" cy="287" r="1" fill="#27AAE1"/>
<circle cx="109" cy="287" r="1" fill="#27AAE1"/>
<circle cx="131" cy="287" r="1" fill="#27AAE1"/>
<circle cx="153" cy="287" r="1" fill="#27AAE1"/>
<circle cx="175" cy="287" r="1" fill="#27AAE1"/>
<circle cx="197" cy="287" r="1" fill="#27AAE1"/>
<circle cx="219" cy="287" r="1" fill="#27AAE1"/>
<circle cx="241" cy="287" r="1" fill="#27AAE1"/>
<circle cx="263" cy="287" r="1" fill="#27AAE1"/>
<circle cx="285" cy="287" r="1" fill="#27AAE1"/>
<circle cx="307" cy="287" r="1" fill="#27AAE1"/>
<circle cx="945" cy="287" r="1" fill="#27AAE1"/>
<circle cx="967" cy="287" r="1" fill="#27AAE1"/>
<circle cx="989" cy="287" r="1" fill="#27AAE1"/>
<circle cx="1011" cy="287" r="1" fill="#27AAE1"/>
<circle cx="21" cy="309" r="1" fill="#27AAE1"/>
<circle cx="43" cy="309" r="1" fill="#27AAE1"/>
<circle cx="65" cy="309" r="1" fill="#27AAE1"/>
<circle cx="87" cy="309" r="1" fill="#27AAE1"/>
<circle cx="109" cy="309" r="1" fill="#27AAE1"/>
<circle cx="131" cy="309" r="1" fill="#27AAE1"/>
<circle cx="153" cy="309" r="1" fill="#27AAE1"/>
<circle cx="175" cy="309" r="1" fill="#27AAE1"/>
<circle cx="197" cy="309" r="1" fill="#27AAE1"/>
<circle cx="219" cy="309" r="1" fill="#27AAE1"/>
<circle cx="241" cy="309" r="1" fill="#27AAE1"/>
<circle cx="263" cy="309" r="1" fill="#27AAE1"/>
<circle cx="285" cy="309" r="1" fill="#27AAE1"/>
<circle cx="307" cy="309" r="1" fill="#27AAE1"/>
<circle cx="329" cy="309" r="1" fill="#27AAE1"/>
<circle cx="351" cy="309" r="1" fill="#27AAE1"/>
<circle cx="373" cy="309" r="1" fill="#27AAE1"/>
<circle cx="395" cy="309" r="1" fill="#27AAE1"/>
<circle cx="417" cy="309" r="1" fill="#27AAE1"/>
<circle cx="439" cy="309" r="1" fill="#27AAE1"/>
<circle cx="461" cy="309" r="1" fill="#27AAE1"/>
<circle cx="483" cy="309" r="1" fill="#27AAE1"/>
<circle cx="505" cy="309" r="1" fill="#27AAE1"/>
<circle cx="527" cy="309" r="1" fill="#27AAE1"/>
<circle cx="549" cy="309" r="1" fill="#27AAE1"/>
<circle cx="571" cy="309" r="1" fill="#27AAE1"/>
<circle cx="593" cy="309" r="1" fill="#27AAE1"/>
<circle cx="615" cy="309" r="1" fill="#27AAE1"/>
<circle cx="637" cy="309" r="1" fill="#27AAE1"/>
<circle cx="659" cy="309" r="1" fill="#27AAE1"/>
<circle cx="681" cy="309" r="1" fill="#27AAE1"/>
<circle cx="703" cy="309" r="1" fill="#27AAE1"/>
<circle cx="725" cy="309" r="1" fill="#27AAE1"/>
<circle cx="747" cy="309" r="1" fill="#27AAE1"/>
<circle cx="769" cy="309" r="1" fill="#27AAE1"/>
<circle cx="791" cy="309" r="1" fill="#27AAE1"/>
<circle cx="813" cy="309" r="1" fill="#27AAE1"/>
<circle cx="835" cy="309" r="1" fill="#27AAE1"/>
<circle cx="857" cy="309" r="1" fill="#27AAE1"/>
<circle cx="879" cy="309" r="1" fill="#27AAE1"/>
<circle cx="901" cy="309" r="1" fill="#27AAE1"/>
<circle cx="923" cy="309" r="1" fill="#27AAE1"/>
<circle cx="945" cy="309" r="1" fill="#27AAE1"/>
<circle cx="967" cy="309" r="1" fill="#27AAE1"/>
<circle cx="989" cy="309" r="1" fill="#27AAE1"/>
<circle cx="1011" cy="309" r="1" fill="#27AAE1"/>
<circle cx="21" cy="331" r="1" fill="#27AAE1"/>
<circle cx="43" cy="331" r="1" fill="#27AAE1"/>
<circle cx="65" cy="331" r="1" fill="#27AAE1"/>
<circle cx="87" cy="331" r="1" fill="#27AAE1"/>
<circle cx="109" cy="331" r="1" fill="#27AAE1"/>
<circle cx="131" cy="331" r="1" fill="#27AAE1"/>
<circle cx="153" cy="331" r="1" fill="#27AAE1"/>
<circle cx="175" cy="331" r="1" fill="#27AAE1"/>
<circle cx="197" cy="331" r="1" fill="#27AAE1"/>
<circle cx="219" cy="331" r="1" fill="#27AAE1"/>
<circle cx="241" cy="331" r="1" fill="#27AAE1"/>
<circle cx="263" cy="331" r="1" fill="#27AAE1"/>
<circle cx="285" cy="331" r="1" fill="#27AAE1"/>
<circle cx="307" cy="331" r="1" fill="#27AAE1"/>
<circle cx="329" cy="331" r="1" fill="#27AAE1"/>
<circle cx="351" cy="331" r="1" fill="#27AAE1"/>
<circle cx="373" cy="331" r="1" fill="#27AAE1"/>
<circle cx="395" cy="331" r="1" fill="#27AAE1"/>
<circle cx="417" cy="331" r="1" fill="#27AAE1"/>
<circle cx="439" cy="331" r="1" fill="#27AAE1"/>
<circle cx="461" cy="331" r="1" fill="#27AAE1"/>
<circle cx="483" cy="331" r="1" fill="#27AAE1"/>
<circle cx="505" cy="331" r="1" fill="#27AAE1"/>
<circle cx="527" cy="331" r="1" fill="#27AAE1"/>
<circle cx="549" cy="331" r="1" fill="#27AAE1"/>
<circle cx="571" cy="331" r="1" fill="#27AAE1"/>
<circle cx="593" cy="331" r="1" fill="#27AAE1"/>
<circle cx="615" cy="331" r="1" fill="#27AAE1"/>
<circle cx="637" cy="331" r="1" fill="#27AAE1"/>
<circle cx="659" cy="331" r="1" fill="#27AAE1"/>
<circle cx="681" cy="331" r="1" fill="#27AAE1"/>
<circle cx="703" cy="331" r="1" fill="#27AAE1"/>
<circle cx="725" cy="331" r="1" fill="#27AAE1"/>
<circle cx="747" cy="331" r="1" fill="#27AAE1"/>
<circle cx="769" cy="331" r="1" fill="#27AAE1"/>
<circle cx="791" cy="331" r="1" fill="#27AAE1"/>
<circle cx="813" cy="331" r="1" fill="#27AAE1"/>
<circle cx="835" cy="331" r="1" fill="#27AAE1"/>
<circle cx="857" cy="331" r="1" fill="#27AAE1"/>
<circle cx="879" cy="331" r="1" fill="#27AAE1"/>
<circle cx="901" cy="331" r="1" fill="#27AAE1"/>
<circle cx="923" cy="331" r="1" fill="#27AAE1"/>
<circle cx="945" cy="331" r="1" fill="#27AAE1"/>
<circle cx="967" cy="331" r="1" fill="#27AAE1"/>
<circle cx="989" cy="331" r="1" fill="#27AAE1"/>
<circle cx="1011" cy="331" r="1" fill="#27AAE1"/>
<circle cx="21" cy="353" r="1" fill="#27AAE1"/>
<circle cx="43" cy="353" r="1" fill="#27AAE1"/>
<circle cx="65" cy="353" r="1" fill="#27AAE1"/>
<circle cx="87" cy="353" r="1" fill="#27AAE1"/>
<circle cx="109" cy="353" r="1" fill="#27AAE1"/>
<circle cx="131" cy="353" r="1" fill="#27AAE1"/>
<circle cx="153" cy="353" r="1" fill="#27AAE1"/>
<circle cx="175" cy="353" r="1" fill="#27AAE1"/>
<circle cx="197" cy="353" r="1" fill="#27AAE1"/>
<circle cx="219" cy="353" r="1" fill="#27AAE1"/>
<circle cx="241" cy="353" r="1" fill="#27AAE1"/>
<circle cx="263" cy="353" r="1" fill="#27AAE1"/>
<circle cx="285" cy="353" r="1" fill="#27AAE1"/>
<circle cx="307" cy="353" r="1" fill="#27AAE1"/>
<circle cx="329" cy="353" r="1" fill="#27AAE1"/>
<circle cx="351" cy="353" r="1" fill="#27AAE1"/>
<circle cx="373" cy="353" r="1" fill="#27AAE1"/>
<circle cx="395" cy="353" r="1" fill="#27AAE1"/>
<circle cx="417" cy="353" r="1" fill="#27AAE1"/>
<circle cx="439" cy="353" r="1" fill="#27AAE1"/>
<circle cx="461" cy="353" r="1" fill="#27AAE1"/>
<circle cx="483" cy="353" r="1" fill="#27AAE1"/>
<circle cx="505" cy="353" r="1" fill="#27AAE1"/>
<circle cx="527" cy="353" r="1" fill="#27AAE1"/>
<circle cx="549" cy="353" r="1" fill="#27AAE1"/>
<circle cx="571" cy="353" r="1" fill="#27AAE1"/>
<circle cx="593" cy="353" r="1" fill="#27AAE1"/>
<circle cx="615" cy="353" r="1" fill="#27AAE1"/>
<circle cx="637" cy="353" r="1" fill="#27AAE1"/>
<circle cx="659" cy="353" r="1" fill="#27AAE1"/>
<circle cx="681" cy="353" r="1" fill="#27AAE1"/>
<circle cx="703" cy="353" r="1" fill="#27AAE1"/>
<circle cx="725" cy="353" r="1" fill="#27AAE1"/>
<circle cx="747" cy="353" r="1" fill="#27AAE1"/>
<circle cx="769" cy="353" r="1" fill="#27AAE1"/>
<circle cx="791" cy="353" r="1" fill="#27AAE1"/>
<circle cx="813" cy="353" r="1" fill="#27AAE1"/>
<circle cx="835" cy="353" r="1" fill="#27AAE1"/>
<circle cx="857" cy="353" r="1" fill="#27AAE1"/>
<circle cx="879" cy="353" r="1" fill="#27AAE1"/>
<circle cx="901" cy="353" r="1" fill="#27AAE1"/>
<circle cx="923" cy="353" r="1" fill="#27AAE1"/>
<circle cx="945" cy="353" r="1" fill="#27AAE1"/>
<circle cx="967" cy="353" r="1" fill="#27AAE1"/>
<circle cx="989" cy="353" r="1" fill="#27AAE1"/>
<circle cx="1011" cy="353" r="1" fill="#27AAE1"/>
<circle cx="21" cy="375" r="1" fill="#27AAE1"/>
<circle cx="43" cy="375" r="1" fill="#27AAE1"/>
<circle cx="65" cy="375" r="1" fill="#27AAE1"/>
<circle cx="87" cy="375" r="1" fill="#27AAE1"/>
<circle cx="109" cy="375" r="1" fill="#27AAE1"/>
<circle cx="131" cy="375" r="1" fill="#27AAE1"/>
<circle cx="153" cy="375" r="1" fill="#27AAE1"/>
<circle cx="175" cy="375" r="1" fill="#27AAE1"/>
<circle cx="197" cy="375" r="1" fill="#27AAE1"/>
<circle cx="219" cy="375" r="1" fill="#27AAE1"/>
<circle cx="241" cy="375" r="1" fill="#27AAE1"/>
<circle cx="263" cy="375" r="1" fill="#27AAE1"/>
<circle cx="285" cy="375" r="1" fill="#27AAE1"/>
<circle cx="307" cy="375" r="1" fill="#27AAE1"/>
<circle cx="329" cy="375" r="1" fill="#27AAE1"/>
<circle cx="351" cy="375" r="1" fill="#27AAE1"/>
<circle cx="373" cy="375" r="1" fill="#27AAE1"/>
<circle cx="395" cy="375" r="1" fill="#27AAE1"/>
<circle cx="417" cy="375" r="1" fill="#27AAE1"/>
<circle cx="439" cy="375" r="1" fill="#27AAE1"/>
<circle cx="461" cy="375" r="1" fill="#27AAE1"/>
<circle cx="483" cy="375" r="1" fill="#27AAE1"/>
<circle cx="505" cy="375" r="1" fill="#27AAE1"/>
<circle cx="527" cy="375" r="1" fill="#27AAE1"/>
<circle cx="549" cy="375" r="1" fill="#27AAE1"/>
<circle cx="571" cy="375" r="1" fill="#27AAE1"/>
<circle cx="593" cy="375" r="1" fill="#27AAE1"/>
<circle cx="615" cy="375" r="1" fill="#27AAE1"/>
<circle cx="637" cy="375" r="1" fill="#27AAE1"/>
<circle cx="659" cy="375" r="1" fill="#27AAE1"/>
<circle cx="681" cy="375" r="1" fill="#27AAE1"/>
<circle cx="703" cy="375" r="1" fill="#27AAE1"/>
<circle cx="725" cy="375" r="1" fill="#27AAE1"/>
<circle cx="747" cy="375" r="1" fill="#27AAE1"/>
<circle cx="769" cy="375" r="1" fill="#27AAE1"/>
<circle cx="791" cy="375" r="1" fill="#27AAE1"/>
<circle cx="813" cy="375" r="1" fill="#27AAE1"/>
<circle cx="835" cy="375" r="1" fill="#27AAE1"/>
<circle cx="857" cy="375" r="1" fill="#27AAE1"/>
<circle cx="879" cy="375" r="1" fill="#27AAE1"/>
<circle cx="901" cy="375" r="1" fill="#27AAE1"/>
<circle cx="923" cy="375" r="1" fill="#27AAE1"/>
<circle cx="945" cy="375" r="1" fill="#27AAE1"/>
<circle cx="967" cy="375" r="1" fill="#27AAE1"/>
<circle cx="989" cy="375" r="1" fill="#27AAE1"/>
<circle cx="1011" cy="375" r="1" fill="#27AAE1"/>
<circle cx="21" cy="397" r="1" fill="#27AAE1"/>
<circle cx="43" cy="397" r="1" fill="#27AAE1"/>
<circle cx="65" cy="397" r="1" fill="#27AAE1"/>
<circle cx="87" cy="397" r="1" fill="#27AAE1"/>
<circle cx="109" cy="397" r="1" fill="#27AAE1"/>
<circle cx="131" cy="397" r="1" fill="#27AAE1"/>
<circle cx="153" cy="397" r="1" fill="#27AAE1"/>
<circle cx="175" cy="397" r="1" fill="#27AAE1"/>
<circle cx="197" cy="397" r="1" fill="#27AAE1"/>
<circle cx="219" cy="397" r="1" fill="#27AAE1"/>
<circle cx="241" cy="397" r="1" fill="#27AAE1"/>
<circle cx="263" cy="397" r="1" fill="#27AAE1"/>
<circle cx="285" cy="397" r="1" fill="#27AAE1"/>
<circle cx="307" cy="397" r="1" fill="#27AAE1"/>
<circle cx="329" cy="397" r="1" fill="#27AAE1"/>
<circle cx="351" cy="397" r="1" fill="#27AAE1"/>
<circle cx="373" cy="397" r="1" fill="#27AAE1"/>
<circle cx="395" cy="397" r="1" fill="#27AAE1"/>
<circle cx="417" cy="397" r="1" fill="#27AAE1"/>
<circle cx="439" cy="397" r="1" fill="#27AAE1"/>
<circle cx="461" cy="397" r="1" fill="#27AAE1"/>
<circle cx="483" cy="397" r="1" fill="#27AAE1"/>
<circle cx="505" cy="397" r="1" fill="#27AAE1"/>
<circle cx="527" cy="397" r="1" fill="#27AAE1"/>
<circle cx="549" cy="397" r="1" fill="#27AAE1"/>
<circle cx="571" cy="397" r="1" fill="#27AAE1"/>
<circle cx="593" cy="397" r="1" fill="#27AAE1"/>
<circle cx="615" cy="397" r="1" fill="#27AAE1"/>
<circle cx="637" cy="397" r="1" fill="#27AAE1"/>
<circle cx="659" cy="397" r="1" fill="#27AAE1"/>
<circle cx="681" cy="397" r="1" fill="#27AAE1"/>
<circle cx="703" cy="397" r="1" fill="#27AAE1"/>
<circle cx="725" cy="397" r="1" fill="#27AAE1"/>
<circle cx="747" cy="397" r="1" fill="#27AAE1"/>
<circle cx="769" cy="397" r="1" fill="#27AAE1"/>
<circle cx="791" cy="397" r="1" fill="#27AAE1"/>
<circle cx="813" cy="397" r="1" fill="#27AAE1"/>
<circle cx="835" cy="397" r="1" fill="#27AAE1"/>
<circle cx="857" cy="397" r="1" fill="#27AAE1"/>
<circle cx="879" cy="397" r="1" fill="#27AAE1"/>
<circle cx="901" cy="397" r="1" fill="#27AAE1"/>
<circle cx="923" cy="397" r="1" fill="#27AAE1"/>
<circle cx="945" cy="397" r="1" fill="#27AAE1"/>
<circle cx="967" cy="397" r="1" fill="#27AAE1"/>
<circle cx="989" cy="397" r="1" fill="#27AAE1"/>
<circle cx="1011" cy="397" r="1" fill="#27AAE1"/>
<circle cx="21" cy="419" r="1" fill="#27AAE1"/>
<circle cx="43" cy="419" r="1" fill="#27AAE1"/>
<circle cx="65" cy="419" r="1" fill="#27AAE1"/>
<circle cx="87" cy="419" r="1" fill="#27AAE1"/>
<circle cx="109" cy="419" r="1" fill="#27AAE1"/>
<circle cx="131" cy="419" r="1" fill="#27AAE1"/>
<circle cx="153" cy="419" r="1" fill="#27AAE1"/>
<circle cx="175" cy="419" r="1" fill="#27AAE1"/>
<circle cx="197" cy="419" r="1" fill="#27AAE1"/>
<circle cx="219" cy="419" r="1" fill="#27AAE1"/>
<circle cx="241" cy="419" r="1" fill="#27AAE1"/>
<circle cx="263" cy="419" r="1" fill="#27AAE1"/>
<circle cx="285" cy="419" r="1" fill="#27AAE1"/>
<circle cx="307" cy="419" r="1" fill="#27AAE1"/>
<circle cx="329" cy="419" r="1" fill="#27AAE1"/>
<circle cx="351" cy="419" r="1" fill="#27AAE1"/>
<circle cx="373" cy="419" r="1" fill="#27AAE1"/>
<circle cx="395" cy="419" r="1" fill="#27AAE1"/>
<circle cx="417" cy="419" r="1" fill="#27AAE1"/>
<circle cx="439" cy="419" r="1" fill="#27AAE1"/>
<circle cx="461" cy="419" r="1" fill="#27AAE1"/>
<circle cx="483" cy="419" r="1" fill="#27AAE1"/>
<circle cx="505" cy="419" r="1" fill="#27AAE1"/>
<circle cx="527" cy="419" r="1" fill="#27AAE1"/>
<circle cx="549" cy="419" r="1" fill="#27AAE1"/>
<circle cx="571" cy="419" r="1" fill="#27AAE1"/>
<circle cx="593" cy="419" r="1" fill="#27AAE1"/>
<circle cx="615" cy="419" r="1" fill="#27AAE1"/>
<circle cx="637" cy="419" r="1" fill="#27AAE1"/>
<circle cx="659" cy="419" r="1" fill="#27AAE1"/>
<circle cx="681" cy="419" r="1" fill="#27AAE1"/>
<circle cx="703" cy="419" r="1" fill="#27AAE1"/>
<circle cx="725" cy="419" r="1" fill="#27AAE1"/>
<circle cx="747" cy="419" r="1" fill="#27AAE1"/>
<circle cx="769" cy="419" r="1" fill="#27AAE1"/>
<circle cx="791" cy="419" r="1" fill="#27AAE1"/>
<circle cx="813" cy="419" r="1" fill="#27AAE1"/>
<circle cx="835" cy="419" r="1" fill="#27AAE1"/>
<circle cx="857" cy="419" r="1" fill="#27AAE1"/>
<circle cx="879" cy="419" r="1" fill="#27AAE1"/>
<circle cx="901" cy="419" r="1" fill="#27AAE1"/>
<circle cx="923" cy="419" r="1" fill="#27AAE1"/>
<circle cx="945" cy="419" r="1" fill="#27AAE1"/>
<circle cx="967" cy="419" r="1" fill="#27AAE1"/>
<circle cx="989" cy="419" r="1" fill="#27AAE1"/>
<circle cx="1011" cy="419" r="1" fill="#27AAE1"/>
<circle cx="21" cy="441" r="1" fill="#27AAE1"/>
<circle cx="43" cy="441" r="1" fill="#27AAE1"/>
<circle cx="65" cy="441" r="1" fill="#27AAE1"/>
<circle cx="87" cy="441" r="1" fill="#27AAE1"/>
<circle cx="109" cy="441" r="1" fill="#27AAE1"/>
<circle cx="131" cy="441" r="1" fill="#27AAE1"/>
<circle cx="153" cy="441" r="1" fill="#27AAE1"/>
<circle cx="175" cy="441" r="1" fill="#27AAE1"/>
<circle cx="197" cy="441" r="1" fill="#27AAE1"/>
<circle cx="219" cy="441" r="1" fill="#27AAE1"/>
<circle cx="241" cy="441" r="1" fill="#27AAE1"/>
<circle cx="263" cy="441" r="1" fill="#27AAE1"/>
<circle cx="285" cy="441" r="1" fill="#27AAE1"/>
<circle cx="307" cy="441" r="1" fill="#27AAE1"/>
<circle cx="329" cy="441" r="1" fill="#27AAE1"/>
<circle cx="351" cy="441" r="1" fill="#27AAE1"/>
<circle cx="373" cy="441" r="1" fill="#27AAE1"/>
<circle cx="395" cy="441" r="1" fill="#27AAE1"/>
<circle cx="417" cy="441" r="1" fill="#27AAE1"/>
<circle cx="439" cy="441" r="1" fill="#27AAE1"/>
<circle cx="461" cy="441" r="1" fill="#27AAE1"/>
<circle cx="483" cy="441" r="1" fill="#27AAE1"/>
<circle cx="505" cy="441" r="1" fill="#27AAE1"/>
<circle cx="527" cy="441" r="1" fill="#27AAE1"/>
<circle cx="549" cy="441" r="1" fill="#27AAE1"/>
<circle cx="571" cy="441" r="1" fill="#27AAE1"/>
<circle cx="593" cy="441" r="1" fill="#27AAE1"/>
<circle cx="615" cy="441" r="1" fill="#27AAE1"/>
<circle cx="637" cy="441" r="1" fill="#27AAE1"/>
<circle cx="659" cy="441" r="1" fill="#27AAE1"/>
<circle cx="681" cy="441" r="1" fill="#27AAE1"/>
<circle cx="703" cy="441" r="1" fill="#27AAE1"/>
<circle cx="725" cy="441" r="1" fill="#27AAE1"/>
<circle cx="747" cy="441" r="1" fill="#27AAE1"/>
<circle cx="769" cy="441" r="1" fill="#27AAE1"/>
<circle cx="791" cy="441" r="1" fill="#27AAE1"/>
<circle cx="813" cy="441" r="1" fill="#27AAE1"/>
<circle cx="835" cy="441" r="1" fill="#27AAE1"/>
<circle cx="857" cy="441" r="1" fill="#27AAE1"/>
<circle cx="879" cy="441" r="1" fill="#27AAE1"/>
<circle cx="901" cy="441" r="1" fill="#27AAE1"/>
<circle cx="923" cy="441" r="1" fill="#27AAE1"/>
<circle cx="945" cy="441" r="1" fill="#27AAE1"/>
<circle cx="967" cy="441" r="1" fill="#27AAE1"/>
<circle cx="989" cy="441" r="1" fill="#27AAE1"/>
<circle cx="1011" cy="441" r="1" fill="#27AAE1"/>
<circle cx="351" cy="111" r="1" fill="#27AAE1"/>
<circle cx="549" cy="111" r="1" fill="#27AAE1"/>
<circle cx="527" cy="111" r="1" fill="#27AAE1"/>
<circle cx="505" cy="111" r="1" fill="#27AAE1"/>
<circle cx="483" cy="111" r="1" fill="#27AAE1"/>
<circle cx="461" cy="111" r="1" fill="#27AAE1"/>
<circle cx="439" cy="111" r="1" fill="#27AAE1"/>
<circle cx="417" cy="111" r="1" fill="#27AAE1"/>
<circle cx="395" cy="111" r="1" fill="#27AAE1"/>
<circle cx="373" cy="111" r="1" fill="#27AAE1"/>
<path d="M572 111C572 111.552 571.552 112 571 112C570.448 112 570 111.552 570 111C570 110.448 570.448 110 571 110C571.552 110 572 110.448 572 111Z" fill="#27AAE1"/>
<circle cx="769" cy="111" r="1" fill="#27AAE1"/>
<path d="M748 111C748 111.552 747.552 112 747 112C746.448 112 746 111.552 746 111C746 110.448 746.448 110 747 110C747.552 110 748 110.448 748 111Z" fill="#27AAE1"/>
<circle cx="725" cy="111" r="1" fill="#27AAE1"/>
<circle cx="703" cy="111" r="1" fill="#27AAE1"/>
<circle cx="681" cy="111" r="1" fill="#27AAE1"/>
<circle cx="659" cy="111" r="1" fill="#27AAE1"/>
<circle cx="637" cy="111" r="1" fill="#27AAE1"/>
<circle cx="923" cy="111" r="1" fill="#27AAE1"/>
<circle cx="901" cy="111" r="1" fill="#27AAE1"/>
<circle cx="879" cy="111" r="1" fill="#27AAE1"/>
<circle cx="857" cy="111" r="1" fill="#27AAE1"/>
<circle cx="835" cy="111" r="1" fill="#27AAE1"/>
<circle cx="813" cy="111" r="1" fill="#27AAE1"/>
<circle cx="791" cy="111" r="1" fill="#27AAE1"/>
<circle cx="615" cy="111" r="1" fill="#27AAE1"/>
<circle cx="593" cy="111" r="1" fill="#27AAE1"/>
<circle cx="351" cy="133" r="1" fill="#27AAE1"/>
<circle cx="549" cy="133" r="1" fill="#27AAE1"/>
<circle cx="527" cy="133" r="1" fill="#27AAE1"/>
<circle cx="505" cy="133" r="1" fill="#27AAE1"/>
<circle cx="483" cy="133" r="1" fill="#27AAE1"/>
<circle cx="461" cy="133" r="1" fill="#27AAE1"/>
<circle cx="439" cy="133" r="1" fill="#27AAE1"/>
<circle cx="417" cy="133" r="1" fill="#27AAE1"/>
<circle cx="395" cy="133" r="1" fill="#27AAE1"/>
<circle cx="373" cy="133" r="1" fill="#27AAE1"/>
<path d="M572 133C572 133.552 571.552 134 571 134C570.448 134 570 133.552 570 133C570 132.448 570.448 132 571 132C571.552 132 572 132.448 572 133Z" fill="#27AAE1"/>
<circle cx="769" cy="133" r="1" fill="#27AAE1"/>
<path d="M748 133C748 133.552 747.552 134 747 134C746.448 134 746 133.552 746 133C746 132.448 746.448 132 747 132C747.552 132 748 132.448 748 133Z" fill="#27AAE1"/>
<circle cx="725" cy="133" r="1" fill="#27AAE1"/>
<circle cx="703" cy="133" r="1" fill="#27AAE1"/>
<circle cx="681" cy="133" r="1" fill="#27AAE1"/>
<circle cx="659" cy="133" r="1" fill="#27AAE1"/>
<circle cx="637" cy="133" r="1" fill="#27AAE1"/>
<circle cx="923" cy="133" r="1" fill="#27AAE1"/>
<circle cx="901" cy="133" r="1" fill="#27AAE1"/>
<circle cx="879" cy="133" r="1" fill="#27AAE1"/>
<circle cx="857" cy="133" r="1" fill="#27AAE1"/>
<circle cx="835" cy="133" r="1" fill="#27AAE1"/>
<circle cx="813" cy="133" r="1" fill="#27AAE1"/>
<circle cx="791" cy="133" r="1" fill="#27AAE1"/>
<circle cx="615" cy="133" r="1" fill="#27AAE1"/>
<circle cx="593" cy="133" r="1" fill="#27AAE1"/>
<circle cx="351" cy="155" r="1" fill="#27AAE1"/>
<circle cx="549" cy="155" r="1" fill="#27AAE1"/>
<circle cx="527" cy="155" r="1" fill="#27AAE1"/>
<circle cx="505" cy="155" r="1" fill="#27AAE1"/>
<circle cx="483" cy="155" r="1" fill="#27AAE1"/>
<circle cx="461" cy="155" r="1" fill="#27AAE1"/>
<circle cx="439" cy="155" r="1" fill="#27AAE1"/>
<circle cx="417" cy="155" r="1" fill="#27AAE1"/>
<circle cx="395" cy="155" r="1" fill="#27AAE1"/>
<circle cx="373" cy="155" r="1" fill="#27AAE1"/>
<path d="M572 155C572 155.552 571.552 156 571 156C570.448 156 570 155.552 570 155C570 154.448 570.448 154 571 154C571.552 154 572 154.448 572 155Z" fill="#27AAE1"/>
<circle cx="769" cy="155" r="1" fill="#27AAE1"/>
<path d="M748 155C748 155.552 747.552 156 747 156C746.448 156 746 155.552 746 155C746 154.448 746.448 154 747 154C747.552 154 748 154.448 748 155Z" fill="#27AAE1"/>
<circle cx="725" cy="155" r="1" fill="#27AAE1"/>
<circle cx="703" cy="155" r="1" fill="#27AAE1"/>
<circle cx="681" cy="155" r="1" fill="#27AAE1"/>
<circle cx="659" cy="155" r="1" fill="#27AAE1"/>
<circle cx="637" cy="155" r="1" fill="#27AAE1"/>
<circle cx="923" cy="155" r="1" fill="#27AAE1"/>
<circle cx="901" cy="155" r="1" fill="#27AAE1"/>
<circle cx="879" cy="155" r="1" fill="#27AAE1"/>
<circle cx="857" cy="155" r="1" fill="#27AAE1"/>
<circle cx="835" cy="155" r="1" fill="#27AAE1"/>
<circle cx="813" cy="155" r="1" fill="#27AAE1"/>
<circle cx="791" cy="155" r="1" fill="#27AAE1"/>
<circle cx="615" cy="155" r="1" fill="#27AAE1"/>
<circle cx="593" cy="155" r="1" fill="#27AAE1"/>
<circle cx="329" cy="265" r="1" fill="#27AAE1"/>
<circle cx="527" cy="265" r="1" fill="#27AAE1"/>
<circle cx="505" cy="265" r="1" fill="#27AAE1"/>
<circle cx="483" cy="265" r="1" fill="#27AAE1"/>
<circle cx="461" cy="265" r="1" fill="#27AAE1"/>
<circle cx="439" cy="265" r="1" fill="#27AAE1"/>
<circle cx="417" cy="265" r="1" fill="#27AAE1"/>
<circle cx="395" cy="265" r="1" fill="#27AAE1"/>
<circle cx="373" cy="265" r="1" fill="#27AAE1"/>
<circle cx="351" cy="265" r="1" fill="#27AAE1"/>
<path d="M550 265C550 265.552 549.552 266 549 266C548.448 266 548 265.552 548 265C548 264.448 548.448 264 549 264C549.552 264 550 264.448 550 265Z" fill="#27AAE1"/>
<circle cx="747" cy="265" r="1" fill="#27AAE1"/>
<path d="M726 265C726 265.552 725.552 266 725 266C724.448 266 724 265.552 724 265C724 264.448 724.448 264 725 264C725.552 264 726 264.448 726 265Z" fill="#27AAE1"/>
<circle cx="703" cy="265" r="1" fill="#27AAE1"/>
<circle cx="681" cy="265" r="1" fill="#27AAE1"/>
<circle cx="659" cy="265" r="1" fill="#27AAE1"/>
<circle cx="637" cy="265" r="1" fill="#27AAE1"/>
<circle cx="615" cy="265" r="1" fill="#27AAE1"/>
<circle cx="901" cy="265" r="1" fill="#27AAE1"/>
<circle cx="879" cy="265" r="1" fill="#27AAE1"/>
<circle cx="857" cy="265" r="1" fill="#27AAE1"/>
<circle cx="835" cy="265" r="1" fill="#27AAE1"/>
<circle cx="813" cy="265" r="1" fill="#27AAE1"/>
<circle cx="791" cy="265" r="1" fill="#27AAE1"/>
<circle cx="769" cy="265" r="1" fill="#27AAE1"/>
<circle cx="593" cy="265" r="1" fill="#27AAE1"/>
<circle cx="571" cy="265" r="1" fill="#27AAE1"/>
<circle cx="329" cy="287" r="1" fill="#27AAE1"/>
<circle cx="527" cy="287" r="1" fill="#27AAE1"/>
<circle cx="505" cy="287" r="1" fill="#27AAE1"/>
<circle cx="483" cy="287" r="1" fill="#27AAE1"/>
<circle cx="461" cy="287" r="1" fill="#27AAE1"/>
<circle cx="439" cy="287" r="1" fill="#27AAE1"/>
<circle cx="417" cy="287" r="1" fill="#27AAE1"/>
<circle cx="395" cy="287" r="1" fill="#27AAE1"/>
<circle cx="373" cy="287" r="1" fill="#27AAE1"/>
<circle cx="351" cy="287" r="1" fill="#27AAE1"/>
<circle cx="351" cy="177" r="1" fill="#27AAE1"/>
<circle cx="373" cy="177" r="1" fill="#27AAE1"/>
<circle cx="395" cy="177" r="1" fill="#27AAE1"/>
<circle cx="417" cy="177" r="1" fill="#27AAE1"/>
<circle cx="439" cy="177" r="1" fill="#27AAE1"/>
<circle cx="461" cy="177" r="1" fill="#27AAE1"/>
<circle cx="483" cy="177" r="1" fill="#27AAE1"/>
<circle cx="505" cy="177" r="1" fill="#27AAE1"/>
<circle cx="527" cy="177" r="1" fill="#27AAE1"/>
<circle cx="549" cy="177" r="1" fill="#27AAE1"/>
<circle cx="571" cy="177" r="1" fill="#27AAE1"/>
<circle cx="593" cy="177" r="1" fill="#27AAE1"/>
<circle cx="615" cy="177" r="1" fill="#27AAE1"/>
<circle cx="637" cy="177" r="1" fill="#27AAE1"/>
<circle cx="659" cy="177" r="1" fill="#27AAE1"/>
<circle cx="681" cy="177" r="1" fill="#27AAE1"/>
<circle cx="703" cy="177" r="1" fill="#27AAE1"/>
<circle cx="725" cy="177" r="1" fill="#27AAE1"/>
<circle cx="747" cy="177" r="1" fill="#27AAE1"/>
<circle cx="769" cy="177" r="1" fill="#27AAE1"/>
<circle cx="351" cy="199" r="1" fill="#27AAE1"/>
<circle cx="373" cy="199" r="1" fill="#27AAE1"/>
<circle cx="395" cy="199" r="1" fill="#27AAE1"/>
<circle cx="417" cy="199" r="1" fill="#27AAE1"/>
<circle cx="439" cy="199" r="1" fill="#27AAE1"/>
<circle cx="461" cy="199" r="1" fill="#27AAE1"/>
<circle cx="483" cy="199" r="1" fill="#27AAE1"/>
<circle cx="505" cy="199" r="1" fill="#27AAE1"/>
<circle cx="527" cy="199" r="1" fill="#27AAE1"/>
<circle cx="549" cy="199" r="1" fill="#27AAE1"/>
<circle cx="571" cy="199" r="1" fill="#27AAE1"/>
<circle cx="593" cy="199" r="1" fill="#27AAE1"/>
<circle cx="615" cy="199" r="1" fill="#27AAE1"/>
<circle cx="637" cy="199" r="1" fill="#27AAE1"/>
<circle cx="659" cy="199" r="1" fill="#27AAE1"/>
<circle cx="681" cy="199" r="1" fill="#27AAE1"/>
<circle cx="703" cy="199" r="1" fill="#27AAE1"/>
<circle cx="725" cy="199" r="1" fill="#27AAE1"/>
<circle cx="747" cy="199" r="1" fill="#27AAE1"/>
<circle cx="769" cy="199" r="1" fill="#27AAE1"/>
<circle cx="351" cy="221" r="1" fill="#27AAE1"/>
<circle cx="373" cy="221" r="1" fill="#27AAE1"/>
<circle cx="395" cy="221" r="1" fill="#27AAE1"/>
<circle cx="417" cy="221" r="1" fill="#27AAE1"/>
<circle cx="439" cy="221" r="1" fill="#27AAE1"/>
<circle cx="461" cy="221" r="1" fill="#27AAE1"/>
<circle cx="483" cy="221" r="1" fill="#27AAE1"/>
<circle cx="505" cy="221" r="1" fill="#27AAE1"/>
<circle cx="527" cy="221" r="1" fill="#27AAE1"/>
<circle cx="549" cy="221" r="1" fill="#27AAE1"/>
<circle cx="571" cy="221" r="1" fill="#27AAE1"/>
<circle cx="593" cy="221" r="1" fill="#27AAE1"/>
<circle cx="615" cy="221" r="1" fill="#27AAE1"/>
<circle cx="637" cy="221" r="1" fill="#27AAE1"/>
<circle cx="659" cy="221" r="1" fill="#27AAE1"/>
<circle cx="681" cy="221" r="1" fill="#27AAE1"/>
<circle cx="703" cy="221" r="1" fill="#27AAE1"/>
<circle cx="725" cy="221" r="1" fill="#27AAE1"/>
<circle cx="747" cy="221" r="1" fill="#27AAE1"/>
<circle cx="769" cy="221" r="1" fill="#27AAE1"/>
<path d="M550 287C550 287.552 549.552 288 549 288C548.448 288 548 287.552 548 287C548 286.448 548.448 286 549 286C549.552 286 550 286.448 550 287Z" fill="#27AAE1"/>
<circle cx="747" cy="287" r="1" fill="#27AAE1"/>
<path d="M726 287C726 287.552 725.552 288 725 288C724.448 288 724 287.552 724 287C724 286.448 724.448 286 725 286C725.552 286 726 286.448 726 287Z" fill="#27AAE1"/>
<circle cx="703" cy="287" r="1" fill="#27AAE1"/>
<circle cx="681" cy="287" r="1" fill="#27AAE1"/>
<circle cx="659" cy="287" r="1" fill="#27AAE1"/>
<circle cx="637" cy="287" r="1" fill="#27AAE1"/>
<circle cx="615" cy="287" r="1" fill="#27AAE1"/>
<circle cx="901" cy="287" r="1" fill="#27AAE1"/>
<circle cx="879" cy="287" r="1" fill="#27AAE1"/>
<circle cx="857" cy="287" r="1" fill="#27AAE1"/>
<circle cx="835" cy="287" r="1" fill="#27AAE1"/>
<circle cx="813" cy="287" r="1" fill="#27AAE1"/>
<circle cx="791" cy="287" r="1" fill="#27AAE1"/>
<circle cx="769" cy="287" r="1" fill="#27AAE1"/>
<circle cx="593" cy="287" r="1" fill="#27AAE1"/>
<circle cx="571" cy="287" r="1" fill="#27AAE1"/>
</g>
</svg>
