<?xml version="1.0" encoding="utf-8"?><svg viewBox="0 0 100 71" xmlns="http://www.w3.org/2000/svg" xmlns:xlink="http://www.w3.org/1999/xlink"><style>:root>svg{display:none}:root>svg:target{display:block}</style><svg viewBox="0 0 20 17" id="all-lessons" xmlns="http://www.w3.org/2000/svg"><rect x="1" y="1.51392" width="18" height="4.99717" rx="1" stroke-width="2"/><rect x="1" y="10.4858" width="18" height="5" rx="1" stroke-width="2"/></svg><svg viewBox="0 0 10 7" id="arrow-bottom" xmlns="http://www.w3.org/2000/svg"><path d="M1 1L5 5L9 1" stroke-width="2" stroke-linecap="round"/></svg><svg viewBox="0 0 18 19" id="facebook" xmlns="http://www.w3.org/2000/svg"><path d="M17.7188 9.70703C17.7188 4.89062 13.8164 0.988281 9 0.988281C4.18359 0.988281 0.28125 4.89062 0.28125 9.70703C0.28125 14.0664 3.44531 17.6875 7.62891 18.3203V12.2383H5.41406V9.70703H7.62891V7.80859C7.62891 5.62891 8.92969 4.39844 10.8984 4.39844C11.8828 4.39844 12.8672 4.57422 12.8672 4.57422V6.71875H11.7773C10.6875 6.71875 10.3359 7.38672 10.3359 8.08984V9.70703H12.7617L12.375 12.2383H10.3359V18.3203C14.5195 17.6875 17.7188 14.0664 17.7188 9.70703Z"/></svg><svg viewBox="0 0 16 17" id="inst" xmlns="http://www.w3.org/2000/svg"><path d="M5.02734 5.85938C5.82422 5.0625 6.78516 4.66406 7.91016 4.66406C9.03516 4.66406 9.98438 5.0625 10.7578 5.85938C11.5547 6.63281 11.9531 7.58203 11.9531 8.70703C11.9531 9.83203 11.5547 10.793 10.7578 11.5898C9.98438 12.3633 9.03516 12.75 7.91016 12.75C6.78516 12.75 5.82422 12.3633 5.02734 11.5898C4.25391 10.793 3.86719 9.83203 3.86719 8.70703C3.86719 7.58203 4.25391 6.63281 5.02734 5.85938ZM6.04688 10.5703C6.5625 11.0859 7.18359 11.3438 7.91016 11.3438C8.63672 11.3438 9.25781 11.0859 9.77344 10.5703C10.2891 10.0547 10.5469 9.43359 10.5469 8.70703C10.5469 7.98047 10.2891 7.35938 9.77344 6.84375C9.25781 6.32812 8.63672 6.07031 7.91016 6.07031C7.18359 6.07031 6.5625 6.32812 6.04688 6.84375C5.53125 7.35938 5.27344 7.98047 5.27344 8.70703C5.27344 9.43359 5.53125 10.0547 6.04688 10.5703ZM12.7617 3.85547C12.9492 4.01953 13.043 4.23047 13.043 4.48828C13.043 4.74609 12.9492 4.96875 12.7617 5.15625C12.5977 5.34375 12.3867 5.4375 12.1289 5.4375C11.8711 5.4375 11.6484 5.34375 11.4609 5.15625C11.2734 4.96875 11.1797 4.74609 11.1797 4.48828C11.1797 4.23047 11.2734 4.01953 11.4609 3.85547C11.6484 3.66797 11.8711 3.57422 12.1289 3.57422C12.3867 3.57422 12.5977 3.66797 12.7617 3.85547ZM15.75 5.47266C15.7734 6.10547 15.7852 7.18359 15.7852 8.70703C15.7852 10.2305 15.7734 11.3086 15.75 11.9414C15.6797 13.3711 15.2461 14.4844 14.4492 15.2812C13.6758 16.0547 12.5742 16.4648 11.1445 16.5117C10.5117 16.5586 9.43359 16.582 7.91016 16.582C6.38672 16.582 5.30859 16.5586 4.67578 16.5117C3.24609 16.4414 2.14453 16.0195 1.37109 15.2461C1.06641 14.9648 0.820312 14.6367 0.632812 14.2617C0.445312 13.8867 0.304688 13.5234 0.210938 13.1719C0.140625 12.8203 0.105469 12.4102 0.105469 11.9414C0.0585937 11.3086 0.0351562 10.2305 0.0351562 8.70703C0.0351562 7.18359 0.0585937 6.09375 0.105469 5.4375C0.175781 4.03125 0.597656 2.94141 1.37109 2.16797C2.14453 1.37109 3.24609 0.9375 4.67578 0.867188C5.30859 0.84375 6.38672 0.832031 7.91016 0.832031C9.43359 0.832031 10.5117 0.84375 11.1445 0.867188C12.5742 0.9375 13.6758 1.37109 14.4492 2.16797C15.2461 2.94141 15.6797 4.04297 15.75 5.47266ZM14.0625 13.3477C14.1328 13.1602 14.1914 12.9258 14.2383 12.6445C14.2852 12.3398 14.3203 11.9883 14.3438 11.5898C14.3672 11.168 14.3789 10.8281 14.3789 10.5703C14.3789 10.3125 14.3789 9.94922 14.3789 9.48047C14.3789 9.01172 14.3789 8.75391 14.3789 8.70703C14.3789 8.63672 14.3789 8.37891 14.3789 7.93359C14.3789 7.46484 14.3789 7.10156 14.3789 6.84375C14.3789 6.58594 14.3672 6.25781 14.3438 5.85938C14.3203 5.4375 14.2852 5.08594 14.2383 4.80469C14.1914 4.5 14.1328 4.25391 14.0625 4.06641C13.7812 3.33984 13.2773 2.83594 12.5508 2.55469C12.3633 2.48438 12.1172 2.42578 11.8125 2.37891C11.5312 2.33203 11.1797 2.29688 10.7578 2.27344C10.3594 2.25 10.0312 2.23828 9.77344 2.23828C9.53906 2.23828 9.17578 2.23828 8.68359 2.23828C8.21484 2.23828 7.95703 2.23828 7.91016 2.23828C7.86328 2.23828 7.60547 2.23828 7.13672 2.23828C6.66797 2.23828 6.30469 2.23828 6.04688 2.23828C5.78906 2.23828 5.44922 2.25 5.02734 2.27344C4.62891 2.29688 4.27734 2.33203 3.97266 2.37891C3.69141 2.42578 3.45703 2.48438 3.26953 2.55469C2.54297 2.83594 2.03906 3.33984 1.75781 4.06641C1.6875 4.25391 1.62891 4.5 1.58203 4.80469C1.53516 5.08594 1.5 5.4375 1.47656 5.85938C1.45312 6.25781 1.44141 6.58594 1.44141 6.84375C1.44141 7.07812 1.44141 7.44141 1.44141 7.93359C1.44141 8.40234 1.44141 8.66016 1.44141 8.70703C1.44141 8.80078 1.44141 9.02344 1.44141 9.375C1.44141 9.70312 1.44141 9.98438 1.44141 10.2188C1.44141 10.4297 1.44141 10.7109 1.44141 11.0625C1.46484 11.4141 1.48828 11.7188 1.51172 11.9766C1.53516 12.2109 1.57031 12.457 1.61719 12.7148C1.66406 12.9727 1.71094 13.1836 1.75781 13.3477C2.0625 14.0742 2.56641 14.5781 3.26953 14.8594C3.45703 14.9297 3.69141 14.9883 3.97266 15.0352C4.27734 15.082 4.62891 15.1172 5.02734 15.1406C5.44922 15.1641 5.77734 15.1758 6.01172 15.1758C6.26953 15.1758 6.63281 15.1758 7.10156 15.1758C7.59375 15.1758 7.86328 15.1758 7.91016 15.1758C7.98047 15.1758 8.23828 15.1758 8.68359 15.1758C9.15234 15.1758 9.51562 15.1758 9.77344 15.1758C10.0312 15.1758 10.3594 15.1641 10.7578 15.1406C11.1797 15.1172 11.5312 15.082 11.8125 15.0352C12.1172 14.9883 12.3633 14.9297 12.5508 14.8594C13.2773 14.5547 13.7812 14.0508 14.0625 13.3477Z"/></svg><svg viewBox="0 0 17 20" id="location" xmlns="http://www.w3.org/2000/svg"><path d="M16 8.5C16 11.3282 14.13 13.9545 12.0535 15.9699C11.036 16.9575 10.0146 17.754 9.24613 18.304C8.95504 18.5123 8.70155 18.6843 8.5 18.8171C8.29845 18.6843 8.04496 18.5123 7.75387 18.304C6.98537 17.754 5.96395 16.9575 4.94648 15.9699C2.86999 13.9545 1 11.3282 1 8.5C1 4.35786 4.35786 1 8.5 1C12.6421 1 16 4.35786 16 8.5Z" stroke-width="2"/><circle id="elocation-c" cx="8.5" cy="7.5" r="2.5"/></svg><svg viewBox="0 0 100 71" id="logo" xmlns="http://www.w3.org/2000/svg"><path d="M16.4671 70.6464C7.38524 70.6464 0 63.2611 0 54.1793C0 45.0974 7.38524 37.7122 16.4671 37.7122C25.549 37.7122 32.9342 45.0974 32.9342 54.1793C32.9342 63.311 25.549 70.6464 16.4671 70.6464Z"/><path d="M16.4671 70.6464C7.38524 70.6464 0 63.2611 0 54.1793C0 45.0974 7.38524 37.7122 16.4671 37.7122C25.549 37.7122 32.9342 45.0974 32.9342 54.1793C32.9342 63.311 25.549 70.6464 16.4671 70.6464Z"/><path d="M55.3895 1.8336L37.5251 31.0253C37.0261 31.8736 37.575 32.9215 38.5232 32.9215H56.3875H74.2518C75.1999 32.9215 75.7488 31.8237 75.2498 31.0253L57.3855 1.8336C56.8865 1.08509 55.8386 1.08509 55.3895 1.8336Z"/><path d="M32.5847 6.77396L26.1475 0.336827C25.6984 -0.112276 24.9 -0.112276 24.4509 0.336827L17.3651 7.42267C16.916 7.87177 16.1176 7.87177 15.6685 7.42267L8.58263 0.336827C8.13353 -0.112276 7.33513 -0.112276 6.88602 0.336827L0.448888 6.77396C-0.000215136 7.22307 -0.000215136 8.02147 0.448888 8.47058L7.53472 15.5564C7.98382 16.0055 7.98382 16.8039 7.53472 17.253L0.448888 24.3389C-0.000215136 24.788 -0.000215136 25.5864 0.448888 26.0355L6.88602 32.4726C7.33513 32.9217 8.13353 32.9217 8.58263 32.4726L15.6685 25.3868C16.1176 24.9377 16.916 24.9377 17.3651 25.3868L24.4509 32.4726C24.9 32.9217 25.6984 32.9217 26.1475 32.4726L32.5847 26.0355C33.0338 25.5864 33.0338 24.788 32.5847 24.3389L25.4988 17.253C25.0497 16.8039 25.0497 16.0055 25.4988 15.5564L32.5847 8.47058C33.0837 8.02147 33.0837 7.27297 32.5847 6.77396Z"/><path d="M40.6685 49.0892V51.185H44.3112V52.6321H40.6685V55.4764H38.8721V47.6421H44.7603V49.0892H40.6685Z"/><path d="M47.2058 54.678C46.607 54.0792 46.2577 53.181 46.2577 52.0333V47.6421H48.0541V51.9335C48.0541 53.3307 48.6529 54.0293 49.8006 54.0293C50.3495 54.0293 50.7986 53.8796 51.098 53.5303C51.3974 53.181 51.5471 52.682 51.5471 51.9335V47.6421H53.3435V52.0333C53.3435 53.181 53.0441 54.0792 52.3954 54.678C51.7966 55.2768 50.8984 55.6261 49.8006 55.6261C48.7028 55.6261 47.8046 55.2768 47.2058 54.678Z"/><path d="M56.9361 49.1391H54.441V47.6421H61.2275V49.1391H58.7325V55.4764H56.9361V49.1391Z"/><path d="M63.2733 54.678C62.6745 54.0792 62.3252 53.181 62.3252 52.0333V47.6421H64.1216V51.9335C64.1216 53.3307 64.7204 54.0293 65.8681 54.0293C66.417 54.0293 66.8661 53.8796 67.1655 53.5303C67.4649 53.181 67.6146 52.682 67.6146 51.9335V47.6421H69.411V52.0333C69.411 53.181 69.1116 54.0792 68.4629 54.678C67.8641 55.2768 66.9659 55.6261 65.8681 55.6261C64.7703 55.6261 63.922 55.2768 63.2733 54.678Z"/><path d="M76.4971 55.4768L75.0001 53.2812H74.9003H73.3035V55.4768H71.5071V47.6924H74.9003C75.5989 47.6924 76.1977 47.7922 76.6967 48.0417C77.1957 48.2912 77.5949 48.5906 77.8943 49.0397C78.1438 49.4389 78.2935 49.9878 78.2935 50.5367C78.2935 51.1355 78.1438 51.6345 77.8943 52.0337C77.5949 52.4329 77.1957 52.7822 76.6967 52.9818L78.4432 55.4768H76.4971ZM76.048 49.4888C75.7486 49.2393 75.3494 49.1395 74.8005 49.1395H73.3035V51.884H74.8005C75.3494 51.884 75.7486 51.7842 76.048 51.5347C76.3474 51.2852 76.4472 50.9858 76.4472 50.5367C76.4971 50.0377 76.3474 49.7383 76.048 49.4888Z"/><path d="M86.1279 54.0293V55.4764H80.09V47.6421H85.9782V49.0892H81.8864V50.7858H85.4792V52.2329H81.8864V54.0293H86.1279Z"/><path d="M44.012 68.2512H40.3693L39.6707 69.9478H37.8243L41.3174 62.1633H43.1138L46.6068 69.9478H44.7106L44.012 68.2512ZM43.4631 66.9039L42.2156 63.9098L40.9681 66.9039H43.4631Z"/><path d="M49.2017 69.5485C48.553 69.1992 48.054 68.7002 47.7047 68.1014C47.3554 67.5026 47.1558 66.804 47.1558 66.0056C47.1558 65.257 47.3554 64.5584 47.7047 63.9097C48.054 63.3109 48.6029 62.8119 49.2017 62.4626C49.8504 62.1133 50.549 61.9636 51.3474 61.9636C52.046 61.9636 52.6448 62.0634 53.1937 62.3129C53.7426 62.5624 54.1917 62.9117 54.5909 63.3608L53.4432 64.4087C52.8943 63.8099 52.2456 63.5105 51.4971 63.5105C50.9981 63.5105 50.5989 63.6103 50.1997 63.8099C49.8005 64.0095 49.5011 64.3089 49.3015 64.7081C49.1019 65.1073 49.0021 65.5065 49.0021 66.0056C49.0021 66.5046 49.1019 66.9038 49.3015 67.303C49.5011 67.7022 49.8005 68.0016 50.1997 68.2012C50.5989 68.4008 50.9981 68.5006 51.4971 68.5006C52.2955 68.5006 52.9442 68.2012 53.4432 67.5525L54.5909 68.6004C54.2416 69.0495 53.7426 69.3988 53.1937 69.6483C52.6448 69.8978 52.046 69.9976 51.3474 69.9976C50.5989 70.0475 49.8504 69.8978 49.2017 69.5485Z"/><path d="M61.1277 68.2512H57.485L56.7864 69.9478H54.9401L58.4331 62.1633H60.2295L63.7225 69.9478H61.8263L61.1277 68.2512ZM60.5788 66.9039L59.3313 63.9098L58.0838 66.9039H60.5788Z"/><path d="M64.8704 62.1133H68.4133C69.2616 62.1133 70.0101 62.263 70.6588 62.6123C71.3075 62.9117 71.8065 63.4107 72.1558 63.9596C72.5051 64.5584 72.7047 65.2071 72.7047 66.0055C72.7047 66.8039 72.5051 67.4526 72.1558 68.0514C71.8065 68.6502 71.3075 69.0993 70.6588 69.3987C70.0101 69.6981 69.2616 69.8977 68.4133 69.8977H64.8704V62.1133ZM68.3135 68.4506C69.1119 68.4506 69.7107 68.251 70.1598 67.8019C70.6089 67.3528 70.8584 66.754 70.8584 66.0554C70.8584 65.3069 70.6089 64.7081 70.1598 64.3089C69.7107 63.8598 69.062 63.6602 68.3135 63.6602H66.6668V68.5005H68.3135V68.4506Z"/><path d="M80.4391 68.5005V69.9476H74.4011V62.1133H80.2894V63.5604H76.1975V65.257H79.8403V66.6542H76.1975V68.5005H80.4391Z"/><path d="M89.3214 69.9476V65.257L87.026 69.0993H86.2276L83.9322 65.3568V69.9476H82.2356V62.1133H83.7326L86.6268 66.9536L89.521 62.1133H91.0181V69.9476H89.3214Z"/><path d="M96.9561 67.1532V69.9476H95.1596V67.1532L92.1157 62.1133H94.0618L96.1577 65.6063L98.2036 62.1133H100L96.9561 67.1532Z"/></svg><svg viewBox="0 0 17 15" id="tg" xmlns="http://www.w3.org/2000/svg"><path d="M16.6797 2.1875C16.8906 1.20312 16.3281 0.816406 15.6953 1.0625L1.70312 6.44141C0.753906 6.82812 0.789062 7.35547 1.5625 7.60156L5.11328 8.69141L13.4102 3.48828C13.7969 3.20703 14.1836 3.38281 13.8672 3.62891L7.15234 9.67578L6.90625 13.3672C7.29297 13.3672 7.43359 13.2266 7.64453 13.0156L9.36719 11.3281L12.9883 14C13.6562 14.3867 14.1484 14.1758 14.3242 13.4023L16.6797 2.1875Z"/></svg><svg viewBox="0 0 10 14" id="trigger-arrow" xmlns="http://www.w3.org/2000/svg"><path d="M1.87354 1.99658L7.68115 7.56201L1.87354 12.9655" stroke-width="2" stroke-linecap="round"/></svg><svg viewBox="0 0 18 19" id="user" xmlns="http://www.w3.org/2000/svg"><rect x="5.18024" y="1" width="6.63833" height="8.41108" rx="3.31917" stroke-width="2"/><path d="M1 15.4111C1 13.7543 2.34315 12.4111 4 12.4111H13.2795C14.9364 12.4111 16.2795 13.7543 16.2795 15.4111V16.3229C16.2795 16.8752 15.8318 17.3229 15.2795 17.3229H2C1.44772 17.3229 1 16.8752 1 16.3229V15.4111Z" stroke-width="2"/></svg><svg viewBox="0 0 20 12" id="vk" xmlns="http://www.w3.org/2000/svg"><path d="M19.1602 0.855469C19.0898 1.20703 18.8086 1.78125 18.3164 2.57812C17.8477 3.375 17.4141 4.07812 17.0156 4.6875C16.6172 5.27344 16.4062 5.57812 16.3828 5.60156C16.2422 5.8125 16.1719 5.96484 16.1719 6.05859C16.1719 6.15234 16.2422 6.31641 16.3828 6.55078C16.3828 6.55078 16.4531 6.63281 16.5938 6.79688C16.7578 6.96094 16.9453 7.14844 17.1562 7.35938C17.3672 7.57031 17.6016 7.81641 17.8594 8.09766C18.1172 8.37891 18.3516 8.66016 18.5625 8.94141C18.7969 9.19922 18.9961 9.46875 19.1602 9.75C19.3477 10.0312 19.4766 10.2656 19.5469 10.4531C19.7109 11.0391 19.4766 11.332 18.8438 11.332H16.7695C16.6055 11.332 16.4648 11.3086 16.3477 11.2617C16.2305 11.2148 16.1016 11.1328 15.9609 11.0156C15.8203 10.8984 15.6914 10.7695 15.5742 10.6289C15.457 10.4883 15.2812 10.2891 15.0469 10.0312C14.8125 9.77344 14.5781 9.52734 14.3438 9.29297C13.4062 8.40234 12.7148 7.95703 12.2695 7.95703C11.9883 7.95703 11.8242 8.03906 11.7773 8.20312C11.7305 8.36719 11.707 8.83594 11.707 9.60938C11.7305 9.98438 11.7422 10.2891 11.7422 10.5234C11.7422 10.8047 11.6484 11.0156 11.4609 11.1562C11.2734 11.2734 10.8633 11.332 10.2305 11.332C9.12891 11.332 8.01562 11.0039 6.89062 10.3477C5.76562 9.69141 4.78125 8.75391 3.9375 7.53516C3.14062 6.45703 2.47266 5.39062 1.93359 4.33594C1.41797 3.25781 1.07812 2.4375 0.914062 1.875C0.75 1.3125 0.667969 0.914062 0.667969 0.679688C0.667969 0.28125 0.902344 0.0820312 1.37109 0.0820312H3.44531C3.70312 0.0820312 3.89062 0.140625 4.00781 0.257812C4.14844 0.375 4.26562 0.585938 4.35938 0.890625C4.85156 2.32031 5.44922 3.59766 6.15234 4.72266C6.87891 5.84766 7.42969 6.41016 7.80469 6.41016C7.94531 6.41016 8.03906 6.36328 8.08594 6.26953C8.15625 6.15234 8.19141 5.94141 8.19141 5.63672V2.57812C8.16797 2.25 8.10938 1.96875 8.01562 1.73438C7.92188 1.5 7.82812 1.33594 7.73438 1.24219C7.64062 1.125 7.54688 1.00781 7.45312 0.890625C7.38281 0.773438 7.34766 0.667969 7.34766 0.574219C7.34766 0.480469 7.37109 0.398438 7.41797 0.328125C7.46484 0.257812 7.52344 0.199219 7.59375 0.152344C7.6875 0.105469 7.78125 0.0820312 7.875 0.0820312H11.1445C11.5195 0.0820312 11.707 0.339844 11.707 0.855469V4.93359C11.707 5.33203 11.8125 5.53125 12.0234 5.53125C12.2578 5.53125 12.5859 5.32031 13.0078 4.89844C13.4531 4.40625 13.8867 3.80859 14.3086 3.10547C14.7305 2.40234 15.0469 1.81641 15.2578 1.34766L15.5742 0.679688C15.7383 0.28125 16.0312 0.0820312 16.4531 0.0820312H18.5273C19.0898 0.0820312 19.3008 0.339844 19.1602 0.855469Z"/></svg><svg viewBox="0 0 20 15" id="youtube" xmlns="http://www.w3.org/2000/svg"><path d="M19.3008 3.10156C19.0898 2.25781 18.4219 1.58984 17.6133 1.37891C16.1016 0.957031 10.125 0.957031 10.125 0.957031C10.125 0.957031 4.11328 0.957031 2.60156 1.37891C1.79297 1.58984 1.125 2.25781 0.914062 3.10156C0.492188 4.57812 0.492188 7.74219 0.492188 7.74219C0.492188 7.74219 0.492188 10.8711 0.914062 12.3828C1.125 13.2266 1.79297 13.8594 2.60156 14.0703C4.11328 14.457 10.125 14.457 10.125 14.457C10.125 14.457 16.1016 14.457 17.6133 14.0703C18.4219 13.8594 19.0898 13.2266 19.3008 12.3828C19.7227 10.8711 19.7227 7.74219 19.7227 7.74219C19.7227 7.74219 19.7227 4.57812 19.3008 3.10156ZM8.15625 10.5898V4.89453L13.1484 7.74219L8.15625 10.5898Z"/></svg></svg>