<svg id="telegram" viewBox="0 0 21 21" xmlns="http://www.w3.org/2000/svg">
<path d="M14.0999 8.12962C14.5829 7.64662 15.0624 6.51962 13.0499 7.88812C11.1699 9.18196 9.27717 10.4572 7.37199 11.7136C7.08187 11.8448 6.76823 11.916 6.44991 11.9229C6.13159 11.9298 5.81515 11.8723 5.51961 11.7539C4.31211 11.3916 2.90249 10.9086 2.90249 10.9086C2.90249 10.9086 1.93999 10.304 3.58761 9.66C3.58761 9.66 10.5535 6.80137 12.9694 5.79425C13.8951 5.39175 17.0355 4.10375 17.0355 4.10375C17.0355 4.10375 18.4854 3.53937 18.3646 4.90875C18.3244 5.47225 18.0024 7.44625 17.6804 9.5795C17.1965 12.5991 16.6732 15.9014 16.6732 15.9014C16.6732 15.9014 16.5927 16.8271 15.9085 16.9881C15.176 16.9757 14.4683 16.7209 13.896 16.2636C13.735 16.1429 10.8764 14.3307 9.82899 13.4452C9.72244 13.3731 9.63589 13.2751 9.57737 13.1605C9.51885 13.0459 9.49027 12.9184 9.49429 12.7897C9.4983 12.6611 9.53479 12.5356 9.60034 12.4248C9.6659 12.3141 9.7584 12.2218 9.86924 12.1564C11.3058 10.8421 12.7163 9.49954 14.0999 8.12962Z"/>
</svg>
