<svg id="twitter" viewBox="0 0 19 17" xmlns="http://www.w3.org/2000/svg">
<path d="M19 3.7602C18.2853 4.03911 17.5294 4.22447 16.7556 4.31057C17.571 3.87774 18.1807 3.19236 18.4692 2.38426C17.7056 2.78943 16.8703 3.07475 15.9992 3.22789C15.4651 2.71765 14.7719 2.36293 14.0095 2.20979C13.2472 2.05666 12.451 2.1122 11.7244 2.3692C10.9978 2.6262 10.3744 3.07277 9.93513 3.65091C9.49588 4.22904 9.26111 4.91201 9.26131 5.61107C9.26131 5.88732 9.28744 6.15295 9.35156 6.40582C7.80197 6.33785 6.28586 5.97801 4.90236 5.34982C3.51885 4.72164 2.29911 3.83927 1.32287 2.76039C0.822723 3.52736 0.668098 4.43606 0.890486 5.30147C1.11287 6.16687 1.69555 6.92389 2.51988 7.41839C1.90327 7.40359 1.29969 7.25637 0.76 6.98914V7.02739C0.761033 7.83216 1.07192 8.61204 1.64031 9.23575C2.20871 9.85946 2.99992 10.2889 3.88075 10.4518C3.54752 10.5304 3.2041 10.569 2.8595 10.5666C2.61201 10.5705 2.36477 10.5506 2.12206 10.5071C2.37374 11.1988 2.85889 11.8037 3.51072 12.2385C4.16254 12.6733 4.94898 12.9166 5.76175 12.9349C4.38299 13.8997 2.68253 14.423 0.932188 14.4213C0.61275 14.4213 0.306375 14.4086 0 14.3735C1.78111 15.4005 3.85662 15.9437 5.9755 15.9375C13.1432 15.9375 17.062 10.625 17.062 6.02014C17.062 5.86607 17.0561 5.71732 17.0478 5.56964C17.816 5.07768 18.4776 4.46451 19 3.7602Z"/>
</svg>
