<svg id="youtube" viewBox="0 0 21 21"  xmlns="http://www.w3.org/2000/svg">
<path d="M20.1249 8.49624C20.1682 7.24381 19.8943 6.00075 19.3287 4.88249C18.9449 4.42363 18.4123 4.11398 17.8237 4.00749C15.389 3.78657 12.9442 3.69602 10.4999 3.73624C8.06447 3.6942 5.62852 3.78182 3.2024 3.99874C2.72274 4.08599 2.27885 4.31097 1.9249 4.64624C1.1374 5.37249 1.0499 6.61499 0.962401 7.66499C0.83545 9.55285 0.83545 11.4471 0.962401 13.335C0.987715 13.926 1.07571 14.5126 1.2249 15.085C1.3304 15.5269 1.54386 15.9358 1.84615 16.275C2.20251 16.628 2.65674 16.8658 3.1499 16.9575C5.03633 17.1903 6.93709 17.2868 8.8374 17.2462C11.8999 17.29 14.5862 17.2462 17.7624 17.0012C18.2677 16.9152 18.7347 16.6771 19.1012 16.3187C19.3461 16.0737 19.5291 15.7737 19.6349 15.4437C19.9478 14.4835 20.1015 13.4786 20.0899 12.4687C20.1249 11.9787 20.1249 9.02124 20.1249 8.49624ZM8.5224 12.9937V7.57749L13.7024 10.2987C12.2499 11.1037 10.3337 12.0137 8.5224 12.9937Z"/>
</svg>
