<svg xmlns="http://www.w3.org/2000/svg" width="854" height="767" fill="none" xmlns:v="https://vecta.io/nano"><path d="M627.217 676.973C455.02 690.284 85.273 603.92 60.841 463.642c-18.639-107.02 221.487-349.627 364.69-397.514 252.159-84.322 305.398 100.007 331.845 151.6 43.487 94.625 140.022 438.36-130.159 459.245z" fill="#7bb3cb" fill-opacity=".7"/><path d="M486.572 87.902c291.279 53.078 321.202 320.985 278.093 470.483-45.905 159.195-93.136-38.568-377.976-51.98-71.105-3.348-305.753-49.36-272.531-200.942S314.115 56.476 486.572 87.902z" fill="#fff"/><path d="M662.624 338.842c24.651 316.074-284.109 424.091-474.392 422.606-202.627-1.582 17.732-107.281-52.03-405.287-17.415-74.393-33.415-329.951 156.367-339.276s355.46 134.82 370.055 321.957z" fill="#94e79c" fill-opacity=".58"/></svg>