<svg xmlns="http://www.w3.org/2000/svg" width="89" height="80" fill="none" xmlns:v="https://vecta.io/nano"><path d="M69 52.367C69 70.858 54.496 80 35.802 80S0 65.654 0 47.164 9.113 22.75 17.576 22.75c8.095 0 15.2 7.624 22.132 10.946C48.784 38.044 69 41.883 69 52.367z" fill="#f09642"/><g clip-path="url(#A)"><g fill="#fffefc"><path d="M87.802 25.457l-6.71-.737c-.482-1.564-1.117-3.078-1.896-4.521l4.217-5.213a1.33 1.33 0 0 0-.1-1.783l-7.662-7.57c-.488-.482-1.264-.525-1.802-.099l-5.271 4.17c-1.458-.77-2.989-1.398-4.57-1.875l-.745-6.637A1.35 1.35 0 0 0 61.917 0H51.084a1.35 1.35 0 0 0-1.346 1.192l-.745 6.63c-1.581.477-3.112 1.105-4.57 1.875l-5.27-4.171c-.539-.426-1.315-.383-1.802.099l-7.662 7.579a1.33 1.33 0 0 0-.099 1.783l4.222 5.213a25.03 25.03 0 0 0-1.896 4.521l-6.71.737c-.686.075-1.205.648-1.205 1.331v10.715c0 .683.519 1.256 1.205 1.331l6.703.737a25.05 25.05 0 0 0 1.896 4.521l-4.217 5.213a1.33 1.33 0 0 0 .1 1.783l7.662 7.578c.49.48 1.266.519 1.802.091l5.27-4.17c1.458.77 2.989 1.398 4.57 1.875l.745 6.637a1.35 1.35 0 0 0 1.346 1.192h10.833a1.35 1.35 0 0 0 1.346-1.185l.745-6.637c1.581-.477 3.112-1.105 4.57-1.875l5.27 4.171c.539.426 1.315.383 1.802-.099l7.654-7.578a1.33 1.33 0 0 0 .1-1.783l-4.216-5.213a25.04 25.04 0 0 0 1.896-4.521l6.71-.737c.686-.075 1.205-.648 1.205-1.331V26.788c.001-.68-.515-1.253-1.198-1.331zm-1.51 10.848l-6.401.705a1.35 1.35 0 0 0-1.159.987 22.5 22.5 0 0 1-2.325 5.559 1.33 1.33 0 0 0 .114 1.509l4.026 4.977-5.946 5.881-5.032-3.982c-.436-.345-1.043-.39-1.526-.112-1.761 1.011-3.651 1.784-5.62 2.3-.54.142-.936.597-.998 1.147l-.712 6.338h-8.409l-.719-6.338c-.062-.549-.458-1.005-.998-1.147a23.02 23.02 0 0 1-5.62-2.3c-.483-.278-1.09-.233-1.526.112l-5.032 3.982-5.946-5.881 4.026-4.971a1.33 1.33 0 0 0 .114-1.51c-1.022-1.742-1.803-3.612-2.325-5.559a1.35 1.35 0 0 0-1.159-.987l-6.408-.704v-8.318l6.408-.711a1.35 1.35 0 0 0 1.159-.987c.522-1.947 1.304-3.816 2.325-5.559a1.33 1.33 0 0 0-.114-1.509l-4.026-4.977 5.946-5.881 5.039 3.982c.436.345 1.043.39 1.526.113 1.761-1.011 3.651-1.784 5.62-2.3.54-.142.936-.597.998-1.147l.712-6.338h8.403l.712 6.338c.062.549.458 1.005.998 1.147a23.02 23.02 0 0 1 5.62 2.3c.483.278 1.09.233 1.526-.113l5.032-3.982 5.946 5.888-4.026 4.977a1.33 1.33 0 0 0-.114 1.509 22.5 22.5 0 0 1 2.325 5.559 1.35 1.35 0 0 0 1.159.987l6.408.705v8.311z"/><path d="M86.292 36.305l-6.401.705a1.35 1.35 0 0 0-1.159.987 22.5 22.5 0 0 1-2.325 5.559 1.33 1.33 0 0 0 .114 1.509l4.026 4.977-5.946 5.881-5.032-3.982c-.436-.345-1.043-.39-1.526-.112-1.761 1.011-3.651 1.784-5.62 2.3-.54.142-.936.597-.998 1.147l-.712 6.338h-8.409l-.719-6.338c-.062-.549-.458-1.005-.998-1.147a23.02 23.02 0 0 1-5.62-2.3c-.483-.278-1.09-.233-1.526.112l-5.032 3.982-5.946-5.881 4.026-4.971a1.33 1.33 0 0 0 .114-1.51c-1.022-1.742-1.803-3.612-2.325-5.559a1.35 1.35 0 0 0-1.159-.987l-6.408-.704v-8.318l6.408-.711a1.35 1.35 0 0 0 1.159-.987c.522-1.947 1.304-3.816 2.325-5.559a1.33 1.33 0 0 0-.114-1.509l-4.026-4.977 5.946-5.881 5.039 3.982c.436.345 1.043.39 1.526.113 1.761-1.011 3.651-1.784 5.62-2.3.54-.142.936-.597.998-1.147l.712-6.338h8.403l.712 6.338c.062.549.458 1.005.998 1.147a23.02 23.02 0 0 1 5.62 2.3c.483.278 1.09.233 1.526-.113l5.032-3.982 5.946 5.888-4.026 4.977a1.33 1.33 0 0 0-.114 1.509 22.5 22.5 0 0 1 2.325 5.559 1.35 1.35 0 0 0 1.159.987l6.408.705v8.311z"/></g><path d="M73.042 22.99c-5.113-9.038-16.664-12.265-25.802-7.208s-12.4 16.483-7.288 25.521a1.34 1.34 0 0 0 .223.292c.528.523 1.386.524 1.915.002l8.847-8.75 3.125 4.123c.038.051.08.099.126.143.529.523 1.386.523 1.915 0l8.522-8.429v4.803h2.708v-8.037h0c0-.74-.606-1.339-1.354-1.339h-8.125v2.679h4.856l-7.418 7.337-3.126-4.123c-.235-.312-.595-.508-.987-.536s-.775.119-1.054.392l-8.61 8.515c-2.328-5.48-1.401-11.785 2.408-16.383 5.678-6.852 15.897-7.855 22.825-2.239s7.941 15.724 2.263 22.576c-.523.632-1.085 1.213-1.68 1.745v-7.909h-2.709v9.866a16.22 16.22 0 0 1-2.708 1.242v-8.429h-2.708v9.129a16.48 16.48 0 0 1-2.708.231v-5.341h-2.708v5.124a16.27 16.27 0 0 1-2.708-.689v-7.114h-2.709v5.881c-.757-.432-1.489-.93-2.187-1.496l-1.721 2.069c3.393 2.753 7.645 4.259 12.033 4.261a19.12 19.12 0 0 0 9.254-2.388c9.137-5.057 12.4-16.483 7.287-25.521z" fill="#39379f"/></g><defs><clipPath id="A"><path fill="#fff" transform="translate(24)" d="M0 0h65v64.292H0z"/></clipPath></defs></svg>