<svg xmlns="http://www.w3.org/2000/svg" width="86" height="79" fill="none" xmlns:v="https://vecta.io/nano"><path d="M63.558 11.784c6.761 2.224 18.384 12.237 14.208 31.62-6.144 18.587-25.554 31.061-43.327 25.215S13.968 51.84 16.749 43.426c2.66-8.048 18.679-3.248 24.149-9.09 7.163-7.65 12.584-25.866 22.661-22.552z" fill="#c4ec8e"/><mask id="A" maskUnits="userSpaceOnUse" x="0" y="-.001" width="60" height="60" fill="#000"><path fill="#fff" d="M0-.001h60v60H0z"/><path d="M45.563 20.232a11.69 11.69 0 0 0-6.459 1.945 11.56 11.56 0 0 0-4.282 5.179 11.46 11.46 0 0 0-.661 6.667c.449 2.239 1.556 4.295 3.182 5.909a11.65 11.65 0 0 0 5.952 3.158c2.255.445 4.593.217 6.717-.657s3.94-2.352 5.217-4.25a11.48 11.48 0 0 0 1.959-6.411 11.51 11.51 0 0 0-3.409-8.156 11.68 11.68 0 0 0-8.216-3.384zm0 21.156a9.74 9.74 0 0 1-5.382-1.621 9.63 9.63 0 0 1-3.568-4.316 9.55 9.55 0 0 1-.551-5.556c.374-1.865 1.296-3.579 2.651-4.924a9.71 9.71 0 0 1 4.96-2.632c1.879-.371 3.827-.181 5.597.547a9.67 9.67 0 0 1 4.348 3.542c1.065 1.581 1.633 3.441 1.633 5.343a9.59 9.59 0 0 1-2.841 6.797c-1.816 1.803-4.279 2.817-6.847 2.82zm0-12.502H47.5a.97.97 0 0 0 .685-.282.96.96 0 0 0 0-1.36c-.182-.18-.428-.282-.685-.282h-.969V26a.96.96 0 0 0-.284-.68.97.97 0 0 0-1.37 0 .96.96 0 0 0-.284.68v1.127a2.9 2.9 0 0 0-1.537 1.26c-.347.587-.473 1.277-.357 1.947a2.88 2.88 0 0 0 .991 1.718 2.92 2.92 0 0 0 1.873.68.97.97 0 0 1 .685.282.96.96 0 0 1 0 1.36c-.182.18-.428.282-.685.282h-1.937a.97.97 0 0 0-.685.282.96.96 0 0 0 0 1.36c.182.18.428.282.685.282h.969v.962a.96.96 0 0 0 .284.68c.182.18.428.282.685.282a.97.97 0 0 0 .685-.282.96.96 0 0 0 .284-.68v-1.127a2.9 2.9 0 0 0 1.537-1.26c.347-.587.473-1.276.357-1.947a2.88 2.88 0 0 0-.991-1.717 2.92 2.92 0 0 0-1.873-.68.97.97 0 0 1-.685-.282.96.96 0 0 1 0-1.36c.182-.18.428-.282.685-.282zm9.075 15.064l-19.624 5.083-4.379-1.739 2.423-.598a3.16 3.16 0 0 0 1.862-1.301 3.12 3.12 0 0 0 .498-2.206 3.14 3.14 0 0 0-1.124-1.966 3.18 3.18 0 0 0-2.164-.706l-16.581.871-3.894-.003v-.959a.96.96 0 0 0-.284-.68c-.182-.18-.428-.282-.685-.282h-6.38l6.781-6.731h7.349c.127 0 .253-.025.371-.073a.97.97 0 0 0 .314-.209L33.37 18.308h8.318c.127 0 .253-.025.371-.073a.97.97 0 0 0 .314-.209L56.219 4.282V7.73a.96.96 0 0 0 .284.68.97.97 0 0 0 1.37 0 .96.96 0 0 0 .284-.68V1.96a.96.96 0 0 0-.284-.68c-.182-.18-.428-.282-.685-.282h-5.812a.97.97 0 0 0-.685.282.96.96 0 0 0 0 1.36c.182.18.428.282.685.282h3.474L41.286 16.385h-8.317c-.127 0-.253.025-.371.073a.97.97 0 0 0-.314.208L18.036 30.81h-7.349c-.127 0-.253.025-.371.073a.96.96 0 0 0-.314.208l-8.719 8.655a.96.96 0 0 0-.21.312c-.049.117-.074.242-.073.368v17.31a.96.96 0 0 0 .284.68.97.97 0 0 0 .685.282h8.719a.97.97 0 0 0 .685-.282.96.96 0 0 0 .284-.68v-1.089l5.813-.819 16.291 3.805a.98.98 0 0 0 .569-.038l22.584-8.623a3.71 3.71 0 0 0 2.021-1.854 3.67 3.67 0 0 0 .186-2.725 3.7 3.7 0 0 0-1.751-2.107c-.833-.454-1.81-.575-2.73-.337zM9.719 56.774H2.938V41.388h6.781v15.386zm5.908-13.464l16.604-.872a1.23 1.23 0 0 1 .637.142 1.22 1.22 0 0 1 .473.447 1.21 1.21 0 0 1 0 1.25 1.21 1.21 0 0 1-.32.351 1.22 1.22 0 0 1-.431.202l-9.542 2.357a.97.97 0 0 0-.344.159c-.103.075-.19.169-.257.278a.96.96 0 0 0-.129.354c-.019.125-.013.253.018.376a.96.96 0 0 0 .444.594.97.97 0 0 0 .358.126c.127.018.255.011.379-.02l3.904-.964 7.171 2.847c.192.076.404.089.604.038l19.932-5.162c.441-.113.908-.055 1.307.163s.698.579.838 1.009a1.76 1.76 0 0 1-.089 1.305 1.78 1.78 0 0 1-.967.889l-22.303 8.516-16.178-3.778a.97.97 0 0 0-.358-.016l-5.721.806V43.308l3.97.002z"/></mask><path d="M45.563 20.232a11.69 11.69 0 0 0-6.459 1.945 11.56 11.56 0 0 0-4.282 5.179 11.46 11.46 0 0 0-.661 6.667c.449 2.239 1.556 4.295 3.182 5.909a11.65 11.65 0 0 0 5.952 3.158c2.255.445 4.593.217 6.717-.657s3.94-2.352 5.217-4.25a11.48 11.48 0 0 0 1.959-6.411 11.51 11.51 0 0 0-3.409-8.156 11.68 11.68 0 0 0-8.216-3.384zm0 21.156a9.74 9.74 0 0 1-5.382-1.621 9.63 9.63 0 0 1-3.568-4.316 9.55 9.55 0 0 1-.551-5.556c.374-1.865 1.296-3.579 2.651-4.924a9.71 9.71 0 0 1 4.96-2.632c1.879-.371 3.827-.181 5.597.547a9.67 9.67 0 0 1 4.348 3.542c1.065 1.581 1.633 3.441 1.633 5.343a9.59 9.59 0 0 1-2.841 6.797c-1.816 1.803-4.279 2.817-6.847 2.82zm0-12.502H47.5a.97.97 0 0 0 .685-.282.96.96 0 0 0 0-1.36c-.182-.18-.428-.282-.685-.282h-.969V26a.96.96 0 0 0-.284-.68.97.97 0 0 0-1.37 0 .96.96 0 0 0-.284.68v1.127a2.9 2.9 0 0 0-1.537 1.26c-.347.587-.473 1.277-.357 1.947a2.88 2.88 0 0 0 .991 1.718 2.92 2.92 0 0 0 1.873.68.97.97 0 0 1 .685.282.96.96 0 0 1 0 1.36c-.182.18-.428.282-.685.282h-1.937a.97.97 0 0 0-.685.282.96.96 0 0 0 0 1.36c.182.18.428.282.685.282h.969v.962a.96.96 0 0 0 .284.68c.182.18.428.282.685.282a.97.97 0 0 0 .685-.282.96.96 0 0 0 .284-.68v-1.127a2.9 2.9 0 0 0 1.537-1.26c.347-.587.473-1.276.357-1.947a2.88 2.88 0 0 0-.991-1.717 2.92 2.92 0 0 0-1.873-.68.97.97 0 0 1-.685-.282.96.96 0 0 1 0-1.36c.182-.18.428-.282.685-.282zm9.075 15.064l-19.624 5.083-4.379-1.739 2.423-.598a3.16 3.16 0 0 0 1.862-1.301 3.12 3.12 0 0 0 .498-2.206 3.14 3.14 0 0 0-1.124-1.966 3.18 3.18 0 0 0-2.164-.706l-16.581.871-3.894-.003v-.959a.96.96 0 0 0-.284-.68c-.182-.18-.428-.282-.685-.282h-6.38l6.781-6.731h7.349c.127 0 .253-.025.371-.073a.97.97 0 0 0 .314-.209L33.37 18.308h8.318c.127 0 .253-.025.371-.073a.97.97 0 0 0 .314-.209L56.219 4.282V7.73a.96.96 0 0 0 .284.68.97.97 0 0 0 1.37 0 .96.96 0 0 0 .284-.68V1.96a.96.96 0 0 0-.284-.68c-.182-.18-.428-.282-.685-.282h-5.812a.97.97 0 0 0-.685.282.96.96 0 0 0 0 1.36c.182.18.428.282.685.282h3.474L41.286 16.385h-8.317c-.127 0-.253.025-.371.073a.97.97 0 0 0-.314.208L18.036 30.81h-7.349c-.127 0-.253.025-.371.073a.96.96 0 0 0-.314.208l-8.719 8.655a.96.96 0 0 0-.21.312c-.049.117-.074.242-.073.368v17.31a.96.96 0 0 0 .284.68.97.97 0 0 0 .685.282h8.719a.97.97 0 0 0 .685-.282.96.96 0 0 0 .284-.68v-1.089l5.813-.819 16.291 3.805a.98.98 0 0 0 .569-.038l22.584-8.623a3.71 3.71 0 0 0 2.021-1.854 3.67 3.67 0 0 0 .186-2.725 3.7 3.7 0 0 0-1.751-2.107c-.833-.454-1.81-.575-2.73-.337zM9.719 56.774H2.938V41.388h6.781v15.386zm5.908-13.464l16.604-.872a1.23 1.23 0 0 1 .637.142 1.22 1.22 0 0 1 .473.447 1.21 1.21 0 0 1 0 1.25 1.21 1.21 0 0 1-.32.351 1.22 1.22 0 0 1-.431.202l-9.542 2.357a.97.97 0 0 0-.344.159c-.103.075-.19.169-.257.278a.96.96 0 0 0-.129.354c-.019.125-.013.253.018.376a.96.96 0 0 0 .444.594.97.97 0 0 0 .358.126c.127.018.255.011.379-.02l3.904-.964 7.171 2.847c.192.076.404.089.604.038l19.932-5.162c.441-.113.908-.055 1.307.163s.698.579.838 1.009a1.76 1.76 0 0 1-.089 1.305 1.78 1.78 0 0 1-.967.889l-22.303 8.516-16.178-3.778a.97.97 0 0 0-.358-.016l-5.721.806V43.308l3.97.002z" fill="#1c2d5a"/><path d="M45.563 20.232a11.69 11.69 0 0 0-6.459 1.945 11.56 11.56 0 0 0-4.282 5.179 11.46 11.46 0 0 0-.661 6.667c.449 2.239 1.556 4.295 3.182 5.909a11.65 11.65 0 0 0 5.952 3.158c2.255.445 4.593.217 6.717-.657s3.94-2.352 5.217-4.25a11.48 11.48 0 0 0 1.959-6.411 11.51 11.51 0 0 0-3.409-8.156 11.68 11.68 0 0 0-8.216-3.384zm0 21.156a9.74 9.74 0 0 1-5.382-1.621 9.63 9.63 0 0 1-3.568-4.316 9.55 9.55 0 0 1-.551-5.556c.374-1.865 1.296-3.579 2.651-4.924a9.71 9.71 0 0 1 4.96-2.632c1.879-.371 3.827-.181 5.597.547a9.67 9.67 0 0 1 4.348 3.542c1.065 1.581 1.633 3.441 1.633 5.343a9.59 9.59 0 0 1-2.841 6.797c-1.816 1.803-4.279 2.817-6.847 2.82zm0-12.502H47.5a.97.97 0 0 0 .685-.282.96.96 0 0 0 0-1.36c-.182-.18-.428-.282-.685-.282h-.969V26a.96.96 0 0 0-.284-.68.97.97 0 0 0-1.37 0 .96.96 0 0 0-.284.68v1.127a2.9 2.9 0 0 0-1.537 1.26c-.347.587-.473 1.277-.357 1.947a2.88 2.88 0 0 0 .991 1.718 2.92 2.92 0 0 0 1.873.68.97.97 0 0 1 .685.282.96.96 0 0 1 0 1.36c-.182.18-.428.282-.685.282h-1.937a.97.97 0 0 0-.685.282.96.96 0 0 0 0 1.36c.182.18.428.282.685.282h.969v.962a.96.96 0 0 0 .284.68c.182.18.428.282.685.282a.97.97 0 0 0 .685-.282.96.96 0 0 0 .284-.68v-1.127a2.9 2.9 0 0 0 1.537-1.26c.347-.587.473-1.276.357-1.947a2.88 2.88 0 0 0-.991-1.717 2.92 2.92 0 0 0-1.873-.68.97.97 0 0 1-.685-.282.96.96 0 0 1 0-1.36c.182-.18.428-.282.685-.282zm9.075 15.064l-19.624 5.083-4.379-1.739 2.423-.598a3.16 3.16 0 0 0 1.862-1.301 3.12 3.12 0 0 0 .498-2.206 3.14 3.14 0 0 0-1.124-1.966 3.18 3.18 0 0 0-2.164-.706l-16.581.871-3.894-.003v-.959a.96.96 0 0 0-.284-.68c-.182-.18-.428-.282-.685-.282h-6.38l6.781-6.731h7.349c.127 0 .253-.025.371-.073a.97.97 0 0 0 .314-.209L33.37 18.308h8.318c.127 0 .253-.025.371-.073a.97.97 0 0 0 .314-.209L56.219 4.282V7.73a.96.96 0 0 0 .284.68.97.97 0 0 0 1.37 0 .96.96 0 0 0 .284-.68V1.96a.96.96 0 0 0-.284-.68c-.182-.18-.428-.282-.685-.282h-5.812a.97.97 0 0 0-.685.282.96.96 0 0 0 0 1.36c.182.18.428.282.685.282h3.474L41.286 16.385h-8.317c-.127 0-.253.025-.371.073a.97.97 0 0 0-.314.208L18.036 30.81h-7.349c-.127 0-.253.025-.371.073a.96.96 0 0 0-.314.208l-8.719 8.655a.96.96 0 0 0-.21.312c-.049.117-.074.242-.073.368v17.31a.96.96 0 0 0 .284.68.97.97 0 0 0 .685.282h8.719a.97.97 0 0 0 .685-.282.96.96 0 0 0 .284-.68v-1.089l5.813-.819 16.291 3.805a.98.98 0 0 0 .569-.038l22.584-8.623a3.71 3.71 0 0 0 2.021-1.854 3.67 3.67 0 0 0 .186-2.725 3.7 3.7 0 0 0-1.751-2.107c-.833-.454-1.81-.575-2.73-.337zM9.719 56.774H2.938V41.388h6.781v15.386zm5.908-13.464l16.604-.872a1.23 1.23 0 0 1 .637.142 1.22 1.22 0 0 1 .473.447 1.21 1.21 0 0 1 0 1.25 1.21 1.21 0 0 1-.32.351 1.22 1.22 0 0 1-.431.202l-9.542 2.357a.97.97 0 0 0-.344.159c-.103.075-.19.169-.257.278a.96.96 0 0 0-.129.354c-.019.125-.013.253.018.376a.96.96 0 0 0 .444.594.97.97 0 0 0 .358.126c.127.018.255.011.379-.02l3.904-.964 7.171 2.847c.192.076.404.089.604.038l19.932-5.162c.441-.113.908-.055 1.307.163s.698.579.838 1.009a1.76 1.76 0 0 1-.089 1.305 1.78 1.78 0 0 1-.967.889l-22.303 8.516-16.178-3.778a.97.97 0 0 0-.358-.016l-5.721.806V43.308l3.97.002z" stroke="#1c2d5a" stroke-width=".6" mask="url(#A)"/></svg>