<svg width="335" height="335" viewBox="0 0 335 335" fill="none" xmlns="http://www.w3.org/2000/svg">
<path d="M166.498 167.5V168.971L167.866 168.43L321.741 107.505L322.671 107.137L322.303 106.207C297.162 42.7071 235.793 1 167.498 1H166.498V2V167.5Z" fill="#4E00FF" stroke="#101D3F" stroke-width="2"/>
<path d="M167.129 166.57L167.56 168.498L332.731 158.106L333.729 158.043L333.667 157.045C332.57 139.608 328.735 122.452 322.303 106.207L321.935 105.277L321.005 105.645L167.129 166.57Z" fill="#FF850B" stroke="#101D3F" stroke-width="2"/>
<path d="M167.434 166.502L166.709 166.548L166.528 167.252L125.371 327.552L125.122 328.52L126.091 328.769C143.013 333.114 160.514 334.769 177.951 333.672C269.724 327.898 339.44 248.82 333.666 157.046L333.603 156.048L332.605 156.11L167.434 166.502Z" fill="#1DBEE1" stroke="#101D3F" stroke-width="2"/>
<path d="M168.468 167.748L169.233 164.767L166.862 166.729L39.3435 272.223L38.573 272.86L39.2104 273.631C61.6228 300.723 92.0366 320.024 126.093 328.768L127.061 329.017L127.31 328.049L168.468 167.748Z" fill="#133D81" stroke="#101D3F" stroke-width="2"/>
<path d="M168.137 168.271L169.649 167.02L167.748 166.532L7.45 125.374L6.48141 125.125L6.23272 126.093C-7.02162 177.716 5.23829 232.565 39.2109 273.631L39.8483 274.402L40.6188 273.764L168.137 168.271Z" fill="#FF0000" stroke="#101D3F" stroke-width="2"/>
<path d="M167.251 168.469L168.087 166.691L34.1968 69.4127L33.3877 68.8249L32.8 69.6339C20.4654 86.6112 11.4513 105.767 6.23259 126.093L5.9839 127.062L6.95248 127.31L167.251 168.469Z" fill="#663090" stroke="#101D3F" stroke-width="2"/>
<path d="M166.909 168.309L168.497 169.462V167.5V2V1H167.497C114.2 1 64.1244 26.5151 32.7974 69.6336L32.2097 70.4427L33.0187 71.0304L166.909 168.309Z" fill="#0096F2" stroke="#101D3F" stroke-width="2"/>
<path opacity="0.3" d="M75.7495 296V281.388H75.6763L71.123 284.586V281.62L75.7251 278.385H78.8379V296H75.7495ZM89.6167 296.354C87.4683 296.354 85.7796 295.536 84.5508 293.9C83.3301 292.257 82.7197 290.014 82.7197 287.174C82.7197 284.35 83.3341 282.121 84.563 280.485C85.7918 278.849 87.4764 278.031 89.6167 278.031C91.757 278.031 93.4375 278.849 94.6582 280.485C95.8789 282.112 96.4893 284.338 96.4893 287.162C96.4893 289.994 95.8789 292.236 94.6582 293.888C93.4375 295.532 91.757 296.354 89.6167 296.354ZM89.6167 293.778C90.7804 293.778 91.6838 293.196 92.3267 292.033C92.9777 290.869 93.3032 289.25 93.3032 287.174C93.3032 285.115 92.9777 283.508 92.3267 282.353C91.6756 281.189 90.7723 280.607 89.6167 280.607C88.4611 280.607 87.5496 281.189 86.8823 282.353C86.2231 283.516 85.8936 285.119 85.8936 287.162C85.8936 289.237 86.2191 290.861 86.8701 292.033C87.5293 293.196 88.4448 293.778 89.6167 293.778ZM104.851 279.313C105.559 280.119 105.913 281.209 105.913 282.584C105.913 283.96 105.559 285.054 104.851 285.868C104.143 286.682 103.195 287.089 102.007 287.089C100.819 287.089 99.8706 286.682 99.1626 285.868C98.4627 285.054 98.1128 283.96 98.1128 282.584C98.1128 281.209 98.4627 280.119 99.1626 279.313C99.8706 278.499 100.819 278.092 102.007 278.092C103.195 278.092 104.143 278.499 104.851 279.313ZM102.007 285.172C102.463 285.172 102.817 284.944 103.069 284.489C103.329 284.025 103.459 283.39 103.459 282.584C103.459 281.771 103.329 281.136 103.069 280.68C102.817 280.216 102.463 279.984 102.007 279.984C101.559 279.984 101.205 280.216 100.945 280.68C100.693 281.136 100.566 281.771 100.566 282.584C100.566 283.39 100.693 284.025 100.945 284.489C101.205 284.944 101.559 285.172 102.007 285.172ZM102.251 296H99.5898L106.414 286.662L112.468 278.385H115.105L108.464 287.479L102.251 296ZM115.532 288.444C116.24 289.258 116.594 290.352 116.594 291.728C116.594 293.103 116.24 294.197 115.532 295.011C114.824 295.817 113.876 296.22 112.688 296.22C111.5 296.22 110.552 295.817 109.844 295.011C109.144 294.197 108.794 293.103 108.794 291.728C108.794 290.352 109.144 289.258 109.844 288.444C110.552 287.63 111.5 287.223 112.688 287.223C113.876 287.223 114.824 287.63 115.532 288.444ZM111.626 293.62C111.886 294.083 112.24 294.315 112.688 294.315C113.136 294.315 113.49 294.083 113.75 293.62C114.01 293.156 114.141 292.521 114.141 291.715C114.141 290.91 114.01 290.275 113.75 289.811C113.49 289.347 113.136 289.115 112.688 289.115C112.24 289.115 111.886 289.347 111.626 289.811C111.374 290.275 111.248 290.91 111.248 291.715C111.248 292.521 111.374 293.156 111.626 293.62Z" fill="black"/>
<path opacity="0.3" d="M291.825 145.354C290.01 145.354 288.504 144.862 287.308 143.877C286.112 142.884 285.481 141.606 285.416 140.044H288.37C288.468 140.858 288.838 141.521 289.481 142.034C290.132 142.546 290.921 142.803 291.849 142.803C292.899 142.803 293.749 142.473 294.4 141.814C295.06 141.155 295.389 140.304 295.389 139.263C295.389 138.205 295.06 137.342 294.4 136.675C293.749 135.999 292.907 135.662 291.874 135.662C291.157 135.662 290.502 135.816 289.908 136.125C289.322 136.435 288.867 136.866 288.541 137.419H285.685L286.6 127.385H297.391V129.961H289.09L288.639 135.112H288.712C289.078 134.543 289.607 134.095 290.299 133.77C290.991 133.436 291.768 133.269 292.63 133.269C294.315 133.269 295.702 133.826 296.793 134.941C297.883 136.048 298.429 137.46 298.429 139.177C298.429 141.008 297.814 142.498 296.585 143.645C295.365 144.784 293.778 145.354 291.825 145.354ZM306.571 128.313C307.279 129.119 307.633 130.209 307.633 131.584C307.633 132.96 307.279 134.054 306.571 134.868C305.863 135.682 304.915 136.089 303.727 136.089C302.538 136.089 301.59 135.682 300.882 134.868C300.182 134.054 299.833 132.96 299.833 131.584C299.833 130.209 300.182 129.119 300.882 128.313C301.59 127.499 302.538 127.092 303.727 127.092C304.915 127.092 305.863 127.499 306.571 128.313ZM303.727 134.172C304.182 134.172 304.536 133.944 304.789 133.489C305.049 133.025 305.179 132.39 305.179 131.584C305.179 130.771 305.049 130.136 304.789 129.68C304.536 129.216 304.182 128.984 303.727 128.984C303.279 128.984 302.925 129.216 302.665 129.68C302.412 130.136 302.286 130.771 302.286 131.584C302.286 132.39 302.412 133.025 302.665 133.489C302.925 133.944 303.279 134.172 303.727 134.172ZM303.971 145H301.31L308.133 135.662L314.188 127.385H316.825L310.184 136.479L303.971 145ZM317.252 137.444C317.96 138.258 318.314 139.352 318.314 140.728C318.314 142.103 317.96 143.197 317.252 144.011C316.544 144.817 315.596 145.22 314.408 145.22C313.22 145.22 312.271 144.817 311.563 144.011C310.864 143.197 310.514 142.103 310.514 140.728C310.514 139.352 310.864 138.258 311.563 137.444C312.271 136.63 313.22 136.223 314.408 136.223C315.596 136.223 316.544 136.63 317.252 137.444ZM313.346 142.62C313.606 143.083 313.96 143.315 314.408 143.315C314.855 143.315 315.209 143.083 315.47 142.62C315.73 142.156 315.86 141.521 315.86 140.715C315.86 139.91 315.73 139.275 315.47 138.811C315.209 138.347 314.855 138.115 314.408 138.115C313.96 138.115 313.606 138.347 313.346 138.811C313.093 139.275 312.967 139.91 312.967 140.715C312.967 141.521 313.093 142.156 313.346 142.62Z" fill="black"/>
<path opacity="0.3" d="M27.1421 112.366C25.8563 112.366 24.7088 112.065 23.6997 111.463C22.6987 110.861 21.9012 109.994 21.3071 108.863C20.4689 107.406 20.0498 105.583 20.0498 103.394C20.0498 100.464 20.6886 98.1694 21.9663 96.5093C23.244 94.8491 25.0018 94.019 27.2397 94.019C28.8511 94.019 30.2305 94.4585 31.3779 95.3374C32.5254 96.2082 33.2293 97.3556 33.4897 98.7798H30.3647C30.1613 98.1125 29.7747 97.5794 29.2051 97.1807C28.6354 96.7819 27.9722 96.5825 27.2153 96.5825C25.897 96.5825 24.8716 97.1685 24.1392 98.3403C23.4067 99.5122 23.0446 101.156 23.0527 103.272H23.1138C23.4881 102.401 24.1025 101.705 24.957 101.185C25.8115 100.664 26.7881 100.403 27.8867 100.403C29.5632 100.403 30.9548 100.957 32.0615 102.063C33.1683 103.162 33.7217 104.546 33.7217 106.214C33.7217 108.004 33.1032 109.477 31.8662 110.633C30.6292 111.788 29.0545 112.366 27.1421 112.366ZM27.1177 109.791C28.0942 109.791 28.9202 109.453 29.5957 108.777C30.2793 108.102 30.6211 107.28 30.6211 106.312C30.6211 105.319 30.2915 104.497 29.6323 103.846C28.9813 103.195 28.1512 102.869 27.1421 102.869C26.133 102.869 25.2907 103.195 24.6152 103.846C23.9479 104.489 23.6143 105.298 23.6143 106.275C23.6143 107.26 23.952 108.094 24.6274 108.777C25.3029 109.453 26.133 109.791 27.1177 109.791ZM41.9858 95.313C42.6938 96.1187 43.0479 97.2091 43.0479 98.5845C43.0479 99.9598 42.6938 101.054 41.9858 101.868C41.2778 102.682 40.3298 103.089 39.1416 103.089C37.9535 103.089 37.0054 102.682 36.2974 101.868C35.5975 101.054 35.2476 99.9598 35.2476 98.5845C35.2476 97.2091 35.5975 96.1187 36.2974 95.313C37.0054 94.4992 37.9535 94.0923 39.1416 94.0923C40.3298 94.0923 41.2778 94.4992 41.9858 95.313ZM39.1416 101.172C39.5973 101.172 39.9513 100.944 40.2036 100.489C40.464 100.025 40.5942 99.3901 40.5942 98.5845C40.5942 97.7707 40.464 97.1359 40.2036 96.6802C39.9513 96.2163 39.5973 95.9844 39.1416 95.9844C38.694 95.9844 38.34 96.2163 38.0796 96.6802C37.8273 97.1359 37.7012 97.7707 37.7012 98.5845C37.7012 99.3901 37.8273 100.025 38.0796 100.489C38.34 100.944 38.694 101.172 39.1416 101.172ZM39.3857 112H36.7246L43.5483 102.662L49.603 94.3853H52.2397L45.5991 103.479L39.3857 112ZM52.667 104.444C53.375 105.258 53.729 106.352 53.729 107.728C53.729 109.103 53.375 110.197 52.667 111.011C51.959 111.817 51.0109 112.22 49.8228 112.22C48.6346 112.22 47.6865 111.817 46.9785 111.011C46.2786 110.197 45.9287 109.103 45.9287 107.728C45.9287 106.352 46.2786 105.258 46.9785 104.444C47.6865 103.63 48.6346 103.223 49.8228 103.223C51.0109 103.223 51.959 103.63 52.667 104.444ZM48.7607 109.62C49.0212 110.083 49.3752 110.315 49.8228 110.315C50.2703 110.315 50.6243 110.083 50.8848 109.62C51.1452 109.156 51.2754 108.521 51.2754 107.715C51.2754 106.91 51.1452 106.275 50.8848 105.811C50.6243 105.347 50.2703 105.115 49.8228 105.115C49.3752 105.115 49.0212 105.347 48.7607 105.811C48.5085 106.275 48.3823 106.91 48.3823 107.715C48.3823 108.521 48.5085 109.156 48.7607 109.62Z" fill="black"/>
<path opacity="0.3" d="M230.347 279.151V276.783H232.471C233.374 276.783 234.106 276.535 234.668 276.038C235.229 275.534 235.51 274.887 235.51 274.097C235.51 273.316 235.242 272.693 234.705 272.229C234.176 271.766 233.427 271.534 232.458 271.534C231.555 271.534 230.819 271.782 230.249 272.278C229.679 272.767 229.362 273.422 229.297 274.244H226.367C226.457 272.657 227.063 271.391 228.186 270.447C229.317 269.503 230.79 269.031 232.605 269.031C234.347 269.031 235.771 269.463 236.877 270.325C237.984 271.188 238.538 272.303 238.538 273.67C238.538 274.752 238.204 275.668 237.537 276.417C236.877 277.157 235.999 277.621 234.9 277.808V277.881C236.226 277.979 237.28 278.41 238.062 279.175C238.851 279.932 239.246 280.921 239.246 282.142C239.246 283.688 238.615 284.945 237.354 285.914C236.1 286.874 234.505 287.354 232.568 287.354C230.648 287.354 229.097 286.874 227.917 285.914C226.737 284.945 226.107 283.672 226.025 282.093H229.028C229.102 282.907 229.456 283.558 230.09 284.046C230.725 284.534 231.559 284.778 232.593 284.778C233.61 284.778 234.44 284.522 235.083 284.009C235.726 283.497 236.047 282.833 236.047 282.02C236.047 281.132 235.73 280.433 235.095 279.92C234.469 279.407 233.61 279.151 232.52 279.151H230.347ZM248.303 287.354C246.155 287.354 244.466 286.536 243.237 284.9C242.017 283.257 241.406 281.014 241.406 278.174C241.406 275.35 242.021 273.121 243.25 271.485C244.478 269.849 246.163 269.031 248.303 269.031C250.444 269.031 252.124 269.849 253.345 271.485C254.565 273.112 255.176 275.338 255.176 278.162C255.176 280.994 254.565 283.236 253.345 284.888C252.124 286.532 250.444 287.354 248.303 287.354ZM248.303 284.778C249.467 284.778 250.37 284.196 251.013 283.033C251.664 281.869 251.99 280.25 251.99 278.174C251.99 276.115 251.664 274.508 251.013 273.353C250.362 272.189 249.459 271.607 248.303 271.607C247.148 271.607 246.236 272.189 245.569 273.353C244.91 274.516 244.58 276.119 244.58 278.162C244.58 280.237 244.906 281.861 245.557 283.033C246.216 284.196 247.131 284.778 248.303 284.778ZM263.538 270.313C264.246 271.119 264.6 272.209 264.6 273.584C264.6 274.96 264.246 276.054 263.538 276.868C262.83 277.682 261.882 278.089 260.693 278.089C259.505 278.089 258.557 277.682 257.849 276.868C257.149 276.054 256.799 274.96 256.799 273.584C256.799 272.209 257.149 271.119 257.849 270.313C258.557 269.499 259.505 269.092 260.693 269.092C261.882 269.092 262.83 269.499 263.538 270.313ZM260.693 276.172C261.149 276.172 261.503 275.944 261.755 275.489C262.016 275.025 262.146 274.39 262.146 273.584C262.146 272.771 262.016 272.136 261.755 271.68C261.503 271.216 261.149 270.984 260.693 270.984C260.246 270.984 259.892 271.216 259.631 271.68C259.379 272.136 259.253 272.771 259.253 273.584C259.253 274.39 259.379 275.025 259.631 275.489C259.892 275.944 260.246 276.172 260.693 276.172ZM260.938 287H258.276L265.1 277.662L271.155 269.385H273.792L267.151 278.479L260.938 287ZM274.219 279.444C274.927 280.258 275.281 281.352 275.281 282.728C275.281 284.103 274.927 285.197 274.219 286.011C273.511 286.817 272.563 287.22 271.375 287.22C270.186 287.22 269.238 286.817 268.53 286.011C267.83 285.197 267.48 284.103 267.48 282.728C267.48 281.352 267.83 280.258 268.53 279.444C269.238 278.63 270.186 278.223 271.375 278.223C272.563 278.223 273.511 278.63 274.219 279.444ZM270.312 284.62C270.573 285.083 270.927 285.315 271.375 285.315C271.822 285.315 272.176 285.083 272.437 284.62C272.697 284.156 272.827 283.521 272.827 282.715C272.827 281.91 272.697 281.275 272.437 280.811C272.176 280.347 271.822 280.115 271.375 280.115C270.927 280.115 270.573 280.347 270.312 280.811C270.06 281.275 269.934 281.91 269.934 282.715C269.934 283.521 270.06 284.156 270.312 284.62Z" fill="black"/>
<path opacity="0.3" d="M235.75 70V55.3882H235.676L231.123 58.5864V55.6201L235.725 52.3853H238.838V70H235.75ZM249.08 70.354C247.46 70.354 246.073 69.9146 244.917 69.0356C243.77 68.1567 243.07 67.0093 242.817 65.5933H245.942C246.138 66.2606 246.524 66.7977 247.102 67.2046C247.688 67.6034 248.363 67.8027 249.128 67.8027C250.439 67.8027 251.456 67.2168 252.18 66.0449C252.913 64.8649 253.267 63.217 253.242 61.1011H253.218H253.206H253.193C252.843 61.9718 252.241 62.6717 251.387 63.2007C250.54 63.7215 249.552 63.9819 248.42 63.9819C246.744 63.9819 245.348 63.4285 244.233 62.3218C243.127 61.215 242.573 59.8275 242.573 58.1592C242.573 56.377 243.192 54.908 244.429 53.7524C245.674 52.5968 247.249 52.019 249.153 52.019C250.447 52.019 251.598 52.3201 252.607 52.9224C253.625 53.5246 254.426 54.3872 255.012 55.5103C255.85 56.967 256.27 58.7939 256.27 60.9912C256.27 63.929 255.635 66.224 254.365 67.876C253.096 69.528 251.334 70.354 249.08 70.354ZM249.165 61.5161C250.174 61.5161 251.016 61.1906 251.692 60.5396C252.367 59.8885 252.705 59.0788 252.705 58.1104C252.705 57.1257 252.363 56.2956 251.68 55.6201C251.004 54.9447 250.174 54.6069 249.189 54.6069C248.205 54.6069 247.371 54.9406 246.687 55.6079C246.012 56.2752 245.674 57.0931 245.674 58.0615C245.674 59.0544 246.003 59.8804 246.663 60.5396C247.33 61.1906 248.164 61.5161 249.165 61.5161ZM264.631 53.313C265.339 54.1187 265.693 55.2091 265.693 56.5845C265.693 57.9598 265.339 59.0544 264.631 59.8682C263.923 60.682 262.975 61.0889 261.787 61.0889C260.599 61.0889 259.651 60.682 258.943 59.8682C258.243 59.0544 257.893 57.9598 257.893 56.5845C257.893 55.2091 258.243 54.1187 258.943 53.313C259.651 52.4992 260.599 52.0923 261.787 52.0923C262.975 52.0923 263.923 52.4992 264.631 53.313ZM261.787 59.1724C262.243 59.1724 262.597 58.9445 262.849 58.4888C263.11 58.0249 263.24 57.3901 263.24 56.5845C263.24 55.7707 263.11 55.1359 262.849 54.6802C262.597 54.2163 262.243 53.9844 261.787 53.9844C261.34 53.9844 260.986 54.2163 260.725 54.6802C260.473 55.1359 260.347 55.7707 260.347 56.5845C260.347 57.3901 260.473 58.0249 260.725 58.4888C260.986 58.9445 261.34 59.1724 261.787 59.1724ZM262.031 70H259.37L266.194 60.6616L272.249 52.3853H274.885L268.245 61.4795L262.031 70ZM275.312 62.4438C276.021 63.2576 276.375 64.3522 276.375 65.7275C276.375 67.1029 276.021 68.1974 275.312 69.0112C274.604 69.8169 273.656 70.2197 272.468 70.2197C271.28 70.2197 270.332 69.8169 269.624 69.0112C268.924 68.1974 268.574 67.1029 268.574 65.7275C268.574 64.3522 268.924 63.2576 269.624 62.4438C270.332 61.63 271.28 61.2231 272.468 61.2231C273.656 61.2231 274.604 61.63 275.312 62.4438ZM271.406 67.6196C271.667 68.0835 272.021 68.3154 272.468 68.3154C272.916 68.3154 273.27 68.0835 273.53 67.6196C273.791 67.1558 273.921 66.521 273.921 65.7153C273.921 64.9097 273.791 64.2749 273.53 63.811C273.27 63.3472 272.916 63.1152 272.468 63.1152C272.021 63.1152 271.667 63.3472 271.406 63.811C271.154 64.2749 271.028 64.9097 271.028 65.7153C271.028 66.521 271.154 67.1558 271.406 67.6196Z" fill="black"/>
<path opacity="0.3" d="M11.7495 207V192.388H11.6763L7.12305 195.586V192.62L11.7251 189.385H14.8379V207H11.7495ZM25.4946 207.354C23.6799 207.354 22.1743 206.862 20.978 205.877C19.7817 204.884 19.151 203.606 19.0859 202.044H22.04C22.1377 202.858 22.508 203.521 23.1509 204.034C23.8019 204.546 24.5913 204.803 25.519 204.803C26.5688 204.803 27.4193 204.473 28.0703 203.814C28.7295 203.155 29.0591 202.304 29.0591 201.263C29.0591 200.205 28.7295 199.342 28.0703 198.675C27.4193 197.999 26.577 197.662 25.5435 197.662C24.8273 197.662 24.1722 197.816 23.5781 198.125C22.9922 198.435 22.5365 198.866 22.2109 199.419H19.3545L20.27 189.385H31.061V191.961H22.7603L22.3086 197.112H22.3818C22.748 196.543 23.277 196.095 23.9688 195.77C24.6605 195.436 25.4377 195.269 26.3003 195.269C27.9849 195.269 29.3724 195.826 30.4629 196.941C31.5534 198.048 32.0986 199.46 32.0986 201.177C32.0986 203.008 31.4842 204.498 30.2554 205.645C29.0347 206.784 27.4478 207.354 25.4946 207.354ZM40.2407 190.313C40.9487 191.119 41.3027 192.209 41.3027 193.584C41.3027 194.96 40.9487 196.054 40.2407 196.868C39.5327 197.682 38.5846 198.089 37.3965 198.089C36.2083 198.089 35.2603 197.682 34.5522 196.868C33.8524 196.054 33.5024 194.96 33.5024 193.584C33.5024 192.209 33.8524 191.119 34.5522 190.313C35.2603 189.499 36.2083 189.092 37.3965 189.092C38.5846 189.092 39.5327 189.499 40.2407 190.313ZM37.3965 196.172C37.8522 196.172 38.2062 195.944 38.4585 195.489C38.7189 195.025 38.8491 194.39 38.8491 193.584C38.8491 192.771 38.7189 192.136 38.4585 191.68C38.2062 191.216 37.8522 190.984 37.3965 190.984C36.9489 190.984 36.5949 191.216 36.3345 191.68C36.0822 192.136 35.9561 192.771 35.9561 193.584C35.9561 194.39 36.0822 195.025 36.3345 195.489C36.5949 195.944 36.9489 196.172 37.3965 196.172ZM37.6406 207H34.9795L41.8032 197.662L47.8579 189.385H50.4946L43.854 198.479L37.6406 207ZM50.9219 199.444C51.6299 200.258 51.9839 201.352 51.9839 202.728C51.9839 204.103 51.6299 205.197 50.9219 206.011C50.2139 206.817 49.2658 207.22 48.0776 207.22C46.8895 207.22 45.9414 206.817 45.2334 206.011C44.5335 205.197 44.1836 204.103 44.1836 202.728C44.1836 201.352 44.5335 200.258 45.2334 199.444C45.9414 198.63 46.8895 198.223 48.0776 198.223C49.2658 198.223 50.2139 198.63 50.9219 199.444ZM47.0156 204.62C47.276 205.083 47.63 205.315 48.0776 205.315C48.5252 205.315 48.8792 205.083 49.1396 204.62C49.4001 204.156 49.5303 203.521 49.5303 202.715C49.5303 201.91 49.4001 201.275 49.1396 200.811C48.8792 200.347 48.5252 200.115 48.0776 200.115C47.63 200.115 47.276 200.347 47.0156 200.811C46.7633 201.275 46.6372 201.91 46.6372 202.715C46.6372 203.521 46.7633 204.156 47.0156 204.62Z" fill="black"/>
<path opacity="0.3" d="M85.7495 52V37.3882H85.6763L81.123 40.5864V37.6201L85.7251 34.3853H88.8379V52H85.7495ZM99.4946 52.354C97.6799 52.354 96.1743 51.8617 94.978 50.877C93.7817 49.8841 93.151 48.6064 93.0859 47.0439H96.04C96.1377 47.8577 96.508 48.521 97.1509 49.0337C97.8019 49.5464 98.5913 49.8027 99.519 49.8027C100.569 49.8027 101.419 49.4731 102.07 48.814C102.729 48.1548 103.059 47.3044 103.059 46.2627C103.059 45.2048 102.729 44.3421 102.07 43.6748C101.419 42.9993 100.577 42.6616 99.5435 42.6616C98.8273 42.6616 98.1722 42.8162 97.5781 43.1255C96.9922 43.4347 96.5365 43.866 96.2109 44.4194H93.3545L94.27 34.3853H105.061V36.9609H96.7603L96.3086 42.1123H96.3818C96.748 41.5426 97.277 41.0951 97.9688 40.7695C98.6605 40.4359 99.4377 40.269 100.3 40.269C101.985 40.269 103.372 40.8265 104.463 41.9414C105.553 43.0482 106.099 44.4601 106.099 46.1772C106.099 48.0083 105.484 49.4976 104.255 50.645C103.035 51.7843 101.448 52.354 99.4946 52.354ZM114.241 35.313C114.949 36.1187 115.303 37.2091 115.303 38.5845C115.303 39.9598 114.949 41.0544 114.241 41.8682C113.533 42.682 112.585 43.0889 111.396 43.0889C110.208 43.0889 109.26 42.682 108.552 41.8682C107.852 41.0544 107.502 39.9598 107.502 38.5845C107.502 37.2091 107.852 36.1187 108.552 35.313C109.26 34.4992 110.208 34.0923 111.396 34.0923C112.585 34.0923 113.533 34.4992 114.241 35.313ZM111.396 41.1724C111.852 41.1724 112.206 40.9445 112.458 40.4888C112.719 40.0249 112.849 39.3901 112.849 38.5845C112.849 37.7707 112.719 37.1359 112.458 36.6802C112.206 36.2163 111.852 35.9844 111.396 35.9844C110.949 35.9844 110.595 36.2163 110.334 36.6802C110.082 37.1359 109.956 37.7707 109.956 38.5845C109.956 39.3901 110.082 40.0249 110.334 40.4888C110.595 40.9445 110.949 41.1724 111.396 41.1724ZM111.641 52H108.979L115.803 42.6616L121.858 34.3853H124.495L117.854 43.4795L111.641 52ZM124.922 44.4438C125.63 45.2576 125.984 46.3522 125.984 47.7275C125.984 49.1029 125.63 50.1974 124.922 51.0112C124.214 51.8169 123.266 52.2197 122.078 52.2197C120.889 52.2197 119.941 51.8169 119.233 51.0112C118.534 50.1974 118.184 49.1029 118.184 47.7275C118.184 46.3522 118.534 45.2576 119.233 44.4438C119.941 43.63 120.889 43.2231 122.078 43.2231C123.266 43.2231 124.214 43.63 124.922 44.4438ZM121.016 49.6196C121.276 50.0835 121.63 50.3154 122.078 50.3154C122.525 50.3154 122.879 50.0835 123.14 49.6196C123.4 49.1558 123.53 48.521 123.53 47.7153C123.53 46.9097 123.4 46.2749 123.14 45.811C122.879 45.3472 122.525 45.1152 122.078 45.1152C121.63 45.1152 121.276 45.3472 121.016 45.811C120.763 46.2749 120.637 46.9097 120.637 47.7153C120.637 48.521 120.763 49.1558 121.016 49.6196Z" fill="black"/>
<circle cx="168" cy="168" r="110" fill="#101D3F"/>
<g opacity="0.1">
<path d="M221.896 154.465C221.896 154.465 222.301 156.223 220.958 158.185C220.958 158.185 223.153 158.117 224.209 159.571C224.209 159.571 223.857 157.458 225.365 155.852C225.365 155.852 223.304 156.224 221.896 154.465Z" fill="white"/>
</g>
<path d="M110.668 181.589C110.668 181.589 111.244 184.087 109.334 186.875C109.334 186.875 112.454 186.779 113.955 188.846C113.955 188.846 113.455 185.842 115.598 183.559C115.598 183.559 112.669 184.088 110.668 181.589Z" fill="white"/>
<path d="M215.32 181.384C215.32 181.384 215.725 183.142 214.381 185.104C214.381 185.104 216.577 185.036 217.632 186.49C217.632 186.49 217.28 184.377 218.789 182.771C218.789 182.771 216.727 183.143 215.32 181.384Z" fill="white"/>
<g opacity="0.300003">
<g opacity="0.300003">
<path opacity="0.300003" d="M218.698 217.317C218.698 219.143 195.83 220.623 167.621 220.623C139.411 220.623 116.543 219.143 116.543 217.317C116.543 215.491 139.411 214.01 167.621 214.01C195.83 214.01 218.698 215.491 218.698 217.317Z" fill="#000072"/>
</g>
</g>
<path d="M210.612 213.182C208.585 215.553 205.611 216.887 202.506 216.887H132.728C129.623 216.887 126.649 215.553 124.622 213.182C123.502 211.871 122.674 210.411 122.117 208.917C122.115 208.917 122.115 208.917 122.115 208.915C120.363 204.227 121.256 199.196 124.05 197.386C128.743 194.344 132.361 198.062 132.361 198.062C132.761 197.113 133.303 196.29 133.91 195.585C136.196 192.922 139.399 191.907 139.399 191.907C137.658 181.831 141.545 172.701 141.545 172.701C141.545 172.701 151.123 180.005 167.617 180.005C184.11 180.005 193.688 172.701 193.688 172.701C193.688 172.701 197.576 181.831 195.834 191.907C195.834 191.907 200.962 193.532 202.873 198.062C202.873 198.062 206.491 194.344 211.183 197.386C214.868 199.775 215.245 207.764 210.612 213.182Z" fill="#B11313"/>
<g opacity="0.300003">
<g opacity="0.300003">
<path opacity="0.300003" d="M135.145 207.352C135.791 201.037 132.363 198.312 132.363 198.312C132.763 197.363 133.305 196.541 133.912 195.836C139.23 202.253 135.145 207.352 135.145 207.352Z" fill="#000072"/>
</g>
</g>
<g opacity="0.300003">
<g opacity="0.300003">
<path opacity="0.300003" d="M200.108 207.352C199.462 201.037 202.89 198.312 202.89 198.312C202.49 197.363 201.948 196.541 201.341 195.836C196.023 202.253 200.108 207.352 200.108 207.352Z" fill="#000072"/>
</g>
</g>
<g opacity="0.300003">
<g opacity="0.300003">
<path opacity="0.300003" d="M200.654 212.652C200.157 212.527 199.645 212.484 199.136 212.54C198.411 212.621 197.163 212.745 195.333 212.884C192.578 213.092 190.173 211.004 189.985 208.223C189.904 207.029 190.081 206.101 190.145 205.814C189.426 208.917 188.098 211.775 187.288 213.342C183.177 213.515 177.97 213.656 171.531 213.697C171.184 201.144 178.412 189.374 178.412 189.374C167.337 198.312 156.842 189.374 156.842 189.374C164.15 202.46 163.769 213.152 163.769 213.152L165 213.704C157.968 213.674 152.345 213.527 147.966 213.342C147.156 211.775 145.828 208.917 145.108 205.814C145.175 206.113 145.364 207.104 145.258 208.368C145.029 211.089 142.622 213.088 139.923 212.884C138.092 212.745 136.843 212.621 136.118 212.54C135.609 212.484 135.097 212.527 134.6 212.652C126.66 214.646 122.261 209.342 122.119 209.167C122.676 210.661 123.504 212.121 124.624 213.432C126.651 215.803 129.625 217.137 132.73 217.137H167.627H202.524C205.629 217.137 208.603 215.803 210.63 213.432C211.75 212.121 212.578 210.661 213.135 209.167C212.993 209.342 208.593 214.646 200.654 212.652Z" fill="#000072"/>
</g>
</g>
<g opacity="0.300003">
<g opacity="0.300003">
<path opacity="0.300003" d="M145.109 205.815C145.096 205.754 145.087 205.721 145.087 205.721C145.094 205.753 145.102 205.784 145.109 205.815Z" fill="#000072"/>
</g>
</g>
<g opacity="0.300003">
<g opacity="0.300003">
<path opacity="0.300003" d="M190.141 205.815C190.148 205.784 190.156 205.753 190.163 205.721C190.163 205.721 190.154 205.754 190.141 205.815Z" fill="#000072"/>
</g>
</g>
<path d="M167.611 216.408H202.508C205.436 216.408 208.191 215.15 210.067 212.956C212.491 210.121 213.687 206.197 213.187 202.713C212.894 200.673 212.022 199.046 210.795 198.25C206.645 195.559 203.521 198.69 203.39 198.824C203.221 198.998 202.978 199.076 202.74 199.03C202.503 198.985 202.304 198.823 202.209 198.599C200.45 194.425 195.668 192.87 195.62 192.855C195.274 192.745 195.062 192.394 195.124 192.033C196.509 184.026 194.221 176.534 193.345 174.079C190.723 175.809 181.699 180.985 167.619 180.985C153.539 180.985 144.515 175.809 141.893 174.079C141.017 176.534 138.729 184.026 140.114 192.033C140.177 192.394 139.965 192.745 139.618 192.855C139.571 192.87 134.782 194.442 133.029 198.599C132.935 198.823 132.735 198.985 132.498 199.03C132.261 199.076 132.017 198.998 131.848 198.824C131.717 198.692 128.566 195.576 124.443 198.25C123.216 199.046 122.344 200.673 122.051 202.713C121.552 206.197 122.747 210.122 125.171 212.956C127.048 215.15 129.803 216.408 132.73 216.408H167.611ZM202.508 217.867H132.73C129.382 217.867 126.228 216.424 124.076 213.909C121.387 210.764 120.062 206.394 120.62 202.504C120.978 200.009 122.058 198.063 123.661 197.023C127.476 194.549 130.695 196.165 132.11 197.171C133.904 193.857 137.233 192.231 138.592 191.682C137.079 181.755 140.724 173.037 140.883 172.663C140.971 172.457 141.147 172.304 141.362 172.246C141.577 172.189 141.806 172.234 141.983 172.369C142.077 172.441 151.588 179.526 167.619 179.526C183.65 179.526 193.162 172.441 193.256 172.369C193.433 172.234 193.662 172.189 193.877 172.247C194.091 172.304 194.268 172.458 194.355 172.663C194.514 173.037 198.159 181.755 196.646 191.682C198.005 192.231 201.334 193.857 203.128 197.171C204.543 196.165 207.762 194.548 211.577 197.023C213.18 198.063 214.26 200.009 214.618 202.504C215.176 206.394 213.852 210.764 211.162 213.909C209.01 216.424 205.856 217.867 202.508 217.867Z" fill="#000072"/>
<path d="M132.783 197.718C132.863 197.773 132.9 197.803 132.954 197.844C133.006 197.883 133.048 197.92 133.095 197.958C133.189 198.034 133.269 198.115 133.354 198.195C133.441 198.273 133.512 198.359 133.591 198.442C133.669 198.526 133.743 198.611 133.813 198.7C134.101 199.048 134.343 199.423 134.559 199.811C134.992 200.587 135.279 201.423 135.479 202.264C135.674 203.11 135.746 203.968 135.746 204.815C135.748 205.239 135.701 205.661 135.672 206.078C135.61 206.495 135.542 206.908 135.455 207.316C135.439 207.394 135.363 207.443 135.286 207.427C135.227 207.414 135.185 207.367 135.175 207.311L135.174 207.301C135.103 206.891 135.059 206.488 135.005 206.088L134.902 205.492C134.864 205.296 134.85 205.097 134.798 204.904C134.701 204.517 134.649 204.126 134.526 203.753C134.473 203.565 134.431 203.374 134.373 203.189L134.186 202.64C133.929 201.916 133.615 201.223 133.236 200.583C133.138 200.426 133.045 200.264 132.938 200.115L132.784 199.887L132.618 199.67C132.512 199.521 132.39 199.389 132.276 199.254C132.217 199.19 132.158 199.121 132.099 199.064C132.07 199.034 132.04 199 132.013 198.974C131.989 198.951 131.949 198.914 131.947 198.908L131.791 198.592C131.623 198.253 131.76 197.84 132.097 197.671C132.325 197.557 132.587 197.584 132.783 197.718Z" fill="#000072"/>
<path d="M203.277 198.908C203.275 198.914 203.235 198.951 203.211 198.974C203.184 199 203.154 199.034 203.125 199.064C203.066 199.121 203.007 199.19 202.948 199.254C202.834 199.389 202.712 199.521 202.607 199.67L202.441 199.887L202.286 200.115C202.179 200.264 202.086 200.426 201.988 200.583C201.609 201.223 201.295 201.916 201.038 202.641L200.852 203.189C200.793 203.374 200.752 203.565 200.698 203.753C200.576 204.126 200.524 204.517 200.426 204.904C200.375 205.097 200.36 205.296 200.323 205.492L200.219 206.088C200.166 206.488 200.122 206.891 200.051 207.301L200.049 207.311C200.035 207.389 199.962 207.441 199.884 207.428C199.825 207.417 199.781 207.372 199.769 207.316C199.682 206.909 199.614 206.495 199.552 206.078C199.523 205.661 199.477 205.239 199.478 204.815C199.478 203.968 199.55 203.11 199.745 202.264C199.945 201.423 200.233 200.587 200.665 199.811C200.881 199.423 201.124 199.048 201.412 198.7C201.481 198.611 201.555 198.526 201.634 198.443C201.712 198.359 201.783 198.273 201.871 198.195C201.956 198.115 202.035 198.034 202.129 197.958C202.176 197.92 202.218 197.883 202.27 197.844C202.325 197.803 202.361 197.773 202.441 197.718C202.751 197.505 203.175 197.586 203.387 197.899C203.53 198.112 203.54 198.376 203.434 198.591L203.277 198.908Z" fill="#000072"/>
<path d="M140.12 192.072L140.179 192.655L140.253 193.307C140.279 193.529 140.313 193.752 140.332 193.986C140.354 194.219 140.366 194.461 140.354 194.722L140.354 194.723C140.353 194.764 140.318 194.796 140.277 194.794C140.263 194.793 140.249 194.788 140.238 194.78C140.026 194.629 139.843 194.456 139.685 194.268C139.523 194.08 139.39 193.876 139.261 193.666C139.135 193.455 139.02 193.236 138.92 193.006C138.872 192.891 138.824 192.774 138.786 192.651C138.765 192.591 138.747 192.528 138.73 192.464C138.712 192.394 138.7 192.343 138.685 192.245C138.622 191.847 138.891 191.473 139.286 191.41C139.68 191.346 140.051 191.618 140.114 192.016C140.116 192.029 140.117 192.041 140.119 192.054L140.12 192.072Z" fill="#000072"/>
<path d="M196.568 192.245C196.553 192.344 196.541 192.395 196.523 192.464C196.506 192.528 196.488 192.591 196.467 192.652C196.429 192.774 196.381 192.891 196.333 193.007C196.233 193.236 196.118 193.456 195.992 193.667C195.863 193.876 195.73 194.081 195.568 194.268C195.41 194.457 195.227 194.63 195.015 194.781C194.981 194.804 194.935 194.796 194.912 194.763C194.904 194.751 194.899 194.737 194.899 194.723L194.899 194.722C194.887 194.461 194.899 194.219 194.921 193.986C194.94 193.752 194.974 193.529 195 193.307L195.074 192.655L195.133 192.072L195.134 192.057C195.175 191.656 195.53 191.364 195.927 191.405C196.325 191.446 196.614 191.804 196.573 192.205C196.572 192.218 196.57 192.233 196.568 192.245Z" fill="#000072"/>
<path d="M143.628 199.302C143.628 199.302 140.318 196.713 139.402 192.159C139.402 192.159 137.498 191.188 136.182 193.815C136.182 193.815 137.7 201.835 145.087 205.721C145.087 205.721 144.019 201.592 143.628 199.302Z" fill="#0096F2"/>
<path d="M136.948 193.919C137.246 195.144 138.851 200.736 143.96 204.198C143.637 202.875 143.209 201.046 142.963 199.692C142.197 199.022 139.702 196.597 138.786 192.721C138.369 192.649 137.62 192.733 136.948 193.919ZM145.087 206.45C144.973 206.45 144.858 206.423 144.753 206.368C137.144 202.364 135.537 194.293 135.473 193.951C135.443 193.793 135.466 193.629 135.538 193.486C136.36 191.845 137.434 191.379 138.191 191.278C139.029 191.166 139.66 191.472 139.729 191.507C139.926 191.608 140.067 191.795 140.111 192.013C140.96 196.23 144.041 198.702 144.072 198.726C144.214 198.838 144.31 198.999 144.341 199.178C144.723 201.411 145.776 205.496 145.787 205.537C145.859 205.816 145.761 206.112 145.538 206.291C145.407 206.396 145.248 206.45 145.087 206.45Z" fill="#000072"/>
<path d="M191.627 199.302C191.627 199.302 194.937 196.713 195.853 192.159C195.853 192.159 197.757 191.188 199.073 193.815C199.073 193.815 197.555 201.835 190.168 205.721C190.168 205.721 191.236 201.593 191.627 199.302Z" fill="#0096F2"/>
<path d="M192.293 199.692C192.047 201.046 191.618 202.875 191.295 204.198C196.404 200.736 198.01 195.144 198.308 193.919C197.901 193.199 197.419 192.797 196.874 192.725C196.721 192.704 196.582 192.713 196.468 192.731C195.549 196.602 193.059 199.022 192.293 199.692ZM190.168 206.45C190.008 206.45 189.849 206.396 189.718 206.291C189.494 206.112 189.397 205.816 189.469 205.537C189.479 205.496 190.533 201.411 190.915 199.178C190.945 198.999 191.041 198.838 191.183 198.726C191.214 198.702 194.296 196.23 195.144 192.013C195.188 191.795 195.329 191.608 195.527 191.507C195.596 191.472 196.227 191.165 197.064 191.278C197.821 191.379 198.896 191.845 199.718 193.486C199.79 193.629 199.813 193.793 199.783 193.951C199.718 194.293 198.112 202.364 190.503 206.368C190.397 206.423 190.283 206.45 190.168 206.45Z" fill="#000072"/>
<path d="M153.6 180.669C153.6 180.669 154.843 184.223 154.485 189.408L158.579 193.003C158.579 193.003 159.649 186.738 157.827 181.536L153.6 180.669Z" fill="#0096F2"/>
<path d="M155.227 189.094L158.027 191.552C158.216 189.553 158.378 185.634 157.273 182.167L154.614 181.622C154.958 183.064 155.416 185.718 155.227 189.094ZM158.577 193.732C158.406 193.732 158.236 193.67 158.103 193.553L154.009 189.958C153.838 189.808 153.746 189.586 153.762 189.358C154.104 184.403 152.928 180.945 152.916 180.911C152.83 180.663 152.883 180.388 153.054 180.19C153.225 179.993 153.488 179.903 153.742 179.954L157.969 180.82C158.218 180.871 158.422 181.051 158.507 181.292C160.37 186.613 159.335 192.863 159.29 193.126C159.245 193.386 159.066 193.601 158.82 193.689C158.741 193.718 158.659 193.732 158.577 193.732Z" fill="#000072"/>
<path d="M181.656 180.669C181.656 180.669 180.413 184.223 180.771 189.408L176.677 193.003C176.677 193.003 175.607 186.738 177.429 181.536L181.656 180.669Z" fill="#0096F2"/>
<path d="M177.981 182.166C176.874 185.64 177.036 189.556 177.226 191.552L180.026 189.094C179.837 185.718 180.296 183.064 180.64 181.621L177.981 182.166ZM176.676 193.732C176.595 193.732 176.513 193.718 176.434 193.689C176.188 193.601 176.008 193.386 175.964 193.126C175.919 192.863 174.883 186.613 176.747 181.292C176.832 181.05 177.036 180.871 177.285 180.82L181.512 179.954C181.767 179.901 182.03 179.992 182.201 180.19C182.372 180.388 182.424 180.664 182.337 180.911C182.319 180.966 181.151 184.417 181.492 189.357C181.507 189.585 181.416 189.808 181.245 189.958L177.151 193.552C177.017 193.67 176.848 193.732 176.676 193.732Z" fill="#000072"/>
<path d="M163.544 214.859C162.514 219.964 156.641 222.299 152.514 219.17C149.284 216.723 145.737 211.126 143.545 198.853C143.336 197.677 143.138 196.438 142.955 195.135L144.35 193.801L153.599 184.951C153.599 184.951 162.71 199.184 163.719 210.093V210.095C163.877 211.785 163.84 213.395 163.544 214.859Z" fill="#B11313"/>
<g opacity="0.300003">
<g opacity="0.300003">
<path opacity="0.300003" d="M163.544 214.859C162.514 219.963 156.642 222.299 152.515 219.17C149.284 216.723 145.737 211.126 143.545 198.853C140.461 196.978 139.402 192.158 139.402 192.158C138.071 185.757 139.606 179.857 139.606 179.857C139.314 187.648 142.379 191.364 143.643 192.557C143.995 192.89 144.241 193.318 144.348 193.793C144.349 193.795 144.35 193.798 144.35 193.801C146.609 203.884 150.392 216.167 155.88 217.047C161.179 217.895 163.463 210.93 163.719 210.095C163.878 211.784 163.84 213.394 163.544 214.859Z" fill="#000072"/>
</g>
</g>
<path d="M154.39 184.271C155.444 185.428 156.276 186.719 157.031 188.052C157.406 188.72 157.748 189.406 158.087 190.093C158.427 190.78 158.759 191.47 159.084 192.165C160.382 194.943 161.563 197.783 162.545 200.71C163.528 203.634 164.319 206.654 164.607 209.799C164.746 211.369 164.755 212.976 164.49 214.584C164.433 214.979 164.349 215.403 164.221 215.81C164.104 216.221 163.938 216.618 163.759 217.007C163.385 217.777 162.886 218.488 162.291 219.103C161.089 220.321 159.501 221.141 157.815 221.383C156.975 221.515 156.111 221.486 155.273 221.337C154.436 221.176 153.627 220.873 152.888 220.455C152.526 220.239 152.162 220.002 151.848 219.741L151.377 219.351C151.218 219.222 151.081 219.074 150.932 218.936C150.789 218.794 150.636 218.659 150.501 218.51L150.097 218.062C149.819 217.77 149.588 217.445 149.339 217.134C148.374 215.864 147.604 214.483 146.928 213.075C146.241 211.668 145.716 210.206 145.208 208.743C144.736 207.27 144.306 205.786 143.952 204.288C143.778 203.538 143.59 202.791 143.447 202.036C143.3 201.282 143.124 200.533 143.018 199.772C142.781 198.255 142.67 196.717 142.8 195.156C142.808 195.068 142.884 195.003 142.972 195.01C143.033 195.015 143.083 195.055 143.105 195.108L143.107 195.112C143.407 195.837 143.635 196.569 143.831 197.304C144.024 198.041 144.224 198.772 144.376 199.512C144.521 200.254 144.691 200.989 144.851 201.726C145.003 202.466 145.198 203.193 145.381 203.923C145.751 205.383 146.193 206.818 146.672 208.236C147.186 209.638 147.714 211.039 148.385 212.356C149.043 213.679 149.793 214.948 150.674 216.091C150.902 216.369 151.113 216.665 151.362 216.919L151.723 217.314C151.843 217.446 151.978 217.56 152.104 217.684C152.235 217.802 152.355 217.934 152.493 218.042L152.9 218.373C153.17 218.595 153.445 218.766 153.733 218.938C154.314 219.259 154.94 219.487 155.588 219.607C156.235 219.715 156.902 219.736 157.553 219.626C158.86 219.431 160.089 218.775 161.013 217.831C161.473 217.357 161.859 216.81 162.151 216.214C162.289 215.913 162.421 215.606 162.512 215.284C162.614 214.966 162.679 214.641 162.732 214.283C162.966 212.884 162.969 211.419 162.842 209.958C162.714 208.494 162.457 207.03 162.123 205.578C161.792 204.125 161.378 202.684 160.917 201.257C159.993 198.4 158.864 195.6 157.616 192.853C157.305 192.166 156.984 191.483 156.657 190.803C156.332 190.122 155.989 189.45 155.671 188.764C155.03 187.397 154.426 186.006 153.95 184.537L153.948 184.532C153.903 184.393 153.978 184.243 154.116 184.198C154.217 184.165 154.323 184.197 154.39 184.271Z" fill="#000072"/>
<path d="M145.568 208.08C145.374 208.08 145.179 208.001 145.037 207.845C144.766 207.549 144.784 207.089 145.077 206.815C145.345 206.565 151.758 200.679 161.576 199.939C161.973 199.907 162.321 200.21 162.351 200.612C162.38 201.013 162.082 201.364 161.683 201.394C152.387 202.095 146.121 207.829 146.058 207.887C145.919 208.016 145.744 208.08 145.568 208.08Z" fill="#000072"/>
<path d="M171.709 214.859C172.74 219.964 178.612 222.299 182.739 219.17C185.969 216.723 189.517 211.126 191.708 198.853C191.917 197.677 192.115 196.438 192.299 195.135L190.904 193.801L181.655 184.951C181.655 184.951 172.544 199.184 171.534 210.093V210.095C171.376 211.785 171.413 213.395 171.709 214.859Z" fill="#B11313"/>
<g opacity="0.300003">
<g opacity="0.300003">
<path opacity="0.300003" d="M171.716 214.859C172.746 219.963 178.618 222.299 182.745 219.17C185.976 216.723 189.523 211.126 191.715 198.853C194.799 196.978 195.859 192.158 195.859 192.158C197.189 185.757 195.654 179.857 195.654 179.857C195.946 187.648 192.881 191.365 191.617 192.558C191.265 192.89 191.019 193.319 190.912 193.793C190.911 193.796 190.91 193.798 190.91 193.801C188.651 203.884 184.868 216.168 179.38 217.047C174.081 217.895 171.797 210.931 171.541 210.095C171.382 211.785 171.42 213.394 171.716 214.859Z" fill="#000072"/>
</g>
</g>
<path d="M181.306 184.537C180.83 186.006 180.226 187.397 179.585 188.764C179.267 189.45 178.924 190.122 178.599 190.803C178.272 191.483 177.951 192.166 177.64 192.853C176.392 195.6 175.263 198.4 174.339 201.257C173.878 202.684 173.464 204.125 173.133 205.578C172.8 207.03 172.542 208.494 172.414 209.958C172.288 211.419 172.29 212.884 172.524 214.283C172.577 214.641 172.642 214.966 172.744 215.284C172.835 215.606 172.967 215.913 173.105 216.214C173.397 216.81 173.783 217.357 174.243 217.831C175.167 218.775 176.396 219.431 177.703 219.626C178.354 219.736 179.021 219.715 179.668 219.607C180.316 219.487 180.942 219.259 181.523 218.938C181.811 218.767 182.086 218.595 182.356 218.373L182.763 218.042C182.901 217.934 183.022 217.802 183.152 217.684C183.278 217.56 183.413 217.446 183.533 217.314L183.894 216.919C184.143 216.665 184.354 216.369 184.582 216.091C185.463 214.948 186.213 213.679 186.871 212.356C187.542 211.038 188.07 209.638 188.584 208.236C189.063 206.818 189.506 205.383 189.875 203.923C190.058 203.193 190.253 202.466 190.405 201.726C190.565 200.989 190.735 200.254 190.88 199.512C191.032 198.772 191.232 198.04 191.425 197.304C191.621 196.569 191.849 195.837 192.149 195.112L192.151 195.108C192.185 195.026 192.278 194.988 192.359 195.022C192.415 195.046 192.451 195.099 192.456 195.156C192.586 196.716 192.475 198.255 192.238 199.772C192.132 200.533 191.956 201.282 191.809 202.036C191.666 202.791 191.478 203.538 191.304 204.288C190.95 205.786 190.52 207.27 190.048 208.743C189.54 210.206 189.015 211.668 188.328 213.075C187.652 214.483 186.883 215.864 185.917 217.134C185.668 217.445 185.437 217.77 185.159 218.062L184.755 218.51C184.62 218.659 184.467 218.794 184.324 218.936C184.175 219.074 184.039 219.222 183.879 219.351L183.408 219.741C183.094 220.002 182.73 220.239 182.368 220.455C181.629 220.873 180.82 221.176 179.983 221.337C179.145 221.487 178.281 221.515 177.441 221.383C175.755 221.142 174.167 220.321 172.965 219.103C172.37 218.488 171.871 217.777 171.497 217.007C171.318 216.618 171.152 216.221 171.035 215.81C170.907 215.403 170.823 214.979 170.766 214.584C170.501 212.976 170.51 211.369 170.649 209.799C170.937 206.654 171.728 203.634 172.711 200.71C173.693 197.783 174.874 194.943 176.172 192.165C176.497 191.47 176.829 190.78 177.169 190.093C177.508 189.406 177.85 188.72 178.225 188.052C178.98 186.719 179.812 185.428 180.866 184.271C180.964 184.163 181.129 184.156 181.236 184.254C181.314 184.327 181.339 184.436 181.308 184.531L181.306 184.537Z" fill="#000072"/>
<path d="M189.688 208.081C189.512 208.081 189.336 208.017 189.197 207.887C189.135 207.829 182.869 202.095 173.572 201.394C173.174 201.364 172.876 201.014 172.905 200.612C172.935 200.21 173.283 199.907 173.68 199.939C183.498 200.68 189.91 206.565 190.179 206.816C190.472 207.089 190.49 207.551 190.219 207.846C190.076 208.002 189.882 208.081 189.688 208.081Z" fill="#000072"/>
<path d="M167.638 177.905C186.545 177.905 194.052 169.571 194.052 169.571C194.052 169.571 194.367 170.289 194.52 171.309C194.774 172.997 194.064 174.691 192.71 175.717C189.735 177.972 182.16 182.269 167.628 182.269C153.096 182.269 145.521 177.972 142.546 175.717C141.192 174.691 140.482 172.997 140.735 171.309C140.889 170.289 141.204 169.571 141.204 169.571C141.204 169.571 148.711 177.905 167.618 177.905" fill="#751313"/>
<g opacity="0.300003">
<g opacity="0.300003">
<path opacity="0.300003" d="M194.449 170.918C194.206 171.977 193.597 172.939 192.708 173.613C189.733 175.868 182.158 180.165 167.626 180.165C153.094 180.165 145.519 175.868 142.544 173.613C141.655 172.939 141.046 171.977 140.803 170.918C140.777 171.042 140.754 171.173 140.734 171.309C140.48 172.997 141.19 174.691 142.544 175.717C145.519 177.972 153.094 182.269 167.626 182.269C182.158 182.269 189.733 177.972 192.708 175.717C194.062 174.691 194.772 172.997 194.518 171.309C194.498 171.173 194.474 171.042 194.449 170.918Z" fill="#000072"/>
</g>
</g>
<path d="M167.629 182.999C153.116 182.999 145.413 178.802 142.112 176.3C140.53 175.101 139.729 173.146 140.021 171.2C140.187 170.096 140.529 169.309 140.543 169.276C140.642 169.051 140.848 168.891 141.089 168.852C141.33 168.812 141.575 168.898 141.739 169.081C141.812 169.161 149.306 177.176 167.619 177.176V178.635C151.978 178.635 144.045 173.068 141.548 170.9C141.512 171.06 141.479 171.234 141.451 171.418C141.238 172.834 141.824 174.258 142.981 175.134C146.137 177.526 153.536 181.54 167.629 181.54C181.721 181.54 189.121 177.526 192.277 175.134C193.433 174.258 194.019 172.834 193.806 171.418C193.779 171.234 193.745 171.06 193.709 170.9C191.213 173.068 183.279 178.635 167.638 178.635V177.176C186.013 177.176 193.445 169.162 193.518 169.081C193.682 168.898 193.927 168.812 194.168 168.852C194.41 168.891 194.615 169.051 194.714 169.276C194.728 169.309 195.07 170.096 195.236 171.2C195.529 173.146 194.728 175.101 193.145 176.3C189.845 178.802 182.141 182.999 167.629 182.999Z" fill="#000072"/>
<g opacity="0.3">
<path d="M110.475 122.875C110.475 122.875 110.88 124.633 109.536 126.595C109.536 126.595 111.731 126.527 112.787 127.981C112.787 127.981 112.435 125.868 113.943 124.262C113.943 124.262 111.882 124.634 110.475 122.875Z" fill="white"/>
</g>
<path d="M141.22 175.739L152.877 202.515" stroke="#000072" stroke-miterlimit="10"/>
<path d="M181.872 202.514L193.777 175.739" stroke="#000072" stroke-miterlimit="10"/>
<path fill-rule="evenodd" clip-rule="evenodd" d="M166.772 186.673C166.768 186.738 166.729 186.795 166.703 186.859C166.678 186.92 166.655 186.986 166.633 187.051C166.577 187.219 166.524 187.384 166.529 187.602C166.721 187.627 166.964 187.608 167.137 187.584C167.232 187.626 167.293 187.692 167.38 187.74C167.364 187.658 167.443 187.643 167.511 187.62C167.481 187.655 167.434 187.679 167.45 187.746C167.489 187.764 167.496 187.716 167.528 187.71C167.573 187.745 167.629 187.743 167.676 187.71C167.709 187.715 167.7 187.749 167.737 187.752C167.788 187.705 167.714 187.654 167.693 187.62C167.758 187.643 167.831 187.66 167.823 187.734C167.894 187.704 167.979 187.633 168.049 187.584C168.23 187.61 168.462 187.622 168.675 187.608C168.668 187.243 168.539 186.962 168.414 186.679C168.449 186.676 168.448 186.708 168.457 186.721C168.587 186.914 168.702 187.134 168.796 187.368C168.81 187.402 168.833 187.448 168.848 187.494C168.862 187.534 168.89 187.603 168.883 187.626C168.868 187.675 168.751 187.691 168.727 187.734C168.654 187.675 168.446 187.692 168.249 187.686C168.193 187.684 168.118 187.673 168.084 187.68C168.008 187.695 167.975 187.771 167.936 187.811C168.043 187.817 168.128 187.745 168.223 187.74C168.283 187.736 168.371 187.767 168.449 187.781C168.673 187.822 168.923 187.857 169.126 187.901C169.139 187.419 168.959 187.018 168.718 186.691C168.958 186.919 169.119 187.186 169.239 187.5C169.26 187.554 169.278 187.606 169.291 187.662C169.31 187.74 169.311 187.837 169.37 187.895C169.297 187.949 169.211 187.994 169.135 188.045C168.922 187.957 168.509 187.831 168.162 187.853C168.079 187.859 168.006 187.887 167.945 187.925C168.051 187.955 168.124 187.957 168.266 187.955C168.302 187.955 168.353 187.945 168.379 187.949C168.409 187.955 168.458 187.997 168.501 188.027C168.752 188.2 168.976 188.327 169.274 188.465C169.367 188.507 169.419 188.551 169.526 188.494C169.544 189.063 169.325 189.483 169.057 189.866C169.026 189.911 169.006 189.963 168.953 189.998C169.154 189.671 169.309 189.281 169.309 188.824C169.309 188.776 169.322 188.716 169.309 188.674C169.29 188.614 169.153 188.551 169.074 188.5C168.85 188.358 168.671 188.257 168.423 188.123C168.374 188.097 168.333 188.061 168.292 188.051C168.25 188.04 168.183 188.038 168.136 188.033C168.077 188.027 168.02 188.025 167.971 188.021C168.067 188.092 168.219 188.181 168.353 188.249C168.378 188.264 168.403 188.243 168.431 188.243C168.463 188.911 168.391 189.565 168.119 190.052C168.054 190.169 167.982 190.283 167.867 190.37C168.237 189.909 168.265 189.117 168.188 188.423C168.267 188.375 168.233 188.336 168.162 188.279C168.085 188.216 167.948 188.124 167.858 188.093C167.852 188.124 167.867 188.155 167.884 188.183C167.901 188.211 167.939 188.236 167.945 188.261C167.958 188.314 167.926 188.432 167.91 188.494C167.857 188.701 167.743 188.928 167.641 189.082C167.605 189.078 167.63 189.033 167.606 189.022C167.568 189.023 167.591 189.067 167.572 189.082C167.452 188.941 167.35 188.708 167.294 188.494C167.273 188.418 167.242 188.326 167.259 188.261C167.272 188.209 167.353 188.161 167.346 188.099C167.266 188.112 167.192 188.166 167.129 188.213C167.065 188.259 167 188.31 166.955 188.363C166.96 188.389 166.997 188.393 167.007 188.417C166.95 189.119 166.952 189.909 167.337 190.364C167.296 190.36 167.277 190.324 167.259 190.304C166.9 189.908 166.804 189.298 166.764 188.668C166.755 188.529 166.746 188.393 166.772 188.255C166.78 188.226 166.824 188.269 166.851 188.249C166.988 188.178 167.111 188.097 167.241 188.021C167.128 188.033 167.005 188.029 166.903 188.057C166.814 188.081 166.717 188.148 166.633 188.195C166.378 188.338 166.11 188.494 165.895 188.656C165.851 189.191 166.029 189.622 166.243 189.998C165.934 189.584 165.648 189.123 165.678 188.494C165.795 188.571 165.974 188.446 166.069 188.399C166.332 188.266 166.613 188.095 166.816 187.949C166.963 187.964 167.136 187.952 167.259 187.931C167.105 187.796 166.712 187.864 166.477 187.913C166.319 187.946 166.172 187.994 166.077 188.045C165.987 188.003 165.918 187.947 165.834 187.901C165.896 187.795 165.909 187.616 165.956 187.494C166.071 187.196 166.25 186.933 166.468 186.691C166.463 186.737 166.416 186.777 166.39 186.817C166.2 187.109 166.075 187.471 166.069 187.895C166.27 187.864 166.509 187.825 166.746 187.781C166.824 187.767 166.904 187.738 166.963 187.74C167.06 187.742 167.151 187.811 167.259 187.811C167.233 187.755 167.184 187.715 167.129 187.68C166.95 187.694 166.75 187.672 166.59 187.692C166.574 187.694 166.552 187.7 166.529 187.71C166.531 187.709 166.478 187.733 166.486 187.734C166.45 187.733 166.361 187.647 166.321 187.638C166.404 187.27 166.593 186.974 166.772 186.673Z" fill="#000072"/>
<path fill-rule="evenodd" clip-rule="evenodd" d="M167.629 182.999V193.344V182.999Z" fill="#000072"/>
<path d="M167.629 182.999V193.344" stroke="#000072" stroke-miterlimit="10"/>
<path d="M164.428 182.928C164.428 182.928 164.992 191.403 164.167 192.903" stroke="#000072" stroke-miterlimit="10"/>
<path d="M161.895 182.766C161.895 182.766 163.166 186.687 161.329 191.983" stroke="#000072" stroke-miterlimit="10"/>
<path d="M170.55 182.999C170.55 182.999 169.96 190.508 170.813 193.065" stroke="#000072" stroke-miterlimit="10"/>
<path d="M173.556 182.766C173.556 182.766 172.209 190.212 174.21 191.983" stroke="#000072" stroke-miterlimit="10"/>
<path d="M159.262 184.254C159.262 184.254 160.531 183.032 162.198 184.254C162.198 184.254 163.066 183.042 164.511 184.421C164.511 184.421 165.299 182.911 167.618 184.254C167.618 184.254 168.597 182.992 170.353 184.254C170.353 184.254 171.733 182.852 173.349 184.185C173.349 184.185 174.79 182.602 176.037 184.016" stroke="#000072" stroke-miterlimit="10"/>
<path d="M167.443 186.196C167.398 186.163 167.353 186.133 167.308 186.104C165.729 185.082 164.582 186.224 164.582 186.224C163.411 184.997 162.324 186.224 162.324 186.224C160.503 184.08 159.519 186.224 159.519 186.224" stroke="#000072" stroke-miterlimit="10"/>
<path d="M167.399 186.219C167.399 186.219 168.839 185.054 170.354 186.219C170.354 186.219 171.825 184.777 173.114 186.283C173.114 186.283 175.026 184.798 175.74 186.253" stroke="#000072" stroke-miterlimit="10"/>
<path d="M159.519 189.805C159.519 189.805 160.688 187.862 161.918 189.97C161.918 189.97 164.124 188.432 164.593 190.58C164.593 190.58 166.419 189.643 167.696 191.185C167.696 191.185 169.049 189.589 170.615 190.806C170.615 190.806 171.661 188.365 173.432 190.248C173.432 190.248 174.523 188.213 175.739 189.374" stroke="#000072" stroke-miterlimit="10"/>
<path d="M159.4 190.966C159.4 190.966 160.922 189.409 161.587 191.185C161.587 191.185 163.78 190.185 164.392 191.983C164.392 191.983 166.657 190.784 167.6 192.702C167.6 192.702 168.94 191.428 170.551 192.294C170.551 192.294 172.032 190.046 173.746 191.373C173.746 191.373 174.966 189.271 175.696 190.58" stroke="#000072" stroke-miterlimit="10"/>
<path d="M146.059 207.887C146.059 207.887 152.804 200.733 161.33 201.423L163.268 207.43C163.268 207.43 161.173 216.348 147.966 213.343L146.059 207.887Z" fill="#000072"/>
<path d="M146.059 207.887C146.059 207.887 152.804 200.733 161.33 201.423L163.268 207.43C163.268 207.43 161.173 216.348 147.966 213.343L146.059 207.887Z" stroke="#000072" stroke-miterlimit="10"/>
<path d="M171.677 208.906L173.663 200.385L183.023 203.256L188.6 206.451V208.906L187.291 213.343C187.291 213.343 177.92 216.455 171.677 208.906Z" fill="#000072"/>
<path d="M171.677 208.906L173.663 200.385L183.023 203.256L188.6 206.451V208.906L187.291 213.343C187.291 213.343 177.92 216.455 171.677 208.906Z" stroke="#000072" stroke-miterlimit="10"/>
<path d="M124.309 197.557L131.514 216.407" stroke="#000072" stroke-miterlimit="10"/>
<path d="M122.438 199.937C122.438 199.937 123.683 208.663 129.118 216.266" stroke="#000072" stroke-miterlimit="10"/>
<path d="M127.234 196.831C127.234 196.831 132.862 206.472 133.732 216.56" stroke="#000072" stroke-miterlimit="10"/>
<path d="M130.846 197.557C130.846 197.557 134.259 204.422 136.183 216.407" stroke="#000072" stroke-miterlimit="10"/>
<path d="M121.674 204.008C121.674 204.008 121.689 202.078 123.049 202.826C123.049 202.826 123.555 199.45 125.779 201.593C125.779 201.593 125.863 198.166 128.97 200.221C128.97 200.221 129.856 197.705 131.718 199.937C131.718 199.937 132.641 199.422 133.235 200.583" stroke="#000072" stroke-miterlimit="10"/>
<path d="M122.655 201.117C122.655 201.117 123.132 198.62 125.031 199.447C125.031 199.447 125.407 197.395 127.912 198.077C127.912 198.077 128.28 196.735 131.252 198.45" stroke="#000072" stroke-miterlimit="10"/>
<path d="M121.938 205.035C121.938 205.035 122.043 203.101 123.494 204.447C123.494 204.447 123.951 201.097 126.486 203.255C126.486 203.255 126.554 199.975 129.503 201.829C129.503 201.829 130.588 199.998 132.479 201.593C132.479 201.593 132.817 200.64 133.761 201.593" stroke="#000072" stroke-miterlimit="10"/>
<path d="M121.938 206.696C121.938 206.696 122.527 204.835 124.138 206.45C124.138 206.45 125.124 203.412 127.233 205.468C127.233 205.468 128.083 201.413 130.67 204.198C130.67 204.198 131.072 201.55 133.13 203.509C133.13 203.509 133.286 201.883 134.371 203.189" stroke="#000072" stroke-miterlimit="10"/>
<path d="M122.438 208.101C122.438 208.101 122.985 206.568 124.582 207.669C124.582 207.669 126.317 205.25 127.91 206.982C127.91 206.982 129.619 204.378 131.25 206.357C131.25 206.357 132.098 203.914 133.776 205.615C133.776 205.615 134.397 204.704 134.899 205.492" stroke="#000072" stroke-miterlimit="10"/>
<path d="M123.018 209.905C123.018 209.905 123.982 208.235 125.216 209.232C125.216 209.232 126.297 207.33 128.652 208.915C128.652 208.915 129.773 206.339 132.08 208.284C132.08 208.284 132.914 206.092 134.374 208.079C134.374 208.079 134.379 205.953 135.402 206.982" stroke="#000072" stroke-miterlimit="10"/>
<path d="M123.725 212.01V211.474C123.725 211.474 124.371 209.521 125.919 210.795C125.919 210.795 127.517 208.947 129.207 210.373C129.207 210.373 130.955 208.066 132.535 209.905C132.535 209.905 133.487 207.888 134.901 209.898" stroke="#000072" stroke-miterlimit="10"/>
<path d="M124.928 212.664C124.928 212.664 124.988 211.625 126.521 212.009C126.521 212.009 128.164 210.753 129.798 211.924C129.798 211.924 130.951 209.861 132.908 211.425C132.908 211.425 134.263 209.817 135.19 211.179" stroke="#000072" stroke-miterlimit="10"/>
<path d="M125.78 213.961C125.78 213.961 126.372 213.053 127.456 213.697C127.456 213.697 128.863 212.32 130.39 213.466C130.39 213.466 131.453 211.841 133.241 213.01C133.241 213.01 134.374 211.529 135.505 212.665" stroke="#000072" stroke-miterlimit="10"/>
<path d="M126.955 214.883C126.955 214.883 127.141 213.92 128.158 214.84C128.158 214.84 129.345 214.071 130.847 214.883C130.847 214.883 132.484 213.847 133.516 214.662C133.516 214.662 134.856 213.646 135.747 214.616" stroke="#000072" stroke-miterlimit="10"/>
<path d="M128.67 215.555C128.67 215.555 129.46 214.719 131.251 215.721C131.251 215.721 132.235 215.115 133.136 215.328C133.264 215.359 133.391 215.406 133.514 215.474" stroke="#000072" stroke-miterlimit="10"/>
<path d="M133.649 215.726C133.649 215.726 134.56 214.924 136.108 215.476" stroke="#000072" stroke-miterlimit="10"/>
<path d="M135.401 206.701C135.129 207.324 136.184 217.134 136.184 217.134H149.342L149.062 216.407L146.061 210.631L144.182 205.206C139.925 204.597 135.747 194.539 135.747 194.539L132.784 197.718L133.515 199.447L134.902 202.682L135.401 206.701Z" fill="#000072"/>
<path d="M210.405 197.101L203.964 216.407" stroke="#000072" stroke-miterlimit="10"/>
<path d="M212.116 199.457C212.116 199.457 210.972 211.777 205.596 216.703" stroke="#000072" stroke-miterlimit="10"/>
<path d="M207.924 196.983C207.924 196.983 203.562 207.554 201.491 216.525" stroke="#000072" stroke-miterlimit="10"/>
<path d="M204.3 197.91C204.3 197.91 201.125 203.916 199.478 217.642" stroke="#000072" stroke-miterlimit="10"/>
<path d="M213.186 202.712C213.186 202.712 212.839 201.004 211.739 202.154C211.739 202.154 211.279 199.101 209.108 200.986C209.108 200.986 208.495 198.384 206.59 200.384C206.59 200.384 205.108 197.897 203.261 200.384C203.261 200.384 202.879 199.755 201.986 200.583" stroke="#000072" stroke-miterlimit="10"/>
<path d="M213.298 204.44C213.298 204.44 212.89 202.765 211.388 204.008C211.388 204.008 210.516 201.908 208.351 203.255C208.351 203.255 207.844 201.129 205.594 202.514C205.594 202.514 204.93 200.895 202.689 202.045C202.689 202.045 202.165 201.021 201.227 202.135" stroke="#000072" stroke-miterlimit="10"/>
<path d="M213.3 206.45C213.3 206.45 212.443 204.646 210.978 205.814C210.978 205.814 209.609 203.858 207.631 205.42C207.631 205.42 206.883 203.513 204.981 204.815C204.981 204.815 204.007 202.712 201.988 204.198C201.988 204.198 201.618 203.09 200.149 204.008" stroke="#000072" stroke-miterlimit="10"/>
<path d="M212.945 208.081C212.945 208.081 212.44 206.296 210.44 207.776C210.44 207.776 209.078 205.486 207.043 207.181C207.043 207.181 206.163 204.848 204.299 206.754C204.299 206.754 203.711 204.856 201.491 206.298C201.491 206.298 201.166 204.813 200.218 206.088C199.271 207.362 199.968 206.064 199.968 206.064" stroke="#000072" stroke-miterlimit="10"/>
<path d="M212.407 209.851C212.407 209.851 211.683 207.859 209.9 209.423C209.9 209.423 208.784 207.797 206.493 208.824C206.493 208.824 205.108 207.146 203.502 208.823C203.502 208.823 202.409 207.118 200.973 208.539C200.973 208.539 200.413 205.739 199.063 208.445" stroke="#000072" stroke-miterlimit="10"/>
<path d="M211.312 211.232C211.312 211.232 211.268 209.413 209.344 210.876C209.344 210.876 208.076 209.091 205.845 210.769C205.845 210.769 204.638 208.932 203.006 210.874C203.006 210.874 201.894 209.093 200.515 210.817C200.515 210.817 200.472 207.849 198.61 210.176" stroke="#000072" stroke-miterlimit="10"/>
<path d="M210.405 212.773C210.405 212.773 210.119 211.78 208.582 212.547C208.582 212.547 206.913 211.282 205.263 212.514C205.263 212.514 204.311 211.163 202.568 212.374C202.568 212.374 201.134 211.113 200.148 212.321C200.148 212.321 200.235 210.065 198.144 211.797" stroke="#000072" stroke-miterlimit="10"/>
<path d="M209.298 213.978C209.298 213.978 209.063 212.857 207.786 213.978C207.786 213.978 206.337 212.995 204.707 214.182C204.707 214.182 203.104 213.157 202.072 214.182C202.072 214.182 200.967 212.67 199.797 214.182C199.797 214.182 199.439 212.184 198.309 213.831" stroke="#000072" stroke-miterlimit="10"/>
<path d="M208.322 214.555C208.322 214.555 207.793 214.066 207.262 214.774C207.262 214.774 205.143 214.145 204.298 215.407C204.298 215.407 203.387 214.406 201.757 215.407C201.757 215.407 200.961 213.929 199.766 215.407C199.766 215.407 199.108 213.442 197.875 215.407" stroke="#000072" stroke-miterlimit="10"/>
<path d="M191.51 205.047L195.738 200.935L199.064 195.243L199.476 193.98L202.268 197.101L202.487 198.651L200.974 200.384L200.148 202.514L199.796 205.047V206.408L199.767 207.316C199.767 207.316 198.323 214.184 199.064 216.887L186.185 217.209L185.765 216.407L187.869 212.285L190.178 206.815L191.51 205.047Z" fill="#000072"/>
<path d="M189.146 178.385C189.146 178.385 178.839 198.565 177.682 204.199" stroke="#000072" stroke-miterlimit="10"/>
<path d="M185.857 179.934C185.857 179.934 175.781 200.282 176.673 202.003" stroke="#000072" stroke-miterlimit="10"/>
<path d="M195.477 178.823C195.477 178.823 187.817 199.874 184.254 204.792" stroke="#000072" stroke-miterlimit="10"/>
<path d="M181.657 182.999C181.657 182.999 183.988 180.51 184.564 182.587C184.564 182.587 186.129 180.262 187.404 181.855C187.404 181.855 190.441 179.388 190.928 182.148C190.928 182.148 193.689 179.953 193.919 182.999C193.919 182.999 194.922 182.713 194.897 185.271C194.897 185.271 195.798 187.259 195.537 188.032" stroke="#000072" stroke-miterlimit="10"/>
<path d="M185.498 180.669C185.498 180.669 187.323 179.006 188.365 179.934C188.365 179.934 190.821 177.423 192.101 179.512C192.101 179.512 194.53 179.079 194.573 181.269C194.573 181.269 195.557 182.514 195.48 182.999C195.48 182.999 194.354 190.63 192.201 195.164C192.201 195.164 189.347 205.046 186.44 205.837" stroke="#000072" stroke-miterlimit="10"/>
<path d="M181.305 184.532C181.305 184.532 182.765 182.694 183.63 184.532C183.63 184.532 185.77 182.45 185.856 184.532C185.856 184.532 189.234 182.884 189.68 184.951C189.68 184.951 192.174 183.158 192.678 186.225C192.678 186.225 195.076 185.32 194.315 188.44C194.315 188.44 195.646 188.089 195.395 190.051" stroke="#000072" stroke-miterlimit="10"/>
<path d="M179.991 186.829C179.991 186.829 182.112 184.83 182.379 187.182C182.379 187.182 184.432 185.165 184.544 187.715C184.544 187.715 188.213 185.814 188.129 188.44C188.129 188.44 190.692 187.616 191.152 190.086C191.152 190.086 193.366 189.342 193.596 191.426C193.596 191.426 195.229 191.324 195.076 192.655" stroke="#000072" stroke-miterlimit="10"/>
<path d="M178.864 189.374C178.864 189.374 180.498 186.621 181.491 189.358C181.491 189.358 182.813 188.155 183.412 189.859C183.412 189.859 186.626 188.777 186.908 191.184C186.908 191.184 189.083 189.806 190.167 191.983C190.167 191.983 192.69 191.563 193.056 193.064C193.056 193.064 194.207 192.703 194.619 193.979" stroke="#000072" stroke-miterlimit="10"/>
<path d="M178.22 190.969C178.22 190.969 179.732 190.171 180.183 191.983C180.183 191.983 181.748 190.601 182.377 192.259C182.377 192.259 184.941 191.27 185.763 193.344C185.763 193.344 188.541 192.281 189.444 194.238C189.444 194.238 191.327 193.733 192.355 195.022C192.355 195.022 193.604 194.549 193.775 195.836" stroke="#000072" stroke-miterlimit="10"/>
<path d="M177.138 193.097C177.138 193.097 179.234 191.526 179.23 194.162C179.23 194.162 181.051 192.862 181.305 194.485C181.305 194.485 184.14 193.656 184.841 195.836C184.841 195.836 187.201 194.1 188.366 196.749C188.366 196.749 190.794 195.437 191.345 197.599" stroke="#000072" stroke-miterlimit="10"/>
<path d="M176.365 195.621C176.365 195.621 177.985 193.858 178.525 195.835C178.525 195.835 180.017 194.562 180.567 196.37C180.567 196.37 183.176 195.64 184.057 197.599C184.057 197.599 186.399 196.585 187.539 198.599C187.539 198.599 189.563 197.297 190.609 199.279" stroke="#000072" stroke-miterlimit="10"/>
<path d="M175.637 197.285C175.637 197.285 177.297 196.249 177.819 197.599C177.819 197.599 179.274 196.585 179.833 198.092C179.833 198.092 182.686 197.5 183.128 199.279C183.128 199.279 185.731 198.528 186.742 200.301C186.742 200.301 188.72 199.594 189.866 200.996C189.866 200.996 190.329 200.716 190.328 202.003" stroke="#000072" stroke-miterlimit="10"/>
<path d="M175.004 198.852C175.004 198.852 176.779 197.934 177.138 199.111C177.138 199.111 179.042 198.342 179.195 199.658C179.195 199.658 182.424 198.921 182.615 200.842C182.615 200.842 185.473 199.978 185.896 202.003C185.896 202.003 188.374 200.975 188.921 203.256C188.921 203.256 189.888 202.793 190.168 204.199" stroke="#000072" stroke-miterlimit="10"/>
<path d="M144.476 176.916C144.476 176.916 153.663 192.154 155.811 202.003" stroke="#000072" stroke-miterlimit="10"/>
<path d="M149.747 179.857C149.747 179.857 156.611 192.544 158.89 200.94" stroke="#000072" stroke-miterlimit="10"/>
<path d="M140.057 179.334C140.057 179.334 148.059 202.223 150.679 204.008" stroke="#000072" stroke-miterlimit="10"/>
<path d="M139.737 183.606C139.737 183.606 146.209 204.004 148.139 205.047" stroke="#000072" stroke-miterlimit="10"/>
<path d="M140.632 180.255C140.632 180.255 140.811 177.861 142.744 179.248C142.744 179.248 143.515 177.532 145.705 179.029C145.705 179.029 146.286 178.111 148.136 178.859" stroke="#000072" stroke-miterlimit="10"/>
<path d="M140.171 184.951C140.171 184.951 140.345 183.266 141.709 183.925C141.709 183.925 142.131 181.591 144.479 183.223C144.479 183.223 144.915 180.767 147.506 182.27C147.506 182.27 149.135 180.117 151.011 182.27C151.011 182.27 152.383 180.983 153.386 182.27" stroke="#000072" stroke-miterlimit="10"/>
<path d="M139.737 182.928C139.737 182.928 140.339 181.903 141.062 182.269C141.062 182.269 141.841 180.04 143.524 181.033C143.524 181.033 144.591 179.416 146.515 180.465C146.515 180.465 148.519 179.534 149.748 180.111" stroke="#000072" stroke-miterlimit="10"/>
<path d="M139.515 188.146C139.515 188.146 139.746 187.012 141.059 187.664C141.059 187.664 141.24 185.95 142.744 186.836C142.744 186.836 143.13 184.483 145.807 185.94C145.807 185.94 146.078 183.194 148.919 184.951C148.919 184.951 150.169 182.846 152.062 184.364C152.062 184.364 152.273 183.165 153.723 184.185" stroke="#000072" stroke-miterlimit="10"/>
<path d="M139.737 190.794C139.737 190.794 140.336 188.917 141.864 190.051C141.864 190.051 142.181 188.05 143.752 189.374C143.752 189.374 144.916 187.534 146.622 188.44C146.622 188.44 148.156 185.945 150.145 187.374C150.145 187.374 151.589 185.452 153.149 186.587C153.149 186.587 153.204 185.854 154.68 186.224" stroke="#000072" stroke-miterlimit="10"/>
<path d="M140.179 192.655C140.179 192.655 140.59 190.725 142.528 191.983C142.528 191.983 143.427 190.663 144.599 191.552C144.599 191.552 145.608 189.32 147.691 190.604C147.691 190.604 149.089 188.572 151.335 189.851C151.335 189.851 152.362 188.154 154.339 189.126C154.339 189.126 154.171 188.129 155.673 188.764" stroke="#000072" stroke-miterlimit="10"/>
<path d="M140.938 194.539C140.938 194.539 141.39 192.846 142.953 193.696C142.953 193.696 143.885 191.925 145.3 193.26C145.3 193.26 145.924 191.008 148.572 192.548C148.572 192.548 149.836 190.582 152.163 191.543C152.163 191.543 153.088 189.684 155.171 190.821C155.171 190.821 155.605 189.899 156.657 190.636" stroke="#000072" stroke-miterlimit="10"/>
<path d="M141.06 196.22C141.06 196.22 141.695 194.052 143.428 194.539C143.428 194.539 144.985 193.693 145.771 194.468C145.771 194.468 148.01 192.771 149.16 193.98C149.16 193.98 151.473 192.134 152.875 193.31C152.875 193.31 154.455 191.971 156.002 192.903C156.002 192.903 156.849 191.961 157.896 192.655" stroke="#000072" stroke-miterlimit="10"/>
<path d="M158.892 195.243C158.892 195.243 157.28 193.095 156.906 195.116C156.906 195.116 154.155 193.453 153.896 195.836C153.896 195.836 151.193 193.788 150.243 196.463C150.243 196.463 147.48 194.931 146.778 197.088C146.778 197.088 145.015 195.229 144.743 197.599C144.743 197.599 143.823 197.244 143.662 198.164" stroke="#000072" stroke-miterlimit="10"/>
<path d="M159.617 197.089C159.617 197.089 158.127 195.429 157.73 197.311C157.73 197.311 155.54 195.857 154.614 197.822C154.614 197.822 152.252 196.618 151.334 198.852C151.334 198.852 148.808 197.431 148.137 199.881C148.137 199.881 146.402 199.172 145.808 200.941C145.808 200.941 144.916 200.702 144.476 202.003" stroke="#000072" stroke-miterlimit="10"/>
<path d="M159.965 198.511C159.965 198.511 158.841 196.461 158.316 199.014C158.316 199.014 156.92 198.138 155.286 199.937C155.286 199.937 153.196 199.215 152.049 200.61C152.049 200.61 150.394 200.151 149.193 201.376C149.127 201.443 149.062 201.516 149 201.593" stroke="#000072" stroke-miterlimit="10"/>
<path d="M149.061 201.516C149.061 201.516 147.517 201.374 146.715 202.826C146.715 202.826 145.601 202.874 145.087 204.198C144.573 205.523 144.846 204.009 144.846 204.009" stroke="#000072" stroke-miterlimit="10"/>
<path fill-rule="evenodd" clip-rule="evenodd" d="M167.489 123.076C185.22 123.076 198.86 141.695 198.86 157.243C198.86 172.79 173.86 179.073 167.489 179.379C161.119 179.686 134.819 172.334 134.819 156.787C134.819 141.239 149.759 123.076 167.489 123.076Z" fill="#FF850B"/>
<path d="M167.49 123.832C149.808 123.832 135.569 141.86 135.569 156.787C135.569 160.668 137.317 164.318 140.766 167.636C148.447 175.025 162.461 178.632 167.095 178.632C167.222 178.632 167.341 178.63 167.454 178.624C170.811 178.463 178.546 176.72 185.229 173.35C191.106 170.387 198.111 165.188 198.111 157.243C198.111 141.792 184.735 123.832 167.49 123.832ZM167.114 180.144C162.143 180.144 147.818 176.509 139.731 168.73C135.975 165.116 134.07 161.098 134.07 156.787C134.07 149.005 137.765 140.332 143.956 133.587C150.528 126.427 159.106 122.32 167.49 122.32C175.926 122.32 184.06 126.41 190.392 133.836C196.164 140.605 199.61 149.355 199.61 157.243C199.61 164.143 194.869 170.181 185.899 174.703C179.021 178.171 171.014 179.967 167.526 180.135C167.397 180.141 167.259 180.144 167.114 180.144Z" fill="#000072"/>
<g opacity="0.5">
<g opacity="0.5">
<path opacity="0.5" fill-rule="evenodd" clip-rule="evenodd" d="M167.485 123.076C178.382 123.076 187.733 130.11 193.322 139.141C193.38 139.433 193.436 139.726 193.486 140.021C188.382 132.473 180.425 127.496 171.613 126.154C172.178 126.369 172.505 126.625 172.505 126.9C172.505 127.667 169.944 128.289 166.784 128.289C163.624 128.289 161.062 127.667 161.062 126.9C161.062 126.625 161.389 126.369 161.955 126.154C153.142 127.497 145.186 132.474 140.083 140.021L140.111 139.862C145.995 130.471 156.171 123.076 167.485 123.076Z" fill="white"/>
</g>
</g>
<path fill-rule="evenodd" clip-rule="evenodd" d="M198.018 162.02C193.609 174.094 173.161 179.107 167.489 179.379C161.874 179.65 140.784 173.97 135.856 161.976C136.234 155.442 139.523 153.657 145.607 156.849C148.109 158.162 150.654 159.531 152.671 158.489C164.182 152.536 171.211 153.658 179.09 158.489C182.774 160.748 186.37 157.378 188.626 156.351C195.811 153.078 199.107 155.367 198.018 162.02Z" fill="white"/>
<g opacity="0.300003">
<g opacity="0.300003">
<path opacity="0.300003" fill-rule="evenodd" clip-rule="evenodd" d="M198.728 154.527C198.817 155.44 198.864 156.346 198.864 157.242C198.864 157.815 198.826 158.373 198.761 158.921L198.767 158.757C197.892 169.133 177.183 177.056 166.042 177.695C156.742 178.229 138.169 168.129 135.045 158.757C135.051 158.952 135.061 159.146 135.07 159.339C134.911 158.514 134.823 157.664 134.823 156.786C134.823 156.088 134.854 155.384 134.913 154.676L134.962 154.525C142.221 165.056 154.131 171.335 166.846 171.335C179.559 171.335 191.468 165.056 198.728 154.527Z" fill="#000072"/>
</g>
</g>
<path fill-rule="evenodd" clip-rule="evenodd" d="M156.019 149.559C155.027 149.113 154.012 148.366 152.975 147.318C151.177 147.401 149.739 149.338 149.739 151.716C149.739 154.147 151.241 156.117 153.094 156.117C154.947 156.117 156.449 154.147 156.449 151.716C156.449 150.933 156.292 150.197 156.019 149.559Z" fill="#000072"/>
<path d="M184.175 145.416C182.964 147.038 181.775 148.292 180.605 149.178C178.885 150.482 177.024 150.71 176.817 149.274C177.743 149.167 178.707 148.733 179.71 147.973C182.181 146.099 182.954 144.892 184.175 145.416Z" fill="#000072"/>
<path fill-rule="evenodd" clip-rule="evenodd" d="M178.533 149.559C179.525 149.113 180.54 148.366 181.577 147.318C183.375 147.401 184.813 149.338 184.813 151.716C184.813 154.147 183.311 156.117 181.458 156.117C179.605 156.117 178.103 154.147 178.103 151.716C178.103 150.933 178.259 150.197 178.533 149.559Z" fill="#000072"/>
<path fill-rule="evenodd" clip-rule="evenodd" d="M180.073 150.595C179.529 150.595 179.088 151.069 179.088 151.654C179.088 152.239 179.529 152.713 180.073 152.713C180.617 152.713 181.058 152.239 181.058 151.654C181.058 151.069 180.617 150.595 180.073 150.595Z" fill="white"/>
<path fill-rule="evenodd" clip-rule="evenodd" d="M166.842 152.489C169.242 152.489 171.186 153.797 171.186 155.41C171.186 157.024 169.242 158.333 166.842 158.333C164.443 158.333 162.498 157.024 162.498 155.41C162.498 153.797 164.443 152.489 166.842 152.489Z" fill="#000072"/>
<path d="M170.993 161.914C169.464 161.914 167.985 161.34 166.85 160.315C165.583 161.479 163.835 162.021 162.118 161.746C160.123 161.426 158.431 160.046 157.702 158.145C157.553 157.756 157.745 157.318 158.131 157.167C158.516 157.017 158.95 157.21 159.1 157.6C159.637 159 160.883 160.017 162.353 160.252C163.824 160.488 165.321 159.912 166.262 158.749C166.402 158.575 166.612 158.473 166.834 158.471C167.058 158.471 167.268 158.566 167.412 158.736C168.394 159.896 169.876 160.513 171.384 160.385C172.891 160.257 174.253 159.4 175.029 158.091C175.241 157.732 175.702 157.615 176.056 157.83C176.411 158.044 176.527 158.508 176.315 158.867C175.292 160.593 173.496 161.724 171.51 161.892C171.337 161.906 171.165 161.914 170.993 161.914Z" fill="#000072"/>
<path fill-rule="evenodd" clip-rule="evenodd" d="M166.844 159.227C168.406 160.725 169.941 161.362 171.448 161.139C171.821 171.013 161.899 170.611 162.237 160.999C164.085 161.236 165.62 160.645 166.844 159.227Z" fill="#000072"/>
<path d="M162.983 161.806C163.058 164.322 163.942 166.3 165.415 167.18C166.389 167.762 167.488 167.77 168.433 167.202C169.844 166.355 170.655 164.458 170.707 161.936C169.432 161.894 168.151 161.338 166.882 160.273C165.79 161.293 164.495 161.806 163.017 161.806C163.006 161.806 162.995 161.806 162.983 161.806ZM166.956 169.131C166.168 169.131 165.377 168.915 164.652 168.481C162.519 167.207 161.365 164.47 161.488 160.972L161.518 160.145L162.332 160.249C163.932 160.453 165.221 159.957 166.279 158.73L166.793 158.134L167.36 158.679C168.759 160.02 170.062 160.581 171.34 160.39L172.166 160.268L172.198 161.109C172.329 164.584 171.236 167.278 169.2 168.501C168.501 168.921 167.73 169.131 166.956 169.131Z" fill="#000072"/>
<path fill-rule="evenodd" clip-rule="evenodd" d="M166.925 164.688C165.591 164.688 164.338 165.332 163.554 166.42C165.358 169.012 168.556 169.055 170.279 166.398C169.495 165.323 168.249 164.688 166.925 164.688Z" fill="#FF0066"/>
<path d="M164.525 166.438C165.22 167.21 166.093 167.629 167 167.621C167.876 167.606 168.685 167.189 169.321 166.433C168.687 165.806 167.824 165.443 166.925 165.443C166.022 165.443 165.159 165.807 164.525 166.438ZM166.954 169.133C165.41 169.133 163.951 168.306 162.941 166.855L162.634 166.413L162.948 165.976C163.87 164.696 165.356 163.931 166.925 163.931C168.481 163.931 169.961 164.686 170.883 165.95L171.192 166.373L170.907 166.812C169.966 168.262 168.551 169.107 167.025 169.133C167.001 169.133 166.977 169.133 166.954 169.133Z" fill="#000072"/>
<path fill-rule="evenodd" clip-rule="evenodd" d="M195.213 141.422C190.4 133.398 184.63 127.966 177.902 125.125C191.099 106.468 196.869 111.9 195.213 141.422Z" fill="#FF850B"/>
<path d="M179.051 124.808C184.958 127.528 190.171 132.295 194.582 139.007C195.387 120.817 192.942 115.976 190.692 115.177C188.975 114.569 185.571 115.779 179.051 124.808ZM195.823 143.901L194.57 141.813C189.864 133.966 184.158 128.587 177.611 125.823L176.745 125.457L177.29 124.686C183.327 116.152 187.872 112.573 191.189 113.751C195.42 115.252 196.936 124.059 195.959 141.464L195.823 143.901Z" fill="#000072"/>
<path fill-rule="evenodd" clip-rule="evenodd" d="M176.754 142.398C177.863 141.939 178.982 142.105 179.252 142.77C179.522 143.434 178.842 144.346 177.732 144.805C176.622 145.264 175.503 145.097 175.233 144.433C174.963 143.768 175.644 142.857 176.754 142.398Z" fill="white"/>
<path fill-rule="evenodd" clip-rule="evenodd" d="M157.418 142.354C156.308 141.894 155.189 142.061 154.919 142.725C154.649 143.39 155.33 144.301 156.44 144.76C157.549 145.219 158.668 145.053 158.938 144.389C159.208 143.724 158.528 142.813 157.418 142.354Z" fill="white"/>
<path fill-rule="evenodd" clip-rule="evenodd" d="M153.588 150.595C153.043 150.595 152.603 151.069 152.603 151.654C152.603 152.238 153.043 152.713 153.588 152.713C154.132 152.713 154.572 152.238 154.572 151.654C154.572 151.069 154.132 150.595 153.588 150.595Z" fill="white"/>
<path fill-rule="evenodd" clip-rule="evenodd" d="M138.975 141.804C143.787 133.78 149.557 128.348 156.285 125.508C143.088 106.85 137.318 112.283 138.975 141.804Z" fill="#FF850B"/>
<path d="M144.295 115.427C143.994 115.427 143.728 115.476 143.494 115.56C141.244 116.358 138.799 121.199 139.604 139.389C144.015 132.678 149.228 127.91 155.135 125.19C149.505 117.394 146.198 115.427 144.295 115.427ZM138.364 144.284L138.227 141.847C137.25 124.441 138.766 115.635 142.997 114.133C146.312 112.957 150.858 116.533 156.895 125.068L157.441 125.839L156.575 126.205C150.028 128.969 144.322 134.349 139.616 142.196L138.364 144.284Z" fill="#000072"/>
<g opacity="0.649994">
<g opacity="0.649994">
<path opacity="0.649994" fill-rule="evenodd" clip-rule="evenodd" d="M154.637 126.268C155.182 125.997 155.733 125.743 156.291 125.507C148.112 113.944 142.787 111.638 140.313 118.581C142.947 113.699 147.722 116.261 154.636 126.268L154.637 126.268Z" fill="white"/>
</g>
</g>
<path fill-rule="evenodd" clip-rule="evenodd" d="M142.579 136.365C144.925 133.437 147.583 130.903 150.555 128.764C143.893 115.675 141.235 118.209 142.579 136.365Z" fill="#000072"/>
<path d="M144.293 121.296C144.26 121.296 144.237 121.301 144.224 121.304C144.144 121.327 143.432 121.623 143.127 124.957C142.922 127.203 142.946 130.392 143.199 134.454C145.136 132.243 147.279 130.259 149.593 128.534C146.087 121.775 144.633 121.296 144.293 121.296ZM141.972 138.324L141.831 136.421C140.808 122.606 142.261 120.291 143.818 119.849C145.68 119.319 147.895 121.883 151.221 128.419L151.517 129L150.99 129.379C148.088 131.469 145.454 133.979 143.161 136.841L141.972 138.324Z" fill="#000072"/>
<g opacity="0.300003">
<g opacity="0.300003">
<path opacity="0.300003" fill-rule="evenodd" clip-rule="evenodd" d="M143.442 120.976C141.011 122.81 139.441 127.773 138.731 135.864C138.774 137.722 138.855 139.701 138.973 141.804C139.332 141.148 139.712 140.5 140.114 139.861L140.086 140.021C142.028 137.032 144.117 134.441 146.352 132.248C145.045 133.492 143.813 134.831 142.657 136.265C142.634 136.293 142.611 136.321 142.589 136.349C142.587 136.352 142.585 136.354 142.582 136.358C142.58 136.36 142.579 136.362 142.576 136.365C141.925 127.568 142.214 122.438 143.442 120.976ZM190.739 120.594C193.171 122.428 194.741 127.391 195.45 135.481C195.407 137.339 195.327 139.319 195.209 141.422C194.849 140.766 194.469 140.118 194.068 139.479L194.096 139.638C192.154 136.65 190.065 134.059 187.83 131.866C189.137 133.11 190.368 134.449 191.525 135.883C191.547 135.911 191.57 135.939 191.593 135.967C191.595 135.97 191.597 135.972 191.599 135.975C191.601 135.978 191.603 135.98 191.605 135.983C192.257 127.186 191.968 122.056 190.739 120.594Z" fill="#000072"/>
</g>
</g>
<g opacity="0.649994">
<g opacity="0.649994">
<path opacity="0.649994" fill-rule="evenodd" clip-rule="evenodd" d="M179.556 125.886C179.011 125.614 178.46 125.361 177.902 125.125C186.081 113.562 191.406 111.256 193.88 118.199C191.246 113.316 186.471 115.879 179.557 125.886L179.556 125.886Z" fill="white"/>
</g>
</g>
<path fill-rule="evenodd" clip-rule="evenodd" d="M191.606 135.983C189.26 133.055 186.601 130.521 183.629 128.381C190.291 115.293 192.95 117.827 191.606 135.983Z" fill="#000072"/>
<path d="M184.592 128.152C186.906 129.876 189.049 131.861 190.986 134.071C191.238 130.009 191.262 126.82 191.057 124.574C190.752 121.241 190.041 120.945 189.96 120.922C189.812 120.88 188.435 120.741 184.592 128.152ZM192.213 137.942L191.024 136.458C188.731 133.597 186.097 131.087 183.195 128.997L182.667 128.617L182.963 128.036C186.29 121.5 188.503 118.937 190.367 119.466C191.923 119.909 193.377 122.223 192.353 136.039L192.213 137.942Z" fill="#000072"/>
<path d="M144.296 115.427C143.994 115.427 143.729 115.476 143.494 115.56C141.245 116.358 138.799 121.199 139.604 139.39C144.015 132.678 149.228 127.91 155.135 125.19C149.505 117.394 146.199 115.427 144.296 115.427ZM138.364 144.284L138.227 141.847C137.25 124.441 138.766 115.635 142.997 114.133C146.312 112.957 150.858 116.533 156.896 125.068L157.441 125.839L156.575 126.205C150.028 128.969 144.322 134.349 139.616 142.196L138.364 144.284Z" fill="#000072"/>
<path d="M167.49 123.832C149.808 123.832 135.569 141.86 135.569 156.787C135.569 160.668 137.317 164.318 140.766 167.636C148.447 175.025 162.461 178.632 167.095 178.632C167.222 178.632 167.341 178.63 167.454 178.624C170.811 178.463 178.546 176.72 185.229 173.35C191.106 170.387 198.111 165.188 198.111 157.243C198.111 141.792 184.735 123.832 167.49 123.832ZM167.114 180.144C162.143 180.144 147.818 176.509 139.731 168.73C135.975 165.116 134.07 161.098 134.07 156.787C134.07 149.005 137.765 140.332 143.956 133.587C150.528 126.427 159.106 122.32 167.49 122.32C175.926 122.32 184.06 126.41 190.392 133.836C196.164 140.605 199.61 149.355 199.61 157.243C199.61 164.143 194.869 170.181 185.899 174.703C179.021 178.171 171.014 179.967 167.526 180.135C167.397 180.141 167.259 180.144 167.114 180.144Z" fill="#000072"/>
<g opacity="0.559998">
<g opacity="0.559998">
<path opacity="0.559998" fill-rule="evenodd" clip-rule="evenodd" d="M168.253 153.659C168.908 153.834 169.393 154.151 169.336 154.369C169.279 154.587 168.702 154.622 168.047 154.448C167.392 154.274 166.907 153.956 166.964 153.738C167.02 153.52 167.598 153.485 168.253 153.659Z" fill="white"/>
</g>
</g>
<path d="M150.92 145.416C152.131 147.038 153.321 148.292 154.49 149.178C156.21 150.482 158.072 150.71 158.278 149.274C157.353 149.167 156.389 148.733 155.385 147.973C152.914 146.099 152.141 144.892 150.92 145.416Z" fill="#000072"/>
<path d="M179.051 124.808C184.958 127.528 190.171 132.295 194.582 139.007C195.387 120.817 192.942 115.976 190.692 115.177C188.975 114.569 185.571 115.779 179.051 124.808ZM195.823 143.901L194.57 141.813C189.864 133.966 184.158 128.587 177.611 125.823L176.745 125.457L177.29 124.686C183.327 116.152 187.872 112.573 191.189 113.751C195.42 115.252 196.936 124.059 195.959 141.464L195.823 143.901Z" fill="#000072"/>
</svg>
