<svg width="556" height="556" viewBox="0 0 556 556" fill="none" xmlns="http://www.w3.org/2000/svg">
<path d="M276.996 278V279.471L278.364 278.929L534.979 177.327L535.908 176.959L535.54 176.029C493.714 70.3865 391.616 1 277.996 1H276.996V2V278Z" fill="#4E00FF" stroke="#101D3F" stroke-width="2"/>
<path d="M277.628 277.069L278.059 278.997L553.51 261.667L554.508 261.604L554.445 260.606C552.62 231.596 546.241 203.055 535.54 176.029L535.172 175.099L534.242 175.467L277.628 277.069Z" fill="#FF850B" stroke="#101D3F" stroke-width="2"/>
<path d="M277.932 277.003L277.207 277.048L277.026 277.752L208.389 545.08L208.14 546.049L209.109 546.298C237.262 553.526 266.378 556.279 295.388 554.454C448.066 544.848 564.05 413.288 554.444 260.608L554.381 259.61L553.383 259.672L277.932 277.003Z" fill="#1DBEE1" stroke="#101D3F" stroke-width="2"/>
<path d="M278.967 278.248L279.732 275.267L277.361 277.229L64.7024 453.158L63.9319 453.795L64.5693 454.566C101.856 499.638 152.454 531.749 209.112 546.297L210.081 546.545L210.33 545.577L278.967 278.248Z" fill="#133D81" stroke="#101D3F" stroke-width="2"/>
<path d="M278.636 278.771L280.149 277.52L278.248 277.032L10.9228 208.394L9.95419 208.145L9.7055 209.114C-12.3453 294.997 8.05109 386.246 64.57 454.567L65.2075 455.337L65.978 454.7L278.636 278.771Z" fill="#FF0000" stroke="#101D3F" stroke-width="2"/>
<path d="M277.75 278.969L278.587 277.191L55.3012 114.962L54.4922 114.375L53.9044 115.184C33.3838 143.428 18.3874 175.298 9.70524 209.113L9.45656 210.082L10.4251 210.33L277.75 278.969Z" fill="#663090" stroke="#101D3F" stroke-width="2"/>
<path d="M277.407 278.809L278.994 279.962V278V2V1H277.994C189.327 1 106.018 43.4486 53.9 115.183L53.3122 115.992L54.1212 116.58L277.407 278.809Z" fill="#0096F2" stroke="#101D3F" stroke-width="2"/>
<path opacity="0.3" d="M125.75 501V486.388H125.676L121.123 489.586V486.62L125.725 483.385H128.838V501H125.75ZM139.617 501.354C137.468 501.354 135.78 500.536 134.551 498.9C133.33 497.257 132.72 495.014 132.72 492.174C132.72 489.35 133.334 487.121 134.563 485.485C135.792 483.849 137.476 483.031 139.617 483.031C141.757 483.031 143.438 483.849 144.658 485.485C145.879 487.112 146.489 489.338 146.489 492.162C146.489 494.994 145.879 497.236 144.658 498.888C143.438 500.532 141.757 501.354 139.617 501.354ZM139.617 498.778C140.78 498.778 141.684 498.196 142.327 497.033C142.978 495.869 143.303 494.25 143.303 492.174C143.303 490.115 142.978 488.508 142.327 487.353C141.676 486.189 140.772 485.607 139.617 485.607C138.461 485.607 137.55 486.189 136.882 487.353C136.223 488.516 135.894 490.119 135.894 492.162C135.894 494.237 136.219 495.861 136.87 497.033C137.529 498.196 138.445 498.778 139.617 498.778ZM154.851 484.313C155.559 485.119 155.913 486.209 155.913 487.584C155.913 488.96 155.559 490.054 154.851 490.868C154.143 491.682 153.195 492.089 152.007 492.089C150.819 492.089 149.871 491.682 149.163 490.868C148.463 490.054 148.113 488.96 148.113 487.584C148.113 486.209 148.463 485.119 149.163 484.313C149.871 483.499 150.819 483.092 152.007 483.092C153.195 483.092 154.143 483.499 154.851 484.313ZM152.007 490.172C152.463 490.172 152.817 489.944 153.069 489.489C153.329 489.025 153.459 488.39 153.459 487.584C153.459 486.771 153.329 486.136 153.069 485.68C152.817 485.216 152.463 484.984 152.007 484.984C151.559 484.984 151.205 485.216 150.945 485.68C150.693 486.136 150.566 486.771 150.566 487.584C150.566 488.39 150.693 489.025 150.945 489.489C151.205 489.944 151.559 490.172 152.007 490.172ZM152.251 501H149.59L156.414 491.662L162.468 483.385H165.105L158.464 492.479L152.251 501ZM165.532 493.444C166.24 494.258 166.594 495.352 166.594 496.728C166.594 498.103 166.24 499.197 165.532 500.011C164.824 500.817 163.876 501.22 162.688 501.22C161.5 501.22 160.552 500.817 159.844 500.011C159.144 499.197 158.794 498.103 158.794 496.728C158.794 495.352 159.144 494.258 159.844 493.444C160.552 492.63 161.5 492.223 162.688 492.223C163.876 492.223 164.824 492.63 165.532 493.444ZM161.626 498.62C161.886 499.083 162.24 499.315 162.688 499.315C163.136 499.315 163.49 499.083 163.75 498.62C164.01 498.156 164.141 497.521 164.141 496.715C164.141 495.91 164.01 495.275 163.75 494.811C163.49 494.347 163.136 494.115 162.688 494.115C162.24 494.115 161.886 494.347 161.626 494.811C161.374 495.275 161.248 495.91 161.248 496.715C161.248 497.521 161.374 498.156 161.626 498.62Z" fill="black"/>
<path opacity="0.3" d="M516.825 234.354C515.01 234.354 513.504 233.862 512.308 232.877C511.112 231.884 510.481 230.606 510.416 229.044H513.37C513.468 229.858 513.838 230.521 514.481 231.034C515.132 231.546 515.921 231.803 516.849 231.803C517.899 231.803 518.749 231.473 519.4 230.814C520.06 230.155 520.389 229.304 520.389 228.263C520.389 227.205 520.06 226.342 519.4 225.675C518.749 224.999 517.907 224.662 516.874 224.662C516.157 224.662 515.502 224.816 514.908 225.125C514.322 225.435 513.867 225.866 513.541 226.419H510.685L511.6 216.385H522.391V218.961H514.09L513.639 224.112H513.712C514.078 223.543 514.607 223.095 515.299 222.77C515.991 222.436 516.768 222.269 517.63 222.269C519.315 222.269 520.702 222.826 521.793 223.941C522.883 225.048 523.429 226.46 523.429 228.177C523.429 230.008 522.814 231.498 521.585 232.645C520.365 233.784 518.778 234.354 516.825 234.354ZM531.571 217.313C532.279 218.119 532.633 219.209 532.633 220.584C532.633 221.96 532.279 223.054 531.571 223.868C530.863 224.682 529.915 225.089 528.727 225.089C527.538 225.089 526.59 224.682 525.882 223.868C525.182 223.054 524.833 221.96 524.833 220.584C524.833 219.209 525.182 218.119 525.882 217.313C526.59 216.499 527.538 216.092 528.727 216.092C529.915 216.092 530.863 216.499 531.571 217.313ZM528.727 223.172C529.182 223.172 529.536 222.944 529.789 222.489C530.049 222.025 530.179 221.39 530.179 220.584C530.179 219.771 530.049 219.136 529.789 218.68C529.536 218.216 529.182 217.984 528.727 217.984C528.279 217.984 527.925 218.216 527.665 218.68C527.412 219.136 527.286 219.771 527.286 220.584C527.286 221.39 527.412 222.025 527.665 222.489C527.925 222.944 528.279 223.172 528.727 223.172ZM528.971 234H526.31L533.133 224.662L539.188 216.385H541.825L535.184 225.479L528.971 234ZM542.252 226.444C542.96 227.258 543.314 228.352 543.314 229.728C543.314 231.103 542.96 232.197 542.252 233.011C541.544 233.817 540.596 234.22 539.408 234.22C538.22 234.22 537.271 233.817 536.563 233.011C535.864 232.197 535.514 231.103 535.514 229.728C535.514 228.352 535.864 227.258 536.563 226.444C537.271 225.63 538.22 225.223 539.408 225.223C540.596 225.223 541.544 225.63 542.252 226.444ZM538.346 231.62C538.606 232.083 538.96 232.315 539.408 232.315C539.855 232.315 540.209 232.083 540.47 231.62C540.73 231.156 540.86 230.521 540.86 229.715C540.86 228.91 540.73 228.275 540.47 227.811C540.209 227.347 539.855 227.115 539.408 227.115C538.96 227.115 538.606 227.347 538.346 227.811C538.093 228.275 537.967 228.91 537.967 229.715C537.967 230.521 538.093 231.156 538.346 231.62Z" fill="black"/>
<path opacity="0.3" d="M39.1421 180.366C37.8563 180.366 36.7088 180.065 35.6997 179.463C34.6987 178.861 33.9012 177.994 33.3071 176.863C32.4689 175.406 32.0498 173.583 32.0498 171.394C32.0498 168.464 32.6886 166.169 33.9663 164.509C35.244 162.849 37.0018 162.019 39.2397 162.019C40.8511 162.019 42.2305 162.458 43.3779 163.337C44.5254 164.208 45.2293 165.356 45.4897 166.78H42.3647C42.1613 166.112 41.7747 165.579 41.2051 165.181C40.6354 164.782 39.9722 164.583 39.2153 164.583C37.897 164.583 36.8716 165.168 36.1392 166.34C35.4067 167.512 35.0446 169.156 35.0527 171.272H35.1138C35.4881 170.401 36.1025 169.705 36.957 169.185C37.8115 168.664 38.7881 168.403 39.8867 168.403C41.5632 168.403 42.9548 168.957 44.0615 170.063C45.1683 171.162 45.7217 172.546 45.7217 174.214C45.7217 176.004 45.1032 177.477 43.8662 178.633C42.6292 179.788 41.0545 180.366 39.1421 180.366ZM39.1177 177.791C40.0942 177.791 40.9202 177.453 41.5957 176.777C42.2793 176.102 42.6211 175.28 42.6211 174.312C42.6211 173.319 42.2915 172.497 41.6323 171.846C40.9813 171.195 40.1512 170.869 39.1421 170.869C38.133 170.869 37.2907 171.195 36.6152 171.846C35.9479 172.489 35.6143 173.298 35.6143 174.275C35.6143 175.26 35.952 176.094 36.6274 176.777C37.3029 177.453 38.133 177.791 39.1177 177.791ZM53.9858 163.313C54.6938 164.119 55.0479 165.209 55.0479 166.584C55.0479 167.96 54.6938 169.054 53.9858 169.868C53.2778 170.682 52.3298 171.089 51.1416 171.089C49.9535 171.089 49.0054 170.682 48.2974 169.868C47.5975 169.054 47.2476 167.96 47.2476 166.584C47.2476 165.209 47.5975 164.119 48.2974 163.313C49.0054 162.499 49.9535 162.092 51.1416 162.092C52.3298 162.092 53.2778 162.499 53.9858 163.313ZM51.1416 169.172C51.5973 169.172 51.9513 168.944 52.2036 168.489C52.464 168.025 52.5942 167.39 52.5942 166.584C52.5942 165.771 52.464 165.136 52.2036 164.68C51.9513 164.216 51.5973 163.984 51.1416 163.984C50.694 163.984 50.34 164.216 50.0796 164.68C49.8273 165.136 49.7012 165.771 49.7012 166.584C49.7012 167.39 49.8273 168.025 50.0796 168.489C50.34 168.944 50.694 169.172 51.1416 169.172ZM51.3857 180H48.7246L55.5483 170.662L61.603 162.385H64.2397L57.5991 171.479L51.3857 180ZM64.667 172.444C65.375 173.258 65.729 174.352 65.729 175.728C65.729 177.103 65.375 178.197 64.667 179.011C63.959 179.817 63.0109 180.22 61.8228 180.22C60.6346 180.22 59.6865 179.817 58.9785 179.011C58.2786 178.197 57.9287 177.103 57.9287 175.728C57.9287 174.352 58.2786 173.258 58.9785 172.444C59.6865 171.63 60.6346 171.223 61.8228 171.223C63.0109 171.223 63.959 171.63 64.667 172.444ZM60.7607 177.62C61.0212 178.083 61.3752 178.315 61.8228 178.315C62.2703 178.315 62.6243 178.083 62.8848 177.62C63.1452 177.156 63.2754 176.521 63.2754 175.715C63.2754 174.91 63.1452 174.275 62.8848 173.811C62.6243 173.347 62.2703 173.115 61.8228 173.115C61.3752 173.115 61.0212 173.347 60.7607 173.811C60.5085 174.275 60.3823 174.91 60.3823 175.715C60.3823 176.521 60.5085 177.156 60.7607 177.62Z" fill="black"/>
<path opacity="0.3" d="M428.347 466.151V463.783H430.471C431.374 463.783 432.106 463.535 432.668 463.038C433.229 462.534 433.51 461.887 433.51 461.097C433.51 460.316 433.242 459.693 432.705 459.229C432.176 458.766 431.427 458.534 430.458 458.534C429.555 458.534 428.819 458.782 428.249 459.278C427.679 459.767 427.362 460.422 427.297 461.244H424.367C424.457 459.657 425.063 458.391 426.186 457.447C427.317 456.503 428.79 456.031 430.605 456.031C432.347 456.031 433.771 456.463 434.877 457.325C435.984 458.188 436.538 459.303 436.538 460.67C436.538 461.752 436.204 462.668 435.537 463.417C434.877 464.157 433.999 464.621 432.9 464.808V464.881C434.226 464.979 435.28 465.41 436.062 466.175C436.851 466.932 437.246 467.921 437.246 469.142C437.246 470.688 436.615 471.945 435.354 472.914C434.1 473.874 432.505 474.354 430.568 474.354C428.648 474.354 427.097 473.874 425.917 472.914C424.737 471.945 424.107 470.672 424.025 469.093H427.028C427.102 469.907 427.456 470.558 428.09 471.046C428.725 471.534 429.559 471.778 430.593 471.778C431.61 471.778 432.44 471.522 433.083 471.009C433.726 470.497 434.047 469.833 434.047 469.02C434.047 468.132 433.73 467.433 433.095 466.92C432.469 466.407 431.61 466.151 430.52 466.151H428.347ZM446.303 474.354C444.155 474.354 442.466 473.536 441.237 471.9C440.017 470.257 439.406 468.014 439.406 465.174C439.406 462.35 440.021 460.121 441.25 458.485C442.478 456.849 444.163 456.031 446.303 456.031C448.444 456.031 450.124 456.849 451.345 458.485C452.565 460.112 453.176 462.338 453.176 465.162C453.176 467.994 452.565 470.236 451.345 471.888C450.124 473.532 448.444 474.354 446.303 474.354ZM446.303 471.778C447.467 471.778 448.37 471.196 449.013 470.033C449.664 468.869 449.99 467.25 449.99 465.174C449.99 463.115 449.664 461.508 449.013 460.353C448.362 459.189 447.459 458.607 446.303 458.607C445.148 458.607 444.236 459.189 443.569 460.353C442.91 461.516 442.58 463.119 442.58 465.162C442.58 467.237 442.906 468.861 443.557 470.033C444.216 471.196 445.131 471.778 446.303 471.778ZM461.538 457.313C462.246 458.119 462.6 459.209 462.6 460.584C462.6 461.96 462.246 463.054 461.538 463.868C460.83 464.682 459.882 465.089 458.693 465.089C457.505 465.089 456.557 464.682 455.849 463.868C455.149 463.054 454.799 461.96 454.799 460.584C454.799 459.209 455.149 458.119 455.849 457.313C456.557 456.499 457.505 456.092 458.693 456.092C459.882 456.092 460.83 456.499 461.538 457.313ZM458.693 463.172C459.149 463.172 459.503 462.944 459.755 462.489C460.016 462.025 460.146 461.39 460.146 460.584C460.146 459.771 460.016 459.136 459.755 458.68C459.503 458.216 459.149 457.984 458.693 457.984C458.246 457.984 457.892 458.216 457.631 458.68C457.379 459.136 457.253 459.771 457.253 460.584C457.253 461.39 457.379 462.025 457.631 462.489C457.892 462.944 458.246 463.172 458.693 463.172ZM458.938 474H456.276L463.1 464.662L469.155 456.385H471.792L465.151 465.479L458.938 474ZM472.219 466.444C472.927 467.258 473.281 468.352 473.281 469.728C473.281 471.103 472.927 472.197 472.219 473.011C471.511 473.817 470.563 474.22 469.375 474.22C468.186 474.22 467.238 473.817 466.53 473.011C465.83 472.197 465.48 471.103 465.48 469.728C465.48 468.352 465.83 467.258 466.53 466.444C467.238 465.63 468.186 465.223 469.375 465.223C470.563 465.223 471.511 465.63 472.219 466.444ZM468.312 471.62C468.573 472.083 468.927 472.315 469.375 472.315C469.822 472.315 470.176 472.083 470.437 471.62C470.697 471.156 470.827 470.521 470.827 469.715C470.827 468.91 470.697 468.275 470.437 467.811C470.176 467.347 469.822 467.115 469.375 467.115C468.927 467.115 468.573 467.347 468.312 467.811C468.06 468.275 467.934 468.91 467.934 469.715C467.934 470.521 468.06 471.156 468.312 471.62Z" fill="black"/>
<path opacity="0.3" d="M416.75 89V74.3882H416.676L412.123 77.5864V74.6201L416.725 71.3853H419.838V89H416.75ZM430.08 89.354C428.46 89.354 427.073 88.9146 425.917 88.0356C424.77 87.1567 424.07 86.0093 423.817 84.5933H426.942C427.138 85.2606 427.524 85.7977 428.102 86.2046C428.688 86.6034 429.363 86.8027 430.128 86.8027C431.439 86.8027 432.456 86.2168 433.18 85.0449C433.913 83.8649 434.267 82.217 434.242 80.1011H434.218H434.206H434.193C433.843 80.9718 433.241 81.6717 432.387 82.2007C431.54 82.7215 430.552 82.9819 429.42 82.9819C427.744 82.9819 426.348 82.4285 425.233 81.3218C424.127 80.215 423.573 78.8275 423.573 77.1592C423.573 75.377 424.192 73.908 425.429 72.7524C426.674 71.5968 428.249 71.019 430.153 71.019C431.447 71.019 432.598 71.3201 433.607 71.9224C434.625 72.5246 435.426 73.3872 436.012 74.5103C436.85 75.967 437.27 77.7939 437.27 79.9912C437.27 82.929 436.635 85.224 435.365 86.876C434.096 88.528 432.334 89.354 430.08 89.354ZM430.165 80.5161C431.174 80.5161 432.016 80.1906 432.692 79.5396C433.367 78.8885 433.705 78.0788 433.705 77.1104C433.705 76.1257 433.363 75.2956 432.68 74.6201C432.004 73.9447 431.174 73.6069 430.189 73.6069C429.205 73.6069 428.371 73.9406 427.687 74.6079C427.012 75.2752 426.674 76.0931 426.674 77.0615C426.674 78.0544 427.003 78.8804 427.663 79.5396C428.33 80.1906 429.164 80.5161 430.165 80.5161ZM445.631 72.313C446.339 73.1187 446.693 74.2091 446.693 75.5845C446.693 76.9598 446.339 78.0544 445.631 78.8682C444.923 79.682 443.975 80.0889 442.787 80.0889C441.599 80.0889 440.651 79.682 439.943 78.8682C439.243 78.0544 438.893 76.9598 438.893 75.5845C438.893 74.2091 439.243 73.1187 439.943 72.313C440.651 71.4992 441.599 71.0923 442.787 71.0923C443.975 71.0923 444.923 71.4992 445.631 72.313ZM442.787 78.1724C443.243 78.1724 443.597 77.9445 443.849 77.4888C444.11 77.0249 444.24 76.3901 444.24 75.5845C444.24 74.7707 444.11 74.1359 443.849 73.6802C443.597 73.2163 443.243 72.9844 442.787 72.9844C442.34 72.9844 441.986 73.2163 441.725 73.6802C441.473 74.1359 441.347 74.7707 441.347 75.5845C441.347 76.3901 441.473 77.0249 441.725 77.4888C441.986 77.9445 442.34 78.1724 442.787 78.1724ZM443.031 89H440.37L447.194 79.6616L453.249 71.3853H455.885L449.245 80.4795L443.031 89ZM456.312 81.4438C457.021 82.2576 457.375 83.3522 457.375 84.7275C457.375 86.1029 457.021 87.1974 456.312 88.0112C455.604 88.8169 454.656 89.2197 453.468 89.2197C452.28 89.2197 451.332 88.8169 450.624 88.0112C449.924 87.1974 449.574 86.1029 449.574 84.7275C449.574 83.3522 449.924 82.2576 450.624 81.4438C451.332 80.63 452.28 80.2231 453.468 80.2231C454.656 80.2231 455.604 80.63 456.312 81.4438ZM452.406 86.6196C452.667 87.0835 453.021 87.3154 453.468 87.3154C453.916 87.3154 454.27 87.0835 454.53 86.6196C454.791 86.1558 454.921 85.521 454.921 84.7153C454.921 83.9097 454.791 83.2749 454.53 82.811C454.27 82.3472 453.916 82.1152 453.468 82.1152C453.021 82.1152 452.667 82.3472 452.406 82.811C452.154 83.2749 452.028 83.9097 452.028 84.7153C452.028 85.521 452.154 86.1558 452.406 86.6196Z" fill="black"/>
<path opacity="0.3" d="M14.7495 338V323.388H14.6763L10.123 326.586V323.62L14.7251 320.385H17.8379V338H14.7495ZM28.4946 338.354C26.6799 338.354 25.1743 337.862 23.978 336.877C22.7817 335.884 22.151 334.606 22.0859 333.044H25.04C25.1377 333.858 25.508 334.521 26.1509 335.034C26.8019 335.546 27.5913 335.803 28.519 335.803C29.5688 335.803 30.4193 335.473 31.0703 334.814C31.7295 334.155 32.0591 333.304 32.0591 332.263C32.0591 331.205 31.7295 330.342 31.0703 329.675C30.4193 328.999 29.577 328.662 28.5435 328.662C27.8273 328.662 27.1722 328.816 26.5781 329.125C25.9922 329.435 25.5365 329.866 25.2109 330.419H22.3545L23.27 320.385H34.061V322.961H25.7603L25.3086 328.112H25.3818C25.748 327.543 26.277 327.095 26.9688 326.77C27.6605 326.436 28.4377 326.269 29.3003 326.269C30.9849 326.269 32.3724 326.826 33.4629 327.941C34.5534 329.048 35.0986 330.46 35.0986 332.177C35.0986 334.008 34.4842 335.498 33.2554 336.645C32.0347 337.784 30.4478 338.354 28.4946 338.354ZM43.2407 321.313C43.9487 322.119 44.3027 323.209 44.3027 324.584C44.3027 325.96 43.9487 327.054 43.2407 327.868C42.5327 328.682 41.5846 329.089 40.3965 329.089C39.2083 329.089 38.2603 328.682 37.5522 327.868C36.8524 327.054 36.5024 325.96 36.5024 324.584C36.5024 323.209 36.8524 322.119 37.5522 321.313C38.2603 320.499 39.2083 320.092 40.3965 320.092C41.5846 320.092 42.5327 320.499 43.2407 321.313ZM40.3965 327.172C40.8522 327.172 41.2062 326.944 41.4585 326.489C41.7189 326.025 41.8491 325.39 41.8491 324.584C41.8491 323.771 41.7189 323.136 41.4585 322.68C41.2062 322.216 40.8522 321.984 40.3965 321.984C39.9489 321.984 39.5949 322.216 39.3345 322.68C39.0822 323.136 38.9561 323.771 38.9561 324.584C38.9561 325.39 39.0822 326.025 39.3345 326.489C39.5949 326.944 39.9489 327.172 40.3965 327.172ZM40.6406 338H37.9795L44.8032 328.662L50.8579 320.385H53.4946L46.854 329.479L40.6406 338ZM53.9219 330.444C54.6299 331.258 54.9839 332.352 54.9839 333.728C54.9839 335.103 54.6299 336.197 53.9219 337.011C53.2139 337.817 52.2658 338.22 51.0776 338.22C49.8895 338.22 48.9414 337.817 48.2334 337.011C47.5335 336.197 47.1836 335.103 47.1836 333.728C47.1836 332.352 47.5335 331.258 48.2334 330.444C48.9414 329.63 49.8895 329.223 51.0776 329.223C52.2658 329.223 53.2139 329.63 53.9219 330.444ZM50.0156 335.62C50.276 336.083 50.63 336.315 51.0776 336.315C51.5252 336.315 51.8792 336.083 52.1396 335.62C52.4001 335.156 52.5303 334.521 52.5303 333.715C52.5303 332.91 52.4001 332.275 52.1396 331.811C51.8792 331.347 51.5252 331.115 51.0776 331.115C50.63 331.115 50.276 331.347 50.0156 331.811C49.7633 332.275 49.6372 332.91 49.6372 333.715C49.6372 334.521 49.7633 335.156 50.0156 335.62Z" fill="black"/>
<path opacity="0.3" d="M150.75 59V44.3882H150.676L146.123 47.5864V44.6201L150.725 41.3853H153.838V59H150.75ZM164.495 59.354C162.68 59.354 161.174 58.8617 159.978 57.877C158.782 56.8841 158.151 55.6064 158.086 54.0439H161.04C161.138 54.8577 161.508 55.521 162.151 56.0337C162.802 56.5464 163.591 56.8027 164.519 56.8027C165.569 56.8027 166.419 56.4731 167.07 55.814C167.729 55.1548 168.059 54.3044 168.059 53.2627C168.059 52.2048 167.729 51.3421 167.07 50.6748C166.419 49.9993 165.577 49.6616 164.543 49.6616C163.827 49.6616 163.172 49.8162 162.578 50.1255C161.992 50.4347 161.536 50.866 161.211 51.4194H158.354L159.27 41.3853H170.061V43.9609H161.76L161.309 49.1123H161.382C161.748 48.5426 162.277 48.0951 162.969 47.7695C163.66 47.4359 164.438 47.269 165.3 47.269C166.985 47.269 168.372 47.8265 169.463 48.9414C170.553 50.0482 171.099 51.4601 171.099 53.1772C171.099 55.0083 170.484 56.4976 169.255 57.645C168.035 58.7843 166.448 59.354 164.495 59.354ZM179.241 42.313C179.949 43.1187 180.303 44.2091 180.303 45.5845C180.303 46.9598 179.949 48.0544 179.241 48.8682C178.533 49.682 177.585 50.0889 176.396 50.0889C175.208 50.0889 174.26 49.682 173.552 48.8682C172.852 48.0544 172.502 46.9598 172.502 45.5845C172.502 44.2091 172.852 43.1187 173.552 42.313C174.26 41.4992 175.208 41.0923 176.396 41.0923C177.585 41.0923 178.533 41.4992 179.241 42.313ZM176.396 48.1724C176.852 48.1724 177.206 47.9445 177.458 47.4888C177.719 47.0249 177.849 46.3901 177.849 45.5845C177.849 44.7707 177.719 44.1359 177.458 43.6802C177.206 43.2163 176.852 42.9844 176.396 42.9844C175.949 42.9844 175.595 43.2163 175.334 43.6802C175.082 44.1359 174.956 44.7707 174.956 45.5845C174.956 46.3901 175.082 47.0249 175.334 47.4888C175.595 47.9445 175.949 48.1724 176.396 48.1724ZM176.641 59H173.979L180.803 49.6616L186.858 41.3853H189.495L182.854 50.4795L176.641 59ZM189.922 51.4438C190.63 52.2576 190.984 53.3522 190.984 54.7275C190.984 56.1029 190.63 57.1974 189.922 58.0112C189.214 58.8169 188.266 59.2197 187.078 59.2197C185.889 59.2197 184.941 58.8169 184.233 58.0112C183.534 57.1974 183.184 56.1029 183.184 54.7275C183.184 53.3522 183.534 52.2576 184.233 51.4438C184.941 50.63 185.889 50.2231 187.078 50.2231C188.266 50.2231 189.214 50.63 189.922 51.4438ZM186.016 56.6196C186.276 57.0835 186.63 57.3154 187.078 57.3154C187.525 57.3154 187.879 57.0835 188.14 56.6196C188.4 56.1558 188.53 55.521 188.53 54.7153C188.53 53.9097 188.4 53.2749 188.14 52.811C187.879 52.3472 187.525 52.1152 187.078 52.1152C186.63 52.1152 186.276 52.3472 186.016 52.811C185.763 53.2749 185.637 53.9097 185.637 54.7153C185.637 55.521 185.763 56.1558 186.016 56.6196Z" fill="black"/>
<circle cx="278" cy="278" r="229" fill="#101D3F"/>
<g opacity="0.1">
<path d="M368.715 256.262C368.715 256.262 369.391 259.193 367.15 262.465C367.15 262.465 370.811 262.352 372.572 264.777C372.572 264.777 371.985 261.253 374.5 258.574C374.5 258.574 371.063 259.194 368.715 256.262Z" fill="white"/>
</g>
<path d="M183.224 301.495C183.224 301.495 184.185 305.661 181 310.312C181 310.312 186.203 310.151 188.705 313.598C188.705 313.598 187.871 308.589 191.446 304.782C191.446 304.782 186.56 305.663 183.224 301.495Z" fill="white"/>
<path d="M357.749 301.154C357.749 301.154 358.424 304.085 356.184 307.357C356.184 307.357 359.845 307.245 361.605 309.669C361.605 309.669 361.018 306.145 363.534 303.466C363.534 303.466 360.096 304.087 357.749 301.154Z" fill="white"/>
<g opacity="0.300003">
<g opacity="0.300003">
<path opacity="0.300003" d="M363.383 361.078C363.383 364.123 325.246 366.592 278.202 366.592C231.158 366.592 193.021 364.123 193.021 361.078C193.021 358.032 231.158 355.564 278.202 355.564C325.246 355.564 363.383 358.032 363.383 361.078Z" fill="#000072"/>
</g>
</g>
<path d="M349.897 354.182C346.517 358.137 341.558 360.361 336.379 360.361H220.013C214.834 360.361 209.875 358.137 206.495 354.182C204.627 351.996 203.246 349.561 202.318 347.07C202.314 347.07 202.314 347.069 202.314 347.066C199.393 339.248 200.882 330.858 205.542 327.841C213.367 322.767 219.401 328.967 219.401 328.967C220.068 327.384 220.973 326.012 221.985 324.837C225.796 320.395 231.138 318.703 231.138 318.703C228.234 301.899 234.717 286.674 234.717 286.674C234.717 286.674 250.69 298.853 278.196 298.853C305.702 298.853 321.675 286.674 321.675 286.674C321.675 286.674 328.158 301.899 325.254 318.703C325.254 318.703 333.806 321.412 336.991 328.967C336.991 328.967 343.025 322.767 350.85 327.841C356.995 331.823 357.625 345.147 349.897 354.182Z" fill="#B11313"/>
<g opacity="0.300003">
<g opacity="0.300003">
<path opacity="0.300003" d="M224.042 344.459C225.12 333.929 219.402 329.385 219.402 329.385C220.07 327.802 220.974 326.43 221.986 325.255C230.855 335.957 224.042 344.459 224.042 344.459Z" fill="#000072"/>
</g>
</g>
<g opacity="0.300003">
<g opacity="0.300003">
<path opacity="0.300003" d="M332.385 344.459C331.307 333.929 337.024 329.385 337.024 329.385C336.356 327.802 335.452 326.43 334.44 325.255C325.572 335.957 332.385 344.459 332.385 344.459Z" fill="#000072"/>
</g>
</g>
<g opacity="0.300003">
<g opacity="0.300003">
<path opacity="0.300003" d="M333.289 353.298C332.46 353.09 331.606 353.018 330.757 353.112C329.548 353.246 327.467 353.454 324.415 353.685C319.821 354.032 315.81 350.55 315.496 345.913C315.362 343.921 315.657 342.374 315.764 341.896C314.564 347.069 312.35 351.836 310.999 354.45C304.143 354.738 295.46 354.973 284.722 355.041C284.142 334.107 296.196 314.478 296.196 314.478C277.728 329.384 260.226 314.478 260.226 314.478C272.412 336.302 271.777 354.132 271.777 354.132L273.83 355.053C262.103 355.003 252.725 354.757 245.422 354.45C244.071 351.836 241.856 347.069 240.657 341.896C240.768 342.393 241.083 344.047 240.906 346.155C240.525 350.692 236.51 354.026 232.009 353.685C228.955 353.454 226.874 353.246 225.664 353.112C224.815 353.018 223.961 353.09 223.132 353.298C209.892 356.624 202.555 347.779 202.318 347.486C203.247 349.978 204.628 352.413 206.495 354.599C209.876 358.554 214.835 360.778 220.013 360.778H278.21H336.408C341.586 360.778 346.545 358.554 349.926 354.599C351.793 352.413 353.174 349.978 354.102 347.486C353.866 347.779 346.529 356.624 333.289 353.298Z" fill="#000072"/>
</g>
</g>
<g opacity="0.300003">
<g opacity="0.300003">
<path opacity="0.300003" d="M240.66 341.896C240.638 341.796 240.623 341.74 240.623 341.74C240.635 341.793 240.648 341.844 240.66 341.896Z" fill="#000072"/>
</g>
</g>
<g opacity="0.300003">
<g opacity="0.300003">
<path opacity="0.300003" d="M315.758 341.896C315.77 341.844 315.783 341.793 315.795 341.74C315.795 341.74 315.781 341.796 315.758 341.896Z" fill="#000072"/>
</g>
</g>
<path d="M278.185 359.562H336.383C341.265 359.562 345.86 357.464 348.989 353.805C353.032 349.079 355.025 342.533 354.192 336.723C353.704 333.322 352.25 330.609 350.203 329.282C343.283 324.793 338.072 330.014 337.854 330.239C337.572 330.528 337.166 330.658 336.77 330.582C336.374 330.506 336.042 330.236 335.884 329.863C332.95 322.903 324.976 320.309 324.896 320.283C324.318 320.101 323.965 319.515 324.069 318.914C326.378 305.559 322.563 293.065 321.103 288.971C316.729 291.856 301.68 300.489 278.2 300.489C254.719 300.489 239.67 291.856 235.297 288.971C233.836 293.065 230.021 305.559 232.33 318.914C232.434 319.515 232.081 320.101 231.504 320.283C231.425 320.309 223.437 322.93 220.515 329.863C220.357 330.236 220.025 330.506 219.629 330.582C219.234 330.658 218.827 330.528 218.545 330.239C218.327 330.018 213.072 324.821 206.196 329.282C204.149 330.609 202.695 333.322 202.208 336.723C201.374 342.533 203.367 349.079 207.41 353.805C210.539 357.464 215.134 359.562 220.016 359.562H278.185ZM336.383 361.995H220.016C214.432 361.995 209.172 359.589 205.585 355.395C201.099 350.15 198.891 342.862 199.821 336.375C200.418 332.215 202.219 328.969 204.892 327.235C211.254 323.109 216.623 325.804 218.982 327.482C221.974 321.954 227.526 319.243 229.792 318.327C227.268 301.773 233.347 287.233 233.612 286.611C233.758 286.267 234.053 286.011 234.411 285.915C234.77 285.819 235.151 285.895 235.447 286.121C235.603 286.239 251.465 298.056 278.2 298.056C304.934 298.056 320.796 286.239 320.953 286.12C321.249 285.895 321.631 285.82 321.989 285.916C322.346 286.012 322.641 286.268 322.787 286.611C323.052 287.233 329.131 301.773 326.607 318.327C328.873 319.243 334.425 321.954 337.417 327.482C339.776 325.804 345.144 323.108 351.507 327.235C354.181 328.969 355.981 332.215 356.578 336.375C357.509 342.862 355.3 350.15 350.815 355.395C347.227 359.589 341.967 361.995 336.383 361.995Z" fill="#000072"/>
<path d="M220.105 328.394C220.237 328.485 220.299 328.535 220.39 328.603C220.476 328.668 220.546 328.73 220.625 328.794C220.781 328.921 220.914 329.056 221.056 329.188C221.201 329.319 221.321 329.463 221.451 329.602C221.582 329.74 221.706 329.883 221.821 330.03C222.302 330.612 222.705 331.238 223.066 331.884C223.787 333.177 224.267 334.571 224.6 335.975C224.925 337.385 225.046 338.816 225.046 340.229C225.048 340.936 224.97 341.64 224.922 342.336C224.819 343.031 224.705 343.72 224.561 344.4C224.533 344.53 224.407 344.612 224.278 344.584C224.181 344.563 224.11 344.485 224.094 344.391L224.091 344.374C223.973 343.691 223.899 343.018 223.81 342.351L223.637 341.359C223.574 341.03 223.551 340.699 223.464 340.377C223.302 339.732 223.215 339.08 223.011 338.458C222.922 338.144 222.852 337.826 222.755 337.518L222.444 336.603C222.015 335.395 221.491 334.239 220.86 333.171C220.696 332.91 220.542 332.639 220.363 332.391L220.105 332.01L219.828 331.649C219.653 331.4 219.449 331.18 219.258 330.955C219.16 330.849 219.063 330.733 218.963 330.638C218.916 330.589 218.865 330.531 218.82 330.489C218.78 330.449 218.714 330.387 218.71 330.378L218.449 329.851C218.17 329.285 218.398 328.597 218.96 328.315C219.34 328.124 219.777 328.17 220.105 328.394Z" fill="#000072"/>
<path d="M337.666 330.378C337.662 330.388 337.596 330.45 337.556 330.489C337.511 330.531 337.46 330.589 337.412 330.638C337.313 330.733 337.216 330.849 337.117 330.956C336.927 331.18 336.723 331.4 336.548 331.649L336.271 332.01L336.013 332.391C335.834 332.639 335.68 332.91 335.516 333.171C334.884 334.239 334.361 335.395 333.932 336.603L333.621 337.518C333.524 337.827 333.454 338.144 333.365 338.458C333.161 339.081 333.074 339.732 332.912 340.377C332.825 340.699 332.802 341.031 332.738 341.359L332.566 342.352C332.477 343.018 332.403 343.692 332.285 344.374L332.282 344.391C332.26 344.522 332.136 344.609 332.007 344.586C331.908 344.569 331.835 344.493 331.815 344.4C331.671 343.72 331.557 343.031 331.453 342.336C331.406 341.64 331.328 340.936 331.33 340.229C331.33 338.816 331.45 337.385 331.775 335.975C332.109 334.572 332.588 333.177 333.31 331.884C333.67 331.238 334.074 330.612 334.555 330.031C334.67 329.883 334.794 329.74 334.925 329.602C335.055 329.463 335.175 329.319 335.32 329.188C335.462 329.056 335.594 328.921 335.751 328.794C335.83 328.73 335.9 328.668 335.986 328.603C336.077 328.535 336.139 328.485 336.271 328.394C336.789 328.038 337.495 328.173 337.848 328.696C338.088 329.05 338.103 329.491 337.927 329.85L337.666 330.378Z" fill="#000072"/>
<path d="M232.341 318.978L232.439 319.95L232.562 321.037C232.605 321.407 232.663 321.779 232.694 322.169C232.73 322.558 232.751 322.961 232.731 323.397L232.731 323.399C232.728 323.467 232.671 323.52 232.603 323.517C232.578 323.516 232.556 323.508 232.537 323.494C232.183 323.243 231.878 322.954 231.615 322.639C231.344 322.327 231.123 321.986 230.908 321.637C230.697 321.285 230.505 320.919 230.338 320.536C230.26 320.343 230.178 320.149 230.115 319.944C230.081 319.843 230.05 319.738 230.022 319.631C229.993 319.515 229.973 319.43 229.947 319.266C229.842 318.603 230.291 317.979 230.949 317.873C231.607 317.768 232.225 318.22 232.33 318.884C232.333 318.906 232.336 318.927 232.338 318.948L232.341 318.978Z" fill="#000072"/>
<path d="M326.477 319.267C326.452 319.431 326.432 319.516 326.402 319.631C326.374 319.739 326.343 319.843 326.309 319.944C326.246 320.149 326.165 320.343 326.086 320.537C325.919 320.92 325.727 321.285 325.516 321.637C325.301 321.987 325.08 322.328 324.81 322.64C324.546 322.955 324.241 323.243 323.887 323.495C323.831 323.534 323.755 323.521 323.715 323.465C323.701 323.445 323.694 323.422 323.693 323.399L323.693 323.397C323.673 322.962 323.694 322.559 323.73 322.17C323.762 321.779 323.819 321.408 323.862 321.037L323.985 319.95L324.083 318.978L324.086 318.952C324.153 318.284 324.746 317.797 325.408 317.865C326.071 317.933 326.554 318.531 326.486 319.199C326.484 319.221 326.481 319.246 326.477 319.267Z" fill="#000072"/>
<path d="M238.19 331.035C238.19 331.035 232.671 326.717 231.143 319.123C231.143 319.123 227.968 317.503 225.773 321.885C225.773 321.885 228.305 335.259 240.623 341.74C240.623 341.74 238.843 334.855 238.19 331.035Z" fill="#0096F2"/>
<path d="M227.05 322.058C227.547 324.1 230.224 333.426 238.744 339.2C238.205 336.993 237.491 333.943 237.081 331.685C235.803 330.568 231.643 326.525 230.114 320.06C229.42 319.94 228.171 320.08 227.05 322.058ZM240.624 342.956C240.433 342.956 240.242 342.911 240.066 342.818C227.377 336.141 224.698 322.682 224.59 322.112C224.54 321.848 224.578 321.575 224.698 321.335C226.069 318.599 227.861 317.823 229.123 317.654C230.52 317.466 231.572 317.977 231.687 318.036C232.017 318.204 232.252 318.515 232.325 318.88C233.74 325.913 238.88 330.034 238.931 330.075C239.167 330.261 239.328 330.53 239.379 330.828C240.016 334.553 241.773 341.364 241.79 341.433C241.911 341.898 241.748 342.391 241.375 342.691C241.157 342.866 240.891 342.956 240.624 342.956Z" fill="#000072"/>
<path d="M318.238 331.035C318.238 331.035 323.757 326.717 325.285 319.123C325.285 319.123 328.46 317.503 330.654 321.885C330.654 321.885 328.123 335.259 315.805 341.74C315.805 341.74 317.585 334.855 318.238 331.035Z" fill="#0096F2"/>
<path d="M319.346 331.685C318.936 333.944 318.222 336.993 317.682 339.201C326.203 333.426 328.88 324.102 329.377 322.058C328.698 320.857 327.895 320.187 326.987 320.066C326.732 320.032 326.499 320.046 326.309 320.076C324.777 326.532 320.623 330.569 319.346 331.685ZM315.803 342.956C315.536 342.956 315.27 342.866 315.052 342.691C314.679 342.391 314.516 341.898 314.637 341.433C314.654 341.364 316.411 334.553 317.048 330.828C317.099 330.529 317.259 330.261 317.496 330.075C317.547 330.034 322.687 325.913 324.102 318.88C324.175 318.515 324.41 318.204 324.74 318.037C324.855 317.978 325.907 317.466 327.304 317.654C328.566 317.823 330.358 318.599 331.729 321.335C331.849 321.575 331.887 321.848 331.837 322.112C331.729 322.682 329.05 336.141 316.361 342.818C316.185 342.91 315.994 342.956 315.803 342.956Z" fill="#000072"/>
<path d="M254.82 299.962C254.82 299.962 256.893 305.889 256.296 314.536L263.124 320.53C263.124 320.53 264.908 310.083 261.869 301.407L254.82 299.962Z" fill="#0096F2"/>
<path d="M257.533 314.012L262.202 318.111C262.518 314.777 262.788 308.242 260.945 302.459L256.511 301.55C257.084 303.956 257.849 308.382 257.533 314.012ZM263.12 321.746C262.834 321.746 262.552 321.643 262.329 321.447L255.501 315.453C255.216 315.203 255.064 314.832 255.09 314.451C255.66 306.188 253.699 300.423 253.679 300.365C253.536 299.952 253.623 299.493 253.908 299.163C254.194 298.834 254.633 298.685 255.057 298.77L262.105 300.214C262.521 300.299 262.861 300.598 263.002 301.001C266.11 309.875 264.383 320.297 264.308 320.736C264.234 321.169 263.935 321.528 263.524 321.675C263.393 321.723 263.256 321.746 263.12 321.746Z" fill="#000072"/>
<path d="M301.607 299.962C301.607 299.962 299.535 305.889 300.131 314.536L293.304 320.53C293.304 320.53 291.519 310.083 294.558 301.407L301.607 299.962Z" fill="#0096F2"/>
<path d="M295.479 302.458C293.633 308.251 293.904 314.782 294.221 318.112L298.891 314.012C298.576 308.381 299.34 303.956 299.913 301.55L295.479 302.458ZM293.304 321.746C293.168 321.746 293.032 321.722 292.9 321.675C292.49 321.528 292.19 321.169 292.116 320.736C292.041 320.296 290.314 309.874 293.422 301C293.563 300.597 293.904 300.299 294.319 300.214L301.368 298.769C301.793 298.681 302.232 298.833 302.517 299.163C302.802 299.493 302.889 299.953 302.745 300.365C302.713 300.457 300.767 306.213 301.334 314.451C301.361 314.831 301.208 315.202 300.923 315.453L294.095 321.447C293.873 321.642 293.59 321.746 293.304 321.746Z" fill="#000072"/>
<path d="M271.403 356.979C269.684 365.492 259.891 369.387 253.009 364.169C247.621 360.088 241.706 350.754 238.051 330.287C237.703 328.325 237.372 326.259 237.066 324.087L239.393 321.862L254.817 307.103C254.817 307.103 270.011 330.838 271.695 349.032V349.035C271.959 351.853 271.896 354.537 271.403 356.979Z" fill="#B11313"/>
<g opacity="0.300003">
<g opacity="0.300003">
<path opacity="0.300003" d="M271.404 356.978C269.685 365.491 259.892 369.386 253.01 364.168C247.622 360.087 241.707 350.753 238.052 330.286C232.908 327.159 231.141 319.12 231.141 319.12C228.922 308.446 231.482 298.607 231.482 298.607C230.995 311.6 236.106 317.797 238.214 319.787C238.802 320.341 239.212 321.056 239.391 321.848C239.392 321.852 239.393 321.856 239.394 321.861C243.16 338.676 249.469 359.161 258.623 360.628C267.46 362.042 271.268 350.427 271.696 349.034C271.96 351.852 271.897 354.536 271.404 356.978Z" fill="#000072"/>
</g>
</g>
<path d="M256.139 305.968C257.896 307.898 259.284 310.05 260.543 312.274C261.168 313.389 261.738 314.532 262.305 315.677C262.871 316.823 263.425 317.974 263.966 319.133C266.131 323.765 268.102 328.502 269.739 333.384C271.377 338.259 272.697 343.297 273.178 348.541C273.409 351.159 273.424 353.838 272.983 356.52C272.887 357.179 272.748 357.886 272.533 358.566C272.338 359.251 272.062 359.912 271.763 360.561C271.139 361.846 270.307 363.031 269.315 364.057C267.311 366.087 264.663 367.456 261.851 367.859C260.449 368.08 259.009 368.032 257.611 367.782C256.215 367.514 254.866 367.008 253.633 366.312C253.03 365.952 252.423 365.556 251.899 365.12L251.113 364.47C250.848 364.256 250.62 364.008 250.372 363.778C250.133 363.541 249.878 363.316 249.652 363.068L248.98 362.321C248.516 361.834 248.131 361.292 247.715 360.773C246.105 358.655 244.821 356.352 243.694 354.004C242.549 351.658 241.674 349.219 240.826 346.78C240.039 344.323 239.322 341.849 238.732 339.35C238.441 338.099 238.128 336.854 237.89 335.595C237.645 334.337 237.351 333.087 237.173 331.819C236.779 329.289 236.594 326.723 236.811 324.122C236.823 323.974 236.951 323.865 237.097 323.878C237.199 323.886 237.282 323.952 237.319 324.04L237.322 324.048C237.823 325.257 238.203 326.477 238.53 327.704C238.852 328.931 239.185 330.151 239.438 331.386C239.68 332.623 239.963 333.848 240.23 335.078C240.484 336.311 240.81 337.523 241.115 338.741C241.731 341.176 242.468 343.57 243.267 345.935C244.124 348.273 245.005 350.608 246.124 352.805C247.221 355.011 248.472 357.127 249.942 359.034C250.322 359.497 250.674 359.99 251.089 360.415L251.691 361.074C251.892 361.293 252.116 361.483 252.327 361.69C252.544 361.887 252.745 362.108 252.975 362.287L253.654 362.839C254.104 363.209 254.563 363.496 255.043 363.782C256.013 364.316 257.057 364.698 258.136 364.897C259.216 365.078 260.328 365.112 261.414 364.928C263.593 364.603 265.643 363.51 267.183 361.936C267.951 361.145 268.595 360.233 269.082 359.239C269.312 358.736 269.532 358.225 269.683 357.688C269.854 357.158 269.962 356.616 270.05 356.018C270.441 353.685 270.445 351.242 270.234 348.805C270.02 346.365 269.591 343.923 269.035 341.501C268.483 339.078 267.792 336.675 267.023 334.295C265.483 329.532 263.6 324.861 261.519 320.281C260.999 319.135 260.465 317.996 259.92 316.862C259.377 315.726 258.805 314.605 258.276 313.462C257.206 311.181 256.199 308.862 255.404 306.411L255.402 306.403C255.327 306.171 255.452 305.922 255.681 305.847C255.849 305.791 256.027 305.844 256.139 305.968Z" fill="#000072"/>
<path d="M241.427 345.674C241.102 345.674 240.778 345.543 240.541 345.283C240.089 344.789 240.119 344.021 240.608 343.565C241.055 343.148 251.749 333.332 268.122 332.097C268.784 332.043 269.364 332.55 269.414 333.22C269.464 333.889 268.965 334.473 268.301 334.523C252.797 335.693 242.348 345.255 242.244 345.352C242.012 345.567 241.719 345.674 241.427 345.674Z" fill="#000072"/>
<path d="M285.02 356.979C286.738 365.492 296.532 369.387 303.414 364.169C308.801 360.088 314.717 350.754 318.372 330.287C318.72 328.325 319.05 326.259 319.356 324.087L317.03 321.862L301.606 307.103C301.606 307.103 286.411 330.838 284.728 349.032V349.035C284.464 351.853 284.526 354.537 285.02 356.979Z" fill="#B11313"/>
<g opacity="0.300003">
<g opacity="0.300003">
<path opacity="0.300003" d="M285.03 356.979C286.748 365.492 296.542 369.387 303.424 364.169C308.811 360.088 314.727 350.754 318.382 330.287C323.526 327.16 325.292 319.121 325.292 319.121C327.511 308.447 324.952 298.608 324.952 298.608C325.439 311.601 320.328 317.798 318.219 319.788C317.632 320.342 317.222 321.057 317.043 321.848C317.042 321.853 317.041 321.857 317.04 321.862C313.273 338.677 306.964 359.162 297.811 360.629C288.974 362.043 285.166 350.428 284.738 349.035C284.474 351.853 284.536 354.537 285.03 356.979Z" fill="#000072"/>
</g>
</g>
<path d="M301.025 306.411C300.23 308.862 299.223 311.181 298.153 313.462C297.624 314.605 297.052 315.726 296.509 316.862C295.964 317.996 295.43 319.135 294.91 320.281C292.829 324.861 290.946 329.532 289.405 334.295C288.637 336.675 287.946 339.078 287.394 341.502C286.838 343.923 286.408 346.365 286.195 348.805C285.984 351.242 285.988 353.685 286.379 356.018C286.467 356.616 286.575 357.158 286.745 357.688C286.897 358.225 287.117 358.736 287.347 359.239C287.834 360.233 288.478 361.145 289.245 361.936C290.785 363.51 292.836 364.603 295.015 364.928C296.101 365.112 297.213 365.077 298.293 364.897C299.372 364.698 300.416 364.316 301.385 363.781C301.865 363.496 302.325 363.209 302.775 362.839L303.454 362.287C303.683 362.108 303.885 361.887 304.102 361.69C304.313 361.483 304.537 361.293 304.738 361.074L305.34 360.415C305.755 359.99 306.107 359.497 306.487 359.034C307.957 357.127 309.208 355.011 310.305 352.805C311.424 350.608 312.305 348.273 313.162 345.935C313.961 343.57 314.698 341.176 315.314 338.741C315.619 337.523 315.945 336.311 316.199 335.078C316.466 333.848 316.749 332.623 316.991 331.386C317.244 330.151 317.577 328.931 317.899 327.704C318.226 326.477 318.606 325.257 319.107 324.048L319.11 324.041C319.166 323.905 319.321 323.84 319.456 323.897C319.551 323.937 319.61 324.026 319.618 324.122C319.835 326.723 319.65 329.289 319.256 331.819C319.078 333.087 318.784 334.337 318.539 335.595C318.301 336.854 317.988 338.099 317.697 339.35C317.107 341.849 316.39 344.323 315.603 346.78C314.755 349.219 313.88 351.658 312.734 354.004C311.607 356.352 310.324 358.655 308.714 360.773C308.298 361.292 307.913 361.834 307.449 362.321L306.776 363.068C306.551 363.316 306.296 363.541 306.057 363.778C305.809 364.008 305.581 364.256 305.316 364.47L304.53 365.12C304.006 365.556 303.398 365.952 302.795 366.312C301.563 367.008 300.214 367.514 298.818 367.782C297.42 368.032 295.98 368.08 294.578 367.859C291.766 367.456 289.118 366.087 287.114 364.057C286.122 363.031 285.29 361.846 284.666 360.561C284.367 359.912 284.091 359.251 283.896 358.566C283.681 357.886 283.542 357.179 283.446 356.52C283.005 353.838 283.02 351.159 283.251 348.541C283.732 343.297 285.052 338.259 286.69 333.384C288.327 328.503 290.298 323.765 292.463 319.133C293.003 317.974 293.558 316.823 294.124 315.677C294.691 314.532 295.261 313.389 295.886 312.274C297.145 310.05 298.533 307.898 300.289 305.968C300.453 305.788 300.729 305.776 300.907 305.941C301.038 306.062 301.079 306.243 301.027 306.403L301.025 306.411Z" fill="#000072"/>
<path d="M315.003 345.675C314.71 345.675 314.417 345.568 314.185 345.352C314.081 345.256 303.632 335.693 288.128 334.524C287.464 334.474 286.966 333.89 287.015 333.22C287.065 332.55 287.644 332.044 288.307 332.097C304.68 333.332 315.374 343.148 315.821 343.565C316.31 344.021 316.34 344.791 315.888 345.284C315.65 345.544 315.327 345.675 315.003 345.675Z" fill="#000072"/>
<path d="M278.23 295.352C309.761 295.352 322.281 281.454 322.281 281.454C322.281 281.454 322.806 282.651 323.062 284.352C323.485 287.168 322.3 289.993 320.043 291.704C315.082 295.464 302.449 302.63 278.214 302.63C253.979 302.63 241.346 295.464 236.385 291.704C234.128 289.993 232.943 287.168 233.366 284.352C233.622 282.651 234.147 281.454 234.147 281.454C234.147 281.454 246.667 295.352 278.198 295.352" fill="#751313"/>
<g opacity="0.300003">
<g opacity="0.300003">
<path opacity="0.300003" d="M322.945 283.7C322.539 285.466 321.523 287.071 320.041 288.195C315.08 291.955 302.447 299.121 278.212 299.121C253.977 299.121 241.344 291.955 236.383 288.195C234.901 287.071 233.885 285.466 233.479 283.7C233.437 283.907 233.398 284.125 233.364 284.352C232.941 287.168 234.126 289.993 236.383 291.704C241.344 295.464 253.977 302.63 278.212 302.63C302.447 302.63 315.08 295.464 320.041 291.704C322.298 289.993 323.483 287.168 323.06 284.352C323.026 284.125 322.987 283.907 322.945 283.7Z" fill="#000072"/>
</g>
</g>
<path d="M278.215 303.847C254.013 303.847 241.166 296.848 235.662 292.676C233.023 290.676 231.687 287.416 232.175 284.17C232.452 282.329 233.022 281.017 233.046 280.962C233.211 280.586 233.553 280.319 233.956 280.254C234.358 280.187 234.766 280.332 235.041 280.636C235.161 280.77 247.66 294.136 278.199 294.136V296.569C252.116 296.569 238.885 287.285 234.722 283.67C234.662 283.937 234.606 284.227 234.559 284.535C234.205 286.895 235.182 289.27 237.111 290.731C242.374 294.721 254.713 301.414 278.215 301.414C301.717 301.414 314.057 294.721 319.32 290.731C321.249 289.27 322.226 286.895 321.871 284.535C321.825 284.227 321.769 283.937 321.709 283.67C317.546 287.285 304.315 296.569 278.232 296.569V294.136C308.875 294.136 321.268 280.771 321.39 280.636C321.664 280.332 322.073 280.188 322.475 280.254C322.877 280.319 323.219 280.586 323.385 280.962C323.409 281.017 323.978 282.329 324.255 284.17C324.743 287.416 323.407 290.676 320.769 292.676C315.265 296.848 302.418 303.847 278.215 303.847Z" fill="#000072"/>
<g opacity="0.3">
<path d="M182.901 203.58C182.901 203.58 183.577 206.511 181.336 209.784C181.336 209.784 184.997 209.671 186.758 212.096C186.758 212.096 186.171 208.571 188.686 205.892C188.686 205.892 185.248 206.513 182.901 203.58Z" fill="white"/>
</g>
<path d="M234.174 291.74L253.615 336.393" stroke="#000072" stroke-miterlimit="10"/>
<path d="M301.969 336.392L321.822 291.739" stroke="#000072" stroke-miterlimit="10"/>
<path fill-rule="evenodd" clip-rule="evenodd" d="M276.788 309.974C276.78 310.082 276.715 310.178 276.672 310.284C276.63 310.386 276.592 310.496 276.556 310.604C276.462 310.884 276.374 311.16 276.382 311.523C276.703 311.566 277.107 311.534 277.396 311.493C277.554 311.564 277.656 311.674 277.802 311.753C277.774 311.617 277.906 311.592 278.019 311.553C277.969 311.612 277.891 311.651 277.918 311.763C277.984 311.793 277.994 311.713 278.048 311.703C278.123 311.761 278.217 311.758 278.294 311.703C278.35 311.711 278.335 311.768 278.396 311.773C278.482 311.695 278.359 311.611 278.323 311.553C278.431 311.592 278.553 311.621 278.541 311.743C278.658 311.694 278.8 311.576 278.917 311.493C279.219 311.537 279.605 311.557 279.96 311.533C279.948 310.925 279.734 310.457 279.526 309.984C279.583 309.979 279.583 310.032 279.598 310.054C279.814 310.376 280.005 310.743 280.163 311.133C280.186 311.19 280.224 311.267 280.25 311.343C280.272 311.41 280.319 311.526 280.308 311.563C280.283 311.645 280.087 311.673 280.047 311.743C279.926 311.645 279.579 311.673 279.25 311.663C279.157 311.66 279.032 311.642 278.975 311.653C278.849 311.678 278.794 311.805 278.729 311.873C278.907 311.881 279.048 311.762 279.207 311.753C279.307 311.747 279.455 311.799 279.583 311.823C279.957 311.891 280.374 311.949 280.713 312.023C280.734 311.219 280.435 310.55 280.033 310.004C280.432 310.385 280.701 310.83 280.902 311.353C280.936 311.444 280.966 311.53 280.989 311.623C281.02 311.754 281.022 311.915 281.119 312.013C280.999 312.103 280.854 312.176 280.728 312.262C280.372 312.116 279.684 311.905 279.106 311.943C278.967 311.952 278.844 311.999 278.743 312.063C278.92 312.111 279.043 312.116 279.279 312.113C279.338 312.112 279.423 312.095 279.468 312.103C279.518 312.111 279.599 312.183 279.67 312.232C280.089 312.521 280.463 312.732 280.96 312.962C281.115 313.033 281.202 313.106 281.38 313.012C281.409 313.96 281.044 314.66 280.597 315.3C280.545 315.374 280.512 315.461 280.424 315.52C280.759 314.973 281.018 314.323 281.018 313.561C281.018 313.481 281.04 313.382 281.018 313.312C280.986 313.212 280.758 313.106 280.626 313.022C280.252 312.784 279.954 312.616 279.54 312.392C279.459 312.348 279.39 312.289 279.323 312.272C279.252 312.255 279.141 312.251 279.062 312.242C278.963 312.232 278.868 312.229 278.787 312.222C278.947 312.341 279.201 312.488 279.424 312.602C279.465 312.627 279.507 312.593 279.555 312.592C279.607 313.706 279.488 314.797 279.033 315.61C278.924 315.804 278.804 315.994 278.613 316.139C279.231 315.37 279.277 314.049 279.149 312.892C279.28 312.813 279.223 312.748 279.106 312.652C278.977 312.547 278.748 312.394 278.599 312.342C278.588 312.394 278.614 312.445 278.642 312.492C278.67 312.539 278.733 312.58 278.743 312.622C278.765 312.712 278.712 312.908 278.685 313.012C278.596 313.356 278.407 313.735 278.236 313.991C278.176 313.986 278.218 313.91 278.178 313.891C278.114 313.893 278.153 313.967 278.12 313.991C277.921 313.756 277.751 313.368 277.657 313.012C277.623 312.885 277.571 312.731 277.599 312.622C277.621 312.535 277.757 312.456 277.744 312.352C277.611 312.373 277.488 312.464 277.382 312.542C277.276 312.62 277.167 312.703 277.092 312.792C277.101 312.836 277.163 312.843 277.179 312.882C277.084 314.053 277.087 315.371 277.729 316.129C277.662 316.123 277.63 316.064 277.599 316.029C277.001 315.37 276.84 314.352 276.773 313.302C276.758 313.069 276.743 312.842 276.788 312.612C276.8 312.564 276.875 312.635 276.918 312.602C277.147 312.483 277.353 312.349 277.57 312.222C277.381 312.243 277.175 312.236 277.005 312.282C276.857 312.323 276.696 312.434 276.556 312.512C276.131 312.751 275.683 313.011 275.325 313.282C275.252 314.173 275.548 314.892 275.904 315.52C275.39 314.828 274.913 314.059 274.963 313.012C275.159 313.14 275.457 312.931 275.614 312.852C276.053 312.631 276.521 312.345 276.86 312.103C277.106 312.127 277.394 312.107 277.599 312.073C277.343 311.847 276.687 311.96 276.295 312.043C276.032 312.098 275.787 312.177 275.629 312.262C275.479 312.193 275.363 312.099 275.223 312.023C275.326 311.845 275.348 311.546 275.426 311.343C275.618 310.847 275.916 310.408 276.281 310.004C276.271 310.081 276.194 310.147 276.15 310.214C275.833 310.701 275.624 311.305 275.614 312.013C275.949 311.96 276.349 311.896 276.744 311.823C276.873 311.799 277.007 311.75 277.106 311.753C277.267 311.757 277.419 311.871 277.599 311.873C277.556 311.779 277.474 311.712 277.382 311.653C277.083 311.676 276.75 311.64 276.484 311.673C276.456 311.676 276.421 311.687 276.382 311.703C276.386 311.701 276.296 311.743 276.31 311.743C276.249 311.742 276.102 311.598 276.035 311.583C276.174 310.97 276.488 310.477 276.788 309.974Z" fill="#000072"/>
<path fill-rule="evenodd" clip-rule="evenodd" d="M278.217 303.847V321.099V303.847Z" fill="#000072"/>
<path d="M278.217 303.847V321.099" stroke="#000072" stroke-miterlimit="10"/>
<path d="M272.878 303.729C272.878 303.729 273.818 317.862 272.441 320.364" stroke="#000072" stroke-miterlimit="10"/>
<path d="M268.652 303.458C268.652 303.458 270.772 309.997 267.709 318.83" stroke="#000072" stroke-miterlimit="10"/>
<path d="M283.087 303.847C283.087 303.847 282.104 316.37 283.525 320.633" stroke="#000072" stroke-miterlimit="10"/>
<path d="M288.101 303.458C288.101 303.458 285.854 315.875 289.191 318.83" stroke="#000072" stroke-miterlimit="10"/>
<path d="M264.262 305.941C264.262 305.941 266.378 303.903 269.158 305.941C269.158 305.941 270.607 303.918 273.016 306.219C273.016 306.219 274.33 303.7 278.198 305.941C278.198 305.941 279.83 303.835 282.759 305.941C282.759 305.941 285.059 303.603 287.754 305.825C287.754 305.825 290.157 303.186 292.238 305.543" stroke="#000072" stroke-miterlimit="10"/>
<path d="M277.907 309.178C277.831 309.124 277.756 309.073 277.681 309.025C275.047 307.322 273.135 309.226 273.135 309.226C271.181 307.179 269.369 309.226 269.369 309.226C266.332 305.65 264.691 309.226 264.691 309.226" stroke="#000072" stroke-miterlimit="10"/>
<path d="M277.832 309.217C277.832 309.217 280.233 307.274 282.759 309.217C282.759 309.217 285.214 306.812 287.362 309.324C287.362 309.324 290.552 306.848 291.742 309.274" stroke="#000072" stroke-miterlimit="10"/>
<path d="M264.691 315.197C264.691 315.197 266.64 311.958 268.692 315.472C268.692 315.472 272.37 312.908 273.153 316.489C273.153 316.489 276.199 314.926 278.328 317.498C278.328 317.498 280.584 314.836 283.196 316.866C283.196 316.866 284.941 312.795 287.893 315.936C287.893 315.936 289.713 312.541 291.741 314.478" stroke="#000072" stroke-miterlimit="10"/>
<path d="M264.492 317.134C264.492 317.134 267.03 314.537 268.14 317.498C268.14 317.498 271.796 315.831 272.817 318.83C272.817 318.83 276.594 316.831 278.167 320.029C278.167 320.029 280.402 317.904 283.089 319.348C283.089 319.348 285.559 315.6 288.417 317.812C288.417 317.812 290.451 314.307 291.669 316.489" stroke="#000072" stroke-miterlimit="10"/>
<path d="M242.244 345.352C242.244 345.352 253.493 333.421 267.712 334.573L270.945 344.59C270.945 344.59 267.451 359.462 245.426 354.451L242.244 345.352Z" fill="#000072"/>
<path d="M242.244 345.352C242.244 345.352 253.493 333.421 267.712 334.573L270.945 344.59C270.945 344.59 267.451 359.462 245.426 354.451L242.244 345.352Z" stroke="#000072" stroke-miterlimit="10"/>
<path d="M284.967 347.051L288.279 332.841L303.888 337.629L313.189 342.957V347.051L311.005 354.451C311.005 354.451 295.378 359.641 284.967 347.051Z" fill="#000072"/>
<path d="M284.967 347.051L288.279 332.841L303.888 337.629L313.189 342.957V347.051L311.005 354.451C311.005 354.451 295.378 359.641 284.967 347.051Z" stroke="#000072" stroke-miterlimit="10"/>
<path d="M205.973 328.125L217.989 359.562" stroke="#000072" stroke-miterlimit="10"/>
<path d="M202.852 332.094C202.852 332.094 204.928 346.646 213.992 359.325" stroke="#000072" stroke-miterlimit="10"/>
<path d="M210.852 326.915C210.852 326.915 220.237 342.992 221.687 359.815" stroke="#000072" stroke-miterlimit="10"/>
<path d="M216.873 328.125C216.873 328.125 222.565 339.574 225.775 359.562" stroke="#000072" stroke-miterlimit="10"/>
<path d="M201.578 338.884C201.578 338.884 201.602 335.664 203.87 336.912C203.87 336.912 204.715 331.282 208.423 334.857C208.423 334.857 208.563 329.14 213.745 332.568C213.745 332.568 215.223 328.372 218.327 332.094C218.327 332.094 219.867 331.235 220.857 333.171" stroke="#000072" stroke-miterlimit="10"/>
<path d="M203.215 334.062C203.215 334.062 204.01 329.897 207.177 331.277C207.177 331.277 207.805 327.854 211.981 328.992C211.981 328.992 212.596 326.754 217.551 329.615" stroke="#000072" stroke-miterlimit="10"/>
<path d="M202.02 340.597C202.02 340.597 202.194 337.37 204.614 339.615C204.614 339.615 205.376 334.028 209.603 337.628C209.603 337.628 209.716 332.158 214.635 335.25C214.635 335.25 216.444 332.195 219.598 334.856C219.598 334.856 220.161 333.266 221.735 334.856" stroke="#000072" stroke-miterlimit="10"/>
<path d="M202.02 343.365C202.02 343.365 203.001 340.263 205.688 342.956C205.688 342.956 207.332 337.89 210.849 341.318C210.849 341.318 212.266 334.556 216.58 339.2C216.58 339.2 217.251 334.785 220.683 338.052C220.683 338.052 220.943 335.34 222.752 337.517" stroke="#000072" stroke-miterlimit="10"/>
<path d="M202.852 345.709C202.852 345.709 203.765 343.153 206.427 344.988C206.427 344.988 209.321 340.954 211.978 343.843C211.978 343.843 214.828 339.501 217.548 342.801C217.548 342.801 218.963 338.727 221.76 341.563C221.76 341.563 222.796 340.044 223.634 341.358" stroke="#000072" stroke-miterlimit="10"/>
<path d="M203.818 348.717C203.818 348.717 205.427 345.933 207.485 347.595C207.485 347.595 209.287 344.422 213.215 347.066C213.215 347.066 215.085 342.77 218.931 346.014C218.931 346.014 220.322 342.359 222.757 345.673C222.757 345.673 222.766 342.126 224.471 343.843" stroke="#000072" stroke-miterlimit="10"/>
<path d="M204.998 352.228V351.334C204.998 351.334 206.076 348.078 208.657 350.202C208.657 350.202 211.322 347.121 214.142 349.498C214.142 349.498 217.055 345.65 219.691 348.718C219.691 348.718 221.278 345.354 223.636 348.705" stroke="#000072" stroke-miterlimit="10"/>
<path d="M207.004 353.319C207.004 353.319 207.104 351.586 209.661 352.227C209.661 352.227 212.401 350.132 215.126 352.085C215.126 352.085 217.049 348.644 220.312 351.252C220.312 351.252 222.571 348.571 224.117 350.842" stroke="#000072" stroke-miterlimit="10"/>
<path d="M208.426 355.482C208.426 355.482 209.414 353.967 211.221 355.042C211.221 355.042 213.567 352.745 216.115 354.656C216.115 354.656 217.887 351.947 220.868 353.896C220.868 353.896 222.758 351.426 224.645 353.32" stroke="#000072" stroke-miterlimit="10"/>
<path d="M210.385 357.019C210.385 357.019 210.695 355.414 212.39 356.948C212.39 356.948 214.371 355.665 216.875 357.019C216.875 357.019 219.606 355.291 221.325 356.651C221.325 356.651 223.561 354.956 225.047 356.574" stroke="#000072" stroke-miterlimit="10"/>
<path d="M213.244 358.14C213.244 358.14 214.561 356.745 217.549 358.416C217.549 358.416 219.189 357.406 220.692 357.762C220.906 357.813 221.118 357.892 221.322 358.005" stroke="#000072" stroke-miterlimit="10"/>
<path d="M221.549 358.425C221.549 358.425 223.068 357.088 225.649 358.009" stroke="#000072" stroke-miterlimit="10"/>
<path d="M224.47 343.374C224.016 344.414 225.776 360.772 225.776 360.772H247.718L247.251 359.562L242.246 349.929L239.113 340.881C232.015 339.865 225.046 323.092 225.046 323.092L220.105 328.394L221.325 331.277L223.638 336.671L224.47 343.374Z" fill="#000072"/>
<path d="M349.552 327.364L338.811 359.562" stroke="#000072" stroke-miterlimit="10"/>
<path d="M352.407 331.294C352.407 331.294 350.497 351.84 341.533 360.055" stroke="#000072" stroke-miterlimit="10"/>
<path d="M345.414 327.168C345.414 327.168 338.14 344.796 334.686 359.758" stroke="#000072" stroke-miterlimit="10"/>
<path d="M339.371 328.713C339.371 328.713 334.077 338.73 331.33 361.62" stroke="#000072" stroke-miterlimit="10"/>
<path d="M354.191 336.723C354.191 336.723 353.612 333.874 351.776 335.792C351.776 335.792 351.009 330.701 347.39 333.844C347.39 333.844 346.368 329.505 343.191 332.84C343.191 332.84 340.718 328.693 337.638 332.84C337.638 332.84 337.002 331.79 335.512 333.171" stroke="#000072" stroke-miterlimit="10"/>
<path d="M354.377 339.604C354.377 339.604 353.697 336.81 351.193 338.884C351.193 338.884 349.737 335.382 346.128 337.628C346.128 337.628 345.281 334.081 341.53 336.391C341.53 336.391 340.421 333.691 336.685 335.61C336.685 335.61 335.811 333.902 334.246 335.761" stroke="#000072" stroke-miterlimit="10"/>
<path d="M354.381 342.956C354.381 342.956 352.951 339.947 350.508 341.896C350.508 341.896 348.225 338.633 344.926 341.239C344.926 341.239 343.678 338.058 340.506 340.229C340.506 340.229 338.883 336.722 335.515 339.201C335.515 339.201 334.898 337.352 332.449 338.884" stroke="#000072" stroke-miterlimit="10"/>
<path d="M353.788 345.675C353.788 345.675 352.945 342.699 349.611 345.167C349.611 345.167 347.339 341.348 343.946 344.175C343.946 344.175 342.479 340.284 339.369 343.463C339.369 343.463 338.389 340.297 334.686 342.703C334.686 342.703 334.144 340.225 332.564 342.351C330.984 344.477 332.146 342.311 332.146 342.311" stroke="#000072" stroke-miterlimit="10"/>
<path d="M352.891 348.628C352.891 348.628 351.684 345.306 348.71 347.914C348.71 347.914 346.85 345.202 343.029 346.915C343.029 346.915 340.719 344.116 338.041 346.914C338.041 346.914 336.217 344.069 333.823 346.439C333.823 346.439 332.89 341.771 330.639 346.282" stroke="#000072" stroke-miterlimit="10"/>
<path d="M351.065 350.931C351.065 350.931 350.992 347.896 347.783 350.337C347.783 350.337 345.669 347.36 341.947 350.159C341.947 350.159 339.935 347.096 337.213 350.333C337.213 350.333 335.359 347.364 333.059 350.238C333.059 350.238 332.987 345.289 329.883 349.169" stroke="#000072" stroke-miterlimit="10"/>
<path d="M349.553 353.5C349.553 353.5 349.076 351.844 346.513 353.123C346.513 353.123 343.729 351.014 340.978 353.069C340.978 353.069 339.39 350.816 336.484 352.835C336.484 352.835 334.092 350.731 332.448 352.747C332.448 352.747 332.593 348.984 329.105 351.873" stroke="#000072" stroke-miterlimit="10"/>
<path d="M347.708 355.51C347.708 355.51 347.314 353.641 345.186 355.51C345.186 355.51 342.769 353.871 340.051 355.851C340.051 355.851 337.377 354.141 335.656 355.851C335.656 355.851 333.813 353.329 331.862 355.851C331.862 355.851 331.265 352.519 329.381 355.265" stroke="#000072" stroke-miterlimit="10"/>
<path d="M346.079 356.472C346.079 356.472 345.196 355.657 344.311 356.837C344.311 356.837 340.777 355.789 339.367 357.893C339.367 357.893 337.849 356.224 335.131 357.893C335.131 357.893 333.802 355.428 331.811 357.893C331.811 357.893 330.713 354.616 328.656 357.893" stroke="#000072" stroke-miterlimit="10"/>
<path d="M318.041 340.616L325.093 333.759L330.64 324.266L331.327 322.159L335.983 327.364L336.348 329.95L333.824 332.84L332.447 336.392L331.86 340.616V342.885L331.812 344.399C331.812 344.399 329.403 355.853 330.64 360.361L309.162 360.898L308.461 359.562L311.969 352.686L315.82 343.565L318.041 340.616Z" fill="#000072"/>
<path d="M314.1 296.152C314.1 296.152 296.911 329.805 294.98 339.201" stroke="#000072" stroke-miterlimit="10"/>
<path d="M308.615 298.736C308.615 298.736 291.812 332.669 293.298 335.54" stroke="#000072" stroke-miterlimit="10"/>
<path d="M324.658 296.883C324.658 296.883 311.883 331.988 305.941 340.191" stroke="#000072" stroke-miterlimit="10"/>
<path d="M301.609 303.847C301.609 303.847 305.497 299.696 306.458 303.161C306.458 303.161 309.068 299.283 311.194 301.939C311.194 301.939 316.259 297.825 317.07 302.428C317.07 302.428 321.675 298.767 322.059 303.847C322.059 303.847 323.731 303.37 323.69 307.637C323.69 307.637 325.192 310.952 324.757 312.24" stroke="#000072" stroke-miterlimit="10"/>
<path d="M308.016 299.962C308.016 299.962 311.06 297.188 312.797 298.736C312.797 298.736 316.893 294.548 319.028 298.032C319.028 298.032 323.078 297.31 323.15 300.962C323.15 300.962 324.79 303.038 324.662 303.847C324.662 303.847 322.785 316.573 319.195 324.135C319.195 324.135 314.434 340.614 309.586 341.933" stroke="#000072" stroke-miterlimit="10"/>
<path d="M301.023 306.403C301.023 306.403 303.457 303.338 304.9 306.403C304.9 306.403 308.469 302.932 308.613 306.403C308.613 306.403 314.247 303.655 314.99 307.103C314.99 307.103 319.149 304.112 319.99 309.226C319.99 309.226 323.988 307.717 322.72 312.921C322.72 312.921 324.939 312.335 324.52 315.608" stroke="#000072" stroke-miterlimit="10"/>
<path d="M298.832 310.234C298.832 310.234 302.368 306.901 302.814 310.823C302.814 310.823 306.238 307.459 306.425 311.712C306.425 311.712 312.543 308.542 312.404 312.921C312.404 312.921 316.678 311.546 317.445 315.667C317.445 315.667 321.137 314.425 321.521 317.901C321.521 317.901 324.244 317.73 323.988 319.95" stroke="#000072" stroke-miterlimit="10"/>
<path d="M296.951 314.478C296.951 314.478 299.676 309.888 301.332 314.451C301.332 314.451 303.536 312.445 304.537 315.287C304.537 315.287 309.897 313.483 310.366 317.498C310.366 317.498 313.993 315.199 315.802 318.83C315.802 318.83 320.008 318.129 320.62 320.633C320.62 320.633 322.538 320.031 323.226 322.159" stroke="#000072" stroke-miterlimit="10"/>
<path d="M295.879 317.138C295.879 317.138 298.401 315.808 299.152 318.83C299.152 318.83 301.764 316.525 302.812 319.29C302.812 319.29 307.088 317.64 308.459 321.099C308.459 321.099 313.091 319.327 314.597 322.59C314.597 322.59 317.738 321.747 319.452 323.897C319.452 323.897 321.536 323.108 321.82 325.254" stroke="#000072" stroke-miterlimit="10"/>
<path d="M294.074 320.688C294.074 320.688 297.57 318.067 297.564 322.463C297.564 322.463 300.601 320.295 301.025 323.002C301.025 323.002 305.752 321.619 306.92 325.254C306.92 325.254 310.856 322.361 312.799 326.777C312.799 326.777 316.849 324.59 317.767 328.195" stroke="#000072" stroke-miterlimit="10"/>
<path d="M292.783 324.897C292.783 324.897 295.485 321.957 296.387 325.254C296.387 325.254 298.874 323.131 299.792 326.145C299.792 326.145 304.142 324.928 305.612 328.195C305.612 328.195 309.517 326.504 311.418 329.862C311.418 329.862 314.794 327.691 316.538 330.997" stroke="#000072" stroke-miterlimit="10"/>
<path d="M291.57 327.672C291.57 327.672 294.339 325.943 295.21 328.195C295.21 328.195 297.635 326.504 298.569 329.017C298.569 329.017 303.325 328.029 304.063 330.997C304.063 330.997 308.405 329.744 310.091 332.701C310.091 332.701 313.389 331.522 315.299 333.86C315.299 333.86 316.072 333.393 316.071 335.54" stroke="#000072" stroke-miterlimit="10"/>
<path d="M290.516 330.285C290.516 330.285 293.474 328.754 294.074 330.717C294.074 330.717 297.249 329.433 297.505 331.629C297.505 331.629 302.888 330.4 303.208 333.604C303.208 333.604 307.975 332.163 308.679 335.54C308.679 335.54 312.811 333.825 313.725 337.629C313.725 337.629 315.337 336.858 315.804 339.201" stroke="#000072" stroke-miterlimit="10"/>
<path d="M239.604 293.702C239.604 293.702 254.926 319.114 258.506 335.54" stroke="#000072" stroke-miterlimit="10"/>
<path d="M248.395 298.607C248.395 298.607 259.842 319.765 263.642 333.768" stroke="#000072" stroke-miterlimit="10"/>
<path d="M232.234 297.735C232.234 297.735 245.579 335.907 249.948 338.884" stroke="#000072" stroke-miterlimit="10"/>
<path d="M231.701 304.86C231.701 304.86 242.494 338.876 245.713 340.616" stroke="#000072" stroke-miterlimit="10"/>
<path d="M233.195 299.272C233.195 299.272 233.493 295.279 236.717 297.591C236.717 297.591 238.002 294.731 241.655 297.227C241.655 297.227 242.624 295.695 245.71 296.942" stroke="#000072" stroke-miterlimit="10"/>
<path d="M232.426 307.103C232.426 307.103 232.715 304.293 234.99 305.392C234.99 305.392 235.694 301.498 239.61 304.22C239.61 304.22 240.336 300.124 244.658 302.631C244.658 302.631 247.374 299.042 250.502 302.631C250.502 302.631 252.791 300.485 254.463 302.631" stroke="#000072" stroke-miterlimit="10"/>
<path d="M231.701 303.729C231.701 303.729 232.705 302.019 233.91 302.63C233.91 302.63 235.21 298.911 238.017 300.568C238.017 300.568 239.796 297.872 243.006 299.621C243.006 299.621 246.348 298.069 248.396 299.031" stroke="#000072" stroke-miterlimit="10"/>
<path d="M231.33 312.43C231.33 312.43 231.716 310.539 233.905 311.628C233.905 311.628 234.207 308.769 236.716 310.246C236.716 310.246 237.359 306.322 241.824 308.752C241.824 308.752 242.275 304.173 247.014 307.102C247.014 307.102 249.098 303.591 252.254 306.123C252.254 306.123 252.606 304.124 255.025 305.824" stroke="#000072" stroke-miterlimit="10"/>
<path d="M231.701 316.846C231.701 316.846 232.7 313.717 235.249 315.608C235.249 315.608 235.777 312.271 238.397 314.478C238.397 314.478 240.339 311.411 243.183 312.92C243.183 312.92 245.741 308.76 249.058 311.144C249.058 311.144 251.467 307.939 254.068 309.831C254.068 309.831 254.16 308.609 256.621 309.226" stroke="#000072" stroke-miterlimit="10"/>
<path d="M232.438 319.95C232.438 319.95 233.124 316.733 236.355 318.83C236.355 318.83 237.855 316.629 239.81 318.111C239.81 318.111 241.491 314.389 244.965 316.53C244.965 316.53 247.297 313.141 251.043 315.275C251.043 315.275 252.755 312.445 256.052 314.066C256.052 314.066 255.772 312.403 258.276 313.462" stroke="#000072" stroke-miterlimit="10"/>
<path d="M233.705 323.092C233.705 323.092 234.457 320.269 237.065 321.686C237.065 321.686 238.619 318.732 240.979 320.959C240.979 320.959 242.02 317.203 246.436 319.771C246.436 319.771 248.543 316.492 252.425 318.096C252.425 318.096 253.966 314.995 257.441 316.892C257.441 316.892 258.163 315.353 259.918 316.583" stroke="#000072" stroke-miterlimit="10"/>
<path d="M233.908 325.895C233.908 325.895 234.966 322.28 237.857 323.092C237.857 323.092 240.454 321.682 241.764 322.973C241.764 322.973 245.498 320.143 247.415 322.159C247.415 322.159 251.274 319.082 253.612 321.042C253.612 321.042 256.247 318.81 258.826 320.364C258.826 320.364 260.24 318.792 261.985 319.95" stroke="#000072" stroke-miterlimit="10"/>
<path d="M263.644 324.266C263.644 324.266 260.956 320.684 260.333 324.054C260.333 324.054 255.745 321.281 255.312 325.254C255.312 325.254 250.806 321.84 249.221 326.301C249.221 326.301 244.613 323.745 243.442 327.344C243.442 327.344 240.503 324.243 240.049 328.195C240.049 328.195 238.514 327.604 238.246 329.138" stroke="#000072" stroke-miterlimit="10"/>
<path d="M264.854 327.344C264.854 327.344 262.369 324.576 261.708 327.714C261.708 327.714 258.056 325.29 256.511 328.568C256.511 328.568 252.572 326.56 251.041 330.285C251.041 330.285 246.828 327.915 245.71 332C245.71 332 242.816 330.819 241.826 333.768C241.826 333.768 240.338 333.37 239.604 335.54" stroke="#000072" stroke-miterlimit="10"/>
<path d="M265.436 329.716C265.436 329.716 263.561 326.298 262.685 330.554C262.685 330.554 260.358 329.094 257.633 332.094C257.633 332.094 254.148 330.889 252.234 333.217C252.234 333.217 249.474 332.451 247.471 334.494C247.361 334.606 247.253 334.727 247.148 334.856" stroke="#000072" stroke-miterlimit="10"/>
<path d="M247.25 334.727C247.25 334.727 244.675 334.491 243.338 336.912C243.338 336.912 241.48 336.992 240.623 339.201C239.765 341.409 240.22 338.884 240.22 338.884" stroke="#000072" stroke-miterlimit="10"/>
<path fill-rule="evenodd" clip-rule="evenodd" d="M277.984 203.915C307.553 203.915 330.3 234.966 330.3 260.894C330.3 286.822 288.607 297.3 277.984 297.811C267.36 298.322 223.5 286.062 223.5 260.134C223.5 234.205 248.415 203.915 277.984 203.915Z" fill="#FF850B"/>
<path d="M277.984 205.176C248.495 205.176 224.75 235.241 224.75 260.134C224.75 266.607 227.665 272.694 233.416 278.226C246.226 290.549 269.597 296.564 277.325 296.565C277.537 296.565 277.736 296.561 277.924 296.552C283.523 296.282 296.421 293.375 307.567 287.756C317.368 282.815 329.05 274.144 329.05 260.894C329.05 235.127 306.743 205.176 277.984 205.176ZM277.356 299.086C269.067 299.086 245.177 293.024 231.692 280.051C225.427 274.024 222.25 267.323 222.25 260.134C222.25 247.155 228.413 232.692 238.736 221.444C249.697 209.503 264.002 202.654 277.984 202.654C292.053 202.654 305.617 209.474 316.178 221.859C325.803 233.147 331.55 247.74 331.55 260.894C331.55 272.402 323.643 282.47 308.684 290.012C297.213 295.795 283.861 298.791 278.043 299.071C277.829 299.081 277.599 299.086 277.356 299.086Z" fill="#000072"/>
<g opacity="0.5">
<g opacity="0.5">
<path opacity="0.5" fill-rule="evenodd" clip-rule="evenodd" d="M277.977 203.915C296.15 203.915 311.744 215.646 321.066 230.706C321.163 231.193 321.256 231.681 321.338 232.174C312.827 219.587 299.557 211.287 284.861 209.048C285.804 209.407 286.35 209.833 286.35 210.291C286.35 211.571 282.078 212.609 276.808 212.609C271.539 212.609 267.267 211.571 267.267 210.291C267.267 209.833 267.812 209.407 268.755 209.048C254.059 211.287 240.79 219.588 232.279 232.174L232.326 231.908C242.14 216.247 259.11 203.915 277.977 203.915Z" fill="white"/>
</g>
</g>
<path fill-rule="evenodd" clip-rule="evenodd" d="M328.894 268.861C321.541 288.997 287.442 297.356 277.982 297.811C268.619 298.261 233.446 288.79 225.229 268.787C225.859 257.892 231.345 254.914 241.49 260.238C245.663 262.427 249.907 264.711 253.27 262.972C272.467 253.045 284.189 254.916 297.328 262.972C303.473 266.739 309.47 261.12 313.232 259.406C325.214 253.948 330.711 257.765 328.894 268.861Z" fill="white"/>
<g opacity="0.300003">
<g opacity="0.300003">
<path opacity="0.300003" fill-rule="evenodd" clip-rule="evenodd" d="M330.076 256.366C330.225 257.887 330.304 259.399 330.304 260.894C330.304 261.849 330.241 262.78 330.131 263.693L330.143 263.42C328.682 280.724 294.147 293.936 275.568 295.002C260.059 295.893 229.084 279.049 223.875 263.42C223.885 263.744 223.901 264.068 223.916 264.391C223.651 263.014 223.504 261.597 223.504 260.133C223.504 258.968 223.556 257.795 223.654 256.614L223.735 256.362C235.843 273.924 255.704 284.396 276.908 284.396C298.109 284.396 317.969 273.925 330.076 256.366Z" fill="#000072"/>
</g>
</g>
<path fill-rule="evenodd" clip-rule="evenodd" d="M258.853 248.081C257.2 247.337 255.507 246.091 253.778 244.344C250.78 244.481 248.381 247.712 248.381 251.678C248.381 255.731 250.886 259.018 253.976 259.018C257.066 259.018 259.571 255.731 259.571 251.678C259.571 250.371 259.31 249.144 258.853 248.081Z" fill="#000072"/>
<path d="M305.808 241.17C303.79 243.875 301.806 245.966 299.856 247.445C296.988 249.619 293.883 250 293.539 247.605C295.082 247.426 296.69 246.703 298.362 245.435C302.484 242.31 303.773 240.298 305.808 241.17Z" fill="#000072"/>
<path fill-rule="evenodd" clip-rule="evenodd" d="M296.401 248.081C298.054 247.337 299.747 246.091 301.477 244.344C304.475 244.481 306.874 247.712 306.874 251.678C306.874 255.731 304.369 259.018 301.279 259.018C298.188 259.018 295.684 255.731 295.684 251.678C295.684 250.371 295.944 249.144 296.401 248.081Z" fill="#000072"/>
<path fill-rule="evenodd" clip-rule="evenodd" d="M298.969 249.808C298.061 249.808 297.326 250.599 297.326 251.574C297.326 252.549 298.061 253.339 298.969 253.339C299.876 253.339 300.611 252.549 300.611 251.574C300.611 250.599 299.876 249.808 298.969 249.808Z" fill="white"/>
<path fill-rule="evenodd" clip-rule="evenodd" d="M276.903 252.966C280.904 252.966 284.148 255.148 284.148 257.839C284.148 260.53 280.904 262.712 276.903 262.712C272.902 262.712 269.658 260.53 269.658 257.839C269.658 255.148 272.902 252.966 276.903 252.966Z" fill="#000072"/>
<path d="M283.826 268.684C281.276 268.684 278.809 267.727 276.917 266.017C274.803 267.959 271.889 268.863 269.025 268.403C265.698 267.87 262.876 265.569 261.661 262.399C261.412 261.75 261.732 261.02 262.376 260.768C263.019 260.517 263.743 260.84 263.992 261.489C264.887 263.825 266.966 265.52 269.417 265.913C271.87 266.306 274.366 265.345 275.935 263.406C276.17 263.116 276.519 262.946 276.89 262.942C277.263 262.942 277.613 263.1 277.854 263.384C279.491 265.319 281.963 266.347 284.478 266.134C286.99 265.922 289.262 264.491 290.556 262.308C290.91 261.71 291.678 261.515 292.27 261.873C292.862 262.23 293.055 263.005 292.701 263.602C290.995 266.481 288 268.367 284.687 268.647C284.4 268.672 284.112 268.684 283.826 268.684Z" fill="#000072"/>
<path fill-rule="evenodd" clip-rule="evenodd" d="M276.906 264.203C279.511 266.701 282.07 267.764 284.585 267.391C285.207 283.859 268.66 283.188 269.223 267.158C272.306 267.553 274.866 266.568 276.906 264.203Z" fill="#000072"/>
<path d="M270.469 268.504C270.593 272.7 272.068 275.999 274.525 277.467C276.148 278.436 277.982 278.45 279.557 277.503C281.909 276.09 283.262 272.926 283.349 268.72C281.223 268.651 279.086 267.723 276.971 265.948C275.149 267.648 272.99 268.504 270.526 268.504C270.507 268.504 270.488 268.504 270.469 268.504ZM277.093 280.72C275.78 280.72 274.461 280.359 273.252 279.637C269.694 277.511 267.771 272.947 267.976 267.113L268.024 265.733L269.382 265.907C272.051 266.248 274.2 265.42 275.964 263.375L276.821 262.381L277.768 263.289C280.102 265.526 282.274 266.461 284.404 266.143L285.782 265.939L285.835 267.343C286.054 273.136 284.232 277.629 280.837 279.67C279.671 280.37 278.385 280.72 277.093 280.72Z" fill="#000072"/>
<path fill-rule="evenodd" clip-rule="evenodd" d="M277.041 273.31C274.816 273.31 272.727 274.384 271.42 276.199C274.428 280.521 279.762 280.592 282.635 276.163C281.327 274.369 279.25 273.31 277.041 273.31Z" fill="#FF0066"/>
<path d="M273.039 276.228C274.197 277.517 275.654 278.215 277.166 278.201C278.628 278.177 279.976 277.481 281.037 276.221C279.98 275.175 278.541 274.57 277.041 274.57C275.536 274.57 274.096 275.177 273.039 276.228ZM277.089 280.724C274.515 280.724 272.082 279.344 270.398 276.924L269.885 276.187L270.409 275.458C271.946 273.323 274.425 272.048 277.041 272.048C279.636 272.048 282.104 273.307 283.642 275.415L284.157 276.12L283.681 276.853C282.113 279.27 279.753 280.681 277.207 280.723C277.168 280.723 277.128 280.724 277.089 280.724Z" fill="#000072"/>
<path fill-rule="evenodd" clip-rule="evenodd" d="M324.216 234.51C316.19 221.129 306.568 212.069 295.348 207.333C317.356 176.218 326.979 185.277 324.216 234.51Z" fill="#FF850B"/>
<path d="M297.264 206.804C307.114 211.339 315.809 219.29 323.165 230.483C324.507 200.147 320.429 192.074 316.677 190.743C313.814 189.728 308.137 191.746 297.264 206.804ZM325.233 238.645L323.144 235.163C315.295 222.077 305.78 213.105 294.862 208.496L293.418 207.886L294.327 206.6C304.395 192.368 311.975 186.4 317.506 188.364C324.562 190.868 327.09 205.554 325.461 234.581L325.233 238.645Z" fill="#000072"/>
<path fill-rule="evenodd" clip-rule="evenodd" d="M293.433 236.138C295.284 235.372 297.15 235.65 297.601 236.758C298.051 237.866 296.915 239.386 295.065 240.152C293.214 240.918 291.348 240.64 290.897 239.531C290.447 238.423 291.583 236.903 293.433 236.138Z" fill="white"/>
<path fill-rule="evenodd" clip-rule="evenodd" d="M261.188 236.064C259.337 235.298 257.471 235.576 257.02 236.684C256.57 237.792 257.705 239.312 259.556 240.078C261.407 240.843 263.273 240.566 263.723 239.458C264.174 238.349 263.039 236.83 261.188 236.064Z" fill="white"/>
<path fill-rule="evenodd" clip-rule="evenodd" d="M254.799 249.808C253.891 249.808 253.156 250.599 253.156 251.574C253.156 252.549 253.891 253.339 254.799 253.339C255.706 253.339 256.441 252.549 256.441 251.574C256.441 250.599 255.706 249.808 254.799 249.808Z" fill="white"/>
<path fill-rule="evenodd" clip-rule="evenodd" d="M230.431 235.148C238.457 221.766 248.079 212.707 259.299 207.971C237.29 176.856 227.668 185.915 230.431 235.148Z" fill="#FF850B"/>
<path d="M239.303 191.16C238.801 191.16 238.358 191.242 237.967 191.38C234.215 192.712 230.137 200.785 231.479 231.121C238.835 219.928 247.53 211.977 257.38 207.441C247.991 194.44 242.477 191.16 239.303 191.16ZM229.411 239.283L229.183 235.219C227.554 206.191 230.081 191.506 237.138 189.001C242.666 187.04 250.248 193.004 260.316 207.238L261.226 208.524L259.781 209.133C248.863 213.743 239.348 222.715 231.5 235.801L229.411 239.283Z" fill="#000072"/>
<g opacity="0.649994">
<g opacity="0.649994">
<path opacity="0.649994" fill-rule="evenodd" clip-rule="evenodd" d="M256.548 209.239C257.456 208.786 258.376 208.364 259.306 207.97C245.666 188.686 236.785 184.841 232.66 196.419C237.053 188.277 245.015 192.55 256.547 209.238L256.548 209.239Z" fill="white"/>
</g>
</g>
<path fill-rule="evenodd" clip-rule="evenodd" d="M236.44 226.077C240.352 221.195 244.786 216.969 249.742 213.4C238.632 191.573 234.198 195.798 236.44 226.077Z" fill="#000072"/>
<path d="M239.298 200.947C239.243 200.947 239.206 200.954 239.184 200.96C239.05 200.998 237.863 201.492 237.355 207.051C237.013 210.797 237.053 216.115 237.474 222.889C240.704 219.202 244.278 215.893 248.137 213.018C242.291 201.745 239.866 200.947 239.298 200.947ZM235.428 229.344L235.193 226.171C233.487 203.131 235.911 199.271 238.507 198.533C241.611 197.649 245.305 201.925 250.853 212.825L251.346 213.794L250.467 214.427C245.628 217.911 241.235 222.098 237.411 226.87L235.428 229.344Z" fill="#000072"/>
<g opacity="0.300003">
<g opacity="0.300003">
<path opacity="0.300003" fill-rule="evenodd" clip-rule="evenodd" d="M237.881 200.414C233.827 203.473 231.208 211.749 230.025 225.241C230.097 228.34 230.231 231.641 230.427 235.148C231.027 234.054 231.661 232.972 232.331 231.908L232.284 232.174C235.522 227.19 239.006 222.869 242.734 219.211C240.554 221.286 238.5 223.519 236.571 225.91C236.534 225.957 236.496 226.003 236.458 226.051C236.455 226.055 236.451 226.06 236.447 226.065C236.444 226.069 236.441 226.073 236.438 226.077C235.351 211.406 235.833 202.852 237.881 200.414ZM316.758 199.776C320.812 202.835 323.431 211.111 324.613 224.603C324.542 227.702 324.408 231.004 324.212 234.51C323.612 233.416 322.978 232.335 322.308 231.271L322.355 231.536C319.117 226.552 315.633 222.232 311.905 218.574C314.085 220.648 316.139 222.881 318.067 225.273C318.105 225.319 318.143 225.366 318.181 225.414C318.184 225.418 318.187 225.422 318.191 225.427C318.195 225.432 318.198 225.435 318.201 225.44C319.288 210.769 318.806 202.214 316.758 199.776Z" fill="#000072"/>
</g>
</g>
<g opacity="0.649994">
<g opacity="0.649994">
<path opacity="0.649994" fill-rule="evenodd" clip-rule="evenodd" d="M298.108 208.602C297.2 208.149 296.28 207.726 295.35 207.333C308.99 188.049 317.871 184.203 321.996 195.782C317.603 187.64 309.64 191.913 298.109 208.601L298.108 208.602Z" fill="white"/>
</g>
</g>
<path fill-rule="evenodd" clip-rule="evenodd" d="M318.202 225.439C314.29 220.557 309.856 216.331 304.9 212.763C316.01 190.935 320.445 195.161 318.202 225.439Z" fill="#000072"/>
<path d="M306.504 212.38C310.364 215.256 313.938 218.565 317.167 222.252C317.588 215.477 317.628 210.159 317.286 206.413C316.778 200.854 315.591 200.36 315.457 200.323C315.21 200.253 312.913 200.021 306.504 212.38ZM319.213 228.707L317.23 226.232C313.407 221.461 309.014 217.274 304.174 213.789L303.295 213.156L303.788 212.187C309.336 201.287 313.026 197.012 316.135 197.895C318.73 198.633 321.154 202.493 319.448 225.533L319.213 228.707Z" fill="#000072"/>
<path d="M239.304 191.16C238.802 191.16 238.358 191.242 237.967 191.381C234.216 192.712 230.137 200.785 231.48 231.121C238.836 219.928 247.53 211.977 257.381 207.441C247.992 194.44 242.477 191.16 239.304 191.16ZM229.411 239.283L229.183 235.219C227.554 206.192 230.082 191.506 237.138 189.002C242.666 187.04 250.248 193.004 260.317 207.238L261.226 208.524L259.782 209.134C248.864 213.743 239.348 222.715 231.5 235.801L229.411 239.283Z" fill="#000072"/>
<path d="M277.984 205.176C248.495 205.176 224.75 235.241 224.75 260.134C224.75 266.607 227.665 272.694 233.416 278.226C246.226 290.549 269.597 296.564 277.325 296.565C277.537 296.565 277.736 296.561 277.924 296.552C283.523 296.282 296.421 293.375 307.567 287.756C317.368 282.815 329.05 274.144 329.05 260.894C329.05 235.127 306.743 205.176 277.984 205.176ZM277.356 299.086C269.067 299.086 245.177 293.024 231.692 280.051C225.427 274.024 222.25 267.323 222.25 260.134C222.25 247.155 228.413 232.692 238.736 221.444C249.697 209.503 264.002 202.654 277.984 202.654C292.053 202.654 305.617 209.474 316.178 221.859C325.803 233.147 331.55 247.74 331.55 260.894C331.55 272.402 323.643 282.47 308.684 290.012C297.213 295.795 283.861 298.791 278.043 299.071C277.829 299.081 277.599 299.086 277.356 299.086Z" fill="#000072"/>
<g opacity="0.559998">
<g opacity="0.559998">
<path opacity="0.559998" fill-rule="evenodd" clip-rule="evenodd" d="M279.257 254.918C280.35 255.209 281.158 255.739 281.063 256.102C280.969 256.465 280.006 256.525 278.914 256.234C277.821 255.944 277.012 255.413 277.107 255.05C277.202 254.687 278.165 254.628 279.257 254.918Z" fill="white"/>
</g>
</g>
<path d="M250.352 241.17C252.37 243.875 254.354 245.966 256.304 247.445C259.173 249.619 262.278 250 262.621 247.605C261.078 247.426 259.471 246.703 257.798 245.435C253.676 242.31 252.387 240.298 250.352 241.17Z" fill="#000072"/>
<path d="M297.264 206.804C307.114 211.339 315.809 219.29 323.165 230.483C324.507 200.147 320.429 192.074 316.677 190.743C313.814 189.728 308.137 191.746 297.264 206.804ZM325.233 238.645L323.144 235.163C315.295 222.077 305.78 213.105 294.862 208.496L293.418 207.886L294.327 206.6C304.395 192.368 311.975 186.4 317.506 188.364C324.562 190.868 327.09 205.554 325.461 234.581L325.233 238.645Z" fill="#000072"/>
</svg>
