<svg xmlns="http://www.w3.org/2000/svg" width="80" height="64" fill="none" xmlns:v="https://vecta.io/nano"><path d="M77.556 27.458c2.796-9.312-13.054-20.07-32.562-18.537C26.878 10.344.479 25.1 1.204 47.21c.249 7.59 6.62 15.781 17.71 15.389 10.608-.375 19.856-15.941 28.809-20.234 11.724-5.621 25.524-.554 29.833-14.907z" fill="url(#A)"/><g clip-path="url(#B)" fill="#fff" stroke="#fff" stroke-width=".4"><path d="M44.787 45.719a1.52 1.52 0 0 0 1.519 1.518 1.52 1.52 0 0 0 1.517-1.518c0-9.982-8.12-18.103-18.103-18.103s-18.104 8.121-18.104 18.103a1.52 1.52 0 0 0 1.518 1.518 1.52 1.52 0 0 0 1.518-1.518c0-8.307 6.759-15.066 15.067-15.066s15.066 6.759 15.066 15.066z"/><path d="M19.135 19.575A10.6 10.6 0 0 0 29.721 30.16a10.6 10.6 0 0 0 10.585-10.585A10.6 10.6 0 0 0 29.721 8.991a10.6 10.6 0 0 0-10.585 10.584zm3.037 0a7.56 7.56 0 0 1 7.549-7.548 7.56 7.56 0 0 1 7.549 7.548 7.56 7.56 0 0 1-7.549 7.549 7.56 7.56 0 0 1-7.549-7.549zm.543 9.437h0c-2.501-1.447-5.11-2.183-7.753-2.183C6.323 26.829-.2 33.323-.2 41.928a1.52 1.52 0 0 0 1.518 1.518h10.146a1.52 1.52 0 0 0 1.518-1.518 1.52 1.52 0 0 0-1.518-1.518H2.923c.704-6.108 5.639-10.544 12.039-10.544 2.096 0 4.192.594 6.233 1.776h0a1.52 1.52 0 0 0 2.075-.555h0a1.52 1.52 0 0 0-.555-2.075z"/><path d="M21.395 14.267h0c-1.702-1.701-3.965-2.639-6.371-2.639-4.969 0-9.011 4.042-9.011 9.01s4.042 9.011 9.011 9.011a9.02 9.02 0 0 0 7.408-3.882 1.52 1.52 0 0 0-.382-2.113 1.52 1.52 0 0 0-2.112.383h0a5.98 5.98 0 0 1-4.914 2.576c-3.294 0-5.975-2.681-5.975-5.975s2.681-5.974 5.975-5.974c1.596 0 3.095.621 4.225 1.75a1.52 1.52 0 0 0 2.147 0 1.52 1.52 0 0 0 0-2.148zm18.459 14.286c.033.748.609 1.359 1.353 1.439 5.726.62 10.156 4.981 10.859 10.417h-5.448a1.52 1.52 0 0 0-1.518 1.518 1.52 1.52 0 0 0 1.518 1.518h7.064a1.52 1.52 0 0 0 1.518-1.518c0-6.219-3.85-11.614-9.446-13.891a8.8 8.8 0 0 0 3.184-6.811c0-4.935-4.431-9.249-9.48-9.249a1.52 1.52 0 0 0-1.518 1.518 1.52 1.52 0 0 0 1.518 1.518c3.374 0 6.444 2.974 6.444 6.213 0 2.821-1.982 5.195-4.832 5.77a1.52 1.52 0 0 0-1.216 1.558zm0 0l.2-.009-.2.009zm12.438 12.056l-.024-.2.024.2z"/></g><defs><linearGradient id="A" x1="1.728" y1="63.207" x2="62.663" y2="-11.8" gradientUnits="userSpaceOnUse"><stop stop-color="#f09642" stop-opacity=".78"/><stop offset="1" stop-color="#f0d542" stop-opacity=".79"/></linearGradient><clipPath id="B"><path fill="#fff" transform="translate(0 .613)" d="M0 0h55v55H0z"/></clipPath></defs></svg>