<svg xmlns="http://www.w3.org/2000/svg" xmlns:xlink="http://www.w3.org/1999/xlink" width="52" height="52" fill="none" xmlns:v="https://vecta.io/nano"><path d="M46.943 0H5.057C2.269 0 0 2.6 0 5.795v40.41C0 49.4 2.269 52 5.057 52h41.886C49.732 52 52 49.4 52 46.205V5.795C52 2.6 49.732 0 46.943 0zM5.057 3.493h41.886c1.108 0 2.009 1.033 2.009 2.302v7.977H3.048V5.795c0-1.27.901-2.302 2.009-2.302zm41.886 45.014H5.057c-1.108 0-2.009-1.033-2.009-2.302v-28.94h45.904v28.94c0 1.27-.901 2.302-2.009 2.302z" fill="url(#A)"/><use xlink:href="#G" fill="url(#B)"/><use xlink:href="#G" x="6.235" fill="url(#B)"/><use xlink:href="#G" x="12.759" fill="url(#C)"/><path d="M16.711 27.953c-.796-.313-1.663.172-1.937 1.084l-.63 2.102-.721-2.158c-.345-1.257-2.274-1.712-2.864.056l-.631 2.102-.721-2.158c-.301-.901-1.182-1.352-1.968-1.007s-1.179 1.355-.879 2.255l2.221 6.651c.226.677.793 1.122 1.423 1.122h.026c.641-.013 1.207-.484 1.415-1.179l.631-2.102.721 2.159c.226.677.793 1.122 1.423 1.122h.026c.641-.013 1.207-.484 1.415-1.179l1.995-6.65c.274-.912-.149-1.906-.945-2.219z" fill="url(#D)"/><path d="M30.712 27.953c-.796-.313-1.663.172-1.937 1.084l-.631 2.102-.721-2.158c-.346-1.258-2.275-1.71-2.864.056l-.63 2.102-.721-2.158c-.301-.901-1.182-1.352-1.968-1.007s-1.179 1.355-.879 2.255l2.221 6.651c.226.677.793 1.122 1.423 1.122h.026c.641-.013 1.207-.484 1.415-1.179l.631-2.102.721 2.159c.226.677.793 1.122 1.423 1.122h.026c.641-.013 1.207-.484 1.415-1.179l1.995-6.65c.274-.912-.149-1.906-.945-2.219z" fill="url(#E)"/><path d="M44.711 27.953c-.796-.313-1.663.172-1.937 1.084l-.63 2.102-.721-2.158c-.345-1.255-2.27-1.715-2.864.056l-.631 2.102-.721-2.158c-.301-.901-1.182-1.352-1.968-1.007s-1.179 1.355-.879 2.255l2.221 6.651c.226.677.793 1.122 1.423 1.122h.026c.641-.013 1.207-.484 1.415-1.179l.63-2.102.721 2.159c.226.677.793 1.122 1.423 1.122h.026c.641-.013 1.207-.484 1.415-1.179l1.995-6.65c.274-.912-.15-1.906-.946-2.219z" fill="url(#F)"/><defs><linearGradient id="A" x1="-6.5" y1="-8.138" x2="63.185" y2="72.295" xlink:href="#H"><stop stop-color="#1c2d5a"/><stop offset="1" stop-color="#4fc3dd" stop-opacity=".96"/></linearGradient><linearGradient id="B" x1="5.734" y1="6.428" x2="10.494" y2="11.223" xlink:href="#H"><stop stop-color="#1c2d5a"/><stop offset="1" stop-color="#4fc3dd" stop-opacity=".96"/></linearGradient><linearGradient id="C" x1="5.735" y1="6.428" x2="10.495" y2="11.223" xlink:href="#H"><stop stop-color="#1c2d5a"/><stop offset="1" stop-color="#4fc3dd" stop-opacity=".96"/></linearGradient><linearGradient id="D" x1="4.824" y1="26.27" x2="18.082" y2="43.589" xlink:href="#H"><stop stop-color="#1c2d5a"/><stop offset="1" stop-color="#4fc3dd" stop-opacity=".96"/></linearGradient><linearGradient id="E" x1="18.826" y1="26.27" x2="32.084" y2="43.589" xlink:href="#H"><stop stop-color="#1c2d5a"/><stop offset="1" stop-color="#4fc3dd" stop-opacity=".96"/></linearGradient><linearGradient id="F" x1="32.824" y1="26.27" x2="46.082" y2="43.589" xlink:href="#H"><stop stop-color="#1c2d5a"/><stop offset="1" stop-color="#4fc3dd" stop-opacity=".96"/></linearGradient><path id="G" d="M7.652 10.494c.847 0 1.534-.787 1.534-1.758s-.687-1.758-1.534-1.758-1.534.787-1.534 1.758.687 1.758 1.534 1.758z"/><linearGradient id="H" gradientUnits="userSpaceOnUse"/></defs></svg>