<svg xmlns="http://www.w3.org/2000/svg" width="52" height="52" fill="none" xmlns:v="https://vecta.io/nano"><g clip-path="url(#B)"><path d="M40.063 20.482c2.811-2.105 4.617-5.357 4.617-8.999C44.68 5.151 39.223 0 32.516 0S20.351 5.151 20.351 11.483a10.92 10.92 0 0 0 .07 1.229c-1.383-.716-2.968-1.124-4.654-1.124-5.355 0-9.711 4.113-9.711 9.169 0 2.636 1.186 5.014 3.078 6.688C4.938 29.191 2 33.167 2 37.782v10.662C2 50.405 3.683 52 5.751 52h13.627 1.226 25.049C48.05 52 50 50.151 50 47.879V33.894c0-6.164-4.148-11.427-9.937-13.412zM32.516 3.485c4.68 0 8.488 3.588 8.488 7.998s-3.808 7.998-8.488 7.998-8.488-3.588-8.488-7.998 3.808-7.998 8.488-7.998zM15.767 15.073c3.327 0 6.035 2.55 6.035 5.683a5.4 5.4 0 0 1-.17 1.342 14.76 14.76 0 0 0-4.239 4.133 6.39 6.39 0 0 1-1.626.208c-3.327 0-6.034-2.55-6.034-5.684s2.707-5.683 6.034-5.683zM5.677 48.444V37.782c0-4.3 3.69-7.799 8.227-7.799h1.703a13.53 13.53 0 0 0-.575 3.911v13.985c0 .216.018.428.052.636H5.751c-.037 0-.074-.036-.074-.071zm40.647-.565c0 .345-.307.636-.671.636H20.604h-1.226c-.363 0-.671-.291-.671-.636V33.894c0-5.94 5.098-10.772 11.364-10.772h4.889c6.266 0 11.364 4.833 11.364 10.772v13.985z" fill="url(#A)"/></g><defs><linearGradient id="A" x1="-4" y1="-8.138" x2="66.262" y2="66.722" gradientUnits="userSpaceOnUse"><stop stop-color="#1c2d5a"/><stop offset="1" stop-color="#4fc3dd" stop-opacity=".96"/></linearGradient><clipPath id="B"><path fill="#fff" d="M0 0h52v52H0z"/></clipPath></defs></svg>