<svg xmlns="http://www.w3.org/2000/svg" width="52" height="52" fill="none" xmlns:v="https://vecta.io/nano"><g clip-path="url(#E)"><path d="M13.809 35.287c-.17-.153-.47-.336-.926-.336H8.358v-2.11h3.89a1.34 1.34 0 0 0 .959-.386 1.25 1.25 0 0 0 .373-.893c0-.35-.127-.663-.406-.939-.246-.224-.566-.341-.927-.341H8.33l-.054-1.764h4.433c.363 0 .698-.137.947-.386.241-.238.373-.559.373-.893 0-.345-.132-.668-.406-.939-.246-.224-.563-.341-.914-.341H7.886c-.67 0-1.237.246-1.643.713-.342.399-.523.912-.523 1.48v7.178c0 .563.175 1.056.525 1.47.279.322.792.708 1.641.708h4.997c.485 0 .795-.213.95-.374.249-.238.383-.561.383-.906a1.29 1.29 0 0 0-.406-.94z" fill="url(#A)"/><path d="M24.488 32.928a1.31 1.31 0 0 0-.848-.59 1.44 1.44 0 0 0-.307-.033l-.45.054-.211.12c-.341.196-.569.525-.634.901-.15.685-.404 1.158-.767 1.432-.322.241-.775.363-1.346.363-.762 0-1.318-.238-1.754-.751-.505-.594-.762-1.498-.762-2.689 0-1.161.259-2.059.759-2.661.457-.53 1.016-.779 1.757-.779.581 0 1.033.12 1.381.363.358.251.581.632.683 1.145.091.518.373.8.566.926.216.153.467.234.726.234l.292-.033c.33-.074.62-.264.822-.554.196-.292.271-.632.216-1.018-.196-1.046-.663-1.901-1.401-2.549-.835-.713-1.942-1.074-3.285-1.074-1.538 0-2.8.576-3.747 1.709-.934 1.097-1.407 2.542-1.407 4.291 0 1.788.475 3.242 1.404 4.314.945 1.12 2.206 1.686 3.75 1.686 1.348 0 2.458-.391 3.296-1.16.701-.634 1.183-1.496 1.44-2.565.114-.511-.038-.882-.172-1.082z" fill="url(#B)"/><path d="M35.134 27.647c-.975-1.272-2.346-1.915-4.083-1.915-1.747.001-3.126.647-4.103 1.926-.802 1.082-1.209 2.453-1.209 4.075s.407 2.991 1.213 4.064c.97 1.284 2.349 1.934 4.098 1.934 1.737 0 3.11-.65 4.08-1.93.828-1.076 1.244-2.445 1.244-4.07s-.416-2.996-1.242-4.085zm-2.069 6.605c-.462.637-1.104.934-2.013.934-.917 0-1.556-.297-2.011-.929-.439-.614-.663-1.462-.663-2.524 0-1.069.224-1.917.666-2.526.452-.632 1.092-.929 2.008-.929.909 0 1.549.297 2.013.937.446.612.672 1.46.672 2.519 0 1.051-.229 1.901-.673 2.519z" fill="url(#C)"/><path d="M50.851.852a1.31 1.31 0 0 0-.999-.833l-.219-.018c-.383 0-.744.165-.991.452-.842.983-3.171 1.394-5.431 1.792-3.189.564-7.172 1.318-9.543 4.085-1.271-2.833-3.913-5.125-6.238-6.208a1.3 1.3 0 0 0-1.29.108 1.31 1.31 0 0 0-.556 1.17c.063.813-1.001 2.118-2.03 3.38-1.277 1.564-2.804 3.475-3.178 5.641C9.088 10.65.002 19.856.002 31.2c0 11.488 9.312 20.8 20.8 20.8s20.8-9.312 20.8-20.8c0-3.941-1.116-7.612-3.019-10.753.863.224 1.774.35 2.729.35 3.65 0 6.456-1.361 8.338-4.05C52.998 11.97 52.164 4.462 50.851.852zM25.569 6.423c.861-1.055 1.694-2.074 2.181-3.129 1.882 1.292 3.634 3.339 4.016 5.507.25 1.421-.142 2.787-1.108 4.082-.58-.313-1.176-.601-1.787-.858.223-1.087.366-2.297.192-3.764a1.3 1.3 0 0 0-1.444-1.138c-.712.088-1.222.733-1.138 1.444.115.974.042 1.821-.097 2.615-1.086-.303-2.201-.534-3.351-.657.309-1.238 1.252-2.527 2.536-4.102zM39.001 31.2c0 10.035-8.165 18.2-18.2 18.2s-18.2-8.165-18.2-18.2 8.165-18.2 18.2-18.2 18.2 8.165 18.2 18.2zm8.519-15.942c-1.366 1.95-3.455 2.941-6.21 2.941-1.963 0-3.703-.599-4.99-1.704.981-.741 2.098-1.349 3.329-1.803l.274-.107c2.24-.782 4.335-.762 4.499-.724l.279.03c.612 0 1.134-.416 1.27-1.016.128-.579-.153-1.155-.651-1.426a12.38 12.38 0 0 0 2.882-3.824c.15-.312.17-.666.055-.993s-.35-.592-.663-.741c-.62-.295-1.434-.016-1.735.604-1.036 2.146-2.765 3.788-5.26 4.989a5.3 5.3 0 0 0-.505-3.141c-.309-.625-1.136-.881-1.74-.584a1.29 1.29 0 0 0-.655.751c-.112.333-.085.686.07.993.782 1.567-.205 2.996-.588 3.461a15.47 15.47 0 0 0-2.407 1.485c-.443-.965-.612-2.029-.489-3.128.55-4.956 4.836-5.713 9.378-6.516 1.94-.343 3.791-.668 5.238-1.381.874 3.726.803 8.713-1.38 11.831z" fill="url(#D)"/></g><defs><linearGradient id="A" x1="4.658" y1="24.15" x2="20.088" y2="37.251" gradientUnits="userSpaceOnUse"><stop stop-color="#1c2d5a"/><stop offset="1" stop-color="#4fc3dd" stop-opacity=".96"/></linearGradient><linearGradient id="B" x1="13.53" y1="23.857" x2="29.759" y2="39.358" gradientUnits="userSpaceOnUse"><stop stop-color="#1c2d5a"/><stop offset="1" stop-color="#4fc3dd" stop-opacity=".96"/></linearGradient><linearGradient id="C" x1="24.41" y1="23.855" x2="40.652" y2="40.472" gradientUnits="userSpaceOnUse"><stop stop-color="#1c2d5a"/><stop offset="1" stop-color="#4fc3dd" stop-opacity=".96"/></linearGradient><linearGradient id="D" x1="-6.498" y1="-8.138" x2="63.187" y2="72.293" gradientUnits="userSpaceOnUse"><stop stop-color="#1c2d5a"/><stop offset="1" stop-color="#4fc3dd" stop-opacity=".96"/></linearGradient><clipPath id="E"><path fill="#fff" d="M0 0h52v52H0z"/></clipPath></defs></svg>