<svg xmlns="http://www.w3.org/2000/svg" xmlns:xlink="http://www.w3.org/1999/xlink" width="52" height="52" fill="none" xmlns:v="https://vecta.io/nano"><g clip-path="url(#I)"><path d="M41.058 35.442c-1.021-2.354-4.671-5.621-8.199-8.778-1.967-1.759-3.826-3.423-5.011-4.734a1.01 1.01 0 0 0-1.133-.28c-.73.293-1.181.518-1.536.693-.542.268-.724.36-1.454.441-.323.036-.613.228-.793.525-1.532 2.534-3.118 2.318-4.177 1.925-.338-.125-.399-.285-.431-.439-.227-1.052.914-3.502 2.394-5.14 3.521-3.898 5.337-4.873 9.171-2.977 4.351 2.153 8.71 3.838 8.753 3.855.57.218 1.183-.113 1.38-.738s-.102-1.309-.667-1.527c-.043-.017-4.316-1.668-8.58-3.78-4.968-2.457-7.694-.839-11.587 3.471-1.482 1.64-3.495 4.957-2.975 7.39.223 1.036.882 1.803 1.861 2.16 2.455.897 4.695.038 6.363-2.411.689-.117 1.064-.29 1.627-.57.204-.101.442-.218.758-.36 1.239 1.287 2.912 2.785 4.674 4.36 3.185 2.85 6.797 6.082 7.609 7.951.401.923-.03 1.525-.323 1.8-.429.407-1.016.537-1.335.29-.351-.266-.808-.283-1.17-.043s-.568.693-.522 1.158c.074.762-.557 1.199-.83 1.35-.693.388-1.417.321-1.688.043-.303-.312-.739-.403-1.125-.245s-.654.554-.693 1.009c-.065.786-.591 1.541-1.278 1.836-.331.139-.812.223-1.244-.213-.269-.268-.641-.372-.99-.278s-.637.379-.761.755c-.041.12-.134.408-1.148.408-.721 0-2.019-.539-2.654-1.005-.761-.554-5.529-4.49-9.648-8.306-.578-.539-1.579-1.695-2.463-2.716-.784-.906-1.502-1.728-1.87-2.074-.461-.431-1.144-.367-1.527.142s-.329 1.263.128 1.69c.336.314.986 1.074 1.703 1.901.966 1.117 1.965 2.273 2.637 2.896 4.034 3.737 8.883 7.772 9.85 8.474.797.58 2.515 1.395 3.846 1.395 1.068 0 1.889-.271 2.459-.801.763.328 1.629.331 2.464-.029.986-.422 1.796-1.273 2.256-2.304.854.201 1.831.06 2.719-.434.869-.484 1.497-1.225 1.809-2.09.862.05 1.751-.288 2.485-.985 1.244-1.177 1.586-3.008.867-4.66z" fill="url(#A)"/><path d="M21.668 15.581h-9.75c-.598 0-1.083.537-1.083 1.199s.485 1.199 1.083 1.199h9.75c.598 0 1.083-.537 1.083-1.199s-.485-1.199-1.083-1.199z" fill="url(#B)"/><path d="M44.231 32.891c-.336-.549-1.008-.7-1.504-.326l-3.168 2.354c-.496.369-.628 1.115-.295 1.664.21.343.553.53.901.53.206 0 .416-.065.602-.204l3.168-2.354c.496-.369.628-1.115.294-1.664z" fill="url(#C)"/><path d="M37.506 38.611c-.776-.676-4.245-4.605-6.39-7.079-.414-.48-1.101-.496-1.532-.036a1.29 1.29 0 0 0-.032 1.695l6.61 7.304c.197.172.436.256.669.256.319 0 .637-.158.854-.458.371-.518.291-1.273-.18-1.683z" fill="url(#D)"/><path d="M33.178 41.015c-1.298-1.148-4.559-4.981-5.295-5.868a1.01 1.01 0 0 0-1.532-.072c-.44.448-.47 1.208-.065 1.695l5.538 6.118c.199.175.44.261.676.261.316 0 .633-.156.847-.448.373-.518.297-1.273-.169-1.685z" fill="url(#E)"/><path d="M28.864 43.429c-1.545-1.441-4.706-5.163-5.323-5.895a1.01 1.01 0 0 0-1.532-.058c-.438.453-.459 1.211-.052 1.695l5.51 6.091a1.02 1.02 0 0 0 .698.283c.308 0 .615-.146.83-.427.386-.508.327-1.263-.13-1.69z" fill="url(#F)"/><path d="M12.662 13.512c-1.857-1.947-9.282-2.577-11.514-2.723-.308-.017-.592.096-.808.324s-.34.542-.34.873V33.56c0 .662.485 1.199 1.083 1.199h6.5c.468 0 .884-.333 1.029-.827.158-.537 3.891-13.213 4.383-19.446.028-.364-.093-.724-.334-.973zM6.793 32.361H2.167V13.27c3.482.304 7.239.966 8.604 1.699-.574 5.25-3.172 14.577-3.978 17.392z" fill="url(#G)"/><path d="M50.918 13.184c-8.506 0-13.225 2.409-13.422 2.51-.282.146-.492.417-.578.746a1.32 1.32 0 0 0 .119.973c1.339 2.385 5.532 15.632 6.337 18.863.13.52.557.88 1.044.88h6.5c.598 0 1.083-.537 1.083-1.199V14.382c0-.664-.485-1.198-1.083-1.198zm-1.083 21.575h-4.606c-1.027-3.701-4.06-13.352-5.752-17.341 1.653-.621 5.204-1.688 10.359-1.822v19.163z" fill="url(#H)"/></g><defs><linearGradient id="A" x1="3.35" y1="8.105" x2="48.037" y2="60.361" xlink:href="#J"><stop stop-color="#1c2d5a"/><stop offset="1" stop-color="#4fc3dd" stop-opacity=".96"/></linearGradient><linearGradient id="B" x1="9.345" y1="15.206" x2="10.443" y2="21.506" xlink:href="#J"><stop stop-color="#1c2d5a"/><stop offset="1" stop-color="#4fc3dd" stop-opacity=".96"/></linearGradient><linearGradient id="C" x1="38.414" y1="31.616" x2="44.64" y2="39.68" xlink:href="#J"><stop stop-color="#1c2d5a"/><stop offset="1" stop-color="#4fc3dd" stop-opacity=".96"/></linearGradient><linearGradient id="D" x1="28.167" y1="29.66" x2="41.139" y2="43.194" xlink:href="#J"><stop stop-color="#1c2d5a"/><stop offset="1" stop-color="#4fc3dd" stop-opacity=".96"/></linearGradient><linearGradient id="E" x1="25.052" y1="33.446" x2="36.4" y2="45.286" xlink:href="#J"><stop stop-color="#1c2d5a"/><stop offset="1" stop-color="#4fc3dd" stop-opacity=".96"/></linearGradient><linearGradient id="F" x1="20.717" y1="35.84" x2="32.07" y2="47.681" xlink:href="#J"><stop stop-color="#1c2d5a"/><stop offset="1" stop-color="#4fc3dd" stop-opacity=".96"/></linearGradient><linearGradient id="G" x1="-1.625" y1="7.036" x2="27.567" y2="25.309" xlink:href="#J"><stop stop-color="#1c2d5a"/><stop offset="1" stop-color="#4fc3dd" stop-opacity=".96"/></linearGradient><linearGradient id="H" x1="34.982" y1="9.432" x2="65.873" y2="31.934" xlink:href="#J"><stop stop-color="#1c2d5a"/><stop offset="1" stop-color="#4fc3dd" stop-opacity=".96"/></linearGradient><clipPath id="I"><path fill="#fff" d="M0 0h52v52H0z"/></clipPath><linearGradient id="J" gradientUnits="userSpaceOnUse"/></defs></svg>