<svg xmlns="http://www.w3.org/2000/svg" width="107" height="67" fill="none" xmlns:v="https://vecta.io/nano"><path d="M80 34.757c0 21.317-16.816 31.856-38.491 31.856S0 50.075 0 28.758 10.566.614 20.377.613c9.385 0 17.624 8.789 25.66 12.618C56.561 18.245 80 22.671 80 34.757z" fill="url(#A)"/><path d="M27.159 20.125l9.17-1.212a47.64 47.64 0 0 1 5.197-2.55c5.908-2.478 12.321-3.756 18.808-3.75h1.593c7.655.005 15.188 1.784 21.912 5.173l4.628 2.337c5.417.056 10.73 1.39 15.437 3.874 1.913 1.016 3.094 2.9 3.097 4.941v7.422c0 .691-.604 1.25-1.35 1.25h-4.533c-1.475 3.894-6.08 5.945-10.286 4.58-2.315-.751-4.135-2.437-4.947-4.58H49.817c-1.474 3.894-6.079 5.945-10.285 4.58-2.315-.751-4.135-2.437-4.947-4.58H34.1a1.45 1.45 0 0 1-.502-.089l-4.373-1.624c-1.953-.716-3.233-2.467-3.226-4.411V21.362c0-.622.494-1.149 1.159-1.237zM88.21 36.111c.597 2.705 3.45 4.45 6.372 3.897s4.807-3.194 4.21-5.899-3.45-4.45-6.372-3.897c-2.514.476-4.319 2.524-4.319 4.9 0 .336.037.671.109 1zm-24.409-1h21.6c0-4.142 3.626-7.499 8.1-7.499s8.1 3.358 8.1 7.499h2.7v-6.172c-.002-1.145-.664-2.202-1.737-2.771-4.406-2.329-9.39-3.554-14.463-3.556H63.8v12.499zm0-14.998h19.005l-.26-.132c-5.772-2.904-12.183-4.55-18.745-4.813v4.945zm-2.7-5h-.764c-5.44-.006-10.831.951-15.885 2.817l2.357 2.182H61.1v-5zM36.909 36.111c.597 2.705 3.45 4.45 6.372 3.897s4.807-3.194 4.209-5.899-3.45-4.45-6.372-3.897c-2.514.476-4.319 2.524-4.319 4.9 0 .336.037.671.109 1zM28.7 23.862h4.05v2.5H28.7v5.124c-.003.921.603 1.75 1.528 2.088l3.872 1.44c0-.115.016-.229.024-.344s.011-.25.024-.375.041-.25.062-.375.038-.25.065-.364.066-.24.102-.359.062-.239.103-.355.089-.227.135-.341l.135-.344c.047-.112.111-.215.168-.321s.112-.223.175-.33.135-.199.196-.299a3.83 3.83 0 0 1 .211-.316c.078-.103.149-.184.223-.276s.158-.201.244-.297.167-.171.251-.25.177-.185.27-.272.185-.157.278-.234.193-.169.296-.25.207-.143.309-.215.205-.148.313-.214.23-.125.346-.195.211-.125.32-.178.245-.11.37-.165.221-.104.336-.148.27-.093.405-.137.223-.08.338-.114c.154-.044.312-.075.469-.111.103-.022.201-.052.305-.072.166-.032.336-.049.505-.072.1-.012.196-.033.296-.041a8.89 8.89 0 0 1 .823-.039c4.472.004 8.096 3.359 8.1 7.499H61.1V22.612H46.25c-.358 0-.702-.132-.954-.366l-3.501-3.241c-1.469.647-2.898 1.371-4.28 2.168-.159.092-.337.152-.524.177L28.7 22.446v1.416z" fill="#fff"/><defs><linearGradient id="A" x1="0" y1=".613" x2="80" y2="76.613" gradientUnits="userSpaceOnUse"><stop stop-color="#f09642" stop-opacity=".78"/><stop offset="1" stop-color="#f0d542" stop-opacity=".79"/></linearGradient></defs></svg>