<svg xmlns="http://www.w3.org/2000/svg" width="55" height="59" fill="none" xmlns:v="https://vecta.io/nano"><path d="M34.655 29.498c7.908 0 14.319-6.411 14.319-14.319S42.563.859 34.655.859 20.336 7.27 20.336 15.179s6.411 14.319 14.319 14.319z" fill="#fccf23"/><path d="M35.816 14.154V8.607a2.83 2.83 0 0 1 1.671 2.577c0 .308.123.604.34.822a1.16 1.16 0 0 0 1.643 0c.218-.218.34-.514.34-.822-.002-1.165-.398-2.294-1.123-3.206a5.16 5.16 0 0 0-2.872-1.814V5.05a1.16 1.16 0 0 0-1.162-1.162 1.16 1.16 0 0 0-1.162 1.162v1.114a5.15 5.15 0 0 0-3.994 5.02 5.15 5.15 0 0 0 3.994 5.02v5.547a2.83 2.83 0 0 1-1.671-2.577 1.16 1.16 0 0 0-1.162-1.162 1.16 1.16 0 0 0-1.162 1.162c.002 1.165.398 2.294 1.123 3.206a5.16 5.16 0 0 0 2.872 1.814v1.114a1.16 1.16 0 0 0 1.162 1.162 1.16 1.16 0 0 0 1.162-1.162v-1.114a5.15 5.15 0 0 0 3.994-5.02 5.15 5.15 0 0 0-3.994-5.02zm-3.995-2.97a2.83 2.83 0 0 1 1.671-2.577v5.152a2.83 2.83 0 0 1-1.671-2.576zm3.995 10.567v-5.154c.497.222.92.584 1.216 1.041s.454.99.454 1.535-.158 1.078-.454 1.535-.719.819-1.216 1.041z" fill="#fca40b"/><path d="M.484 34.842h10.447v22.836H.484V34.842z" fill="url(#A)"/><path d="M10.93 38.951c2.223-1.641 4.905-2.541 7.668-2.572s5.465.807 7.725 2.396l.195.137h7.065c1.744 0 3.416.693 4.649 1.926s1.926 2.905 1.926 4.649l11.059-8.414c.357-.272.794-.419 1.242-.419a2.05 2.05 0 0 1 1.101.32c.329.209.592.507.758.86s.227.746.178 1.132-.208.751-.457 1.051L42.35 54.112a11.12 11.12 0 0 1-11.867 3.52l-12.5-3.889-7.053.199v-14.99z" fill="#fabc91"/><path d="M40.159 46.648H27.308a1.16 1.16 0 0 1-1.162-1.162 1.16 1.16 0 0 1 1.162-1.162h12.851a1.16 1.16 0 0 1 1.162 1.162c0 .308-.123.604-.34.822a1.16 1.16 0 0 1-.822.34z" fill="#faa875"/><defs><linearGradient id="A" x1="1.261" y1="42.512" x2="14.542" y2="52.378" gradientUnits="userSpaceOnUse"><stop stop-color="#272671"/><stop offset="1" stop-color="#7bb3cb"/></linearGradient></defs></svg>