<svg xmlns="http://www.w3.org/2000/svg" width="45" height="55" fill="none" xmlns:v="https://vecta.io/nano"><path d="M3.373.998h0c10.248.998 17.746 10.114 16.748 20.362l-1.566 16.081h0C8.307 36.443.809 27.327 1.807 17.079L3.373.998z" fill="url(#B)"/><path d="M44.405 18.644h0C32.675 16.903 21.754 25 20.012 36.731l-2.213 14.904h0c11.73 1.742 22.651-6.356 24.393-18.086l2.213-14.904z" fill="url(#C)"/><mask id="A" maskUnits="userSpaceOnUse" x="17" y="18" width="28" height="34" mask-type="alpha"><path d="M44.405 18.644h0C32.675 16.903 21.754 25 20.012 36.731l-2.213 14.904h0c11.73 1.742 22.651-6.356 24.393-18.086l2.213-14.904z" fill="url(#D)"/></mask><g mask="url(#A)"><path d="M38.159 32.818c1.831-2.957 4.789-7.953 6.231-14.909 2.381 6.454.94 31.493-4.819 31.297S17.33 60.254 17.586 52.713c-.463-11.92 16.263-12.936 20.573-19.895z" fill="url(#E)"/></g><defs><linearGradient id="B" x1="18.421" y1="34.755" x2="-15.757" y2="-10.609" gradientUnits="userSpaceOnUse"><stop stop-color="#f09642"/><stop offset="1" stop-color="#f4e26e"/></linearGradient><linearGradient id="C" x1="17.8" y1="51.534" x2="53.842" y2="7.412" gradientUnits="userSpaceOnUse"><stop stop-color="#f09642"/><stop offset="1" stop-color="#f0df42" stop-opacity=".85"/></linearGradient><linearGradient id="D" x1="17.8" y1="51.534" x2="41.414" y2="15.491" gradientUnits="userSpaceOnUse"><stop stop-color="#f09642"/><stop offset="1" stop-color="#f4e26e"/></linearGradient><linearGradient id="E" x1="26.665" y1="52.701" x2="54.72" y2="41.562" gradientUnits="userSpaceOnUse"><stop stop-color="#272671"/><stop offset="1" stop-color="#7bb3cb"/></linearGradient></defs></svg>