<svg width="248" height="74" viewBox="0 0 248 74" fill="none" xmlns="http://www.w3.org/2000/svg">
<path d="M84.2722 56.6094C84.6029 56.9789 84.7682 57.5235 84.7682 58.2529V61.7537H84.1458V60.8688C83.9999 61.1605 83.786 61.3939 83.504 61.5593C83.222 61.7246 82.8816 61.8024 82.4926 61.8024C81.9578 61.8024 81.5299 61.6565 81.2187 61.355C80.9075 61.0536 80.7422 60.6549 80.7422 60.1589C80.7422 59.6824 80.8881 59.2934 81.1798 59.0017C81.4715 58.7099 81.9481 58.5641 82.5899 58.5641H84.1264V58.2237C84.1264 57.7375 84.0097 57.3679 83.7763 57.1151C83.5429 56.8623 83.2123 56.7358 82.7649 56.7358C82.4635 56.7358 82.1717 56.7942 81.8897 56.9109C81.6077 57.0276 81.3743 57.1929 81.1701 57.3971L80.8783 56.8233C81.1215 56.5802 81.4132 56.3955 81.7536 56.2593C82.0939 56.1232 82.4537 56.0648 82.833 56.0648C83.4651 56.0551 83.9416 56.2399 84.2722 56.6094ZM83.5526 60.9077C83.8152 60.7132 84.0097 60.4312 84.1361 60.0519V59.1281H82.6288C81.8119 59.1281 81.4035 59.4684 81.4035 60.1394C81.4035 60.4701 81.5104 60.7327 81.7244 60.9174C81.9383 61.1022 82.2301 61.1994 82.6191 61.1994C82.9692 61.1994 83.2901 61.1022 83.5526 60.9077Z" fill="white"/>
<path d="M92.8004 60.2078C92.8004 60.7037 92.6448 61.083 92.3336 61.3456C92.0224 61.6081 91.5654 61.7443 90.9527 61.7443H88.7744V56.0942H90.8847C91.4293 56.0942 91.8571 56.2207 92.1683 56.4735C92.4795 56.7264 92.6351 57.0862 92.6351 57.5529C92.6351 57.8641 92.567 58.1267 92.4212 58.3407C92.2753 58.5643 92.0808 58.7199 91.828 58.8269C92.4795 59.0019 92.8004 59.4687 92.8004 60.2078ZM89.4065 58.6129H90.8458C91.2153 58.6129 91.4973 58.5352 91.7015 58.3698C91.896 58.2045 91.9933 57.9614 91.9933 57.6502C91.9933 57.339 91.896 57.0959 91.7015 56.9403C91.507 56.7847 91.225 56.7069 90.8458 56.7069H89.4065V58.6129ZM91.8571 60.908C92.0614 60.7524 92.1683 60.4995 92.1683 60.1689C92.1683 59.8382 92.0711 59.5854 91.8863 59.4201C91.7015 59.2645 91.4001 59.177 90.9916 59.177H89.4065V61.1413H90.9236C91.3417 61.1413 91.6529 61.0635 91.8571 60.908Z" fill="white"/>
<path d="M99.9674 56.775H98.1586V61.7443H97.507V56.775H95.6982V56.0942H99.9674V56.775Z" fill="white"/>
<path d="M103.692 61.433C103.323 61.1899 103.031 60.8398 102.817 60.4022C102.603 59.9645 102.496 59.4686 102.496 58.924C102.496 58.3794 102.603 57.8835 102.817 57.4459C103.031 57.0082 103.323 56.6679 103.692 56.4248C104.062 56.1817 104.48 56.0649 104.937 56.0649C105.394 56.0649 105.812 56.1914 106.182 56.4248C106.551 56.6679 106.843 57.0082 107.047 57.4459C107.261 57.8835 107.358 58.3794 107.358 58.924C107.358 59.4686 107.251 59.9743 107.047 60.4022C106.843 60.8398 106.551 61.1801 106.182 61.433C105.812 61.6761 105.394 61.8025 104.937 61.8025C104.48 61.8025 104.062 61.6761 103.692 61.433ZM105.851 60.8495C106.123 60.6647 106.328 60.4119 106.483 60.0715C106.639 59.7312 106.707 59.3519 106.707 58.924C106.707 58.4961 106.629 58.1071 106.483 57.7765C106.328 57.4361 106.123 57.1833 105.851 56.9985C105.579 56.8138 105.277 56.7262 104.937 56.7262C104.597 56.7262 104.295 56.8138 104.023 56.9985C103.751 57.1833 103.537 57.4361 103.381 57.7765C103.225 58.1169 103.148 58.4961 103.148 58.924C103.148 59.3519 103.225 59.7409 103.381 60.0715C103.537 60.4119 103.751 60.6647 104.023 60.8495C104.295 61.0342 104.597 61.1218 104.937 61.1218C105.277 61.1218 105.589 61.0342 105.851 60.8495Z" fill="white"/>
<path d="M116.392 56.0942V61.7443H115.799V57.2709L113.864 61.0538H113.572L111.627 57.2612V61.7443H111.034V56.0942H111.686L113.718 60.1689L115.79 56.0942H116.392Z" fill="white"/>
<path d="M121.235 61.433C120.866 61.1899 120.574 60.8398 120.36 60.4022C120.146 59.9645 120.039 59.4686 120.039 58.924C120.039 58.3794 120.146 57.8835 120.36 57.4459C120.574 57.0082 120.866 56.6679 121.235 56.4248C121.605 56.1817 122.023 56.0649 122.48 56.0649C122.937 56.0649 123.355 56.1914 123.725 56.4248C124.094 56.6679 124.386 57.0082 124.59 57.4459C124.804 57.8835 124.901 58.3794 124.901 58.924C124.901 59.4686 124.794 59.9743 124.59 60.4022C124.386 60.8398 124.094 61.1801 123.725 61.433C123.355 61.6761 122.937 61.8025 122.48 61.8025C122.023 61.8025 121.605 61.6761 121.235 61.433ZM123.404 60.8495C123.676 60.6647 123.88 60.4119 124.036 60.0715C124.192 59.7312 124.26 59.3519 124.26 58.924C124.26 58.4961 124.182 58.1071 124.036 57.7765C123.88 57.4361 123.676 57.1833 123.404 56.9985C123.132 56.8138 122.83 56.7262 122.49 56.7262C122.149 56.7262 121.848 56.8138 121.576 56.9985C121.303 57.1833 121.089 57.4361 120.934 57.7765C120.778 58.1169 120.7 58.4961 120.7 58.924C120.7 59.3519 120.778 59.7409 120.934 60.0715C121.089 60.4119 121.303 60.6647 121.576 60.8495C121.848 61.0342 122.149 61.1218 122.49 61.1218C122.82 61.1218 123.132 61.0342 123.404 60.8495Z" fill="white"/>
<path d="M132.088 56.5803C132.439 56.8137 132.711 57.1444 132.905 57.5625C133.1 57.9807 133.197 58.4572 133.197 58.9921C133.197 59.5464 133.1 60.0326 132.896 60.4605C132.691 60.8884 132.409 61.219 132.04 61.4524C131.68 61.6858 131.252 61.8025 130.785 61.8025C129.988 61.8025 129.375 61.4718 128.938 60.8106C128.5 60.1493 128.286 59.2449 128.286 58.0779C128.286 56.8721 128.481 55.9385 128.87 55.2967C129.259 54.6549 129.871 54.2173 130.708 53.9839L132.857 53.4004L132.964 54.1006L130.941 54.6451C130.251 54.8202 129.755 55.1411 129.424 55.5982C129.103 56.0552 128.928 56.7262 128.899 57.6112C129.093 57.1736 129.366 56.8332 129.706 56.5901C130.056 56.347 130.455 56.2205 130.902 56.2205C131.349 56.24 131.738 56.3567 132.088 56.5803ZM131.699 60.9078C131.962 60.7231 132.166 60.4702 132.322 60.1396C132.468 59.8089 132.546 59.4394 132.546 59.0212C132.546 58.6031 132.477 58.2433 132.332 57.9223C132.186 57.6112 131.981 57.3583 131.719 57.1833C131.456 57.0082 131.155 56.9207 130.815 56.9207C130.474 56.9207 130.173 57.0082 129.91 57.1833C129.648 57.3583 129.443 57.6014 129.288 57.9223C129.142 58.2335 129.064 58.6031 129.064 59.0212C129.064 59.4394 129.142 59.8089 129.288 60.1396C129.434 60.4702 129.648 60.7231 129.91 60.9078C130.173 61.0926 130.474 61.1801 130.815 61.1801C131.135 61.1801 131.437 61.0829 131.699 60.9078Z" fill="white"/>
<path d="M136.863 56.0942H137.515V60.5871L140.714 56.0942H141.288V61.7443H140.636V57.2515L137.447 61.7443H136.863V56.0942Z" fill="white"/>
<path d="M149.321 56.0942V61.7442H148.669V56.7749H146.374L146.306 58.1753C146.257 59.3519 146.141 60.2563 145.956 60.8787C145.771 61.5108 145.45 61.822 144.983 61.822C144.857 61.822 144.701 61.7928 144.517 61.7345L144.565 61.0829C144.672 61.1121 144.75 61.1218 144.789 61.1218C145.042 61.1218 145.226 60.9857 145.353 60.7134C145.479 60.4411 145.567 60.1008 145.606 59.702C145.645 59.3033 145.684 58.7685 145.713 58.1072L145.791 56.0845H149.321V56.0942Z" fill="white"/>
<path d="M156.876 58.5643C157.187 58.8755 157.343 59.3131 157.343 59.8966C157.343 60.4995 157.178 60.9566 156.837 61.2872C156.497 61.6179 156.011 61.7637 155.379 61.754L153.443 61.7443V56.0942H154.095V58.0683L155.505 58.0878C156.098 58.0975 156.555 58.2628 156.876 58.5643ZM156.341 60.8593C156.565 60.6454 156.682 60.3245 156.682 59.8966C156.682 59.4784 156.565 59.177 156.341 58.9728C156.118 58.7685 155.777 58.6713 155.33 58.6616L154.085 58.6421V61.1608L155.33 61.1802C155.777 61.19 156.118 61.083 156.341 60.8593Z" fill="white"/>
<path d="M160.844 56.0942H161.495V58.5935H164.51V56.0942H165.161V61.7443H164.51V59.2547H161.495V61.7443H160.844V56.0942Z" fill="white"/>
<path d="M172.66 58.5643C172.971 58.8755 173.136 59.3131 173.136 59.8966C173.136 60.4995 172.961 60.9566 172.621 61.2872C172.28 61.6081 171.794 61.7637 171.162 61.754L169.266 61.7443V56.0942H169.917V58.0683L171.279 58.0878C171.891 58.0975 172.348 58.2628 172.66 58.5643ZM172.134 60.8593C172.358 60.6454 172.475 60.3245 172.475 59.8966C172.475 59.4784 172.358 59.177 172.134 58.9728C171.911 58.7685 171.57 58.6713 171.123 58.6616L169.907 58.6421V61.1608L171.123 61.1802C171.58 61.19 171.911 61.083 172.134 60.8593ZM173.943 56.0942H174.595V61.7443H173.943V56.0942Z" fill="white"/>
<path d="M182.89 59.1574H178.883C178.922 59.7409 179.107 60.2174 179.457 60.5772C179.807 60.937 180.244 61.1218 180.77 61.1218C181.071 61.1218 181.343 61.0634 181.586 60.937C181.839 60.8106 182.053 60.6258 182.238 60.3827L182.598 60.8787C182.384 61.1801 182.121 61.4135 181.8 61.5691C181.48 61.7247 181.129 61.8025 180.75 61.8025C180.254 61.8025 179.826 61.6761 179.447 61.433C179.068 61.1899 178.766 60.8398 178.562 60.4022C178.348 59.9645 178.241 59.4686 178.241 58.924C178.241 58.3794 178.338 57.8835 178.543 57.4459C178.747 57.0082 179.029 56.6679 179.379 56.4248C179.739 56.1817 180.138 56.0649 180.575 56.0649C181.013 56.0649 181.411 56.1914 181.771 56.4248C182.121 56.6679 182.403 57.0082 182.598 57.4361C182.802 57.8737 182.899 58.3697 182.899 58.924L182.89 59.1574ZM179.418 57.2319C179.107 57.582 178.922 58.0293 178.883 58.5934H182.277C182.238 58.0391 182.053 57.582 181.742 57.2319C181.431 56.8818 181.042 56.7068 180.575 56.7068C180.118 56.7068 179.729 56.8818 179.418 57.2319Z" fill="white"/>
<path d="M193.013 59.2353H191.924V61.754H191.272V56.104H191.924V58.5838H193.023L194.705 56.104H195.405L193.519 58.8464L195.542 61.754H194.773L193.013 59.2353Z" fill="white"/>
<path d="M199.402 61.433C199.033 61.1899 198.741 60.8398 198.527 60.4022C198.313 59.9645 198.206 59.4686 198.206 58.924C198.206 58.3794 198.313 57.8835 198.527 57.4459C198.741 57.0082 199.033 56.6679 199.402 56.4248C199.772 56.1817 200.19 56.0649 200.647 56.0649C201.104 56.0649 201.522 56.1914 201.892 56.4248C202.261 56.6679 202.553 57.0082 202.757 57.4459C202.971 57.8835 203.068 58.3794 203.068 58.924C203.068 59.4686 202.961 59.9743 202.757 60.4022C202.553 60.8398 202.261 61.1801 201.892 61.433C201.522 61.6761 201.104 61.8025 200.647 61.8025C200.19 61.8025 199.772 61.6761 199.402 61.433ZM201.561 60.8495C201.833 60.6647 202.038 60.4119 202.193 60.0715C202.349 59.7312 202.417 59.3519 202.417 58.924C202.417 58.4961 202.339 58.1071 202.193 57.7765C202.038 57.4361 201.833 57.1833 201.561 56.9985C201.289 56.8138 200.987 56.7262 200.647 56.7262C200.307 56.7262 200.005 56.8138 199.733 56.9985C199.461 57.1833 199.247 57.4361 199.091 57.7765C198.935 58.1169 198.858 58.4961 198.858 58.924C198.858 59.3519 198.935 59.7409 199.091 60.0715C199.247 60.4119 199.461 60.6647 199.733 60.8495C200.005 61.0342 200.307 61.1218 200.647 61.1218C200.987 61.1218 201.299 61.0342 201.561 60.8495Z" fill="white"/>
<path d="M210.77 60.2078C210.77 60.7037 210.615 61.083 210.303 61.3456C209.992 61.6081 209.535 61.7443 208.922 61.7443H206.744V56.0942H208.854C209.399 56.0942 209.827 56.2207 210.138 56.4735C210.449 56.7264 210.605 57.0862 210.605 57.5529C210.605 57.8641 210.537 58.1267 210.391 58.3407C210.245 58.5643 210.051 58.7199 209.798 58.8269C210.449 59.0019 210.77 59.4687 210.77 60.2078ZM207.376 58.6129H208.815C209.185 58.6129 209.467 58.5352 209.671 58.3698C209.866 58.2045 209.963 57.9614 209.963 57.6502C209.963 57.339 209.866 57.0959 209.671 56.9403C209.477 56.7847 209.195 56.7069 208.815 56.7069H207.376V58.6129ZM209.827 60.908C210.031 60.7524 210.138 60.4995 210.138 60.1689C210.138 59.8382 210.041 59.5854 209.856 59.4201C209.671 59.2645 209.37 59.177 208.961 59.177H207.376V61.1413H208.893C209.311 61.1413 209.613 61.0635 209.827 60.908Z" fill="white"/>
<path d="M218.249 56.4151C218.609 56.6582 218.901 56.9889 219.105 57.4265C219.309 57.8641 219.416 58.36 219.416 58.9241C219.416 59.4881 219.309 59.9938 219.105 60.4314C218.901 60.869 218.619 61.2094 218.249 61.4427C217.889 61.6859 217.481 61.8026 217.024 61.8026C216.635 61.8026 216.285 61.7053 215.974 61.5206C215.662 61.3358 215.4 61.0538 215.205 60.6842V63.835H214.554V56.1039H215.176V57.2222C215.371 56.8527 215.623 56.561 215.944 56.3665C216.265 56.1623 216.625 56.065 217.024 56.065C217.481 56.0553 217.889 56.172 218.249 56.4151ZM217.899 60.8496C218.171 60.6648 218.385 60.412 218.541 60.0716C218.696 59.7312 218.774 59.3519 218.774 58.9241C218.774 58.4962 218.696 58.1169 218.541 57.7766C218.385 57.4459 218.171 57.1834 217.899 56.9986C217.627 56.8138 217.325 56.7166 216.985 56.7166C216.645 56.7166 216.343 56.8138 216.071 56.9986C215.798 57.1834 215.585 57.4459 215.429 57.7766C215.273 58.1072 215.196 58.4865 215.196 58.9241C215.196 59.3519 215.273 59.741 215.429 60.0716C215.585 60.412 215.798 60.6648 216.071 60.8496C216.343 61.0343 216.645 61.1218 216.985 61.1218C217.316 61.1218 217.617 61.0343 217.899 60.8496Z" fill="white"/>
<path d="M223.092 56.0942H223.743V60.5871L226.943 56.0942H227.517V61.7443H226.865V57.2515L223.675 61.7443H223.092V56.0942Z" fill="white"/>
<path d="M233.371 59.2353H232.281V61.754H231.63V56.104H232.281V58.5838H233.38L235.063 56.104H235.763L233.876 58.8464L235.899 61.754H235.131L233.371 59.2353Z" fill="white"/>
<path d="M239.205 56.0942H239.857V60.5871L243.056 56.0942H243.63V61.7443H242.978V57.2515L239.789 61.7443H239.205V56.0942Z" fill="white"/>
<path d="M98.9565 30.7419H91.77L91.099 33.9997H97.8382L96.7295 39.2705H89.9904L89.2902 42.5574H96.9824L95.8641 47.8282H81.4424L86.1686 25.4712H100.094L98.9565 30.7419Z" fill="#009245"/>
<path d="M111.822 47.8379H104.256L101.757 25.481H108.652L109.42 40.1263C109.42 40.7 109.381 41.2349 109.293 41.7503H109.449C109.537 41.4683 109.634 41.1571 109.77 40.8265C109.896 40.4861 112.133 35.3806 116.48 25.4907H123.851L111.822 47.8379Z" fill="#009245"/>
<path d="M135.239 47.8379L134.909 43.7244H128.199L126.186 47.8379H118.775L131.184 25.481H139.557L142.085 47.8379H135.239ZM134.257 32.1132C134.257 31.4033 134.286 30.8976 134.335 30.5864H134.179L133.888 31.3644L133.294 32.7161L130.581 38.4342H134.578L134.286 32.8328L134.257 32.1132Z" fill="#009245"/>
<path d="M168.546 34.5541C168.546 37.2089 167.992 39.5526 166.883 41.6045C165.774 43.6564 164.218 45.2026 162.215 46.2626C160.212 47.3128 157.849 47.8477 155.116 47.8477H144.682L149.408 25.4907H158.316C161.68 25.4907 164.228 26.2881 165.959 27.8733C167.69 29.4487 168.546 31.6853 168.546 34.5541ZM161.389 35.0695C161.389 33.6205 161.009 32.5411 160.251 31.8215C159.492 31.1018 158.325 30.742 156.76 30.742H155.029L152.549 42.5575H154.815C156.876 42.5575 158.481 41.8865 159.648 40.5348C160.815 39.2025 161.389 37.3742 161.389 35.0695Z" fill="white"/>
<path d="M190.864 31.2574C190.864 32.9494 190.281 34.3984 189.114 35.6043C187.947 36.8101 186.391 37.5881 184.446 37.9285V37.9868C186.08 38.5898 187.11 39.922 187.548 41.9837L188.793 47.8282H181.635L180.809 42.8589C180.643 41.9253 180.342 41.2057 179.895 40.7097C179.457 40.2138 178.806 39.9706 177.95 39.9706H177.891L176.238 47.8282H169.499L174.225 25.4712H183.007C185.477 25.4712 187.412 25.9769 188.793 26.9882C190.174 27.9996 190.864 29.4194 190.864 31.2574ZM183.678 32.5118C183.678 31.763 183.473 31.1796 183.065 30.7614C182.656 30.3432 182.034 30.139 181.217 30.139H180.021L178.864 35.2542H180.361C181.373 35.2542 182.18 34.9916 182.783 34.4568C183.376 33.9219 183.678 33.2801 183.678 32.5118Z" fill="white"/>
<path d="M214.719 34.9137C214.719 37.3643 214.184 39.6496 213.104 41.7599C212.025 43.8701 210.537 45.4747 208.631 46.5736C206.725 47.6725 204.459 48.2268 201.824 48.2268C199.83 48.2268 198.109 47.8183 196.67 47.0015C195.231 46.1846 194.132 45.0371 193.373 43.5492C192.615 42.0613 192.235 40.3595 192.235 38.4535C192.235 35.9834 192.78 33.6884 193.869 31.5879C194.958 29.4874 196.466 27.8828 198.372 26.7742C200.287 25.6656 202.505 25.1016 205.033 25.1016C208.038 25.1016 210.401 25.9768 212.132 27.7175C213.863 29.4679 214.719 31.8602 214.719 34.9137ZM207.561 35.1277C207.561 33.7662 207.279 32.7257 206.715 32.0158C206.151 31.3059 205.334 30.9461 204.274 30.9461C203.302 30.9461 202.446 31.2767 201.717 31.9283C200.988 32.5798 200.423 33.4939 200.005 34.6512C199.597 35.8084 199.393 37.024 199.393 38.2882C199.393 39.6691 199.675 40.7096 200.248 41.4195C200.822 42.1197 201.61 42.4698 202.621 42.4698C203.555 42.4698 204.391 42.178 205.13 41.5946C205.869 41.0111 206.462 40.1261 206.9 38.9397C207.347 37.7533 207.561 36.4794 207.561 35.1277Z" fill="white"/>
<path d="M242.765 47.8378H236.123L238.914 34.6804L239.643 31.3254H239.517L238.359 34.0969L232.058 47.8378H225.863L225.066 34.8749C225.007 33.9997 224.969 32.8133 224.969 31.3157H224.832C224.531 33.6107 224.181 35.7112 223.792 37.6172L221.623 47.8281H215.652L220.379 25.4711H229.831L230.609 38.8328C230.609 39.5135 230.58 40.2137 230.531 40.9333H230.628C230.803 40.4374 230.988 39.9123 231.173 39.3677C231.358 38.8231 231.552 38.3271 231.747 37.8895L237.202 25.4614H247.501L242.765 47.8378Z" fill="white"/>
<path d="M32.459 26.502C32.6729 26.2978 32.8674 26.1714 33.0036 26.0839C33.8302 25.5879 34.7443 25.549 35.318 25.5295C39.2954 25.4712 43.2825 25.4129 47.2599 25.374C52.3556 25.3156 57.4513 25.2767 62.5373 25.2573C62.1775 24.5765 61.8177 23.8958 61.4579 23.2151C61.1856 22.69 60.9036 22.1745 60.6313 21.6494C50.4204 21.7467 40.2095 21.8342 30.0084 21.9314C29.9987 21.9606 29.9889 21.9898 29.9792 22.0092C29.8333 22.0287 29.6777 22.0578 29.5222 22.1162C28.5886 22.4371 28.1413 23.3999 27.9857 23.7305C27.4314 24.8974 21.4799 40.0387 13.457 60.8106C14.5365 61.0731 15.6159 61.3454 16.6953 61.608C19.9336 61.6469 23.1817 61.6955 26.42 61.7344C30.8058 61.7247 35.1916 61.7052 39.5677 61.6955C40.8514 61.326 42.3392 60.8008 43.9341 60.0131C45.1594 59.4102 46.2194 58.7781 47.1238 58.1655C41.2792 58.1363 35.4347 58.0974 29.5902 58.0682V58.0779C27.0813 58.0974 24.5626 58.1169 22.0536 58.1266L26.7117 43.9286C29.882 43.948 33.0522 43.9578 36.2322 43.9772C36.5822 42.7908 36.9421 41.6044 37.2921 40.418C34.1608 40.3888 31.0197 40.3694 27.8884 40.3402C28.8025 37.5006 29.7361 34.6318 30.6891 31.7533C31.2726 30.0126 31.8658 28.2524 32.459 26.502Z" fill="#009245"/>
<path d="M48.0771 18.7704C49.3803 18.8191 50.6931 18.8774 51.9962 18.926C52.2879 18.0119 52.5797 17.0881 52.8811 16.174L49.5067 14.6958C49.0302 16.0573 48.5537 17.4187 48.0771 18.7704Z" fill="white"/>
<path d="M53.8921 13.3638L49.6035 14.7933C50.4593 15.4351 51.3734 16.1839 52.2972 17.0689C52.9682 17.701 53.5712 18.3233 54.106 18.9263C55.662 18.9263 57.2276 18.9263 58.7836 18.9263C58.521 18.4692 58.2195 18.0024 57.8889 17.5356C56.6053 15.7074 55.1757 14.3557 53.8921 13.3638Z" fill="white"/>
<path d="M65.1534 31.9765C64.9394 30.9651 64.6477 29.9635 64.6477 29.9635C64.4532 29.3022 64.2393 28.6604 64.0059 28.0186H59.8048C60.4369 29.4967 60.9426 31.0526 61.2927 32.6767C64.2295 46.369 55.4385 59.8376 41.6489 62.7453C41.6489 62.7453 41.6489 62.7453 41.6392 62.7453C40.9585 62.8814 39.8109 63.0662 36.8255 63.1051C36.135 63.1148 35.7947 63.1051 35.396 63.0856C34.7833 63.0467 34.2679 62.9787 33.8984 62.9203C33.1885 65.1959 32.605 66.9658 32.5272 66.9463C32.498 66.9366 32.4883 66.7032 32.5272 66.6935C32.5466 66.6935 32.5661 66.7324 32.5758 66.7518C32.605 66.8102 32.5855 66.888 32.5272 66.956C32.498 66.9463 32.4883 66.9366 32.4883 66.9269C32.498 66.8977 33.0231 66.9852 34.0637 67.2089C35.3862 67.2478 36.6991 67.2964 38.0216 67.3353C39.4025 67.2867 40.8709 67.1214 42.4074 66.8102C51.2277 64.9917 56.9847 59.0791 59.7368 55.7338C59.7368 55.7338 67.9346 44.8908 65.1534 31.9765Z" fill="white"/>
<path d="M49.3706 28.0283C48.544 28.0478 47.7175 28.0575 46.8909 28.0769C46.3657 28.0867 45.8503 28.0964 45.3252 28.1061C41.0755 40.9524 36.8258 53.7986 32.5762 66.6449C34.842 66.217 37.1078 65.7989 39.3737 65.371C42.7092 52.9137 46.0351 40.4661 49.3706 28.0283Z" fill="white"/>
<path d="M41.211 72.2077C22.0437 72.4702 6.28009 57.1442 6.01752 37.9769C5.75495 18.8096 21.081 3.04598 40.2483 2.78342C46.1998 2.70562 51.8303 4.12542 56.7607 6.69273C50.9259 2.92929 43.9534 0.780142 36.4946 0.887113C16.3354 1.16913 0.221631 17.7302 0.503646 37.8894C0.785661 58.0486 17.3467 74.1623 37.5059 73.8803C43.8464 73.7928 49.7882 72.091 54.9422 69.1736C50.7412 71.0602 46.1025 72.1396 41.211 72.2077Z" fill="#009245"/>
<path d="M44.6636 5.70099C43.7981 5.60374 42.8646 5.50651 42.0866 5.5454C58.5796 8.59894 70.3561 23.1665 68.9655 40.0193C67.643 56.0552 55.0106 68.1819 39.3053 69.874C39.2664 69.8156 39.4123 69.8934 39.4706 69.9031C56.9069 70.4963 72.1941 58.0585 73.6625 40.1554C75.1309 22.2523 62.4792 7.69454 44.6636 5.70099Z" fill="white"/>
</svg>
