<svg width="24" height="24" viewBox="0 0 24 24" fill="none" xmlns="http://www.w3.org/2000/svg">
<g clip-path="url(#clip0_222_3449)">
<path d="M12 0C9.62663 0 7.30655 0.703788 5.33316 2.02236C3.35977 3.34094 1.8217 5.21509 0.913451 7.4078C0.00519943 9.60051 -0.232441 12.0133 0.230582 14.3411C0.693605 16.6689 1.83649 18.8071 3.51472 20.4853C5.19295 22.1635 7.33115 23.3064 9.65892 23.7694C11.9867 24.2324 14.3995 23.9948 16.5922 23.0866C18.7849 22.1783 20.6591 20.6402 21.9776 18.6668C23.2962 16.6935 24 14.3734 24 12C23.9974 8.81821 22.7322 5.76751 20.4824 3.51764C18.2325 1.26778 15.1818 0.00264818 12 0V0ZM12.02 19C11.8887 19.0007 11.7585 18.9754 11.6369 18.9258C11.5154 18.8761 11.4048 18.803 11.3114 18.7106C11.123 18.524 11.0163 18.2702 11.015 18.005C11.0137 17.7398 11.1178 17.4849 11.3044 17.2964C11.491 17.108 11.7448 17.0013 12.01 17H12.02C12.2852 17 12.5396 17.1054 12.7271 17.2929C12.9146 17.4804 13.02 17.7348 13.02 18C13.02 18.2652 12.9146 18.5196 12.7271 18.7071C12.5396 18.8946 12.2852 19 12.02 19ZM13.93 12.505C13.6624 12.6339 13.4346 12.8329 13.2709 13.0808C13.1071 13.3286 13.0135 13.6162 13 13.913C13.0015 14.1828 12.898 14.4426 12.7113 14.6374C12.5247 14.8323 12.2696 14.9469 12 14.957C11.871 14.9617 11.7424 14.9405 11.6218 14.8946C11.5012 14.8487 11.391 14.779 11.2978 14.6898C11.2045 14.6006 11.1301 14.4936 11.079 14.3751C11.0279 14.2566 11.001 14.1291 11 14C10.9976 13.3306 11.1795 12.6735 11.526 12.1007C11.8724 11.5279 12.37 11.0616 12.964 10.753C13.3335 10.5495 13.6292 10.2344 13.8088 9.85274C13.9884 9.47108 14.0427 9.0424 13.964 8.628C13.8861 8.2332 13.6922 7.87059 13.4073 7.58649C13.1223 7.30239 12.759 7.10968 12.364 7.033C12.0754 6.97958 11.7786 6.99034 11.4946 7.06452C11.2106 7.13869 10.9464 7.27446 10.7208 7.4622C10.4952 7.64993 10.3136 7.88502 10.1891 8.15079C10.0645 8.41656 9.99995 8.70649 10 9C10 9.26522 9.89465 9.51957 9.70711 9.70711C9.51958 9.89464 9.26522 10 9.00001 10C8.73479 10 8.48044 9.89464 8.2929 9.70711C8.10536 9.51957 8.00001 9.26522 8.00001 9C8.00026 8.29451 8.18709 7.60163 8.54156 6.99165C8.89603 6.38167 9.40552 5.8763 10.0184 5.52679C10.6312 5.17728 11.3256 4.99606 12.031 5.00154C12.7365 5.00701 13.428 5.19897 14.0353 5.55794C14.6427 5.91692 15.1442 6.43013 15.4892 7.04554C15.8342 7.66094 16.0102 8.35663 15.9995 9.06204C15.9889 9.76746 15.7918 10.4575 15.4283 11.0622C15.0649 11.6668 14.5479 12.1646 13.93 12.505Z" fill="#E0E0E0"/>
</g>
<defs>
<clipPath id="clip0_222_3449">
<rect width="24" height="24" fill="white"/>
</clipPath>
</defs>
</svg>
