<svg width="13" height="13" viewBox="0 0 13 13" fill="none" xmlns="http://www.w3.org/2000/svg">
<path d="M11.1064 4.11248C10.1783 3.21873 8.90645 2.7031 7.6002 2.7031C6.2252 2.7031 4.8502 2.7031 3.44082 2.7031C3.3377 2.7031 3.2002 2.7031 3.09707 2.7031C3.54395 2.25623 3.95645 1.84373 4.40332 1.39685C4.7127 1.08748 4.7127 0.571851 4.40332 0.296851C4.09395 -0.0125244 3.57832 -0.0125244 3.30332 0.296851C2.44395 1.15623 1.58457 2.0156 0.725195 2.87498C0.41582 3.18435 0.41582 3.69998 0.725195 3.97498C1.61895 4.86873 2.47832 5.7281 3.40645 6.65623C3.71582 6.9656 4.23145 6.9656 4.50645 6.65623C4.81582 6.34685 4.81582 5.83123 4.50645 5.55623C4.05957 5.10935 3.64707 4.69685 3.2002 4.24998C4.50645 4.24998 5.74395 4.24998 7.05019 4.24998C7.25644 4.24998 7.42832 4.24998 7.63457 4.24998C9.73145 4.28435 11.4158 6.20935 10.9689 8.30622C10.7627 9.33747 10.1439 10.1625 9.2502 10.6781C8.49395 11.0562 7.70332 11.0562 6.87832 11.0562C5.84707 11.0562 5.84707 12.6375 6.87832 12.6375C7.70332 12.6375 8.49395 12.6375 9.28457 12.3625C10.3502 11.9844 11.2783 11.2281 11.8627 10.2656C13.0658 8.30623 12.7564 5.69373 11.1064 4.11248Z" fill="white"/>
</svg>
