<svg width="17" height="17" viewBox="0 0 17 17" fill="none" xmlns="http://www.w3.org/2000/svg">
<path d="M8.66555 11.5498C8.50978 11.5501 8.35882 11.4959 8.23888 11.3965L4.23888 8.06316C4.10274 7.95 4.01712 7.78739 4.00087 7.61111C3.98461 7.43482 4.03906 7.2593 4.15222 7.12316C4.26537 6.98701 4.42798 6.9014 4.60427 6.88515C4.78055 6.86889 4.95607 6.92333 5.09221 7.03649L8.66555 10.0232L12.2389 7.14316C12.3071 7.08778 12.3855 7.04643 12.4698 7.02147C12.554 6.99652 12.6423 6.98846 12.7297 6.99775C12.817 7.00704 12.9017 7.03351 12.9788 7.07562C13.0559 7.11774 13.1239 7.17467 13.1789 7.24316C13.2399 7.31171 13.2862 7.39212 13.3147 7.47937C13.3432 7.56662 13.3534 7.65882 13.3447 7.7502C13.3359 7.84157 13.3084 7.93016 13.2638 8.01039C13.2192 8.09063 13.1585 8.1608 13.0855 8.21649L9.08555 11.4365C8.96216 11.5202 8.81428 11.5601 8.66555 11.5498Z" fill="#120309"/>
</svg>
