<svg width="19" height="18" viewBox="0 0 19 18" fill="none" xmlns="http://www.w3.org/2000/svg">
<path d="M14.3976 11.1775C14.2947 11.2778 14.2177 11.4017 14.1733 11.5385C14.1288 11.6752 14.1183 11.8207 14.1426 11.9625L14.9266 16.5315C14.972 16.6849 14.9674 16.8488 14.9135 16.9995C14.8595 17.1501 14.7591 17.2797 14.6266 17.3695C14.4623 17.4886 14.2646 17.553 14.0616 17.5535C13.9038 17.5541 13.7483 17.516 13.6086 17.4425L9.42162 15.1835C9.29439 15.1166 9.15283 15.0817 9.00912 15.0817C8.86541 15.0817 8.72385 15.1166 8.59662 15.1835L4.58062 17.4425C4.42116 17.5264 4.24142 17.564 4.06171 17.5511C3.88199 17.5382 3.70946 17.4753 3.56362 17.3695C3.41144 17.2915 3.28556 17.1704 3.20164 17.0214C3.11772 16.8724 3.07946 16.702 3.09162 16.5315L4.05162 11.8675C4.07593 11.7257 4.06541 11.5802 4.02099 11.4435C3.97657 11.3067 3.89957 11.1828 3.79662 11.0825L0.296621 8.33246C0.167398 8.2068 0.0759548 8.04745 0.0326531 7.87247C-0.0106486 7.6975 -0.00407764 7.51389 0.0516213 7.34246C0.107406 7.17109 0.210018 7.01875 0.347856 6.90265C0.485695 6.78654 0.653264 6.71131 0.831621 6.68546L5.37862 5.88546C5.52094 5.86483 5.65611 5.8099 5.77248 5.72541C5.88885 5.64092 5.98293 5.5294 6.04662 5.40046L8.13962 0.982465C8.21976 0.820723 8.3437 0.684731 8.49733 0.58997C8.65097 0.49521 8.82812 0.445487 9.00862 0.446463C9.1888 0.446349 9.36542 0.496683 9.51847 0.591765C9.67152 0.686848 9.79489 0.822881 9.87462 0.984464L11.8856 5.40246C11.9493 5.5314 12.0434 5.64292 12.1598 5.72741C12.2761 5.8119 12.4113 5.86683 12.5536 5.88746L17.1826 6.68746C17.3609 6.71326 17.5283 6.78849 17.666 6.90461C17.8037 7.02074 17.9061 7.17311 17.9616 7.34446C18.0171 7.51592 18.0235 7.69946 17.9802 7.87439C17.937 8.04931 17.8456 8.20866 17.7166 8.33446L14.3976 11.1775Z" fill="#FEC210"/>
</svg>
