<svg xmlns="http://www.w3.org/2000/svg" width="76" height="67" fill="none" xmlns:v="https://vecta.io/nano"><path d="M63.217 43.171c.01 7.127-5.856 21.322-25.595 23.442C18.021 66.613.063 52.08.036 33.347S9.555 8.614 18.428 8.613c8.487 0 8.957 16.736 16.23 20.101 9.523 4.406 28.544 3.835 28.56 14.456z" fill="url(#B)"/><mask id="A" maskUnits="userSpaceOnUse" x="28.5" y="1.613" width="43" height="54" fill="#000"><path fill="#fff" d="M28.5 1.613h43v54h-43z"/><path d="M50 2.613c-11.304 0-20.5 9.196-20.5 20.5 0 7.045 3.572 13.27 9 16.962v13.038a1.5 1.5 0 0 0 2.115 1.368L50 50.258l9.385 4.223a1.5 1.5 0 0 0 1.43-.108 1.5 1.5 0 0 0 .685-1.26V40.075c5.428-3.692 9-9.917 9-16.962 0-11.304-9.196-20.5-20.5-20.5zm8.5 48.18l-7.885-3.548a1.5 1.5 0 0 0-1.231 0L41.5 50.793v-9.022c.754.344 1.528.639 2.316.888l.134.042.303.09.225.065.245.066.287.075.204.05.332.077.173.038.366.075.15.029.391.069.134.022.406.06.126.018.414.05.123.014.415.039.126.011.411.028.132.008.418.017.126.005.543.007.543-.007.126-.005.418-.017.132-.008.411-.028.126-.011.415-.039.123-.014.413-.05.126-.018.406-.06.135-.022.391-.069.15-.029.366-.075.173-.038.332-.077.204-.05.287-.075.245-.066.225-.065.303-.09.134-.042c.788-.249 1.562-.544 2.316-.888v9.022h0zm-2.789-11.138l-.18.061-.275.089-.322.097-.228.066-.428.114-.161.039-.422.097-.106.023c-.182.038-.365.073-.549.106l-.056.009a17.31 17.31 0 0 1-.497.078l-.113.016-.533.065-.02.002c-.187.019-.374.035-.561.049l-.122.008-.438.023-.149.006-.551.009c-.184 0-.368-.004-.551-.01l-.149-.006-.438-.023-.122-.008-.561-.049-.02-.002c-.178-.019-.356-.041-.533-.065l-.113-.016-.497-.078-.056-.009a17.45 17.45 0 0 1-.549-.106l-.106-.023-.422-.097-.16-.039-.428-.114-.228-.066-.322-.097-.275-.089-.18-.061C37.435 37.283 32.5 30.764 32.5 23.113c0-9.649 7.85-17.5 17.5-17.5s17.5 7.85 17.5 17.5c0 7.651-4.935 14.17-11.789 16.542z"/></mask><path d="M50 2.613c-11.304 0-20.5 9.196-20.5 20.5 0 7.045 3.572 13.27 9 16.962v13.038a1.5 1.5 0 0 0 2.115 1.368L50 50.258l9.385 4.223a1.5 1.5 0 0 0 1.43-.108 1.5 1.5 0 0 0 .685-1.26V40.075c5.428-3.692 9-9.917 9-16.962 0-11.304-9.196-20.5-20.5-20.5zm8.5 48.18l-7.885-3.548a1.5 1.5 0 0 0-1.231 0L41.5 50.793v-9.022c.754.344 1.528.639 2.316.888l.134.042.303.09.225.065.245.066.287.075.204.05.332.077.173.038.366.075.15.029.391.069.134.022.406.06.126.018.414.05.123.014.415.039.126.011.411.028.132.008.418.017.126.005.543.007.543-.007.126-.005.418-.017.132-.008.411-.028.126-.011.415-.039.123-.014.413-.05.126-.018.406-.06.135-.022.391-.069.15-.029.366-.075.173-.038.332-.077.204-.05.287-.075.245-.066.225-.065.303-.09.134-.042c.788-.249 1.562-.544 2.316-.888v9.022h0zm-2.789-11.138l-.18.061-.275.089-.322.097-.228.066-.428.114-.161.039-.422.097-.106.023c-.182.038-.365.073-.549.106l-.056.009a17.31 17.31 0 0 1-.497.078l-.113.016-.533.065-.02.002c-.187.019-.374.035-.561.049l-.122.008-.438.023-.149.006-.551.009c-.184 0-.368-.004-.551-.01l-.149-.006-.438-.023-.122-.008-.561-.049-.02-.002c-.178-.019-.356-.041-.533-.065l-.113-.016-.497-.078-.056-.009a17.45 17.45 0 0 1-.549-.106l-.106-.023-.422-.097-.16-.039-.428-.114-.228-.066-.322-.097-.275-.089-.18-.061C37.435 37.283 32.5 30.764 32.5 23.113c0-9.649 7.85-17.5 17.5-17.5s17.5 7.85 17.5 17.5c0 7.651-4.935 14.17-11.789 16.542z" fill="#fff"/><path d="M50 2.613c-11.304 0-20.5 9.196-20.5 20.5 0 7.045 3.572 13.27 9 16.962v13.038a1.5 1.5 0 0 0 2.115 1.368L50 50.258l9.385 4.223a1.5 1.5 0 0 0 1.43-.108 1.5 1.5 0 0 0 .685-1.26V40.075c5.428-3.692 9-9.917 9-16.962 0-11.304-9.196-20.5-20.5-20.5zm8.5 48.18l-7.885-3.548a1.5 1.5 0 0 0-1.231 0L41.5 50.793v-9.022c.754.344 1.528.639 2.316.888l.134.042.303.09.225.065.245.066.287.075.204.05.332.077.173.038.366.075.15.029.391.069.134.022.406.06.126.018.414.05.123.014.415.039.126.011.411.028.132.008.418.017.126.005.543.007.543-.007.126-.005.418-.017.132-.008.411-.028.126-.011.415-.039.123-.014.413-.05.126-.018.406-.06.135-.022.391-.069.15-.029.366-.075.173-.038.332-.077.204-.05.287-.075.245-.066.225-.065.303-.09.134-.042c.788-.249 1.562-.544 2.316-.888v9.022h0zm-2.789-11.138l-.18.061-.275.089-.322.097-.228.066-.428.114-.161.039-.422.097-.106.023c-.182.038-.365.073-.549.106l-.056.009a17.31 17.31 0 0 1-.497.078l-.113.016-.533.065-.02.002c-.187.019-.374.035-.561.049l-.122.008-.438.023-.149.006-.551.009c-.184 0-.368-.004-.551-.01l-.149-.006-.438-.023-.122-.008-.561-.049-.02-.002c-.178-.019-.356-.041-.533-.065l-.113-.016-.497-.078-.056-.009a17.45 17.45 0 0 1-.549-.106l-.106-.023-.422-.097-.16-.039-.428-.114-.228-.066-.322-.097-.275-.089-.18-.061C37.435 37.283 32.5 30.764 32.5 23.113c0-9.649 7.85-17.5 17.5-17.5s17.5 7.85 17.5 17.5c0 7.651-4.935 14.17-11.789 16.542z" stroke="#fff" stroke-width=".8" mask="url(#A)"/><path d="M51.444 10.213h0a1.7 1.7 0 0 0-2.884 0h0l-3.121 4.997-5.888.204a1.7 1.7 0 0 0-1.442 2.497l2.767 5.202-2.767 5.201a1.7 1.7 0 0 0 1.442 2.497l5.888.204 3.121 4.997.17-.106-.17.106a1.7 1.7 0 0 0 2.884 0h0l3.121-4.997 5.888-.204a1.7 1.7 0 0 0 1.442-2.497l-2.767-5.201 2.767-5.201a1.7 1.7 0 0 0-1.442-2.498l-5.888-.204-3.121-4.997zM46.461 27.65h0l-4.072-.141 1.914-3.597a1.7 1.7 0 0 0 0-1.597l-1.914-3.597 4.072-.141a1.7 1.7 0 0 0 1.383-.799l2.158-3.456 2.158 3.456a1.7 1.7 0 0 0 1.383.799h0l4.072.141-1.914 3.597h0a1.7 1.7 0 0 0 0 1.597l1.914 3.597-4.072.141a1.7 1.7 0 0 0-1.383.799l-2.158 3.456-2.158-3.456a1.7 1.7 0 0 0-1.383-.799z" fill="#fff" stroke="#fff" stroke-width=".4"/><defs><linearGradient id="B" x1="0" y1="8.613" x2="69.622" y2="67.939" gradientUnits="userSpaceOnUse"><stop stop-color="#f09642" stop-opacity=".78"/><stop offset="1" stop-color="#f0d542" stop-opacity=".79"/></linearGradient></defs></svg>