<svg id="vk" viewBox="0 0 17 17" xmlns="http://www.w3.org/2000/svg">
<g clip-path="url(#clip0_1_27)">
<path d="M8.31749 12.7776H9.33324C9.33324 12.7776 9.6403 12.7436 9.79649 12.5747C9.94099 12.4196 9.93568 12.1284 9.93568 12.1284C9.93568 12.1284 9.91549 10.7653 10.5487 10.5644C11.1724 10.3668 11.9736 11.8819 12.8225 12.4653C13.4642 12.9062 13.9519 12.8095 13.9519 12.8095L16.2225 12.7776C16.2225 12.7776 17.4104 12.7043 16.8472 11.7704C16.8016 11.6939 16.5189 11.0798 15.1589 9.8175C13.7352 8.49575 13.9264 8.71038 15.6413 6.42494C16.6857 5.03307 17.1033 4.18307 16.9726 3.81969C16.8483 3.47332 16.0801 3.56469 16.0801 3.56469L13.5259 3.57957C13.5259 3.57957 13.3367 3.55407 13.1954 3.63801C13.0584 3.72088 12.9702 3.91213 12.9702 3.91213C12.9702 3.91213 12.5654 4.98951 12.0256 5.90538C10.8877 7.83807 10.4319 7.94007 10.2459 7.82001C9.81349 7.54057 9.92186 6.69588 9.92186 6.09663C9.92186 4.22344 10.2056 3.44251 9.3683 3.24063C9.08993 3.17369 8.88593 3.12907 8.17511 3.12163C7.26349 3.11207 6.49105 3.12482 6.05436 3.33838C5.76324 3.48076 5.53905 3.79844 5.67611 3.81651C5.84505 3.83882 6.22755 3.91957 6.43049 4.19582C6.69293 4.55176 6.68336 5.35288 6.68336 5.35288C6.68336 5.35288 6.83424 7.55757 6.33168 7.83169C5.98636 8.01975 5.51355 7.63619 4.49886 5.88201C3.9793 4.98419 3.58617 3.99076 3.58617 3.99076C3.58617 3.99076 3.51074 3.80588 3.3758 3.70707C3.21218 3.58701 2.98267 3.54876 2.98267 3.54876L0.5538 3.56363C0.5538 3.56363 0.189362 3.57426 0.0554872 3.73257C-0.0635128 3.87388 0.0459247 4.16501 0.0459247 4.16501C0.0459247 4.16501 1.9478 8.61369 4.10043 10.8566C6.07561 12.9126 8.31749 12.7776 8.31749 12.7776Z"/>
</g>
<defs>
<clipPath id="clip0_1_27">
<rect width="17" height="17" fill="white"/>
</clipPath>
</defs>
</svg>
