<svg width="107" height="116" viewBox="0 0 107 116" fill="none" xmlns="http://www.w3.org/2000/svg">
<rect opacity="0.1" x="-0.000488281" width="107" height="107" rx="20" fill="white"/>
<g filter="url(#filter0_di_6366_9)">
<path fill-rule="evenodd" clip-rule="evenodd" d="M61.7806 33C59.5892 33 57.8128 34.7831 57.8128 36.9827C57.8128 39.1823 59.5892 40.9654 61.7806 40.9654H69.4849L54.8276 56.2326L47.5072 48.8849C46.7557 48.1306 45.7341 47.7104 44.6713 47.7185C43.6085 47.7266 42.5934 48.1624 41.8534 48.9281L25.1193 66.2442C23.5935 67.823 23.6318 70.3444 25.2047 71.8759C26.7777 73.4074 29.2897 73.369 30.8155 71.7901L44.7446 57.3767L52.0743 64.7338C52.8274 65.4897 53.8517 65.91 54.9167 65.9001C55.9818 65.8902 56.9981 65.451 57.7372 64.6811L75.0644 46.6329V53.9524C75.0644 56.152 76.8409 57.9351 79.0323 57.9351C81.2237 57.9351 83.0002 56.152 83.0002 53.9524V36.9827C83.0002 34.7831 81.2237 33 79.0323 33H61.7806Z" fill="url(#paint0_linear_6366_9)"/>
</g>
<defs>
<filter id="filter0_di_6366_9" x="0.161987" y="20.1644" width="106.676" height="95.0097" filterUnits="userSpaceOnUse" color-interpolation-filters="sRGB">
<feFlood flood-opacity="0" result="BackgroundImageFix"/>
<feColorMatrix in="SourceAlpha" type="matrix" values="0 0 0 0 0 0 0 0 0 0 0 0 0 0 0 0 0 0 127 0" result="hardAlpha"/>
<feOffset dy="18.3366"/>
<feGaussianBlur stdDeviation="11.9188"/>
<feColorMatrix type="matrix" values="0 0 0 0 0.679167 0 0 0 0 0.104705 0 0 0 0 0.104705 0 0 0 0.37 0"/>
<feBlend mode="normal" in2="BackgroundImageFix" result="effect1_dropShadow_6366_9"/>
<feBlend mode="normal" in="SourceGraphic" in2="effect1_dropShadow_6366_9" result="shape"/>
<feColorMatrix in="SourceAlpha" type="matrix" values="0 0 0 0 0 0 0 0 0 0 0 0 0 0 0 0 0 0 127 0" result="hardAlpha"/>
<feOffset dy="-18.3366"/>
<feGaussianBlur stdDeviation="6.4178"/>
<feComposite in2="hardAlpha" operator="arithmetic" k2="-1" k3="1"/>
<feColorMatrix type="matrix" values="0 0 0 0 0 0 0 0 0 0 0 0 0 0 0 0 0 0 0.2 0"/>
<feBlend mode="normal" in2="shape" result="effect2_innerShadow_6366_9"/>
</filter>
<linearGradient id="paint0_linear_6366_9" x1="53.4999" y1="33" x2="53.4999" y2="72.9999" gradientUnits="userSpaceOnUse">
<stop stop-color="#E75C5C"/>
<stop offset="1" stop-color="#E13600"/>
</linearGradient>
</defs>
</svg>
