<svg width="770" height="208" viewBox="0 0 770 208" fill="none" xmlns="http://www.w3.org/2000/svg">
<path fill-rule="evenodd" clip-rule="evenodd" d="M0 11.0646L32.0833 6.78339C64.1667 2.50219 128.333 -6.06022 192.5 6.78339C256.667 19.627 353.791 43.5 417.957 43.5C482.124 43.5 544.793 19.627 608.959 23.9082C673.126 28.1894 705.833 68.8609 737.917 88.1263L770 109.532V208H737.917C705.833 208 641.667 208 577.5 208C513.333 208 449.167 208 385 208C320.833 208 256.667 208 192.5 208C128.333 208 64.1667 208 32.0833 208H0V11.0646Z" fill="white"/>
</svg>
