<svg xmlns="http://www.w3.org/2000/svg" width="53" height="56" fill="none" xmlns:v="https://vecta.io/nano"><path d="M19.298 32.062c-.172-.023-1.345-2.398-1.345-2.398l-2.328-1.792-1.247 1.248-1.12 1.063a9.36 9.36 0 0 0-.858.977l-.128 2.283 3.093 1.46c0 0 4.105-2.818 3.933-2.841z" fill="#ffe0d1"/><path d="M23.991 23.067l-1.657-1.386c-.802-.671-1.975-.538-2.62.297s-.517 2.055.285 2.726l1.657 1.386 1.174.955 2.677-2.636-1.516-1.341z" fill="#fabc91"/><path d="M15.528 30.89c.263-.353.551-.69.862-1.006l.844-.822-1.514-1.191-1.283 1.31-1.152 1.117a9.76 9.76 0 0 0-.883 1.026l-.132 2.398 1.592.767a9.7 9.7 0 0 1 1.665-3.599z" fill="#faa875"/><g fill="#fabc91"><path d="M19.187 28.807l-1.713-1.347c-.829-.652-2.042-.523-2.709.288s-.535 1.997.295 2.649l1.713 1.347 2.214 1.919 2.384-3.042-2.184-1.814z"/><path d="M21.422 25.94l-1.626-1.368c-.787-.662-1.938-.531-2.571.293s-.508 2.029.28 2.692l1.626 1.368 2.073 1.843 2.236-3.177-2.017-1.65z"/></g><path d="M25.507 24.366l-1.518-1.363-1.102-.935-1.471 1.95a.39.39 0 0 1-.572.067l-.01-.008c-.803-.682-.931-1.922-.285-2.77l.046-.054a1.87 1.87 0 0 0-.964.751 2.08 2.08 0 0 0 .397 2.692l1.624 1.378 1.176.97.556-.555 2.124-2.123zm-2.068 3.301l-2.019-1.611-1.068-.876-1.331 1.706c-.159.204-.45.237-.649.074l-.149-.123a1.9 1.9 0 0 1-.499-2.274 1.87 1.87 0 0 0-.712.773c-.395.794-.158 1.767.523 2.326l1.593 1.307 2.074 1.798.632-.875 1.606-2.225z" fill="#faa875"/><path d="M26.299 34.841l-.694-.161c-.855-.198-1.459-.963-1.451-1.84a1.87 1.87 0 0 1 1.866-1.856l3.922-.015c.578-.002 1.141.179 1.609.517l4.939 3.555a4.5 4.5 0 0 1 1.312 1.482l1.844 3.354 6.546 5.261c.478.385.546 1.088.15 1.556l-7.275 8.605a1.09 1.09 0 0 1-1.518.146l-4.947-3.977-.27-.01a7.86 7.86 0 0 1-4.434-1.573l-3.098-2.33-5.223-4.014c0-.094 4.394-5.724 6.721-8.7z" fill="#fabc91"/><path d="M24.755 34.228l1.541-2.01-.672-.159c-.36-.085-.673-.275-.912-.534a1.87 1.87 0 0 0 .043 2.703z" fill="#f8d3aa"/><g fill="#faa875"><path d="M46.194 45.138l-.892-.717-6.634 7.997c-.371.447-1.024.511-1.471.144l-4.59-3.76a.78.78 0 0 0-.465-.176c-1.553-.058-3.053-.6-4.296-1.553l-3.002-2.301-3.924-3.018-1.342 1.787c0 .127 5.223 4.014 5.223 4.014l3.098 2.33a7.86 7.86 0 0 0 4.434 1.573l.27.011 4.947 3.977a1.09 1.09 0 0 0 1.518-.146l7.275-8.605c.396-.469.328-1.172-.15-1.556zm-14.683-1.535l.336.243c.981.71 2.346.527 3.104-.417l3.949-4.913-1.096-1.994a4.5 4.5 0 0 0-1.312-1.482l-4.939-3.555a2.73 2.73 0 0 0-1.609-.517l-3.922.015a1.87 1.87 0 0 0-1.866 1.856c-.008.877.596 1.642 1.451 1.84l.694.161-1.29 1.651.166.043.695.161 2.214.512a9.25 9.25 0 0 0 3.425 6.396zM21.26 30.775l-2.132-1.81-1.085-.872-1.191 1.496c-.174.218-.492.254-.71.079l-.207-.167c-.622-.5-.841-1.316-.615-2.034a1.87 1.87 0 0 0-.527.465c-.635.817-.463 2 .343 2.648l1.636 1.315 2.161 1.915.65-.848 1.678-2.189z"/><path d="M36.491 35.04l-4.939-3.555c-.468-.338-1.031-.519-1.609-.517l-3.922.015a1.87 1.87 0 0 0-1.866 1.856c-.008.877.596 1.642 1.451 1.84l.694.161-6.721 8.7c0 .127 5.223 4.014 5.223 4.014l1.112.836a8.29 8.29 0 0 0 .517-.583l10.186-12.674-.124-.095z"/></g><path d="M36.352 29.979a2.01 2.01 0 0 0-2.824.307c.299-.371.443-.816.443-1.257 0-.587-.257-1.17-.751-1.567a2.01 2.01 0 0 0-2.824.307c.299-.371.443-.815.443-1.257 0-.587-.257-1.169-.75-1.566a2.01 2.01 0 0 0-2.824.306 2.01 2.01 0 0 0-.307-2.823c-.371-.299-.815-.443-1.257-.443-.588 0-1.17.257-1.567.751l-5.898 7.338-2.66 3.335-3.111-2.102c-1.07 1.412-1.719 3.109-1.852 4.893L10.34 39.9l-5.233 6.51a.98.98 0 0 0 .126 1.355l9.193 7.883a.98.98 0 0 0 1.399-.13l4.747-5.907a.62.62 0 0 1 .393-.223c1.713-.242 3.269-1.126 4.353-2.475l11.342-14.111c.298-.371.443-.815.443-1.257 0-.588-.257-1.17-.751-1.567z" fill="#fabc91"/><path d="M8.386 47.033a.96.96 0 0 1-.123-1.329l5.111-6.382.269-3.627a9.04 9.04 0 0 1 .782-3.065l-1.957-1.323a9.24 9.24 0 0 0-1.852 4.893l-.276 3.7-5.233 6.51a.98.98 0 0 0 .126 1.355l9.193 7.883a.98.98 0 0 0 1.399-.13l.99-1.231-8.428-7.255zm24.279-17.091a4.61 4.61 0 0 0-2.713-.876l-3.938.015c-.999.004-1.94.394-2.649 1.099a3.75 3.75 0 0 0 1.811 6.354l.695.161 2.214.512a9.25 9.25 0 0 0 1.54 4.346l7.026-8.742-3.986-2.869z" fill="#faa875"/><path d="M37.803 36.523l1.357 2.468-3.874 4.979-2.05-1.421-.532-.428a7.37 7.37 0 0 1-2.751-5.574l-.019-.866-3.635-.84-.694-.161c-.855-.198-1.459-.963-1.451-1.84a1.87 1.87 0 0 1 1.866-1.856l3.922-.015c.578-.002 1.141.179 1.609.517l4.939 3.555a4.5 4.5 0 0 1 1.312 1.482z" fill="#fabc91"/><path d="M30.226.952C27.674.068 25.153.066 22.664.946c-.599.212-.876.905-.601 1.479l3.423 7.138a1.07 1.07 0 0 0 1.93 0l3.419-7.129c.277-.577-.006-1.273-.61-1.482z" fill="url(#A)"/><path d="M52.36 11.53c-1.347-2.329-3.212-3.958-5.597-4.885-.574-.223-1.206.133-1.355.753l-1.855 7.718c-.211.878.642 1.621 1.43 1.246l6.916-3.295c.56-.267.778-.987.46-1.537z" fill="url(#B)"/><path d="M.539 11.53C1.885 9.2 3.751 7.572 6.135 6.645c.574-.223 1.206.133 1.355.753l1.854 7.718c.211.878-.642 1.621-1.43 1.246L.998 13.067C.439 12.8.22 12.08.539 11.53z" fill="url(#C)"/><path d="M15.674 33.398l1.147-1.347-1.183-.87-1.133 1.331c-.267.313-.204.773.138 1.012a.78.78 0 0 0 1.031-.125z" fill="#faa875"/><defs><linearGradient id="A" x1="30.752" y1="9.416" x2="21.586" y2="-7.525" gradientUnits="userSpaceOnUse"><stop stop-color="#f09642"/><stop offset="1" stop-color="#f4e26e"/></linearGradient><linearGradient id="B" x1="44.19" y1="9.897" x2="49.766" y2="18.129" gradientUnits="userSpaceOnUse"><stop stop-color="#272671"/><stop offset="1" stop-color="#7bb3cb"/></linearGradient><linearGradient id="C" x1="1.06" y1="9.897" x2="6.635" y2="18.129" gradientUnits="userSpaceOnUse"><stop stop-color="#272671"/><stop offset="1" stop-color="#7bb3cb"/></linearGradient></defs></svg>