<svg width="36" height="36" viewBox="0 0 36 36" fill="none" xmlns="http://www.w3.org/2000/svg">
<g id="Group 24">
<ellipse id="Ellipse 23" cx="18" cy="18" rx="18" ry="18" transform="rotate(-90 18 18)" fill="#937E6E"/>
<path id="Ellipse 28" d="M18 0C20.3638 0 22.7044 0.465584 24.8883 1.37017C27.0722 2.27475 29.0565 3.60062 30.7279 5.27208C32.3994 6.94353 33.7252 8.92784 34.6298 11.1117C35.5344 13.2956 36 15.6362 36 18C36 20.3638 35.5344 22.7044 34.6298 24.8883C33.7252 27.0722 32.3994 29.0565 30.7279 30.7279C29.0565 32.3994 27.0722 33.7252 24.8883 34.6298C22.7044 35.5344 20.3638 36 18 36L18 18V0Z" fill="#847973"/>
</g>
</svg>
