<svg width="98" height="25" viewBox="0 0 98 25" fill="none" xmlns="http://www.w3.org/2000/svg">
<path d="M0 24.5786V0.404585H7.40876V18.8806H15.8808V24.5786H0Z" fill="#A7A5A5"/>
<path d="M43.4482 12.4241C43.4482 14.8517 42.9166 17.0263 41.8533 18.9481C40.79 20.8586 39.3037 22.3477 37.3943 23.4154C35.485 24.4718 33.3469 25 30.9803 25C28.6707 25 26.567 24.4886 24.6691 23.4659C22.7826 22.432 21.3134 20.9879 20.2616 19.1335C19.2097 17.2679 18.6838 15.1607 18.6838 12.8119C18.6838 10.3506 19.2154 8.13666 20.2787 6.16993C21.342 4.20319 22.8341 2.686 24.7548 1.61834C26.6756 0.539447 28.8594 0 31.3061 0C33.6614 0 35.7651 0.51697 37.6173 1.55091C39.4809 2.57361 40.9158 4.04023 41.9219 5.95078C42.9395 7.85008 43.4482 10.0079 43.4482 12.4241ZM35.5936 12.6264C35.5936 10.6372 35.2048 9.06945 34.4274 7.92313C33.6499 6.7768 32.5866 6.20364 31.2375 6.20364C29.7626 6.20364 28.6136 6.75433 27.7904 7.8557C26.9672 8.95707 26.5556 10.5136 26.5556 12.5253C26.5556 14.492 26.9615 16.0261 27.7732 17.1274C28.5964 18.2288 29.7112 18.7795 31.1175 18.7795C31.975 18.7795 32.7467 18.5323 33.4327 18.0378C34.1187 17.5433 34.6503 16.8352 35.0276 15.9137C35.4049 14.9921 35.5936 13.8964 35.5936 12.6264Z" fill="#A7A5A5"/>
<path d="M69.5408 22.9939C68.6147 23.5109 67.2313 23.9773 65.3905 24.3931C63.5497 24.7977 61.7947 25 60.1255 25C55.8151 25 52.4881 23.9436 50.1442 21.8307C47.8004 19.7067 46.6285 16.7341 46.6285 12.913C46.6285 10.3506 47.2173 8.07485 48.395 6.08564C49.584 4.09643 51.2533 2.58485 53.4027 1.55091C55.5522 0.51697 58.0846 0 61.0001 0C63.1381 0 65.4191 0.29782 67.8429 0.893459V7.24882C66.711 6.74309 65.6249 6.3947 64.5844 6.20364C63.544 6.00135 62.4064 5.9002 61.1716 5.9002C59.1365 5.9002 57.513 6.50146 56.3011 7.70398C55.1006 8.9065 54.5003 10.5586 54.5003 12.6601C54.5003 14.6718 55.0034 16.2452 56.0095 17.3803C57.0271 18.5154 58.4448 19.0829 60.2627 19.0829C61.1087 19.0829 61.7319 19.038 62.132 18.9481V15.4922H57.4158V9.97977H69.5408V22.9939Z" fill="#A7A5A5"/>
<path d="M98 12.4241C98 14.8517 97.4684 17.0263 96.4051 18.9481C95.3418 20.8586 93.8554 22.3477 91.9461 23.4154C90.0367 24.4718 87.8987 25 85.532 25C83.2225 25 81.1188 24.4886 79.2209 23.4659C77.3344 22.432 75.8652 20.9879 74.8133 19.1335C73.7615 17.2679 73.2355 15.1607 73.2355 12.8119C73.2355 10.3506 73.7672 8.13666 74.8305 6.16993C75.8938 4.20319 77.3858 2.686 79.3066 1.61834C81.2274 0.539447 83.4112 0 85.8579 0C88.2131 0 90.3168 0.51697 92.169 1.55091C94.0327 2.57361 95.4675 4.04023 96.4737 5.95078C97.4912 7.85008 98 10.0079 98 12.4241ZM90.1453 12.6264C90.1453 10.6372 89.7566 9.06945 88.9791 7.92313C88.2017 6.7768 87.1384 6.20364 85.7893 6.20364C84.3144 6.20364 83.1653 6.75433 82.3421 7.8557C81.5189 8.95707 81.1073 10.5136 81.1073 12.5253C81.1073 14.492 81.5132 16.0261 82.325 17.1274C83.1482 18.2288 84.2629 18.7795 85.6692 18.7795C86.5267 18.7795 87.2985 18.5323 87.9845 18.0378C88.6705 17.5433 89.2021 16.8352 89.5794 15.9137C89.9567 14.9921 90.1453 13.8964 90.1453 12.6264Z" fill="#A7A5A5"/>
</svg>
