<svg width="32" height="32" viewBox="0 0 32 32" fill="none" xmlns="http://www.w3.org/2000/svg">
<rect opacity="0.08" width="32" height="32" rx="4" fill="#6F99C6"/>
<path fill-rule="evenodd" clip-rule="evenodd" d="M18.3999 16C18.3999 15.5582 18.7581 15.2 19.1999 15.2C20.5217 15.2 21.5999 16.2782 21.5999 17.6C21.5999 18.9218 20.5217 20 19.1999 20C18.7581 20 18.3999 19.6418 18.3999 19.2C18.3999 18.7582 18.7581 18.4 19.1999 18.4C19.6381 18.4 19.9999 18.0382 19.9999 17.6C19.9999 17.1618 19.6381 16.8 19.1999 16.8C18.7581 16.8 18.3999 16.4418 18.3999 16Z" fill="#6F99C6"/>
<path fill-rule="evenodd" clip-rule="evenodd" d="M23.4667 20.8V11.2C23.4667 10.6109 22.9891 10.1334 22.4 10.1334H9.60002C9.01091 10.1334 8.53335 10.6109 8.53335 11.2V20.8C8.53335 21.3891 9.01091 21.8667 9.60002 21.8667H22.4C22.9891 21.8667 23.4667 21.3891 23.4667 20.8ZM9.60002 8.53336C8.12726 8.53336 6.93335 9.72726 6.93335 11.2V20.8C6.93335 22.2728 8.12726 23.4667 9.60002 23.4667H22.4C23.8728 23.4667 25.0667 22.2728 25.0667 20.8V11.2C25.0667 9.72726 23.8728 8.53336 22.4 8.53336H9.60002Z" fill="black"/>
<path fill-rule="evenodd" clip-rule="evenodd" d="M7.46668 12.5334C7.46668 12.0915 7.82486 11.7334 8.26668 11.7334L21.0667 11.7334C21.5085 11.7334 21.8667 12.0915 21.8667 12.5334C21.8667 12.9752 21.5085 13.3334 21.0667 13.3334L8.26668 13.3334C7.82486 13.3334 7.46668 12.9752 7.46668 12.5334Z" fill="black"/>
</svg>
