<svg width="17" height="17" viewBox="0 0 17 17" fill="none" xmlns="http://www.w3.org/2000/svg">
<path fill-rule="evenodd" clip-rule="evenodd" d="M11.5354 1.41667H13.8492C14.8066 1.41667 15.5832 2.20001 15.5832 3.16638V5.49957C15.5832 6.46521 14.8066 7.24929 13.8492 7.24929H11.5354C10.5774 7.24929 9.80075 6.46521 9.80075 5.49957V3.16638C9.80075 2.20001 10.5774 1.41667 11.5354 1.41667ZM3.15116 1.41667H5.46427C6.42232 1.41667 7.19892 2.20001 7.19892 3.16638V5.49957C7.19892 6.46521 6.42232 7.24929 5.46427 7.24929H3.15116C2.19311 7.24929 1.4165 6.46521 1.4165 5.49957V3.16638C1.4165 2.20001 2.19311 1.41667 3.15116 1.41667ZM3.15116 9.75072H5.46427C6.42232 9.75072 7.19892 10.5341 7.19892 11.5012V13.8336C7.19892 14.8 6.42232 15.5833 5.46427 15.5833H3.15116C2.19311 15.5833 1.4165 14.8 1.4165 13.8336V11.5012C1.4165 10.5341 2.19311 9.75072 3.15116 9.75072ZM11.5354 9.75072H13.8492C14.8066 9.75072 15.5832 10.5341 15.5832 11.5012V13.8336C15.5832 14.8 14.8066 15.5833 13.8492 15.5833H11.5354C10.5774 15.5833 9.80075 14.8 9.80075 13.8336V11.5012C9.80075 10.5341 10.5774 9.75072 11.5354 9.75072Z" stroke="white" stroke-width="1.5" stroke-linecap="round" stroke-linejoin="round"/>
<rect x="2" y="2" width="5" height="5" fill="white"/>
</svg>
