<svg xmlns="http://www.w3.org/2000/svg" width="12" height="12" fill="none" xmlns:v="https://vecta.io/nano"><g clip-path="url(#A)" fill="#1c2d5a"><path d="M7.955 6.062L12 8.619V3.396L7.955 6.062zM0 3.396v5.223l4.045-2.557L0 3.396zm11.25-1.521H.75a.74.74 0 0 0-.727.638L6 6.452l5.978-3.938a.74.74 0 0 0-.728-.638zm-3.982 4.64l-1.061.699c-.063.041-.134.062-.206.062a.37.37 0 0 1-.206-.062l-1.061-.7-4.71 2.978a.74.74 0 0 0 .726.633h10.5a.74.74 0 0 0 .726-.633L7.268 6.515z"/></g><defs><clipPath id="A"><path fill="#fff" d="M0 0h12v12H0z"/></clipPath></defs></svg>