<svg xmlns="http://www.w3.org/2000/svg" width="14" height="14" fill="none" xmlns:v="https://vecta.io/nano"><g clip-path="url(#A)" fill="#1c2d5a"><path d="M10.21 0H3.79C1.7 0 0 1.7 0 3.79v6.421C0 12.3 1.7 14 3.79 14h6.421C12.3 14 14 12.3 14 10.21V3.79C14 1.7 12.3 0 10.21 0h0zm2.969 10.21c0 1.637-1.332 2.969-2.969 2.969H3.79c-1.637 0-2.969-1.332-2.969-2.969V3.79C.821 2.153 2.153.821 3.79.821h6.421c1.637 0 2.969 1.332 2.969 2.969v6.421zM7.001 3.172C4.89 3.172 3.173 4.889 3.173 7s1.717 3.828 3.828 3.828S10.829 9.111 10.829 7 9.112 3.172 7.001 3.172zm0 6.835A3.01 3.01 0 0 1 3.993 7 3.01 3.01 0 0 1 7 3.993 3.01 3.01 0 0 1 10.008 7a3.01 3.01 0 0 1-3.007 3.007zm3.92-8.195a1.13 1.13 0 1 0 0 2.262 1.13 1.13 0 1 0 0-2.262zm0 1.442a.31.31 0 1 1 0-.621.31.31 0 1 1 0 .621z"/></g><defs><clipPath id="A"><path fill="#fff" d="M0 0h14v14H0z"/></clipPath></defs></svg>