<svg xmlns="http://www.w3.org/2000/svg" width="14" height="14" fill="none" xmlns:v="https://vecta.io/nano"><path d="M.277 11.431c1.296.822 2.805 1.257 4.362 1.257 2.281 0 4.371-.876 5.886-2.467 1.45-1.522 2.247-3.568 2.207-5.644.55-.47 1.196-1.368 1.196-2.243a.44.44 0 0 0-.659-.377c-.516.303-.987.383-1.471.247-.989-.964-2.46-1.167-3.701-.498-1.084.583-1.686 1.651-1.632 2.818a7.25 7.25 0 0 1-4.702-2.568.44.44 0 0 0-.715.058C.479 2.985.485 4.113.979 5.023c-.235.041-.38.239-.38.453 0 .915.412 1.756 1.075 2.33-.124.119-.165.296-.112.453a3.14 3.14 0 0 0 1.777 1.904c-.898.429-1.891.572-2.774.463a.44.44 0 0 0-.288.803zm4.482-1.117a.44.44 0 0 0-.257-.784 2.28 2.28 0 0 1-1.792-.932c.198-.013.402-.043.597-.096a.44.44 0 0 0-.028-.851c-.818-.165-1.461-.761-1.702-1.528a3.02 3.02 0 0 0 .667.089.44.44 0 0 0 .249-.803c-.814-.536-1.161-1.483-.931-2.373 1.421 1.44 3.349 2.307 5.388 2.405.292.018.512-.257.447-.535-.277-1.201.394-2.043 1.114-2.431.713-.385 1.857-.505 2.735.415.261.275 1.14.285 1.588.181-.201.378-.509.737-.798.939-.123.086-.194.23-.186.38.094 1.916-.62 3.821-1.959 5.227-1.349 1.416-3.214 2.196-5.252 2.196-.811 0-1.606-.132-2.357-.386a5.91 5.91 0 0 0 2.476-1.112z" fill="#1c2d5a"/></svg>