<svg xmlns="http://www.w3.org/2000/svg" width="15" height="13" fill="none" xmlns:v="https://vecta.io/nano"><g clip-path="url(#A)"><path d="M7.591 10.563c2.17 0 1.396-1.191 1.564-1.533l.005-.651c.137.034.462.176 1.132.74 1.034.905 1.299 1.444 2.134 1.444h1.538c.488 0 .741-.175.868-.322s.243-.391.111-.779c-.343-.934-2.344-2.546-2.469-2.716a1.5 1.5 0 0 1 .064-.095h-.001c.395-.452 1.902-2.41 2.124-3.193.121-.362.011-.594-.102-.725-.171-.196-.444-.295-.812-.295h-1.538c-.515 0-.906.225-1.103.635-.331.729-1.259 2.227-1.956 2.757l.004-1.751c.023-.831.095-1.641-.901-1.641H5.837c-.624 0-1.221.59-.574 1.291.565.614.203.957.325 2.661-.475-.441-1.32-1.634-1.918-3.157-.167-.412-.421-.794-1.136-.794H.996c-.624 0-.996.295-.996.788 0 1.108 2.831 7.336 7.591 7.336zM2.534 3.251c.136 0 .149 0 .25.248C3.396 5.06 4.769 7.37 5.771 7.37c.753 0 .753-.669.753-.921V4.444a1.78 1.78 0 0 0-.503-1.194l2.193.002c.001.009-.012 2.218.006 2.753 0 .76.696 1.195 1.783.242 1.147-1.122 1.94-2.799 1.972-2.867.047-.097.088-.131.235-.131h1.538.006c-.142.574-1.53 2.386-1.994 2.949a.49.49 0 0 0-.021.027c-.204.289-.371.609.028 1.058h.001c.036.038.131.127.268.25.428.382 1.894 1.69 2.024 2.21-.086.012-.18.003-1.633.006-.309 0-.551-.401-1.474-1.208-.83-.7-1.369-.986-1.859-.986-.953 0-.883.67-.874 1.48l.004.656c-.056.019-.215.057-.631.057-3.966 0-6.548-5.455-6.648-6.498.034-.003.507-.001 1.591-.002z" fill="#1c2d5a"/></g><defs><clipPath id="A"><path fill="#fff" d="M0 0h15v13H0z"/></clipPath></defs></svg>