<svg viewBox="0 0 20 20" xmlns="http://www.w3.org/2000/svg">
<path d="M2.5 0C1.83696 0 1.20107 0.263392 0.732233 0.732233C0.263392 1.20107 0 1.83696 0 2.5L0 17.5C0 18.163 0.263392 18.7989 0.732233 19.2678C1.20107 19.7366 1.83696 20 2.5 20H17.5C18.163 20 18.7989 19.7366 19.2678 19.2678C19.7366 18.7989 20 18.163 20 17.5V2.5C20 1.83696 19.7366 1.20107 19.2678 0.732233C18.7989 0.263392 18.163 0 17.5 0L2.5 0ZM15.0375 6.2125C15.2111 6.38594 15.3098 6.62055 15.3124 6.86594C15.315 7.11134 15.2212 7.34796 15.0513 7.525L10.0612 13.7625C9.97549 13.8549 9.87198 13.929 9.75692 13.9805C9.64185 14.0319 9.51759 14.0596 9.39156 14.062C9.26554 14.0643 9.14034 14.0412 9.02345 13.994C8.90655 13.9469 8.80037 13.8766 8.71125 13.7875L5.405 10.48C5.31289 10.3942 5.23901 10.2907 5.18777 10.1757C5.13653 10.0607 5.10898 9.93653 5.10676 9.81065C5.10454 9.68478 5.1277 9.55974 5.17485 9.443C5.222 9.32627 5.29218 9.22023 5.3812 9.1312C5.47023 9.04218 5.57627 8.972 5.693 8.92485C5.80974 8.8777 5.93477 8.85454 6.06065 8.85676C6.18653 8.85898 6.31067 8.88653 6.42567 8.93777C6.54067 8.98901 6.64417 9.06289 6.73 9.155L9.3475 11.7712L13.6888 6.24C13.7743 6.14746 13.8777 6.07313 13.9927 6.02146C14.1077 5.96979 14.2319 5.94183 14.3579 5.93926C14.4839 5.9367 14.6092 5.95957 14.7262 6.00652C14.8431 6.05347 14.9495 6.12352 15.0387 6.2125H15.0375Z" fill="#1AA34F"/>
</svg>
