<svg width="11" height="13" viewBox="0 0 11 13" fill="none" xmlns="http://www.w3.org/2000/svg">
<path d="M6.75 8.125C8.81797 8.125 10.5 6.48502 10.5 4.46875C10.5 2.45248 8.81771 0.8125 6.75 0.8125H3C2.53984 0.8125 2.16667 1.17635 2.16667 1.625V6.5H1.33333C0.873177 6.5 0.5 6.86309 0.5 7.3125C0.5 7.76191 0.873177 8.125 1.33333 8.125H2.16667V8.9375H1.33333C0.873177 8.9375 0.5 9.30135 0.5 9.75C0.5 10.1987 0.873177 10.5625 1.33333 10.5625H2.16667V11.375C2.16667 11.8237 2.53984 12.1875 3 12.1875C3.46016 12.1875 3.83333 11.8237 3.83333 11.375V10.5625H8C8.46016 10.5625 8.83333 10.1987 8.83333 9.75C8.83333 9.30135 8.46016 8.9375 8 8.9375H3.83333V8.125H6.75ZM3.83333 2.4375H6.75C7.89844 2.4375 8.83333 3.34902 8.83333 4.46875C8.83333 5.58848 7.89844 6.5 6.75 6.5H3.83333V2.4375Z" fill="white"/>
</svg>
