<?xml version="1.0" encoding="utf-8"?><svg viewBox="0 0 25 25" xmlns="http://www.w3.org/2000/svg" xmlns:xlink="http://www.w3.org/1999/xlink"><style>:root>svg{display:none}:root>svg:target{display:block}</style><svg viewBox="0 0 21 21" id="basket" xmlns="http://www.w3.org/2000/svg"><g clip-path="url(#aclip0_71_2405)"><path d="M6.33325 15.8831C5.41658 15.8831 4.67492 16.6331 4.67492 17.5498C4.67492 18.4665 5.41658 19.2165 6.33325 19.2165C7.24992 19.2165 7.99992 18.4665 7.99992 17.5498C7.99992 16.6331 7.24992 15.8831 6.33325 15.8831ZM1.33325 2.5498V4.21647H2.99992L5.99992 10.5415L4.87492 12.5831C4.74159 12.8165 4.66659 13.0915 4.66659 13.3831C4.66659 14.2998 5.41658 15.0498 6.33325 15.0498H16.3333V13.3831H6.68325C6.56659 13.3831 6.47492 13.2915 6.47492 13.1748L6.49992 13.0748L7.24992 11.7165H13.4583C14.0833 11.7165 14.6333 11.3748 14.9166 10.8581L17.8999 5.4498C17.9666 5.33314 17.9999 5.19147 17.9999 5.0498C17.9999 4.59147 17.6249 4.21647 17.1666 4.21647H4.84159L4.05825 2.5498H1.33325ZM14.6666 15.8831C13.7499 15.8831 13.0083 16.6331 13.0083 17.5498C13.0083 18.4665 13.7499 19.2165 14.6666 19.2165C15.5833 19.2165 16.3333 18.4665 16.3333 17.5498C16.3333 16.6331 15.5833 15.8831 14.6666 15.8831Z"/></g><defs><clipPath id="aclip0_71_2405"><rect width="20" height="20" transform="translate(0.5 0.883057)"/></clipPath></defs></svg><svg viewBox="0 0 25 25" id="location" xmlns="http://www.w3.org/2000/svg"><g clip-path="url(#bclip0_1402_385)"><path d="M12.5 2.44156C8.3 2.44156 4.5 5.66156 4.5 10.6416C4.5 13.9616 7.17 17.8916 12.5 22.4416C17.83 17.8916 20.5 13.9616 20.5 10.6416C20.5 5.66156 16.7 2.44156 12.5 2.44156ZM12.5 12.4416C11.4 12.4416 10.5 11.5416 10.5 10.4416C10.5 9.34156 11.4 8.44156 12.5 8.44156C13.6 8.44156 14.5 9.34156 14.5 10.4416C14.5 11.5416 13.6 12.4416 12.5 12.4416Z"/></g><defs><clipPath id="bclip0_1402_385"><rect width="24" height="24" transform="translate(0.5 0.441559)"/></clipPath></defs></svg><svg viewBox="0 0 21 21" id="phone" xmlns="http://www.w3.org/2000/svg"><g clip-path="url(#cclip0_71_107)"><path d="M17.1667 13.3581C16.125 13.3581 15.125 13.1914 14.1917 12.8831C13.9 12.7914 13.575 12.8581 13.3417 13.0831L11.5083 14.9164C9.15 13.7164 7.21667 11.7914 6.01667 9.42474L7.85 7.58307C8.08333 7.36641 8.15 7.04141 8.05833 6.74974C7.75 5.81641 7.58333 4.81641 7.58333 3.77474C7.58333 3.31641 7.20833 2.94141 6.75 2.94141H3.83333C3.375 2.94141 3 3.31641 3 3.77474C3 11.5997 9.34167 17.9414 17.1667 17.9414C17.625 17.9414 18 17.5664 18 17.1081V14.1914C18 13.7331 17.625 13.3581 17.1667 13.3581ZM16.3333 10.4414H18C18 6.29974 14.6417 2.94141 10.5 2.94141V4.60807C13.725 4.60807 16.3333 7.21641 16.3333 10.4414ZM13 10.4414H14.6667C14.6667 8.14141 12.8 6.27474 10.5 6.27474V7.94141C11.8833 7.94141 13 9.05807 13 10.4414Z"/></g><defs><clipPath id="cclip0_71_107"><rect width="20" height="20" transform="translate(0.5 0.441406)"/></clipPath></defs></svg><svg viewBox="0 0 19 20" id="question-icon" xmlns="http://www.w3.org/2000/svg"><g clip-path="url(#dclip0_177_6964)"><path d="M9.16814 0.833336C7.35514 0.833336 5.58286 1.37095 4.07541 2.3782C2.56796 3.38544 1.39304 4.81708 0.69924 6.49207C0.00543665 8.16706 -0.176094 10.0102 0.177604 11.7883C0.531302 13.5665 1.40434 15.1998 2.68632 16.4818C3.96831 17.7638 5.60165 18.6368 7.37981 18.9905C9.15797 19.3442 11.0011 19.1627 12.6761 18.4689C14.3511 17.7751 15.7827 16.6002 16.7899 15.0927C17.7972 13.5853 18.3348 11.813 18.3348 10C18.3319 7.56973 17.3652 5.23982 15.6468 3.52136C13.9283 1.80289 11.5984 0.836203 9.16814 0.833336ZM9.16814 17.5C7.68478 17.5 6.23473 17.0601 5.00136 16.236C3.76799 15.4119 2.8067 14.2406 2.23904 12.8701C1.67138 11.4997 1.52286 9.99168 1.81225 8.53683C2.10164 7.08197 2.81594 5.7456 3.86484 4.6967C4.91373 3.64781 6.2501 2.9335 7.70496 2.64411C9.15982 2.35472 10.6678 2.50325 12.0383 3.07091C13.4087 3.63856 14.58 4.59986 15.4042 5.83323C16.2283 7.06659 16.6681 8.51664 16.6681 10C16.6657 11.9884 15.8748 13.8946 14.4688 15.3006C13.0628 16.7066 11.1565 17.4976 9.16814 17.5ZM10.0015 13.75V15.4167H8.3348V13.75H10.0015ZM12.5015 7.91667C12.5024 8.41644 12.3904 8.90997 12.174 9.36045C11.9576 9.81093 11.6422 10.2067 11.2515 10.5183C10.6203 11.0075 10.1935 11.7138 10.054 12.5H8.36064C8.43432 11.8575 8.6359 11.2363 8.95349 10.673C9.27108 10.1097 9.69825 9.61562 10.2098 9.22C10.4151 9.0557 10.5786 8.84515 10.687 8.60557C10.7953 8.36599 10.8454 8.10417 10.8333 7.8415C10.8211 7.57884 10.7469 7.32278 10.6168 7.09427C10.4867 6.86575 10.3044 6.67125 10.0848 6.52667C9.84002 6.36667 9.55837 6.27196 9.26665 6.25154C8.97492 6.23112 8.68283 6.28567 8.41814 6.41C8.1358 6.54533 7.89886 6.75977 7.73612 7.02725C7.57339 7.29473 7.49187 7.60372 7.50147 7.91667C7.50147 8.13768 7.41367 8.34964 7.25739 8.50593C7.10111 8.66221 6.88915 8.75 6.66814 8.75C6.44712 8.75 6.23516 8.66221 6.07888 8.50593C5.9226 8.34964 5.8348 8.13768 5.8348 7.91667C5.8224 7.2762 5.99912 6.64629 6.34284 6.10573C6.68657 5.56517 7.18205 5.13795 7.7673 4.8775C8.2861 4.64565 8.85492 4.54817 9.42131 4.59404C9.9877 4.63992 10.5334 4.82768 11.0081 5.14C11.4668 5.44367 11.8433 5.85613 12.1038 6.34062C12.3644 6.82511 12.501 7.36656 12.5015 7.91667Z"/></g><defs><clipPath id="dclip0_177_6964"><rect width="18" height="19" transform="translate(0.0209961 0.5)"/></clipPath></defs></svg><svg viewBox="0 0 17 8" id="return-arrow" xmlns="http://www.w3.org/2000/svg"><path d="M0.146447 3.64645C-0.0488155 3.84171 -0.0488155 4.15829 0.146447 4.35355L3.32843 7.53553C3.52369 7.7308 3.84027 7.7308 4.03553 7.53553C4.2308 7.34027 4.2308 7.02369 4.03553 6.82843L1.20711 4L4.03553 1.17157C4.2308 0.976311 4.2308 0.659728 4.03553 0.464466C3.84027 0.269204 3.52369 0.269204 3.32843 0.464466L0.146447 3.64645ZM16.5 3.5L0.5 3.5V4.5L16.5 4.5V3.5Z"/></svg><svg viewBox="0 0 21 21" id="search" xmlns="http://www.w3.org/2000/svg"><path d="M9.66667 16.2747C13.3486 16.2747 16.3333 13.29 16.3333 9.60807C16.3333 5.92617 13.3486 2.94141 9.66667 2.94141C5.98477 2.94141 3 5.92617 3 9.60807C3 13.29 5.98477 16.2747 9.66667 16.2747Z" stroke-width="2" stroke-linecap="round" stroke-linejoin="round"/><path d="M18 17.9414L14.375 14.3164" stroke-width="2" stroke-linecap="square" stroke-linejoin="round"/></svg><svg viewBox="0 0 16 20" id="share-icon" xmlns="http://www.w3.org/2000/svg"><g clip-path="url(#gclip0_177_6972)"><path d="M1.3335 10V16.6667C1.3335 17.1087 1.50909 17.5326 1.82165 17.8452C2.13421 18.1577 2.55814 18.3333 3.00016 18.3333H13.0002C13.4422 18.3333 13.8661 18.1577 14.1787 17.8452C14.4912 17.5326 14.6668 17.1087 14.6668 16.6667V10" stroke-width="2" stroke-linecap="round" stroke-linejoin="round"/><path d="M11.3332 5L7.99984 1.66666L4.6665 5" stroke-width="2" stroke-linecap="round" stroke-linejoin="round"/><path d="M8 1.66666V12.5" stroke-width="2" stroke-linecap="round" stroke-linejoin="round"/></g><defs><clipPath id="gclip0_177_6972"><rect width="16" height="19" transform="translate(0 0.5)"/></clipPath></defs></svg><svg viewBox="0 0 21 18" id="telegram" xmlns="http://www.w3.org/2000/svg"><path d="M19.1646 0.71682L1.43461 7.55382C0.224606 8.03982 0.231607 8.71482 1.21261 9.01582L5.76461 10.4358L16.2966 3.79082C16.7946 3.48782 17.2496 3.65082 16.8756 3.98282L8.34261 11.6838H8.34061L8.34261 11.6848L8.02861 16.3768C8.48861 16.3768 8.69161 16.1658 8.94961 15.9168L11.1606 13.7668L15.7596 17.1638C16.6076 17.6308 17.2166 17.3908 17.4276 16.3788L20.4466 2.15082C20.7556 0.91182 19.9736 0.35082 19.1646 0.71682Z"/></svg><svg viewBox="0 0 21 14" id="video-icon" xmlns="http://www.w3.org/2000/svg"><g clip-path="url(#iclip0_177_6959)"><path d="M19.2718 2.83334L13.4385 7L19.2718 11.1667V2.83334Z" stroke-width="2" stroke-linecap="round" stroke-linejoin="round"/><path d="M11.7718 1.16666H2.60514C1.68467 1.16666 0.938477 1.91286 0.938477 2.83333V11.1667C0.938477 12.0871 1.68467 12.8333 2.60514 12.8333H11.7718C12.6923 12.8333 13.4385 12.0871 13.4385 11.1667V2.83333C13.4385 1.91286 12.6923 1.16666 11.7718 1.16666Z" stroke-width="2" stroke-linecap="round" stroke-linejoin="round"/></g><defs><clipPath id="iclip0_177_6959"><rect width="20" height="13" transform="translate(0.0209961 0.5)"/></clipPath></defs></svg><svg viewBox="0 0 21 12" id="vk" xmlns="http://www.w3.org/2000/svg"><path d="M20.079 0.854828C20.219 0.389828 20.079 0.0488281 19.417 0.0488281H17.224C16.666 0.0488281 16.411 0.343829 16.271 0.667829C16.271 0.667829 15.156 3.38683 13.576 5.14983C13.066 5.66283 12.833 5.82483 12.555 5.82483C12.416 5.82483 12.214 5.66283 12.214 5.19783V0.854828C12.214 0.296828 12.053 0.0488281 11.588 0.0488281H8.142C7.794 0.0488281 7.584 0.306828 7.584 0.552828C7.584 1.08083 8.374 1.20283 8.455 2.69083V5.91883C8.455 6.62583 8.328 6.75483 8.048 6.75483C7.305 6.75483 5.497 4.02583 4.424 0.901828C4.215 0.294828 4.004 0.0498285 3.444 0.0498285H1.252C0.625 0.0498285 0.5 0.344828 0.5 0.668828C0.5 1.25083 1.243 4.13083 3.961 7.93983C5.773 10.5408 8.324 11.9508 10.648 11.9508C12.041 11.9508 12.213 11.6378 12.213 11.0978V9.13183C12.213 8.50583 12.346 8.37983 12.787 8.37983C13.111 8.37983 13.669 8.54383 14.97 9.79683C16.456 11.2828 16.702 11.9498 17.537 11.9498H19.729C20.355 11.9498 20.668 11.6368 20.488 11.0188C20.291 10.4038 19.581 9.50883 18.639 8.44983C18.127 7.84583 17.362 7.19583 17.129 6.87083C16.804 6.45183 16.898 6.26683 17.129 5.89483C17.13 5.89583 19.801 2.13383 20.079 0.854828V0.854828Z"/></svg><svg viewBox="0 0 21 20" id="whatsapp" xmlns="http://www.w3.org/2000/svg"><path d="M18.6597 4.84024C15.7797 0.400244 9.89974 -0.919756 5.33974 1.84024C0.899735 4.60024 -0.540264 10.6002 2.33974 15.0402L2.57974 15.4002L1.61974 19.0002L5.21974 18.0402L5.57974 18.2802C7.13974 19.1202 8.81974 19.6002 10.4997 19.6002C12.2997 19.6002 14.0997 19.1202 15.6597 18.1602C20.0997 15.2802 21.4197 9.40024 18.6597 4.84024ZM16.1397 14.0802C15.6597 14.8002 15.0597 15.2802 14.2197 15.4002C13.7397 15.4002 13.1397 15.6402 10.7397 14.6802C8.69974 13.7202 7.01974 12.1602 5.81974 10.3602C5.09974 9.52024 4.73974 8.44024 4.61974 7.36024C4.61974 6.40024 4.97974 5.56024 5.57974 4.96024C5.81974 4.72024 6.05974 4.60024 6.29974 4.60024H6.89974C7.13974 4.60024 7.37974 4.60024 7.49974 5.08024C7.73974 5.68024 8.33974 7.12024 8.33974 7.24024C8.45974 7.36024 8.45974 7.60024 8.33974 7.72024C8.45974 7.96025 8.33974 8.20024 8.21974 8.32024C8.09974 8.44024 7.97974 8.68024 7.85974 8.80024C7.61974 8.92024 7.49974 9.16024 7.61974 9.40024C8.09974 10.1202 8.69974 10.8402 9.29974 11.4402C10.0197 12.0402 10.7397 12.5202 11.5797 12.8802C11.8197 13.0002 12.0597 13.0002 12.1797 12.7602C12.2997 12.5202 12.8997 11.9202 13.1397 11.6802C13.3797 11.4402 13.4997 11.4402 13.7397 11.5602L15.6597 12.5202C15.8997 12.6402 16.1397 12.7602 16.2597 12.8802C16.3797 13.2402 16.3797 13.7202 16.1397 14.0802Z"/></svg></svg>