<svg width="196" height="31" fill="none" xmlns="http://www.w3.org/2000/svg"><path d="M1 29.99L11.175 3l10.853 26.99M29.49 3v26.99h13.566m4.748 0L57.98 3l10.853 26.99m4.748-6.073c1.357 7.422 15.602 8.771 16.959 0 .678-4.386-2.035-6.073-9.497-8.097C72.224 13.796 74.259 3 81.72 3c3.7 0 6.05.963 8.819 4.723M93.93 3h9.836m9.835 0h-9.835m0 0l.193 26.99m55.768-12.146c11.532 0 9.497-14.844 0-14.844h-8.818v14.844m8.818 0h-8.818m8.818 0l8.818 12.145m-17.636-12.145V29.99m22.385 0L183.791 3 195 29.99M129.648 3c17.191 0 17.869 26.99 0 26.99S111.566 3 129.648 3z" stroke="#000" stroke-width="2"/></svg>