<svg width="49" height="49" viewBox="0 0 49 49" fill="none" xmlns="http://www.w3.org/2000/svg">
<g clip-path="url(#clip0_75_7097)">
<path d="M1.25 48.1334H5H44H47.75V20.4959L1.25 12.7334V48.1334ZM6.5 46.6334V44.3834H42.5V46.6334H6.5ZM42.5 27.8834H6.5V25.6334H42.5V27.8834ZM6.5 29.3834H42.5V31.6334H6.5V29.3834ZM6.5 33.1334H42.5V35.3834H6.5V33.1334ZM6.5 36.8834H42.5V39.1334H6.5V36.8834ZM6.5 40.6334H42.5V42.8834H6.5V40.6334ZM2.75 14.5334L46.25 21.7709V46.6334H44V24.1334H5V46.6334H2.75V14.5334Z" fill="white"/>
</g>
<defs>
<clipPath id="clip0_75_7097">
<rect width="48" height="48" fill="white" transform="translate(0.5 0.883301)"/>
</clipPath>
</defs>
</svg>
