<svg width="49" height="49" viewBox="0 0 49 49" fill="none" xmlns="http://www.w3.org/2000/svg">
<path d="M44.36 13.7233L24.86 3.22325C24.7515 3.16547 24.6304 3.13525 24.5075 3.13525C24.3846 3.13525 24.2635 3.16547 24.155 3.22325L4.655 13.7233C4.53384 13.786 4.4321 13.8806 4.36073 13.9969C4.28937 14.1132 4.25108 14.2468 4.25 14.3833V35.3833C4.25036 35.5189 4.28752 35.652 4.35752 35.7682C4.42752 35.8844 4.52774 35.9795 4.6475 36.0433L24.1475 46.5433C24.256 46.601 24.3771 46.6313 24.5 46.6313C24.6229 46.6313 24.744 46.601 24.8525 46.5433L44.3525 36.0433C44.4723 35.9795 44.5725 35.8844 44.6425 35.7682C44.7125 35.652 44.7496 35.5189 44.75 35.3833V14.3833C44.7504 14.2483 44.7143 14.1158 44.6457 13.9997C44.5771 13.8835 44.4784 13.788 44.36 13.7233ZM24.5 4.73825L42.425 14.3833L37.175 17.2108L19.8725 7.22825L24.5 4.73825ZM6.575 14.3833L12.2225 11.3833L29.5175 21.3283L24.5 24.0283L6.575 14.3833ZM18.32 8.06075L35.6225 18.0433L31.07 20.4958L13.775 10.5058L18.32 8.06075ZM32.0675 21.6583L36.1475 19.4683V25.0633L34.5725 23.5033C34.485 23.4163 34.3774 23.3523 34.2592 23.3169C34.1411 23.2815 34.016 23.2758 33.8951 23.3002C33.7742 23.3247 33.6612 23.3786 33.5661 23.4572C33.471 23.5358 33.3968 23.6366 33.35 23.7508L32.0675 26.8408V21.6583ZM5.75 15.6358L23.75 25.3333V44.6308L5.75 34.9333V15.6358ZM25.25 44.6308V25.3333L30.5675 22.4683V30.6133C30.5762 30.7812 30.6411 30.9413 30.7517 31.068C30.8623 31.1946 31.0123 31.2804 31.1776 31.3115C31.3428 31.3427 31.5138 31.3174 31.6629 31.2397C31.8121 31.162 31.9308 31.0365 32 30.8833L34.295 25.3408L36.35 27.3808C36.4549 27.4865 36.5889 27.5587 36.735 27.588C36.8811 27.6173 37.0325 27.6024 37.1701 27.5453C37.3077 27.4882 37.4251 27.3913 37.5075 27.2672C37.5898 27.1431 37.6334 26.9972 37.6325 26.8483V18.6583L43.2425 15.6583V34.9333L25.25 44.6308Z" fill="white"/>
</svg>
