<svg width="18" height="24" viewBox="0 0 18 24" fill="none" xmlns="http://www.w3.org/2000/svg">
<g clip-path="url(#clip0_151_257)">
<path d="M17.1613 14.7508C16.9245 13.352 16.3875 12.0744 15.8534 10.9151C14.248 7.37679 12.315 4.16336 10.4123 1.18955L10.1755 0.773758C9.84784 0.267091 9.46233 0 9.01627 0C8.36093 0 7.94515 0.594758 7.82672 0.773758C7.82672 0.773758 7.82672 0.773758 7.82672 0.804061L7.41093 1.45939C6.66748 2.64894 5.89372 3.89903 5.15027 5.14639C3.99102 7.1097 2.53439 9.72558 1.46327 12.5204C1.1053 13.4429 0.780387 14.3653 0.750084 15.3758C0.63169 17.9917 1.58166 20.1946 3.54493 21.9183C5.06214 23.2565 6.99515 24 8.98596 24C11.8992 24 14.5481 22.5131 16.0626 19.9853C17.0732 18.3194 17.4587 16.5351 17.1613 14.7508ZM15.1099 19.4208C13.8019 21.6209 11.511 22.8986 8.98321 22.8986C7.25948 22.8986 5.5633 22.2735 4.25536 21.1143C2.55917 19.6274 1.7276 17.6944 1.81572 15.4337C1.84602 14.6021 2.11311 13.7981 2.47105 12.9362C3.5119 10.1992 4.93824 7.64388 6.06996 5.71088C6.78315 4.49106 7.55687 3.2437 8.33063 2.05415L8.71612 1.42909C8.71612 1.39879 8.74642 1.39879 8.74642 1.36852C8.80699 1.28039 8.92539 1.1317 8.98324 1.10142C8.98324 1.10142 9.07136 1.13173 9.22005 1.36852L9.45687 1.754C11.3018 4.66727 13.2348 7.85036 14.8098 11.3309C15.3164 12.4598 15.8203 13.6494 16.0296 14.8995C16.3297 16.447 16.002 17.9615 15.1099 19.4208ZM9.51742 20.0734C9.51742 20.3708 9.2806 20.6076 8.98324 20.6076C6.27648 20.6076 4.10669 18.4075 4.10669 15.7311C4.10669 15.4337 4.34351 15.1969 4.64087 15.1969C4.93827 15.1969 5.17505 15.4337 5.17505 15.7311C5.20533 17.8128 6.90154 19.5089 8.98321 19.5089C9.2806 19.5089 9.51742 19.776 9.51742 20.0734Z" fill="#1AA34F"/>
</g>
<defs>
<clipPath id="clip0_151_257">
<rect width="18" height="24" fill="white"/>
</clipPath>
</defs>
</svg>
