<svg width="49" height="49" viewBox="0 0 49 49" fill="none" xmlns="http://www.w3.org/2000/svg">
<g clip-path="url(#clip0_75_7127)">
<path d="M1.25 1.6333V48.1333H2.075H2.375H32.75V37.2583H12.125V1.6333H1.25ZM10.625 3.1333V37.7083L2.75 45.5833V40.6333H5.75V39.1333H2.75V36.8833H5.75V35.3833H2.75V33.1333H5.75V31.6333H2.75V29.3833H5.75V27.8833H2.75V25.6333H5.75V24.1333H2.75V21.8833H5.75V20.3833H2.75V18.1333H5.75V16.6333H2.75V14.3833H5.75V12.8833H2.75V10.6333H5.75V9.1333H2.75V6.8833H5.75V5.3833H2.75V3.1333H10.625ZM31.25 46.6333H3.8L11.675 38.7583H31.25V46.6333Z" fill="white"/>
</g>
<defs>
<clipPath id="clip0_75_7127">
<rect width="48" height="48" fill="white" transform="translate(0.5 0.883301)"/>
</clipPath>
</defs>
</svg>
