<svg xmlns="http://www.w3.org/2000/svg" xmlns:xlink="http://www.w3.org/1999/xlink" width="101" height="78" fill="none" xmlns:v="https://vecta.io/nano"><path d="M11.91 23.936c-.925-9.78 27.655-17.208 40.796-13.581 19.309 5.983 43.262 30.843 37.48 52.196-1.985 7.33-10.74 13.692-22.669 10.496-11.411-3.058-17.914-20.566-26.647-27.02-11.435-8.451-27.534-7.017-28.96-22.091z" fill="#f7d880"/><mask id="A" maskUnits="userSpaceOnUse" x="6" y="5" width="54" height="50" fill="#000"><path fill="#fff" d="M6 5h54v50H6z"/><path d="M54.667 11.2h-4.333V9.467c0-.919-.365-1.801-1.015-2.451S47.786 6 46.867 6s-1.801.365-2.451 1.015S43.4 8.547 43.4 9.467V11.2h-6.933V9.467c0-.919-.365-1.801-1.015-2.451S33.919 6 33 6s-1.801.365-2.451 1.015-1.015 1.532-1.015 2.451V11.2H22.6V9.467c0-.919-.365-1.801-1.015-2.451S20.053 6 19.133 6s-1.801.365-2.451 1.015-1.015 1.532-1.015 2.451V11.2h-4.333c-1.149 0-2.251.457-3.064 1.269S7 14.384 7 15.533V50.2c0 1.149.457 2.252 1.269 3.064s1.915 1.269 3.064 1.269H35.6c.23 0 .45-.091.613-.254s.254-.383.254-.613-.091-.45-.254-.613-.383-.254-.613-.254H11.333a2.61 2.61 0 0 1-2.6-2.6V23.333h48.533v14.733c0 .23.091.45.254.613s.383.254.613.254.45-.091.613-.254.254-.383.254-.613V15.533c0-1.149-.456-2.251-1.269-3.064S55.816 11.2 54.667 11.2zm-9.533-1.733c0-.46.183-.901.508-1.226s.766-.508 1.226-.508.901.183 1.226.508.508.766.508 1.226v5.2c0 .46-.183.901-.508 1.226s-.766.508-1.226.508-.901-.183-1.226-.508-.508-.766-.508-1.226v-5.2zm-13.867 0c0-.46.183-.901.508-1.226s.766-.508 1.226-.508.901.183 1.226.508.508.766.508 1.226v5.2c0 .46-.183.901-.508 1.226S33.46 16.4 33 16.4s-.901-.183-1.226-.508-.508-.766-.508-1.226v-5.2zm-13.867 0c0-.46.183-.901.508-1.226s.766-.508 1.226-.508.901.183 1.226.508.508.766.508 1.226v5.2c0 .46-.183.901-.508 1.226s-.766.508-1.226.508-.901-.183-1.226-.508-.508-.766-.508-1.226v-5.2zM57.267 21.6H8.733v-6.067a2.61 2.61 0 0 1 2.6-2.6h4.333v1.733c0 .919.365 1.801 1.015 2.451s1.532 1.015 2.451 1.015 1.801-.365 2.451-1.015 1.015-1.532 1.015-2.451v-1.733h6.933v1.733c0 .919.365 1.801 1.015 2.451s1.532 1.015 2.451 1.015 1.801-.365 2.451-1.015 1.015-1.532 1.015-2.451v-1.733H43.4v1.733c0 .919.365 1.801 1.015 2.451s1.532 1.015 2.451 1.015 1.801-.365 2.451-1.015 1.015-1.532 1.015-2.451v-1.733h4.333a2.61 2.61 0 0 1 2.6 2.6V21.6z"/></mask><path d="M54.667 11.2h-4.333V9.467c0-.919-.365-1.801-1.015-2.451S47.786 6 46.867 6s-1.801.365-2.451 1.015S43.4 8.547 43.4 9.467V11.2h-6.933V9.467c0-.919-.365-1.801-1.015-2.451S33.919 6 33 6s-1.801.365-2.451 1.015-1.015 1.532-1.015 2.451V11.2H22.6V9.467c0-.919-.365-1.801-1.015-2.451S20.053 6 19.133 6s-1.801.365-2.451 1.015-1.015 1.532-1.015 2.451V11.2h-4.333c-1.149 0-2.251.457-3.064 1.269S7 14.384 7 15.533V50.2c0 1.149.457 2.252 1.269 3.064s1.915 1.269 3.064 1.269H35.6c.23 0 .45-.091.613-.254s.254-.383.254-.613-.091-.45-.254-.613-.383-.254-.613-.254H11.333a2.61 2.61 0 0 1-2.6-2.6V23.333h48.533v14.733c0 .23.091.45.254.613s.383.254.613.254.45-.091.613-.254.254-.383.254-.613V15.533c0-1.149-.456-2.251-1.269-3.064S55.816 11.2 54.667 11.2zm-9.533-1.733c0-.46.183-.901.508-1.226s.766-.508 1.226-.508.901.183 1.226.508.508.766.508 1.226v5.2c0 .46-.183.901-.508 1.226s-.766.508-1.226.508-.901-.183-1.226-.508-.508-.766-.508-1.226v-5.2zm-13.867 0c0-.46.183-.901.508-1.226s.766-.508 1.226-.508.901.183 1.226.508.508.766.508 1.226v5.2c0 .46-.183.901-.508 1.226S33.46 16.4 33 16.4s-.901-.183-1.226-.508-.508-.766-.508-1.226v-5.2zm-13.867 0c0-.46.183-.901.508-1.226s.766-.508 1.226-.508.901.183 1.226.508.508.766.508 1.226v5.2c0 .46-.183.901-.508 1.226s-.766.508-1.226.508-.901-.183-1.226-.508-.508-.766-.508-1.226v-5.2zM57.267 21.6H8.733v-6.067a2.61 2.61 0 0 1 2.6-2.6h4.333v1.733c0 .919.365 1.801 1.015 2.451s1.532 1.015 2.451 1.015 1.801-.365 2.451-1.015 1.015-1.532 1.015-2.451v-1.733h6.933v1.733c0 .919.365 1.801 1.015 2.451s1.532 1.015 2.451 1.015 1.801-.365 2.451-1.015 1.015-1.532 1.015-2.451v-1.733H43.4v1.733c0 .919.365 1.801 1.015 2.451s1.532 1.015 2.451 1.015 1.801-.365 2.451-1.015 1.015-1.532 1.015-2.451v-1.733h4.333a2.61 2.61 0 0 1 2.6 2.6V21.6z" fill="#1c2d5a"/><path d="M54.667 11.2h-4.333V9.467c0-.919-.365-1.801-1.015-2.451S47.786 6 46.867 6s-1.801.365-2.451 1.015S43.4 8.547 43.4 9.467V11.2h-6.933V9.467c0-.919-.365-1.801-1.015-2.451S33.919 6 33 6s-1.801.365-2.451 1.015-1.015 1.532-1.015 2.451V11.2H22.6V9.467c0-.919-.365-1.801-1.015-2.451S20.053 6 19.133 6s-1.801.365-2.451 1.015-1.015 1.532-1.015 2.451V11.2h-4.333c-1.149 0-2.251.457-3.064 1.269S7 14.384 7 15.533V50.2c0 1.149.457 2.252 1.269 3.064s1.915 1.269 3.064 1.269H35.6c.23 0 .45-.091.613-.254s.254-.383.254-.613-.091-.45-.254-.613-.383-.254-.613-.254H11.333a2.61 2.61 0 0 1-2.6-2.6V23.333h48.533v14.733c0 .23.091.45.254.613s.383.254.613.254.45-.091.613-.254.254-.383.254-.613V15.533c0-1.149-.456-2.251-1.269-3.064S55.816 11.2 54.667 11.2zm-9.533-1.733c0-.46.183-.901.508-1.226s.766-.508 1.226-.508.901.183 1.226.508.508.766.508 1.226v5.2c0 .46-.183.901-.508 1.226s-.766.508-1.226.508-.901-.183-1.226-.508-.508-.766-.508-1.226v-5.2zm-13.867 0c0-.46.183-.901.508-1.226s.766-.508 1.226-.508.901.183 1.226.508.508.766.508 1.226v5.2c0 .46-.183.901-.508 1.226S33.46 16.4 33 16.4s-.901-.183-1.226-.508-.508-.766-.508-1.226v-5.2zm-13.867 0c0-.46.183-.901.508-1.226s.766-.508 1.226-.508.901.183 1.226.508.508.766.508 1.226v5.2c0 .46-.183.901-.508 1.226s-.766.508-1.226.508-.901-.183-1.226-.508-.508-.766-.508-1.226v-5.2zM57.267 21.6H8.733v-6.067a2.61 2.61 0 0 1 2.6-2.6h4.333v1.733c0 .919.365 1.801 1.015 2.451s1.532 1.015 2.451 1.015 1.801-.365 2.451-1.015 1.015-1.532 1.015-2.451v-1.733h6.933v1.733c0 .919.365 1.801 1.015 2.451s1.532 1.015 2.451 1.015 1.801-.365 2.451-1.015 1.015-1.532 1.015-2.451v-1.733H43.4v1.733c0 .919.365 1.801 1.015 2.451s1.532 1.015 2.451 1.015 1.801-.365 2.451-1.015 1.015-1.532 1.015-2.451v-1.733h4.333a2.61 2.61 0 0 1 2.6 2.6V21.6z" stroke="#1c2d5a" stroke-width=".8" mask="url(#A)"/><g fill="#1c2d5a" stroke="#1c2d5a" stroke-width=".4"><use xlink:href="#C"/><use xlink:href="#C" x="-10.403"/><path d="M50.333 33.934c.513 0 1.005-.204 1.367-.566s.566-.854.566-1.367v-2.6c0-.513-.204-1.005-.566-1.367s-.854-.566-1.367-.566h-3.467c-.513 0-1.005.204-1.367.566s-.566.854-.566 1.367v2.6c0 .513.204 1.005.566 1.367s.854.566 1.367.566h3.467zm-3.267-4.333h3.067v2.2h-3.067v-2.2z"/><use xlink:href="#C" y="7.798"/><use xlink:href="#C" x="-10.403" y="7.798"/><use xlink:href="#D"/><path d="M36.467 33.934h3.467c.513 0 1.005-.204 1.367-.566s.566-.854.566-1.367v-2.6c0-.513-.204-1.005-.566-1.367s-.854-.566-1.367-.566h-3.467c-.513 0-1.005.204-1.367.566s-.566.854-.566 1.367v2.6c0 .513.204 1.005.566 1.367s.854.566 1.367.566zm.2-4.333h3.067v2.2h-3.067v-2.2zm-2.133 10.198c0 .513.204 1.005.566 1.367s.854.566 1.367.566c.283 0 .554-.112.754-.312s.312-.471.312-.754-.112-.554-.312-.754a1.07 1.07 0 0 0-.554-.294v-2.219h3.267c.283 0 .554-.112.754-.312s.313-.471.313-.754-.112-.554-.312-.754-.471-.312-.754-.312h-3.467c-.513 0-1.005.204-1.367.566s-.566.854-.566 1.367v2.6z"/><use xlink:href="#D" x="-10.404"/><path d="M47.735 35.266h0a11.46 11.46 0 0 0-6.37 1.932c-1.885 1.26-3.355 3.051-4.223 5.146a11.46 11.46 0 0 0-.652 6.625 11.47 11.47 0 0 0 3.138 5.871c1.604 1.604 3.647 2.696 5.871 3.138a11.47 11.47 0 0 0 6.625-.653c2.095-.868 3.886-2.338 5.146-4.223s1.932-4.103 1.932-6.37h0a11.48 11.48 0 0 0-11.466-11.466zm0 20.8a9.33 9.33 0 0 1-8.622-5.762 9.34 9.34 0 0 1-.531-5.393c.36-1.811 1.249-3.473 2.554-4.779s2.968-2.194 4.779-2.554a9.34 9.34 0 0 1 5.393.531 9.33 9.33 0 0 1 5.762 8.623c-.003 2.474-.987 4.847-2.737 6.597s-4.122 2.734-6.597 2.737zm4.866-13.109h0l-.002.003L46 49.559l-2.922-2.923h0l-.003-.002c-.201-.194-.471-.302-.75-.299s-.547.115-.745.312a1.06 1.06 0 0 0-.312.745 1.07 1.07 0 0 0 .299.75h0l.002.002 3.676 3.677h0c.2.2.471.312.754.312s.554-.112.754-.312h0l7.354-7.354h0l.002-.002c.194-.201.302-.471.299-.75s-.115-.547-.312-.745a1.06 1.06 0 0 0-.745-.312 1.07 1.07 0 0 0-.75.299z"/></g><defs ><path id="C" d="M31.468 29.401c0-.513-.204-1.005-.566-1.367s-.854-.566-1.367-.566h-3.467c-.513 0-1.005.204-1.367.566s-.566.854-.566 1.367v2.6c0 .513.204 1.005.566 1.367s.854.566 1.367.566h3.467c.513 0 1.005-.204 1.367-.566s.566-.854.566-1.367v-2.6zm-5.2 2.4v-2.2h3.067v2.2h-3.067z"/><path id="D" d="M29.535 43.066h-3.467c-.513 0-1.005.204-1.367.566s-.566.854-.566 1.367v2.6c0 .513.204 1.005.566 1.367s.854.566 1.367.566h3.467c.513 0 1.005-.204 1.367-.566s.566-.854.566-1.367v-2.6c0-.513-.204-1.005-.566-1.367s-.854-.566-1.367-.566zm-3.267 4.333v-2.2h3.067v2.2h-3.067z"/></defs></svg>